<?xml version="1.0" encoding="UTF-8" standalone="no"?>
<!-- Created with Inkscape (http://www.inkscape.org/) -->

<svg
   width="111.68295mm"
   height="109.51518mm"
   viewBox="0 0 111.68295 109.51518"
   version="1.1"
   id="svg26281"
   xml:space="preserve"
   inkscape:version="1.2.2 (b0a8486541, 2022-12-01)"
   sodipodi:docname="graf-dark.svg"
   xmlns:inkscape="http://www.inkscape.org/namespaces/inkscape"
   xmlns:sodipodi="http://sodipodi.sourceforge.net/DTD/sodipodi-0.dtd"
   xmlns="http://www.w3.org/2000/svg"
   xmlns:svg="http://www.w3.org/2000/svg"><sodipodi:namedview
     id="namedview26283"
     pagecolor="#ffffff"
     bordercolor="#000000"
     borderopacity="0.25"
     inkscape:showpageshadow="2"
     inkscape:pageopacity="0.0"
     inkscape:pagecheckerboard="0"
     inkscape:deskcolor="#d1d1d1"
     inkscape:document-units="mm"
     showgrid="false"
     inkscape:zoom="1.4503086"
     inkscape:cx="230.64056"
     inkscape:cy="183.40924"
     inkscape:window-width="1920"
     inkscape:window-height="1011"
     inkscape:window-x="0"
     inkscape:window-y="0"
     inkscape:window-maximized="1"
     inkscape:current-layer="layer1" /><defs
     id="defs26278" /><g
     inkscape:label="Layer 1"
     inkscape:groupmode="layer"
     id="layer1"
     transform="translate(-25.844248,-62.243757)"><path
       id="path26466-0"
       style="fill:none;stroke:#ffffff;stroke-width:0.5"
       d="m 36.798613,112.31567 a 5.3521824,5.3521824 0 0 1 -5.352183,5.35218 5.3521824,5.3521824 0 0 1 -5.352182,-5.35218 5.3521824,5.3521824 0 0 1 5.352182,-5.35219 5.3521824,5.3521824 0 0 1 5.352183,5.35219 z" /><path
       id="path26466"
       style="fill:none;stroke:#ffffff;stroke-width:0.5"
       d="m 75.401606,67.84594 a 5.3521824,5.3521824 0 0 1 -5.352183,5.352182 5.3521824,5.3521824 0 0 1 -5.352182,-5.352182 5.3521824,5.3521824 0 0 1 5.352182,-5.352183 5.3521824,5.3521824 0 0 1 5.352183,5.352183 z" /><g
       aria-label="12"
       id="text28468"
       style="font-size:6.35px;font-family:'Inter Display';-inkscape-font-specification:'Inter Display';fill:none;stroke:#000000;stroke-width:0.499999"><path
         d="m 69.016927,65.573212 h -0.539502 l -1.153418,0.768945 v 0.570508 l 1.150317,-0.762744 h 0.0031 v 4.043164 h 0.539502 z"
         style="fill:#ffffff;stroke:none;stroke-width:0.5"
         id="path28810" /><path
         d="m 69.739363,70.193085 h 3.035474 v -0.496094 h -2.278931 v -0.0062 l 1.249536,-1.134815 c 0.679028,-0.617016 1.001489,-1.063501 1.001489,-1.658813 0,-0.821655 -0.610815,-1.398364 -1.475879,-1.398364 -0.914672,0 -1.513086,0.648022 -1.513086,1.568896 h 0.520899 c 0,-0.657324 0.362768,-1.072803 0.995288,-1.072803 0.586011,0 0.945679,0.353467 0.945679,0.923975 0,0.47439 -0.251148,0.768945 -0.837159,1.305347 l -1.64331,1.500683 z"
         style="fill:#ffffff;stroke:none;stroke-width:0.5"
         id="path28812" /></g><path
       id="path26466-64"
       style="fill:none;stroke:#ffffff;stroke-width:0.5"
       d="m 73.743677,166.15675 a 5.3521824,5.3521824 0 0 1 -5.352182,5.35219 5.3521824,5.3521824 0 0 1 -5.352183,-5.35219 5.3521824,5.3521824 0 0 1 5.352183,-5.35218 5.3521824,5.3521824 0 0 1 5.352182,5.35218 z" /><g
       aria-label="13"
       id="text28472"
       style="font-size:6.35px;font-family:'Inter Display';-inkscape-font-specification:'Inter Display';stroke-width:0.499999"><path
         d="m 67.24738,163.84682 h -0.539502 l -1.153418,0.76894 v 0.57051 l 1.150318,-0.76274 h 0.0031 v 4.04316 h 0.539502 z"
         style="stroke-width:0.5;fill:#ffffff"
         id="path28804" /><path
         d="m 69.62863,168.5411 c 0.917773,0 1.599902,-0.5674 1.599902,-1.37666 0,-0.5457 -0.384472,-0.97668 -0.973584,-1.0759 v -0.009 c 0.514698,-0.15813 0.830957,-0.5426 0.830957,-1.01079 0,-0.75344 -0.641821,-1.29605 -1.491382,-1.29605 -0.874365,0 -1.491381,0.58291 -1.491381,1.42007 h 0.539502 c 0,-0.58291 0.359668,-0.93017 0.948779,-0.93017 0.573608,0 0.948779,0.31626 0.948779,0.83715 0,0.45269 -0.403076,0.75035 -0.998389,0.75035 h -0.37207 v 0.49609 h 0.37207 c 0.679029,0 1.141016,0.32556 1.141016,0.81855 0,0.54261 -0.434082,0.88677 -1.066601,0.88677 -0.660425,0 -1.047998,-0.38137 -1.047998,-1.03559 h -0.564307 c 0,0.90227 0.669726,1.52548 1.624707,1.52548 z"
         style="stroke-width:0.5;fill:#ffffff"
         id="path28806" /></g><path
       id="path26466-4"
       style="fill:none;stroke:#ffffff;stroke-width:0.5"
       d="m 106.10156,75.44722 a 5.3521824,5.3521824 0 0 1 -5.35218,5.352182 5.3521824,5.3521824 0 0 1 -5.35218,-5.352182 5.3521824,5.3521824 0 0 1 5.35218,-5.352183 5.3521824,5.3521824 0 0 1 5.35218,5.352183 z" /><g
       aria-label="1"
       id="text28476"
       style="font-size:6.35px;font-family:'Inter Display';-inkscape-font-specification:'Inter Display';stroke-width:0.499999"><path
         d="m 101.59585,73.137283 h -0.53951 l -1.153415,0.768946 v 0.570507 l 1.150315,-0.762744 h 0.003 v 4.043164 h 0.53951 z"
         style="stroke-width:0.5;fill:#ffffff"
         id="path28800" /></g><path
       id="path26466-2"
       style="fill:none;stroke:#ffffff;stroke-width:0.5"
       d="m 90.094896,135.10049 a 5.3521824,5.3521824 0 0 1 -5.352182,5.35219 5.3521824,5.3521824 0 0 1 -5.352182,-5.35219 5.3521824,5.3521824 0 0 1 5.352182,-5.35218 5.3521824,5.3521824 0 0 1 5.352182,5.35218 z" /><g
       aria-label="2"
       id="text28480"
       style="font-size:6.35px;font-family:'Inter Display';-inkscape-font-specification:'Inter Display';stroke-width:0.499999"><path
         d="m 83.224976,137.44763 h 3.035473 v -0.49609 h -2.27893 v -0.006 l 1.249536,-1.13482 c 0.679028,-0.61701 1.001489,-1.0635 1.001489,-1.65881 0,-0.82166 -0.610816,-1.39837 -1.475879,-1.39837 -0.914673,0 -1.513086,0.64803 -1.513086,1.5689 h 0.520899 c 0,-0.65732 0.362768,-1.0728 0.995288,-1.0728 0.58601,0 0.945678,0.35347 0.945678,0.92397 0,0.47439 -0.251147,0.76895 -0.837158,1.30535 l -1.64331,1.50068 z"
         style="stroke-width:0.5;fill:#ffffff"
         id="path28796" /></g><path
       id="path26466-16"
       style="fill:none;stroke:#ffffff;stroke-width:0.5"
       d="m 137.2772,105.51935 a 5.3521824,5.3521824 0 0 1 -5.35218,5.35218 5.3521824,5.3521824 0 0 1 -5.35218,-5.35218 5.3521824,5.3521824 0 0 1 5.35218,-5.35218 5.3521824,5.3521824 0 0 1 5.35218,5.35218 z" /><g
       aria-label="3"
       id="text28484"
       style="font-size:6.35px;font-family:'Inter Display';-inkscape-font-specification:'Inter Display';stroke-width:0.499999"><path
         d="m 131.93742,107.90369 c 0.91778,0 1.59991,-0.56741 1.59991,-1.37666 0,-0.5457 -0.38448,-0.97668 -0.97359,-1.0759 v -0.009 c 0.5147,-0.15813 0.83096,-0.54261 0.83096,-1.0108 0,-0.75344 -0.64182,-1.29604 -1.49138,-1.29604 -0.87437,0 -1.49138,0.58291 -1.49138,1.42007 h 0.5395 c 0,-0.58291 0.35967,-0.93018 0.94878,-0.93018 0.57361,0 0.94878,0.31626 0.94878,0.83716 0,0.45269 -0.40308,0.75034 -0.99839,0.75034 h -0.37207 v 0.4961 h 0.37207 c 0.67903,0 1.14101,0.32556 1.14101,0.81855 0,0.5426 -0.43408,0.88677 -1.0666,0.88677 -0.66042,0 -1.048,-0.38137 -1.048,-1.0356 h -0.5643 c 0,0.90227 0.66972,1.52549 1.6247,1.52549 z"
         style="stroke-width:0.5;fill:#ffffff"
         id="path28792" /></g><path
       id="path26466-08"
       style="fill:none;stroke:#ffffff;stroke-width:0.5"
       d="m 107.08107,106.26831 a 5.3521824,5.3521824 0 0 1 -5.35218,5.35218 5.3521824,5.3521824 0 0 1 -5.352183,-5.35218 5.3521824,5.3521824 0 0 1 5.352183,-5.35218 5.3521824,5.3521824 0 0 1 5.35218,5.35218 z" /><g
       aria-label="4"
       id="text28488"
       style="font-size:6.35px;font-family:'Inter Display';-inkscape-font-specification:'Inter Display';stroke-width:0.499999"><path
         d="m 99.928999,107.46204 h 2.359551 v 1.11621 h 0.5333 v -1.11621 h 0.70693 v -0.4961 h -0.70693 v -3.00757 h -0.68213 l -2.210721,3.04478 z m 2.359551,-0.4961 h -1.72703 v -0.006 l 1.72082,-2.37505 h 0.006 z"
         style="stroke-width:0.5;fill:#ffffff"
         id="path28788" /></g><path
       id="path26466-19"
       style="fill:none;stroke:#ffffff;stroke-width:0.5"
       d="m 108.52984,165.61444 a 5.3521824,5.3521824 0 0 1 -5.35218,5.35218 5.3521824,5.3521824 0 0 1 -5.352184,-5.35218 5.3521824,5.3521824 0 0 1 5.352184,-5.35218 5.3521824,5.3521824 0 0 1 5.35218,5.35218 z" /><g
       aria-label="5"
       id="text28492"
       style="font-size:6.35px;font-family:'Inter Display';-inkscape-font-specification:'Inter Display';stroke-width:0.499999"><path
         d="m 103.20091,167.95538 c 0.92398,0 1.5441,-0.65112 1.5441,-1.5813 0,-0.91467 -0.58601,-1.56889 -1.43558,-1.56889 -0.43408,0 -0.79375,0.14883 -1.0852,0.46199 h -0.006 l 0.11162,-1.49759 h 2.16111 v -0.49609 h -2.66651 l -0.15503,2.6355 h 0.53641 c 0.14262,-0.39378 0.5271,-0.60152 1.03559,-0.60152 0.57361,0 0.96428,0.44959 0.96428,1.07281 0,0.62631 -0.40617,1.079 -1.00459,1.079 -0.5643,0 -0.98288,-0.38137 -1.03249,-0.90537 h -0.55811 c 0.0341,0.79995 0.70074,1.40146 1.5906,1.40146 z"
         style="stroke-width:0.5;fill:#ffffff"
         id="path28784" /></g><path
       id="path26466-6"
       style="fill:none;stroke:#ffffff;stroke-width:0.5"
       d="m 125.73265,136.78799 a 5.3521824,5.3521824 0 0 1 -5.35218,5.35219 5.3521824,5.3521824 0 0 1 -5.35218,-5.35219 5.3521824,5.3521824 0 0 1 5.35218,-5.35218 5.3521824,5.3521824 0 0 1 5.35218,5.35218 z" /><g
       aria-label="6"
       id="text28496"
       style="font-size:6.35px;font-family:'Inter Display';-inkscape-font-specification:'Inter Display';stroke-width:0.499999"><path
         d="m 120.41148,139.17234 c 0.90847,0 1.54409,-0.63872 1.54409,-1.55029 0,-0.87746 -0.61702,-1.53169 -1.45107,-1.53169 -0.4961,0 -0.94878,0.23255 -1.15962,0.58911 h -0.006 c 0,-1.03249 0.38138,-1.77973 1.18133,-1.77973 0.46819,0 0.76584,0.28525 0.85266,0.73174 h 0.5457 c -0.0868,-0.73484 -0.62942,-1.22784 -1.43247,-1.22784 -1.15962,0 -1.68052,1.0263 -1.68052,2.57969 0,1.39526 0.58291,2.18901 1.60611,2.18901 z m 0,-0.49609 c -0.55191,0 -0.99839,-0.46819 -0.99839,-1.048 0,-0.57671 0.45579,-1.04179 1.01699,-1.04179 0.55501,0 0.98599,0.45268 0.98599,1.03559 0,0.58601 -0.44649,1.0542 -1.00459,1.0542 z"
         style="stroke-width:0.5;fill:#ffffff"
         id="path28780" /></g><path
       id="path26466-8"
       style="fill:none;stroke:#ffffff;stroke-width:0.5"
       d="m 57.08959,137.06804 a 5.3521824,5.3521824 0 0 1 -5.352182,5.35218 5.3521824,5.3521824 0 0 1 -5.352183,-5.35218 5.3521824,5.3521824 0 0 1 5.352183,-5.35218 5.3521824,5.3521824 0 0 1 5.352182,5.35218 z" /><g
       aria-label="7"
       id="text28500"
       style="font-size:6.35px;font-family:'Inter Display';-inkscape-font-specification:'Inter Display';stroke-width:0.499999"><path
         d="M 50.574689,139.37798 H 51.1607 l 2.058789,-4.09278 v -0.5271 h -2.96416 v 0.4961 h 2.402954 v 0.003 z"
         style="stroke-width:0.5;fill:#ffffff"
         id="path28776" /></g><path
       id="path26466-17"
       style="fill:none;stroke:#ffffff;stroke-width:0.5"
       d="m 72.526514,104.23911 a 5.3521824,5.3521824 0 0 1 -5.352182,5.35219 5.3521824,5.3521824 0 0 1 -5.352183,-5.35219 5.3521824,5.3521824 0 0 1 5.352183,-5.35218 5.3521824,5.3521824 0 0 1 5.352182,5.35218 z" /><g
       aria-label="8"
       id="text28504"
       style="font-size:6.35px;font-family:'Inter Display';-inkscape-font-specification:'Inter Display';stroke-width:0.499999"><path
         d="m 67.174335,106.62346 c 0.914673,0 1.568896,-0.5426 1.568896,-1.30224 0,-0.60772 -0.427881,-1.11001 -0.982886,-1.18753 0.468189,-0.0899 0.809253,-0.49919 0.809253,-1.03869 0,-0.71314 -0.595312,-1.24024 -1.395263,-1.24024 -0.806153,0 -1.401465,0.5271 -1.401465,1.24024 0,0.5426 0.337964,0.94878 0.815454,1.03869 -0.558106,0.0744 -0.982886,0.57361 -0.982886,1.18753 0,0.75964 0.651123,1.30224 1.568897,1.30224 z m 0,-0.49609 c -0.620117,0 -1.023194,-0.32866 -1.023194,-0.83096 0,-0.5178 0.427881,-0.89297 1.023194,-0.89297 0.592212,0 1.016992,0.37517 1.016992,0.89297 0,0.5054 -0.399976,0.83096 -1.016992,0.83096 z m 0,-2.20142 c -0.511597,0 -0.861963,-0.32246 -0.861963,-0.79375 0,-0.47129 0.347265,-0.78755 0.861963,-0.78755 0.511596,0 0.855761,0.31626 0.855761,0.78755 0,0.47439 -0.347265,0.79375 -0.855761,0.79375 z"
         style="stroke-width:0.5;fill:#ffffff"
         id="path28772" /></g><path
       id="path26466-5"
       style="fill:none;stroke:#ffffff;stroke-width:0.5"
       d="m 135.2113,73.811737 a 5.3521824,5.3521824 0 0 1 -5.35218,5.352182 5.3521824,5.3521824 0 0 1 -5.35219,-5.352182 5.3521824,5.3521824 0 0 1 5.35219,-5.352182 5.3521824,5.3521824 0 0 1 5.35218,5.352182 z" /><g
       aria-label="9"
       id="text28508"
       style="font-size:6.35px;font-family:'Inter Display';-inkscape-font-specification:'Inter Display';stroke-width:0.499999"><path
         d="m 129.74129,76.196088 c 1.15962,0 1.69292,-1.026294 1.69292,-2.579688 0,-1.395263 -0.58291,-2.189013 -1.60611,-2.189013 -0.90847,0 -1.54409,0.626318 -1.54409,1.53789 0,0.877466 0.61702,1.519287 1.45108,1.519287 0.49609,0 0.93637,-0.207739 1.14721,-0.564306 h 0.006 c 0,1.032495 -0.38447,1.779736 -1.18442,1.779736 -0.46819,0 -0.77515,-0.285254 -0.86196,-0.731738 h -0.54571 c 0.0868,0.734838 0.64183,1.227832 1.44488,1.227832 z m 0.0682,-2.207618 c -0.555,0 -0.98599,-0.440283 -0.98599,-1.023193 0,-0.586011 0.44649,-1.041797 1.00459,-1.041797 0.55191,0 0.99839,0.455786 0.99839,1.035596 0,0.576709 -0.45578,1.029394 -1.01699,1.029394 z"
         style="stroke-width:0.5;fill:#ffffff"
         id="path28768" /></g><path
       d="m 30.255805,110.00573 h -0.539502 l -1.153418,0.76895 v 0.5705 l 1.150317,-0.76274 h 0.0031 v 4.04316 h 0.539502 z"
       style="font-size:6.35px;font-family:'Inter Display';-inkscape-font-specification:'Inter Display';stroke-width:0.5;fill:#ffffff"
       id="path28762" /><path
       d="m 32.661859,114.70002 c 1.023194,0 1.668116,-0.92708 1.668116,-2.38125 0,-1.46038 -0.644922,-2.38745 -1.668116,-2.38745 -1.023193,0 -1.668115,0.92707 -1.668115,2.38745 0,1.45417 0.644922,2.38125 1.668115,2.38125 z m 0,-0.4961 c -0.706933,0 -1.141015,-0.71313 -1.141015,-1.88515 0,-1.17823 0.434082,-1.89136 1.141015,-1.89136 0.706934,0 1.141016,0.71313 1.141016,1.89136 0,1.17202 -0.434082,1.88515 -1.141016,1.88515 z"
       style="font-size:6.35px;font-family:'Inter Display';-inkscape-font-specification:'Inter Display';stroke-width:0.5;fill:#ffffff"
       id="path28764" /><path
       id="path26466-1"
       style="fill:none;stroke:#ffffff;stroke-width:0.5"
       d="m 45.053686,80.432037 a 5.3521824,5.3521824 0 0 1 -5.352182,5.352183 5.3521824,5.3521824 0 0 1 -5.352183,-5.352183 5.3521824,5.3521824 0 0 1 5.352183,-5.352182 5.3521824,5.3521824 0 0 1 5.352182,5.352182 z" /><g
       aria-label="11"
       id="text28516"
       style="font-size:6.35px;font-family:'Inter Display';-inkscape-font-specification:'Inter Display';stroke-width:0.499999"><path
         d="m 39.397645,78.122101 h -0.539502 l -1.153418,0.768945 v 0.570508 l 1.150317,-0.762744 h 0.0031 v 4.043164 h 0.539502 z"
         style="stroke-width:0.5;fill:#ffffff"
         id="path28757" /><path
         d="m 41.698279,78.122101 h -0.539502 l -1.153417,0.768945 v 0.570508 l 1.150317,-0.762744 h 0.0031 v 4.043164 h 0.539502 z"
         style="stroke-width:0.5;fill:#ffffff"
         id="path28759" /></g><path
       style="fill:none;stroke:#ffffff;stroke-width:0.499999;stroke-dasharray:none"
       d="M 67.439438,98.89742 69.491332,73.302416"
       id="path28632" /><path
       style="fill:none;stroke:#ffffff;stroke-width:0.499999;stroke-dasharray:none"
       d="M 62.657902,101.34664 42.730547,84.878331"
       id="path28634" /><path
       style="fill:none;stroke:#ffffff;stroke-width:0.499999;stroke-dasharray:none"
       d="m 61.735757,105.27608 -24.913223,6.51496"
       id="path28636" /><path
       style="fill:none;stroke:#ffffff;stroke-width:0.499999;stroke-dasharray:none"
       d="m 66.323294,109.51416 -11.92512,22.66355"
       id="path28638" /><path
       style="fill:none;stroke:#ffffff;stroke-width:0.499999;stroke-dasharray:none"
       d="m 87.531317,139.63194 c 0.148148,0.87957 13.014053,21.20173 13.014053,21.20173"
       id="path28640" /><path
       style="fill:none;stroke:#ffffff;stroke-width:0.499999;stroke-dasharray:none"
       d="m 90.158449,135.57269 24.596311,0.96383"
       id="path28642" /><path
       style="fill:none;stroke:#ffffff;stroke-width:0.499999;stroke-dasharray:none"
       d="M 85.436584,129.60693 99.074613,111.15001"
       id="path28644"
       sodipodi:nodetypes="cc" /><path
       style="fill:none;stroke:#ffffff;stroke-width:0.499999;stroke-dasharray:none"
       d="m 104.87134,110.82886 13.47292,20.76844"
       id="path28648" /><path
       style="fill:none;stroke:#ffffff;stroke-width:0.499999;stroke-dasharray:none"
       d="M 101.54676,100.93529 101.17815,80.912082"
       id="path28746" /><path
       style="fill:none;stroke:#ffffff;stroke-width:0.499999;stroke-dasharray:none"
       d="M 131.41544,100.07158 130.03063,79.248455"
       id="path28750" /><path
       style="fill:none;stroke:#ffffff;stroke-width:0.499999;stroke-dasharray:none"
       d="m 105.22249,78.450313 21.9815,24.079657"
       id="path28752" /><path
       style="fill:none;stroke:#ffffff;stroke-width:0.499999;stroke-dasharray:none"
       d="M 105.89752,102.8927 125.78194,77.566656"
       id="path28754" /></g></svg>
