<svg width="940" height="354" viewBox="0 0 940 354" fill="none" xmlns="http://www.w3.org/2000/svg">
<g filter="url(#filter0_i_3_2)">
<circle cx="623" cy="216.959" r="25" fill="#D1D1E5"/>
<circle cx="523" cy="216.959" r="25" fill="#D1D1E5"/>
<circle cx="421" cy="216.959" r="25" fill="#D1D1E5"/>
<circle cx="321" cy="216.959" r="25" fill="#D1D1E5"/>
<circle cx="563" cy="125" r="25" fill="#D1D1E5"/>
<circle cx="379" cy="125" r="25" fill="#D1D1E5"/>
<circle cx="471" cy="40" r="25" fill="#D1D1E5"/>
</g>
<g filter="url(#filter1_i_3_2)">
<rect x="631" y="274.474" width="30" height="29.8246" rx="2" fill="#6A5ACD"/>
<rect x="581" y="274.474" width="30" height="29.8246" rx="2" fill="#6A5ACD"/>
<rect x="531" y="274.474" width="30" height="29.8246" rx="2" fill="#6A5ACD"/>
<rect x="481" y="274.474" width="30" height="29.8246" rx="2" fill="#6A5ACD"/>
<rect x="429" y="274.474" width="30" height="29.8246" rx="2" fill="#6A5ACD"/>
<rect x="379" y="274.474" width="30" height="29.8246" rx="2" fill="#6A5ACD"/>
<rect x="329" y="274.474" width="30" height="29.8246" rx="2" fill="#6A5ACD"/>
<rect x="279" y="274.474" width="30" height="29.8246" rx="2" fill="#6A5ACD"/>
</g>
<path d="M317.11 213.07L317.155 213.01H317.335C317.445 213.01 317.515 213.025 317.545 213.055L317.605 213.1V217.57V222.04L317.65 222.07C317.66 222.08 317.695 222.095 317.755 222.115C317.875 222.145 318.275 222.16 318.955 222.16H319.45V222.58V223H319.27L317.98 222.97C317.23 222.96 316.48 222.96 315.73 222.97C314.85 222.99 314.415 223 314.425 223H314.245V222.58V222.16H314.74C315.44 222.16 315.85 222.145 315.97 222.115C316.03 222.095 316.065 222.08 316.075 222.07L316.12 222.04V218.275C316.12 215.765 316.115 214.51 316.105 214.51C315.585 214.71 315.005 214.81 314.365 214.81H314.17V214.39V213.97H314.365C315.245 213.97 315.995 213.79 316.615 213.43C316.865 213.27 317.03 213.15 317.11 213.07ZM323.755 213.025C323.965 213.005 324.255 213.01 324.625 213.04C325.575 213.19 326.255 213.595 326.665 214.255C326.795 214.475 326.885 214.705 326.935 214.945C326.975 215.165 326.965 215.41 326.905 215.68C326.795 216.23 326.54 216.7 326.14 217.09C325.86 217.37 325.555 217.58 325.225 217.72C325.145 217.77 325.1 217.795 325.09 217.795L325.315 217.87C325.815 218.04 326.25 218.3 326.62 218.65C326.93 218.97 327.145 219.335 327.265 219.745C327.465 220.455 327.345 221.16 326.905 221.86C326.795 222.02 326.675 222.17 326.545 222.31C326.275 222.58 325.99 222.79 325.69 222.94C325.35 223.11 324.97 223.23 324.55 223.3C324.32 223.34 324.015 223.345 323.635 223.315C323.595 223.305 323.565 223.3 323.545 223.3C322.515 223.13 321.795 222.695 321.385 221.995C321.375 221.975 321.365 221.955 321.355 221.935C321.215 221.655 321.145 221.35 321.145 221.02C321.145 220.86 321.155 220.74 321.175 220.66C321.335 220.22 321.66 219.995 322.15 219.985C322.65 219.985 322.98 220.21 323.14 220.66C323.16 220.74 323.17 220.855 323.17 221.005C323.17 221.155 323.16 221.265 323.14 221.335C323.04 221.645 322.84 221.855 322.54 221.965L322.45 221.995L322.48 222.025C322.61 222.125 322.74 222.205 322.87 222.265C323.27 222.475 323.69 222.565 324.13 222.535C324.18 222.535 324.22 222.53 324.25 222.52C324.7 222.45 325.025 222.185 325.225 221.725C325.245 221.675 325.265 221.625 325.285 221.575C325.375 221.325 325.42 220.91 325.42 220.33C325.42 219.74 325.365 219.305 325.255 219.025C325.125 218.675 324.895 218.415 324.565 218.245C324.425 218.185 324.155 218.15 323.755 218.14H323.665L323.065 218.125L323.02 218.095C323 218.065 322.99 217.965 322.99 217.795C322.99 217.615 323 217.515 323.02 217.495C323.04 217.465 323.06 217.45 323.08 217.45C323.09 217.44 323.235 217.425 323.515 217.405C323.925 217.375 324.215 217.305 324.385 217.195C324.745 216.955 324.99 216.535 325.12 215.935C325.26 215.215 325.23 214.67 325.03 214.3C324.95 214.13 324.81 213.99 324.61 213.88C324.46 213.81 324.275 213.775 324.055 213.775C323.555 213.755 323.125 213.91 322.765 214.24L322.675 214.315L322.765 214.345C323.145 214.445 323.365 214.7 323.425 215.11C323.435 215.14 323.44 215.17 323.44 215.2C323.44 215.38 323.405 215.555 323.335 215.725C323.255 215.875 323.125 216 322.945 216.1C322.775 216.17 322.62 216.205 322.48 216.205C322.35 216.205 322.2 216.17 322.03 216.1C321.85 216 321.72 215.875 321.64 215.725C321.57 215.575 321.535 215.385 321.535 215.155C321.575 214.395 321.95 213.81 322.66 213.4C322.7 213.37 322.74 213.345 322.78 213.325C323.09 213.165 323.415 213.065 323.755 213.025Z" fill="#4A4848"/>
<path d="M374.21 120.025C374.49 119.995 374.78 120.005 375.08 120.055C375.77 120.145 376.345 120.415 376.805 120.865C377.065 121.105 377.275 121.39 377.435 121.72C377.605 122.1 377.705 122.52 377.735 122.98C377.745 123.56 377.585 124.11 377.255 124.63C376.955 125.07 376.425 125.605 375.665 126.235C375.305 126.545 374.8 127.01 374.15 127.63L373.28 128.455L374.3 128.47C375.76 128.47 376.54 128.445 376.64 128.395C376.7 128.365 376.765 128.19 376.835 127.87L376.985 127.03C376.985 127.02 377.11 127.015 377.36 127.015H377.735V127.06C377.725 127.08 377.655 127.56 377.525 128.5C377.395 129.44 377.325 129.925 377.315 129.955V130H374.525H371.75V129.64C371.75 129.39 371.76 129.25 371.78 129.22L373.055 127.78C374.145 126.56 374.81 125.795 375.05 125.485C375.43 124.955 375.695 124.475 375.845 124.045C376.105 123.245 376.055 122.51 375.695 121.84C375.605 121.68 375.5 121.535 375.38 121.405C375.05 121.065 374.64 120.88 374.15 120.85C373.75 120.83 373.405 120.965 373.115 121.255L372.845 121.6C372.845 121.62 372.885 121.63 372.965 121.63C373.155 121.69 373.305 121.775 373.415 121.885C373.485 121.935 373.545 122.01 373.595 122.11C373.665 122.28 373.7 122.455 373.7 122.635C373.67 123.115 373.425 123.41 372.965 123.52C372.925 123.53 372.885 123.54 372.845 123.55C372.765 123.56 372.685 123.56 372.605 123.55C372.185 123.49 371.915 123.275 371.795 122.905C371.775 122.825 371.765 122.7 371.765 122.53C371.765 122.34 371.775 122.205 371.795 122.125C371.885 121.725 372.055 121.36 372.305 121.03C372.435 120.87 372.61 120.71 372.83 120.55C373.05 120.39 373.305 120.26 373.595 120.16C373.775 120.11 373.98 120.065 374.21 120.025ZM381.71 120.025C381.99 119.995 382.28 120.005 382.58 120.055C383.27 120.145 383.845 120.415 384.305 120.865C384.565 121.105 384.775 121.39 384.935 121.72C385.105 122.1 385.205 122.52 385.235 122.98C385.245 123.56 385.085 124.11 384.755 124.63C384.455 125.07 383.925 125.605 383.165 126.235C382.805 126.545 382.3 127.01 381.65 127.63L380.78 128.455L381.8 128.47C383.26 128.47 384.04 128.445 384.14 128.395C384.2 128.365 384.265 128.19 384.335 127.87L384.485 127.03C384.485 127.02 384.61 127.015 384.86 127.015H385.235V127.06C385.225 127.08 385.155 127.56 385.025 128.5C384.895 129.44 384.825 129.925 384.815 129.955V130H382.025H379.25V129.64C379.25 129.39 379.26 129.25 379.28 129.22L380.555 127.78C381.645 126.56 382.31 125.795 382.55 125.485C382.93 124.955 383.195 124.475 383.345 124.045C383.605 123.245 383.555 122.51 383.195 121.84C383.105 121.68 383 121.535 382.88 121.405C382.55 121.065 382.14 120.88 381.65 120.85C381.25 120.83 380.905 120.965 380.615 121.255L380.345 121.6C380.345 121.62 380.385 121.63 380.465 121.63C380.655 121.69 380.805 121.775 380.915 121.885C380.985 121.935 381.045 122.01 381.095 122.11C381.165 122.28 381.2 122.455 381.2 122.635C381.17 123.115 380.925 123.41 380.465 123.52C380.425 123.53 380.385 123.54 380.345 123.55C380.265 123.56 380.185 123.56 380.105 123.55C379.685 123.49 379.415 123.275 379.295 122.905C379.275 122.825 379.265 122.7 379.265 122.53C379.265 122.34 379.275 122.205 379.295 122.125C379.385 121.725 379.555 121.36 379.805 121.03C379.935 120.87 380.11 120.71 380.33 120.55C380.55 120.39 380.805 120.26 381.095 120.16C381.275 120.11 381.48 120.065 381.71 120.025Z" fill="#4A4848"/>
<path d="M466.255 36.025C466.465 36.005 466.755 36.01 467.125 36.04C468.075 36.19 468.755 36.595 469.165 37.255C469.295 37.475 469.385 37.705 469.435 37.945C469.475 38.165 469.465 38.41 469.405 38.68C469.295 39.23 469.04 39.7 468.64 40.09C468.36 40.37 468.055 40.58 467.725 40.72C467.645 40.77 467.6 40.795 467.59 40.795L467.815 40.87C468.315 41.04 468.75 41.3 469.12 41.65C469.43 41.97 469.645 42.335 469.765 42.745C469.965 43.455 469.845 44.16 469.405 44.86C469.295 45.02 469.175 45.17 469.045 45.31C468.775 45.58 468.49 45.79 468.19 45.94C467.85 46.11 467.47 46.23 467.05 46.3C466.82 46.34 466.515 46.345 466.135 46.315C466.095 46.305 466.065 46.3 466.045 46.3C465.015 46.13 464.295 45.695 463.885 44.995C463.875 44.975 463.865 44.955 463.855 44.935C463.715 44.655 463.645 44.35 463.645 44.02C463.645 43.86 463.655 43.74 463.675 43.66C463.835 43.22 464.16 42.995 464.65 42.985C465.15 42.985 465.48 43.21 465.64 43.66C465.66 43.74 465.67 43.855 465.67 44.005C465.67 44.155 465.66 44.265 465.64 44.335C465.54 44.645 465.34 44.855 465.04 44.965L464.95 44.995L464.98 45.025C465.11 45.125 465.24 45.205 465.37 45.265C465.77 45.475 466.19 45.565 466.63 45.535C466.68 45.535 466.72 45.53 466.75 45.52C467.2 45.45 467.525 45.185 467.725 44.725C467.745 44.675 467.765 44.625 467.785 44.575C467.875 44.325 467.92 43.91 467.92 43.33C467.92 42.74 467.865 42.305 467.755 42.025C467.625 41.675 467.395 41.415 467.065 41.245C466.925 41.185 466.655 41.15 466.255 41.14H466.165L465.565 41.125L465.52 41.095C465.5 41.065 465.49 40.965 465.49 40.795C465.49 40.615 465.5 40.515 465.52 40.495C465.54 40.465 465.56 40.45 465.58 40.45C465.59 40.44 465.735 40.425 466.015 40.405C466.425 40.375 466.715 40.305 466.885 40.195C467.245 39.955 467.49 39.535 467.62 38.935C467.76 38.215 467.73 37.67 467.53 37.3C467.45 37.13 467.31 36.99 467.11 36.88C466.96 36.81 466.775 36.775 466.555 36.775C466.055 36.755 465.625 36.91 465.265 37.24L465.175 37.315L465.265 37.345C465.645 37.445 465.865 37.7 465.925 38.11C465.935 38.14 465.94 38.17 465.94 38.2C465.94 38.38 465.905 38.555 465.835 38.725C465.755 38.875 465.625 39 465.445 39.1C465.275 39.17 465.12 39.205 464.98 39.205C464.85 39.205 464.7 39.17 464.53 39.1C464.35 39 464.22 38.875 464.14 38.725C464.07 38.575 464.035 38.385 464.035 38.155C464.075 37.395 464.45 36.81 465.16 36.4C465.2 36.37 465.24 36.345 465.28 36.325C465.59 36.165 465.915 36.065 466.255 36.025ZM473.95 36.025C474.26 36.005 474.54 36.015 474.79 36.055C475.29 36.165 475.71 36.39 476.05 36.73C476.29 36.96 476.505 37.25 476.695 37.6C477.035 38.29 477.245 39.115 477.325 40.075C477.365 40.555 477.37 41.095 477.34 41.695C477.33 41.755 477.325 41.8 477.325 41.83C477.265 42.41 477.14 42.975 476.95 43.525C476.81 43.885 476.64 44.225 476.44 44.545C475.8 45.565 474.995 46.15 474.025 46.3C473.775 46.34 473.53 46.345 473.29 46.315C472.66 46.235 472.195 46.01 471.895 45.64C471.635 45.32 471.505 44.94 471.505 44.5C471.505 44.09 471.68 43.815 472.03 43.675C472.07 43.665 472.11 43.655 472.15 43.645C472.31 43.605 472.465 43.605 472.615 43.645C472.885 43.715 473.065 43.85 473.155 44.05C473.335 44.4 473.315 44.72 473.095 45.01C473.015 45.12 472.92 45.2 472.81 45.25C472.75 45.29 472.715 45.31 472.705 45.31C472.705 45.34 472.795 45.385 472.975 45.445C473.375 45.575 473.76 45.575 474.13 45.445C474.64 45.275 475.025 44.91 475.285 44.35C475.315 44.27 475.345 44.19 475.375 44.11C475.505 43.72 475.585 43.13 475.615 42.34C475.615 42.2 475.62 42.075 475.63 41.965C475.62 41.965 475.59 42 475.54 42.07C475.42 42.24 475.265 42.395 475.075 42.535C474.835 42.705 474.58 42.82 474.31 42.88C474.11 42.92 473.835 42.92 473.485 42.88C473.005 42.78 472.58 42.555 472.21 42.205C471.9 41.875 471.66 41.535 471.49 41.185C471.33 40.895 471.22 40.54 471.16 40.12C471.12 39.79 471.115 39.405 471.145 38.965C471.155 38.925 471.16 38.895 471.16 38.875C471.26 38.185 471.565 37.565 472.075 37.015C472.615 36.425 473.24 36.095 473.95 36.025ZM474.655 36.805C474.605 36.795 474.5 36.78 474.34 36.76C473.97 36.76 473.685 36.83 473.485 36.97C473.285 37.1 473.13 37.275 473.02 37.495C472.9 37.765 472.845 38.535 472.855 39.805C472.865 40.665 472.9 41.215 472.96 41.455C473.03 41.625 473.13 41.765 473.26 41.875C473.47 42.085 473.765 42.19 474.145 42.19C474.325 42.19 474.47 42.17 474.58 42.13C475.08 41.93 475.4 41.4 475.54 40.54C475.54 40.5 475.545 40.46 475.555 40.42C475.595 40.19 475.615 39.78 475.615 39.19C475.605 38.37 475.565 37.875 475.495 37.705C475.345 37.265 475.065 36.965 474.655 36.805Z" fill="#4A4848"/>
<path d="M559.11 121.07L559.155 121.01H559.335C559.445 121.01 559.515 121.025 559.545 121.055L559.605 121.1V125.57V130.04L559.65 130.07C559.66 130.08 559.695 130.095 559.755 130.115C559.875 130.145 560.275 130.16 560.955 130.16H561.45V130.58V131H561.27L559.98 130.97C559.23 130.96 558.48 130.96 557.73 130.97C556.85 130.99 556.415 131 556.425 131H556.245V130.58V130.16H556.74C557.44 130.16 557.85 130.145 557.97 130.115C558.03 130.095 558.065 130.08 558.075 130.07L558.12 130.04V126.275C558.12 123.765 558.115 122.51 558.105 122.51C557.585 122.71 557.005 122.81 556.365 122.81H556.17V122.39V121.97H556.365C557.245 121.97 557.995 121.79 558.615 121.43C558.865 121.27 559.03 121.15 559.11 121.07ZM563.58 122.555L563.805 120.86H564.18H564.555V120.92C564.585 121.1 564.775 121.215 565.125 121.265C565.355 121.305 566.225 121.33 567.735 121.34H569.775V121.715V122.075L568.785 123.395L567.735 124.835C567.195 125.625 566.875 126.71 566.775 128.09C566.735 128.46 566.71 129.035 566.7 129.815L566.685 130.655L566.655 130.76C566.595 130.9 566.52 131.01 566.43 131.09C566.17 131.34 565.865 131.4 565.515 131.27C565.395 131.23 565.295 131.17 565.215 131.09C565.125 131.01 565.05 130.9 564.99 130.76C564.97 130.71 564.955 130.605 564.945 130.445C564.945 130.085 564.965 129.765 565.005 129.485C565.175 127.905 565.79 126.34 566.85 124.79L568.245 122.885C568.255 122.875 568.21 122.87 568.11 122.87C567.99 122.87 567.5 122.87 566.64 122.87C565.41 122.88 564.7 122.9 564.51 122.93C564.43 122.93 564.37 122.995 564.33 123.125C564.26 123.275 564.175 123.655 564.075 124.265V124.325H563.7H563.325V124.295C563.325 124.305 563.41 123.725 563.58 122.555Z" fill="#4A4848"/>
<path d="M420.45 213.025C420.76 213.005 421.04 213.015 421.29 213.055C421.79 213.165 422.21 213.39 422.55 213.73C422.79 213.96 423.005 214.25 423.195 214.6C423.535 215.29 423.745 216.115 423.825 217.075C423.865 217.555 423.87 218.095 423.84 218.695C423.83 218.755 423.825 218.8 423.825 218.83C423.765 219.41 423.64 219.975 423.45 220.525C423.31 220.885 423.14 221.225 422.94 221.545C422.3 222.565 421.495 223.15 420.525 223.3C420.275 223.34 420.03 223.345 419.79 223.315C419.16 223.235 418.695 223.01 418.395 222.64C418.135 222.32 418.005 221.94 418.005 221.5C418.005 221.09 418.18 220.815 418.53 220.675C418.57 220.665 418.61 220.655 418.65 220.645C418.81 220.605 418.965 220.605 419.115 220.645C419.385 220.715 419.565 220.85 419.655 221.05C419.835 221.4 419.815 221.72 419.595 222.01C419.515 222.12 419.42 222.2 419.31 222.25C419.25 222.29 419.215 222.31 419.205 222.31C419.205 222.34 419.295 222.385 419.475 222.445C419.875 222.575 420.26 222.575 420.63 222.445C421.14 222.275 421.525 221.91 421.785 221.35C421.815 221.27 421.845 221.19 421.875 221.11C422.005 220.72 422.085 220.13 422.115 219.34C422.115 219.2 422.12 219.075 422.13 218.965C422.12 218.965 422.09 219 422.04 219.07C421.92 219.24 421.765 219.395 421.575 219.535C421.335 219.705 421.08 219.82 420.81 219.88C420.61 219.92 420.335 219.92 419.985 219.88C419.505 219.78 419.08 219.555 418.71 219.205C418.4 218.875 418.16 218.535 417.99 218.185C417.83 217.895 417.72 217.54 417.66 217.12C417.62 216.79 417.615 216.405 417.645 215.965C417.655 215.925 417.66 215.895 417.66 215.875C417.76 215.185 418.065 214.565 418.575 214.015C419.115 213.425 419.74 213.095 420.45 213.025ZM421.155 213.805C421.105 213.795 421 213.78 420.84 213.76C420.47 213.76 420.185 213.83 419.985 213.97C419.785 214.1 419.63 214.275 419.52 214.495C419.4 214.765 419.345 215.535 419.355 216.805C419.365 217.665 419.4 218.215 419.46 218.455C419.53 218.625 419.63 218.765 419.76 218.875C419.97 219.085 420.265 219.19 420.645 219.19C420.825 219.19 420.97 219.17 421.08 219.13C421.58 218.93 421.9 218.4 422.04 217.54C422.04 217.5 422.045 217.46 422.055 217.42C422.095 217.19 422.115 216.78 422.115 216.19C422.105 215.37 422.065 214.875 421.995 214.705C421.845 214.265 421.565 213.965 421.155 213.805Z" fill="#4A4848"/>
<path d="M622.495 213.025L623.23 213.04C624.12 213.2 624.76 213.61 625.15 214.27C625.18 214.33 625.21 214.385 625.24 214.435C625.33 214.645 625.39 214.82 625.42 214.96C625.46 215.19 625.46 215.45 625.42 215.74C625.32 216.2 625.07 216.625 624.67 217.015C624.5 217.185 624.305 217.34 624.085 217.48C624.025 217.52 623.99 217.545 623.98 217.555L624.265 217.75C624.465 217.88 624.6 217.97 624.67 218.02C624.88 218.18 625.055 218.35 625.195 218.53C625.705 219.15 625.92 219.86 625.84 220.66C625.74 221.56 625.3 222.27 624.52 222.79C624.22 222.99 623.885 223.14 623.515 223.24C622.675 223.44 621.87 223.335 621.1 222.925C621.01 222.875 620.925 222.825 620.845 222.775C620.205 222.355 619.815 221.79 619.675 221.08C619.615 220.76 619.615 220.45 619.675 220.15C619.765 219.73 619.955 219.335 620.245 218.965C620.425 218.735 620.625 218.54 620.845 218.38C621.065 218.21 621.245 218.09 621.385 218.02C621.415 218 621.435 217.985 621.445 217.975L621.31 217.87C620.69 217.49 620.295 216.955 620.125 216.265C619.925 215.545 620.045 214.85 620.485 214.18C620.695 213.89 620.925 213.66 621.175 213.49C621.475 213.3 621.775 213.17 622.075 213.1C622.175 213.06 622.315 213.035 622.495 213.025ZM623.005 213.775C622.425 213.695 621.925 213.835 621.505 214.195C621.375 214.305 621.275 214.425 621.205 214.555C620.955 215.025 621.035 215.465 621.445 215.875C621.525 215.965 621.83 216.18 622.36 216.52L622.525 216.625C623.035 216.965 623.3 217.125 623.32 217.105C623.41 217.075 623.57 216.945 623.8 216.715C624.1 216.415 624.295 216.08 624.385 215.71C624.435 215.49 624.43 215.245 624.37 214.975C624.29 214.695 624.15 214.455 623.95 214.255C623.69 213.995 623.375 213.835 623.005 213.775ZM623.2 219.085C622.54 218.665 622.225 218.465 622.255 218.485L622.135 218.41L621.985 218.515C621.215 219.025 620.805 219.68 620.755 220.48C620.755 220.56 620.755 220.64 620.755 220.72C620.785 221.22 620.985 221.64 621.355 221.98C621.615 222.24 621.95 222.415 622.36 222.505C622.6 222.545 622.865 222.545 623.155 222.505C623.835 222.365 624.305 222.045 624.565 221.545C624.605 221.475 624.635 221.4 624.655 221.32C624.825 220.76 624.695 220.265 624.265 219.835C624.175 219.745 623.82 219.495 623.2 219.085Z" fill="#4A4848"/>
<path d="M522.45 213.025C522.76 213.005 523.04 213.015 523.29 213.055C523.79 213.165 524.21 213.39 524.55 213.73C524.79 213.96 525.005 214.25 525.195 214.6C525.535 215.29 525.745 216.115 525.825 217.075C525.865 217.555 525.87 218.095 525.84 218.695C525.83 218.755 525.825 218.8 525.825 218.83C525.765 219.41 525.64 219.975 525.45 220.525C525.31 220.885 525.14 221.225 524.94 221.545C524.3 222.565 523.495 223.15 522.525 223.3C522.275 223.34 522.03 223.345 521.79 223.315C521.16 223.235 520.695 223.01 520.395 222.64C520.135 222.32 520.005 221.94 520.005 221.5C520.005 221.09 520.18 220.815 520.53 220.675C520.57 220.665 520.61 220.655 520.65 220.645C520.81 220.605 520.965 220.605 521.115 220.645C521.385 220.715 521.565 220.85 521.655 221.05C521.835 221.4 521.815 221.72 521.595 222.01C521.515 222.12 521.42 222.2 521.31 222.25C521.25 222.29 521.215 222.31 521.205 222.31C521.205 222.34 521.295 222.385 521.475 222.445C521.875 222.575 522.26 222.575 522.63 222.445C523.14 222.275 523.525 221.91 523.785 221.35C523.815 221.27 523.845 221.19 523.875 221.11C524.005 220.72 524.085 220.13 524.115 219.34C524.115 219.2 524.12 219.075 524.13 218.965C524.12 218.965 524.09 219 524.04 219.07C523.92 219.24 523.765 219.395 523.575 219.535C523.335 219.705 523.08 219.82 522.81 219.88C522.61 219.92 522.335 219.92 521.985 219.88C521.505 219.78 521.08 219.555 520.71 219.205C520.4 218.875 520.16 218.535 519.99 218.185C519.83 217.895 519.72 217.54 519.66 217.12C519.62 216.79 519.615 216.405 519.645 215.965C519.655 215.925 519.66 215.895 519.66 215.875C519.76 215.185 520.065 214.565 520.575 214.015C521.115 213.425 521.74 213.095 522.45 213.025ZM523.155 213.805C523.105 213.795 523 213.78 522.84 213.76C522.47 213.76 522.185 213.83 521.985 213.97C521.785 214.1 521.63 214.275 521.52 214.495C521.4 214.765 521.345 215.535 521.355 216.805C521.365 217.665 521.4 218.215 521.46 218.455C521.53 218.625 521.63 218.765 521.76 218.875C521.97 219.085 522.265 219.19 522.645 219.19C522.825 219.19 522.97 219.17 523.08 219.13C523.58 218.93 523.9 218.4 524.04 217.54C524.04 217.5 524.045 217.46 524.055 217.42C524.095 217.19 524.115 216.78 524.115 216.19C524.105 215.37 524.065 214.875 523.995 214.705C523.845 214.265 523.565 213.965 523.155 213.805Z" fill="#4A4848"/>
<path d="M291.395 285.461C291.435 285.431 291.51 285.441 291.62 285.491C291.96 285.631 292.315 285.736 292.685 285.806C293.625 285.986 294.55 285.926 295.46 285.626C295.53 285.606 295.655 285.561 295.835 285.491C295.965 285.431 296.055 285.426 296.105 285.476L296.15 285.521V285.776V286.046L296.06 286.151C295.84 286.391 295.57 286.616 295.25 286.826C294.64 287.206 293.975 287.421 293.255 287.471C292.805 287.491 292.46 287.471 292.22 287.411L292.16 287.396V288.581V289.751L292.25 289.676C292.48 289.486 292.725 289.346 292.985 289.256C293.665 289.026 294.35 289.081 295.04 289.421C295.89 289.861 296.43 290.606 296.66 291.656C296.68 291.736 296.695 291.816 296.705 291.896C296.745 292.196 296.745 292.531 296.705 292.901C296.565 293.631 296.26 294.241 295.79 294.731C295.53 294.991 295.225 295.211 294.875 295.391C294.055 295.791 293.28 295.866 292.55 295.616C291.77 295.366 291.23 294.856 290.93 294.086C290.86 293.926 290.81 293.756 290.78 293.576C290.74 293.286 290.735 293.066 290.765 292.916C290.815 292.736 290.895 292.591 291.005 292.481C291.275 292.211 291.605 292.136 291.995 292.256C292.235 292.336 292.405 292.481 292.505 292.691C292.565 292.821 292.595 292.966 292.595 293.126C292.595 293.296 292.565 293.446 292.505 293.576C292.405 293.796 292.215 293.946 291.935 294.026C291.855 294.046 291.805 294.056 291.785 294.056C291.765 294.056 291.78 294.096 291.83 294.176C292 294.416 292.23 294.611 292.52 294.761C292.76 294.891 293.04 294.956 293.36 294.956C293.91 294.956 294.335 294.756 294.635 294.356C294.835 294.096 294.955 293.736 294.995 293.276C295.025 293.006 295.03 292.451 295.01 291.611C295.01 291.491 295.005 291.406 294.995 291.356C294.955 290.916 294.88 290.606 294.77 290.426C294.5 289.976 294.1 289.781 293.57 289.841C292.92 289.921 292.435 290.261 292.115 290.861C292.055 290.951 291.985 291.001 291.905 291.011C291.865 291.011 291.8 291.011 291.71 291.011C291.49 291.011 291.37 290.981 291.35 290.921C291.33 290.881 291.32 289.981 291.32 288.221C291.32 286.441 291.325 285.541 291.335 285.521C291.355 285.481 291.375 285.461 291.395 285.461Z" fill="white"/>
<path d="M343.495 285.446L344.23 285.461C345.12 285.621 345.76 286.031 346.15 286.691C346.18 286.751 346.21 286.806 346.24 286.856C346.33 287.066 346.39 287.241 346.42 287.381C346.46 287.611 346.46 287.871 346.42 288.161C346.32 288.621 346.07 289.046 345.67 289.436C345.5 289.606 345.305 289.761 345.085 289.901C345.025 289.941 344.99 289.966 344.98 289.976L345.265 290.171C345.465 290.301 345.6 290.391 345.67 290.441C345.88 290.601 346.055 290.771 346.195 290.951C346.705 291.571 346.92 292.281 346.84 293.081C346.74 293.981 346.3 294.691 345.52 295.211C345.22 295.411 344.885 295.561 344.515 295.661C343.675 295.861 342.87 295.756 342.1 295.346C342.01 295.296 341.925 295.246 341.845 295.196C341.205 294.776 340.815 294.211 340.675 293.501C340.615 293.181 340.615 292.871 340.675 292.571C340.765 292.151 340.955 291.756 341.245 291.386C341.425 291.156 341.625 290.961 341.845 290.801C342.065 290.631 342.245 290.511 342.385 290.441C342.415 290.421 342.435 290.406 342.445 290.396L342.31 290.291C341.69 289.911 341.295 289.376 341.125 288.686C340.925 287.966 341.045 287.271 341.485 286.601C341.695 286.311 341.925 286.081 342.175 285.911C342.475 285.721 342.775 285.591 343.075 285.521C343.175 285.481 343.315 285.456 343.495 285.446ZM344.005 286.196C343.425 286.116 342.925 286.256 342.505 286.616C342.375 286.726 342.275 286.846 342.205 286.976C341.955 287.446 342.035 287.886 342.445 288.296C342.525 288.386 342.83 288.601 343.36 288.941L343.525 289.046C344.035 289.386 344.3 289.546 344.32 289.526C344.41 289.496 344.57 289.366 344.8 289.136C345.1 288.836 345.295 288.501 345.385 288.131C345.435 287.911 345.43 287.666 345.37 287.396C345.29 287.116 345.15 286.876 344.95 286.676C344.69 286.416 344.375 286.256 344.005 286.196ZM344.2 291.506C343.54 291.086 343.225 290.886 343.255 290.906L343.135 290.831L342.985 290.936C342.215 291.446 341.805 292.101 341.755 292.901C341.755 292.981 341.755 293.061 341.755 293.141C341.785 293.641 341.985 294.061 342.355 294.401C342.615 294.661 342.95 294.836 343.36 294.926C343.6 294.966 343.865 294.966 344.155 294.926C344.835 294.786 345.305 294.466 345.565 293.966C345.605 293.896 345.635 293.821 345.655 293.741C345.825 293.181 345.695 292.686 345.265 292.256C345.175 292.166 344.82 291.916 344.2 291.506Z" fill="white"/>
<path d="M394.245 285.446C394.455 285.426 394.71 285.431 395.01 285.461C395.66 285.601 396.095 285.931 396.315 286.451C396.495 286.841 396.54 287.191 396.45 287.501C396.34 287.911 396.06 288.126 395.61 288.146C395.45 288.146 395.305 288.111 395.175 288.041C394.865 287.901 394.715 287.641 394.725 287.261C394.725 287.111 394.76 286.971 394.83 286.841C394.94 286.631 395.1 286.501 395.31 286.451L395.37 286.421L395.28 286.361C395.08 286.241 394.845 286.186 394.575 286.196C394.345 286.196 394.14 286.226 393.96 286.286C393.53 286.436 393.18 286.721 392.91 287.141C392.59 287.601 392.41 288.366 392.37 289.436C392.37 289.566 392.365 289.681 392.355 289.781C392.365 289.781 392.395 289.746 392.445 289.676C392.595 289.456 392.765 289.291 392.955 289.181C393.275 288.961 393.615 288.846 393.975 288.836C394.535 288.816 395.035 288.966 395.475 289.286C395.685 289.436 395.885 289.636 396.075 289.886C396.505 290.446 396.755 291.046 396.825 291.686C396.865 291.936 396.87 292.281 396.84 292.721C396.83 292.761 396.825 292.796 396.825 292.826C396.725 293.636 396.365 294.341 395.745 294.941C395.165 295.511 394.47 295.781 393.66 295.751C393.04 295.721 392.485 295.491 391.995 295.061C391.725 294.801 391.495 294.486 391.305 294.116C390.945 293.446 390.73 292.596 390.66 291.566C390.61 290.876 390.62 290.256 390.69 289.706C390.88 288.266 391.435 287.141 392.355 286.331C392.495 286.211 392.64 286.101 392.79 286.001C393.23 285.691 393.715 285.506 394.245 285.446ZM394.095 289.556C393.925 289.536 393.78 289.536 393.66 289.556C392.92 289.666 392.495 290.376 392.385 291.686C392.345 292.236 392.36 292.881 392.43 293.621C392.44 293.651 392.445 293.681 392.445 293.711C392.475 294.011 392.605 294.291 392.835 294.551C393.015 294.731 393.22 294.856 393.45 294.926C393.62 294.966 393.845 294.966 394.125 294.926C394.445 294.846 394.695 294.681 394.875 294.431C395.045 294.181 395.13 293.566 395.13 292.586C395.13 292.406 395.13 292.196 395.13 291.956C395.12 291.266 395.095 290.786 395.055 290.516C395.045 290.376 394.995 290.231 394.905 290.081C394.715 289.791 394.445 289.616 394.095 289.556Z" fill="white"/>
<path d="M443.255 285.446C443.465 285.426 443.755 285.431 444.125 285.461C445.075 285.611 445.755 286.016 446.165 286.676C446.295 286.896 446.385 287.126 446.435 287.366C446.475 287.586 446.465 287.831 446.405 288.101C446.295 288.651 446.04 289.121 445.64 289.511C445.36 289.791 445.055 290.001 444.725 290.141C444.645 290.191 444.6 290.216 444.59 290.216L444.815 290.291C445.315 290.461 445.75 290.721 446.12 291.071C446.43 291.391 446.645 291.756 446.765 292.166C446.965 292.876 446.845 293.581 446.405 294.281C446.295 294.441 446.175 294.591 446.045 294.731C445.775 295.001 445.49 295.211 445.19 295.361C444.85 295.531 444.47 295.651 444.05 295.721C443.82 295.761 443.515 295.766 443.135 295.736C443.095 295.726 443.065 295.721 443.045 295.721C442.015 295.551 441.295 295.116 440.885 294.416C440.875 294.396 440.865 294.376 440.855 294.356C440.715 294.076 440.645 293.771 440.645 293.441C440.645 293.281 440.655 293.161 440.675 293.081C440.835 292.641 441.16 292.416 441.65 292.406C442.15 292.406 442.48 292.631 442.64 293.081C442.66 293.161 442.67 293.276 442.67 293.426C442.67 293.576 442.66 293.686 442.64 293.756C442.54 294.066 442.34 294.276 442.04 294.386L441.95 294.416L441.98 294.446C442.11 294.546 442.24 294.626 442.37 294.686C442.77 294.896 443.19 294.986 443.63 294.956C443.68 294.956 443.72 294.951 443.75 294.941C444.2 294.871 444.525 294.606 444.725 294.146C444.745 294.096 444.765 294.046 444.785 293.996C444.875 293.746 444.92 293.331 444.92 292.751C444.92 292.161 444.865 291.726 444.755 291.446C444.625 291.096 444.395 290.836 444.065 290.666C443.925 290.606 443.655 290.571 443.255 290.561H443.165L442.565 290.546L442.52 290.516C442.5 290.486 442.49 290.386 442.49 290.216C442.49 290.036 442.5 289.936 442.52 289.916C442.54 289.886 442.56 289.871 442.58 289.871C442.59 289.861 442.735 289.846 443.015 289.826C443.425 289.796 443.715 289.726 443.885 289.616C444.245 289.376 444.49 288.956 444.62 288.356C444.76 287.636 444.73 287.091 444.53 286.721C444.45 286.551 444.31 286.411 444.11 286.301C443.96 286.231 443.775 286.196 443.555 286.196C443.055 286.176 442.625 286.331 442.265 286.661L442.175 286.736L442.265 286.766C442.645 286.866 442.865 287.121 442.925 287.531C442.935 287.561 442.94 287.591 442.94 287.621C442.94 287.801 442.905 287.976 442.835 288.146C442.755 288.296 442.625 288.421 442.445 288.521C442.275 288.591 442.12 288.626 441.98 288.626C441.85 288.626 441.7 288.591 441.53 288.521C441.35 288.421 441.22 288.296 441.14 288.146C441.07 287.996 441.035 287.806 441.035 287.576C441.075 286.816 441.45 286.231 442.16 285.821C442.2 285.791 442.24 285.766 442.28 285.746C442.59 285.586 442.915 285.486 443.255 285.446Z" fill="white"/>
<path d="M495.21 285.446C495.49 285.416 495.78 285.426 496.08 285.476C496.77 285.566 497.345 285.836 497.805 286.286C498.065 286.526 498.275 286.811 498.435 287.141C498.605 287.521 498.705 287.941 498.735 288.401C498.745 288.981 498.585 289.531 498.255 290.051C497.955 290.491 497.425 291.026 496.665 291.656C496.305 291.966 495.8 292.431 495.15 293.051L494.28 293.876L495.3 293.891C496.76 293.891 497.54 293.866 497.64 293.816C497.7 293.786 497.765 293.611 497.835 293.291L497.985 292.451C497.985 292.441 498.11 292.436 498.36 292.436H498.735V292.481C498.725 292.501 498.655 292.981 498.525 293.921C498.395 294.861 498.325 295.346 498.315 295.376V295.421H495.525H492.75V295.061C492.75 294.811 492.76 294.671 492.78 294.641L494.055 293.201C495.145 291.981 495.81 291.216 496.05 290.906C496.43 290.376 496.695 289.896 496.845 289.466C497.105 288.666 497.055 287.931 496.695 287.261C496.605 287.101 496.5 286.956 496.38 286.826C496.05 286.486 495.64 286.301 495.15 286.271C494.75 286.251 494.405 286.386 494.115 286.676L493.845 287.021C493.845 287.041 493.885 287.051 493.965 287.051C494.155 287.111 494.305 287.196 494.415 287.306C494.485 287.356 494.545 287.431 494.595 287.531C494.665 287.701 494.7 287.876 494.7 288.056C494.67 288.536 494.425 288.831 493.965 288.941C493.925 288.951 493.885 288.961 493.845 288.971C493.765 288.981 493.685 288.981 493.605 288.971C493.185 288.911 492.915 288.696 492.795 288.326C492.775 288.246 492.765 288.121 492.765 287.951C492.765 287.761 492.775 287.626 492.795 287.546C492.885 287.146 493.055 286.781 493.305 286.451C493.435 286.291 493.61 286.131 493.83 285.971C494.05 285.811 494.305 285.681 494.595 285.581C494.775 285.531 494.98 285.486 495.21 285.446Z" fill="white"/>
<path d="M543.08 286.976L543.305 285.281H543.68H544.055V285.341C544.085 285.521 544.275 285.636 544.625 285.686C544.855 285.726 545.725 285.751 547.235 285.761H549.275V286.136V286.496L548.285 287.816L547.235 289.256C546.695 290.046 546.375 291.131 546.275 292.511C546.235 292.881 546.21 293.456 546.2 294.236L546.185 295.076L546.155 295.181C546.095 295.321 546.02 295.431 545.93 295.511C545.67 295.761 545.365 295.821 545.015 295.691C544.895 295.651 544.795 295.591 544.715 295.511C544.625 295.431 544.55 295.321 544.49 295.181C544.47 295.131 544.455 295.026 544.445 294.866C544.445 294.506 544.465 294.186 544.505 293.906C544.675 292.326 545.29 290.761 546.35 289.211L547.745 287.306C547.755 287.296 547.71 287.291 547.61 287.291C547.49 287.291 547 287.291 546.14 287.291C544.91 287.301 544.2 287.321 544.01 287.351C543.93 287.351 543.87 287.416 543.83 287.546C543.76 287.696 543.675 288.076 543.575 288.686V288.746H543.2H542.825V288.716C542.825 288.726 542.91 288.146 543.08 286.976Z" fill="white"/>
<path d="M595.21 285.446C595.49 285.416 595.78 285.426 596.08 285.476C596.77 285.566 597.345 285.836 597.805 286.286C598.065 286.526 598.275 286.811 598.435 287.141C598.605 287.521 598.705 287.941 598.735 288.401C598.745 288.981 598.585 289.531 598.255 290.051C597.955 290.491 597.425 291.026 596.665 291.656C596.305 291.966 595.8 292.431 595.15 293.051L594.28 293.876L595.3 293.891C596.76 293.891 597.54 293.866 597.64 293.816C597.7 293.786 597.765 293.611 597.835 293.291L597.985 292.451C597.985 292.441 598.11 292.436 598.36 292.436H598.735V292.481C598.725 292.501 598.655 292.981 598.525 293.921C598.395 294.861 598.325 295.346 598.315 295.376V295.421H595.525H592.75V295.061C592.75 294.811 592.76 294.671 592.78 294.641L594.055 293.201C595.145 291.981 595.81 291.216 596.05 290.906C596.43 290.376 596.695 289.896 596.845 289.466C597.105 288.666 597.055 287.931 596.695 287.261C596.605 287.101 596.5 286.956 596.38 286.826C596.05 286.486 595.64 286.301 595.15 286.271C594.75 286.251 594.405 286.386 594.115 286.676L593.845 287.021C593.845 287.041 593.885 287.051 593.965 287.051C594.155 287.111 594.305 287.196 594.415 287.306C594.485 287.356 594.545 287.431 594.595 287.531C594.665 287.701 594.7 287.876 594.7 288.056C594.67 288.536 594.425 288.831 593.965 288.941C593.925 288.951 593.885 288.961 593.845 288.971C593.765 288.981 593.685 288.981 593.605 288.971C593.185 288.911 592.915 288.696 592.795 288.326C592.775 288.246 592.765 288.121 592.765 287.951C592.765 287.761 592.775 287.626 592.795 287.546C592.885 287.146 593.055 286.781 593.305 286.451C593.435 286.291 593.61 286.131 593.83 285.971C594.05 285.811 594.305 285.681 594.595 285.581C594.775 285.531 594.98 285.486 595.21 285.446Z" fill="white"/>
<path d="M646.245 285.446C646.455 285.426 646.71 285.431 647.01 285.461C647.66 285.601 648.095 285.931 648.315 286.451C648.495 286.841 648.54 287.191 648.45 287.501C648.34 287.911 648.06 288.126 647.61 288.146C647.45 288.146 647.305 288.111 647.175 288.041C646.865 287.901 646.715 287.641 646.725 287.261C646.725 287.111 646.76 286.971 646.83 286.841C646.94 286.631 647.1 286.501 647.31 286.451L647.37 286.421L647.28 286.361C647.08 286.241 646.845 286.186 646.575 286.196C646.345 286.196 646.14 286.226 645.96 286.286C645.53 286.436 645.18 286.721 644.91 287.141C644.59 287.601 644.41 288.366 644.37 289.436C644.37 289.566 644.365 289.681 644.355 289.781C644.365 289.781 644.395 289.746 644.445 289.676C644.595 289.456 644.765 289.291 644.955 289.181C645.275 288.961 645.615 288.846 645.975 288.836C646.535 288.816 647.035 288.966 647.475 289.286C647.685 289.436 647.885 289.636 648.075 289.886C648.505 290.446 648.755 291.046 648.825 291.686C648.865 291.936 648.87 292.281 648.84 292.721C648.83 292.761 648.825 292.796 648.825 292.826C648.725 293.636 648.365 294.341 647.745 294.941C647.165 295.511 646.47 295.781 645.66 295.751C645.04 295.721 644.485 295.491 643.995 295.061C643.725 294.801 643.495 294.486 643.305 294.116C642.945 293.446 642.73 292.596 642.66 291.566C642.61 290.876 642.62 290.256 642.69 289.706C642.88 288.266 643.435 287.141 644.355 286.331C644.495 286.211 644.64 286.101 644.79 286.001C645.23 285.691 645.715 285.506 646.245 285.446ZM646.095 289.556C645.925 289.536 645.78 289.536 645.66 289.556C644.92 289.666 644.495 290.376 644.385 291.686C644.345 292.236 644.36 292.881 644.43 293.621C644.44 293.651 644.445 293.681 644.445 293.711C644.475 294.011 644.605 294.291 644.835 294.551C645.015 294.731 645.22 294.856 645.45 294.926C645.62 294.966 645.845 294.966 646.125 294.926C646.445 294.846 646.695 294.681 646.875 294.431C647.045 294.181 647.13 293.566 647.13 292.586C647.13 292.406 647.13 292.196 647.13 291.956C647.12 291.266 647.095 290.786 647.055 290.516C647.045 290.376 646.995 290.231 646.905 290.081C646.715 289.791 646.445 289.616 646.095 289.556Z" fill="white"/>
<line x1="449.35" y1="57.3571" x2="399.35" y2="106.357" stroke="#969696"/>
<line x1="492.346" y1="58.6392" x2="541.346" y2="105.639" stroke="#969696"/>
<line x1="364.419" y1="147.273" x2="334.419" y2="193.273" stroke="#969696"/>
<line x1="392.469" y1="146.827" x2="409.469" y2="192.827" stroke="#969696"/>
<line x1="553.466" y1="150.18" x2="536.466" y2="194.18" stroke="#969696"/>
<line x1="581.412" y1="146.716" x2="612.412" y2="191.716" stroke="#969696"/>
<line y1="-0.5" x2="32.4005" y2="-0.5" transform="matrix(-0.308637 0.95118 -0.952232 -0.305375 309 241.667)" stroke="#969696"/>
<line x1="332.48" y1="241.858" x2="341.48" y2="272.344" stroke="#969696"/>
<line x1="407.479" y1="242.144" x2="398.479" y2="272.144" stroke="#969696"/>
<line x1="433.479" y1="241.856" x2="442.479" y2="271.856" stroke="#969696"/>
<line x1="511.473" y1="241.828" x2="501.473" y2="271.161" stroke="#969696"/>
<line x1="534.468" y1="241.823" x2="545.468" y2="270.823" stroke="#969696"/>
<line x1="611.465" y1="242.183" x2="600.465" y2="270.183" stroke="#969696"/>
<line x1="634.476" y1="241.847" x2="643.476" y2="269.847" stroke="#969696"/>
<line x1="279.5" y1="315" x2="279.5" y2="324.942" stroke="#D9D9D9"/>
<line y1="-0.5" x2="382.001" y2="-0.5" transform="matrix(0.999997 0.00260248 -0.00263319 0.999997 279 325.942)" stroke="#D9D9D9"/>
<line x1="661.5" y1="316.228" x2="661.5" y2="326.17" stroke="#D9D9D9"/>
<path d="M470.3 340.242C470.336 340.218 470.48 340.206 470.732 340.206C470.996 340.206 471.146 340.218 471.182 340.242C471.218 340.254 471.254 340.278 471.29 340.314C471.314 340.35 471.956 342.288 473.216 346.128C474.488 349.992 475.13 351.93 475.142 351.942C475.19 352.014 475.364 352.056 475.664 352.068C475.784 352.08 476.042 352.086 476.438 352.086H476.906V352.59V353.094H476.744C476.756 353.094 476.33 353.082 475.466 353.058C474.734 353.046 473.954 353.046 473.126 353.058L471.686 353.094H471.488V352.59V352.086H471.776C472.424 352.086 472.82 352.05 472.964 351.978C472.988 351.954 473 351.93 473 351.906C473 351.93 472.886 351.576 472.658 350.844C472.454 350.232 472.328 349.842 472.28 349.674L472.244 349.566H470.21H468.194L467.888 350.484L467.582 351.456C467.57 351.552 467.612 351.648 467.708 351.744C467.912 351.936 468.254 352.05 468.734 352.086H468.932V352.59V353.094H468.77L467.6 353.058C466.904 353.046 466.274 353.046 465.71 353.058C465.05 353.082 464.714 353.094 464.702 353.094H464.576V352.59V352.086H464.756C465.14 352.086 465.488 352.044 465.8 351.96C466.172 351.84 466.4 351.684 466.484 351.492C466.496 351.468 467.12 349.596 468.356 345.876C469.556 342.228 470.168 340.374 470.192 340.314C470.228 340.278 470.264 340.254 470.3 340.242ZM471.056 345.984L470.228 343.428C470.228 343.44 469.664 345.138 468.536 348.522C468.536 348.546 469.094 348.558 470.21 348.558C471.338 348.558 471.902 348.552 471.902 348.54L471.056 345.984Z" fill="#777777"/>
<path d="M371.18 90.5V85.5H371.87H372.55V85.7V85.9H372.07H371.58V90.5V95.1H372.07H372.55V95.3V95.5H371.87H371.18V90.5ZM375.523 86.38L375.553 86.34H375.673C375.747 86.34 375.793 86.35 375.813 86.37L375.853 86.4V89.38V92.36L375.883 92.38C375.89 92.3867 375.913 92.3967 375.953 92.41C376.033 92.43 376.3 92.44 376.753 92.44H377.083V92.72V93H376.963L376.103 92.98C375.603 92.9733 375.103 92.9733 374.603 92.98C374.017 92.9933 373.727 93 373.733 93H373.613V92.72V92.44H373.943C374.41 92.44 374.683 92.43 374.763 92.41C374.803 92.3967 374.827 92.3867 374.833 92.38L374.863 92.36V89.85C374.863 88.1767 374.86 87.34 374.853 87.34C374.507 87.4733 374.12 87.54 373.693 87.54H373.563V87.26V86.98H373.693C374.28 86.98 374.78 86.86 375.193 86.62C375.36 86.5133 375.47 86.4333 375.523 86.38ZM379.023 91.7C379.25 91.6533 379.447 91.7133 379.613 91.88C379.753 92.02 379.853 92.24 379.913 92.54C379.94 92.7667 379.937 93.01 379.903 93.27C379.83 93.7433 379.65 94.1767 379.363 94.57C379.237 94.75 379.12 94.8733 379.013 94.94H378.963C378.917 94.9267 378.84 94.8533 378.733 94.72C378.713 94.7 378.703 94.6833 378.703 94.67C378.697 94.63 378.737 94.5633 378.823 94.47C379.057 94.23 379.23 93.9433 379.343 93.61C379.41 93.3967 379.45 93.2 379.463 93.02C379.463 92.9667 379.457 92.94 379.443 92.94C379.377 92.9733 379.287 92.99 379.173 92.99C379.073 92.99 378.997 92.98 378.943 92.96C378.837 92.9333 378.743 92.8733 378.663 92.78C378.563 92.66 378.513 92.5133 378.513 92.34C378.513 92.1733 378.563 92.03 378.663 91.91C378.737 91.8167 378.857 91.7467 379.023 91.7ZM383.836 86.25C383.856 86.2367 383.946 86.23 384.106 86.23H384.346L384.376 86.26L384.406 86.29V88.55V90.8H384.846H385.276V91.08V91.36H384.846H384.406V91.86C384.406 92.1933 384.413 92.3667 384.426 92.38L384.486 92.41C384.546 92.43 384.733 92.44 385.046 92.44H385.276V92.72V93H385.186C385.193 93 384.963 92.9933 384.496 92.98C384.096 92.9733 383.683 92.9733 383.256 92.98L382.516 93H382.416V92.72V92.44H382.796C383.163 92.4333 383.356 92.41 383.376 92.37C383.383 92.3633 383.386 92.1933 383.386 91.86V91.36H382.116H380.846V91.08V90.8L382.326 88.53C383.306 87.0233 383.81 86.2633 383.836 86.25ZM383.446 90.8V89.25V87.71L382.436 89.25L381.426 90.79L382.436 90.8H383.446ZM385.786 85.7V85.5H386.476H387.156V90.5V95.5H386.476H385.786V95.3V95.1H386.276H386.756V90.5V85.9H386.276H385.786V85.7Z" fill="#777777"/>
<path d="M428.18 183.5V178.5H428.87H429.55V178.7V178.9H429.07H428.58V183.5V188.1H429.07H429.55V188.3V188.5H428.87H428.18V183.5ZM431.953 179.35C432.093 179.337 432.287 179.34 432.533 179.36C433.167 179.46 433.62 179.73 433.893 180.17C433.98 180.317 434.04 180.47 434.073 180.63C434.1 180.777 434.093 180.94 434.053 181.12C433.98 181.487 433.81 181.8 433.543 182.06C433.357 182.247 433.153 182.387 432.933 182.48C432.88 182.513 432.85 182.53 432.843 182.53L432.993 182.58C433.327 182.693 433.617 182.867 433.863 183.1C434.07 183.313 434.213 183.557 434.293 183.83C434.427 184.303 434.347 184.773 434.053 185.24C433.98 185.347 433.9 185.447 433.813 185.54C433.633 185.72 433.443 185.86 433.243 185.96C433.017 186.073 432.763 186.153 432.483 186.2C432.33 186.227 432.127 186.23 431.873 186.21C431.847 186.203 431.827 186.2 431.813 186.2C431.127 186.087 430.647 185.797 430.373 185.33C430.367 185.317 430.36 185.303 430.353 185.29C430.26 185.103 430.213 184.9 430.213 184.68C430.213 184.573 430.22 184.493 430.233 184.44C430.34 184.147 430.557 183.997 430.883 183.99C431.217 183.99 431.437 184.14 431.543 184.44C431.557 184.493 431.563 184.57 431.563 184.67C431.563 184.77 431.557 184.843 431.543 184.89C431.477 185.097 431.343 185.237 431.143 185.31L431.083 185.33L431.103 185.35C431.19 185.417 431.277 185.47 431.363 185.51C431.63 185.65 431.91 185.71 432.203 185.69C432.237 185.69 432.263 185.687 432.283 185.68C432.583 185.633 432.8 185.457 432.933 185.15C432.947 185.117 432.96 185.083 432.973 185.05C433.033 184.883 433.063 184.607 433.063 184.22C433.063 183.827 433.027 183.537 432.953 183.35C432.867 183.117 432.713 182.943 432.493 182.83C432.4 182.79 432.22 182.767 431.953 182.76H431.893L431.493 182.75L431.463 182.73C431.45 182.71 431.443 182.643 431.443 182.53C431.443 182.41 431.45 182.343 431.463 182.33C431.477 182.31 431.49 182.3 431.503 182.3C431.51 182.293 431.607 182.283 431.793 182.27C432.067 182.25 432.26 182.203 432.373 182.13C432.613 181.97 432.777 181.69 432.863 181.29C432.957 180.81 432.937 180.447 432.803 180.2C432.75 180.087 432.657 179.993 432.523 179.92C432.423 179.873 432.3 179.85 432.153 179.85C431.82 179.837 431.533 179.94 431.293 180.16L431.233 180.21L431.293 180.23C431.547 180.297 431.693 180.467 431.733 180.74C431.74 180.76 431.743 180.78 431.743 180.8C431.743 180.92 431.72 181.037 431.673 181.15C431.62 181.25 431.533 181.333 431.413 181.4C431.3 181.447 431.197 181.47 431.103 181.47C431.017 181.47 430.917 181.447 430.803 181.4C430.683 181.333 430.597 181.25 430.543 181.15C430.497 181.05 430.473 180.923 430.473 180.77C430.5 180.263 430.75 179.873 431.223 179.6C431.25 179.58 431.277 179.563 431.303 179.55C431.51 179.443 431.727 179.377 431.953 179.35ZM436.023 184.7C436.25 184.653 436.447 184.713 436.613 184.88C436.753 185.02 436.853 185.24 436.913 185.54C436.94 185.767 436.937 186.01 436.903 186.27C436.83 186.743 436.65 187.177 436.363 187.57C436.237 187.75 436.12 187.873 436.013 187.94H435.963C435.917 187.927 435.84 187.853 435.733 187.72C435.713 187.7 435.703 187.683 435.703 187.67C435.697 187.63 435.737 187.563 435.823 187.47C436.057 187.23 436.23 186.943 436.343 186.61C436.41 186.397 436.45 186.2 436.463 186.02C436.463 185.967 436.457 185.94 436.443 185.94C436.377 185.973 436.287 185.99 436.173 185.99C436.073 185.99 435.997 185.98 435.943 185.96C435.837 185.933 435.743 185.873 435.663 185.78C435.563 185.66 435.513 185.513 435.513 185.34C435.513 185.173 435.563 185.03 435.663 184.91C435.737 184.817 435.857 184.747 436.023 184.7ZM440.836 179.25C440.856 179.237 440.946 179.23 441.106 179.23H441.346L441.376 179.26L441.406 179.29V181.55V183.8H441.846H442.276V184.08V184.36H441.846H441.406V184.86C441.406 185.193 441.413 185.367 441.426 185.38L441.486 185.41C441.546 185.43 441.733 185.44 442.046 185.44H442.276V185.72V186H442.186C442.193 186 441.963 185.993 441.496 185.98C441.096 185.973 440.683 185.973 440.256 185.98L439.516 186H439.416V185.72V185.44H439.796C440.163 185.433 440.356 185.41 440.376 185.37C440.383 185.363 440.386 185.193 440.386 184.86V184.36H439.116H437.846V184.08V183.8L439.326 181.53C440.306 180.023 440.81 179.263 440.836 179.25ZM440.446 183.8V182.25V180.71L439.436 182.25L438.426 183.79L439.436 183.8H440.446ZM442.786 178.7V178.5H443.476H444.156V183.5V188.5H443.476H442.786V188.3V188.1H443.276H443.756V183.5V178.9H443.276H442.786V178.7Z" fill="#777777"/>
<path d="M499.18 183.5V178.5H499.87H500.55V178.7V178.9H500.07H499.58V183.5V188.1H500.07H500.55V188.3V188.5H499.87H499.18V183.5ZM504.053 179.25C504.073 179.237 504.163 179.23 504.323 179.23H504.563L504.593 179.26L504.623 179.29V181.55V183.8H505.063H505.493V184.08V184.36H505.063H504.623V184.86C504.623 185.193 504.63 185.367 504.643 185.38L504.703 185.41C504.763 185.43 504.95 185.44 505.263 185.44H505.493V185.72V186H505.403C505.41 186 505.18 185.993 504.713 185.98C504.313 185.973 503.9 185.973 503.473 185.98L502.733 186H502.633V185.72V185.44H503.013C503.38 185.433 503.573 185.41 503.593 185.37C503.6 185.363 503.603 185.193 503.603 184.86V184.36H502.333H501.063V184.08V183.8L502.543 181.53C503.523 180.023 504.027 179.263 504.053 179.25ZM503.663 183.8V182.25V180.71L502.653 182.25L501.643 183.79L502.653 183.8H503.663ZM507.023 184.7C507.25 184.653 507.447 184.713 507.613 184.88C507.753 185.02 507.853 185.24 507.913 185.54C507.94 185.767 507.937 186.01 507.903 186.27C507.83 186.743 507.65 187.177 507.363 187.57C507.237 187.75 507.12 187.873 507.013 187.94H506.963C506.917 187.927 506.84 187.853 506.733 187.72C506.713 187.7 506.703 187.683 506.703 187.67C506.697 187.63 506.737 187.563 506.823 187.47C507.057 187.23 507.23 186.943 507.343 186.61C507.41 186.397 507.45 186.2 507.463 186.02C507.463 185.967 507.457 185.94 507.443 185.94C507.377 185.973 507.287 185.99 507.173 185.99C507.073 185.99 506.997 185.98 506.943 185.96C506.837 185.933 506.743 185.873 506.663 185.78C506.563 185.66 506.513 185.513 506.513 185.34C506.513 185.173 506.563 185.03 506.663 184.91C506.737 184.817 506.857 184.747 507.023 184.7ZM511.396 179.35C511.536 179.337 511.706 179.34 511.906 179.36C512.34 179.453 512.63 179.673 512.776 180.02C512.896 180.28 512.926 180.513 512.866 180.72C512.793 180.993 512.606 181.137 512.306 181.15C512.2 181.15 512.103 181.127 512.016 181.08C511.81 180.987 511.71 180.813 511.716 180.56C511.716 180.46 511.74 180.367 511.786 180.28C511.86 180.14 511.966 180.053 512.106 180.02L512.146 180L512.086 179.96C511.953 179.88 511.796 179.843 511.616 179.85C511.463 179.85 511.326 179.87 511.206 179.91C510.92 180.01 510.686 180.2 510.506 180.48C510.293 180.787 510.173 181.297 510.146 182.01C510.146 182.097 510.143 182.173 510.136 182.24C510.143 182.24 510.163 182.217 510.196 182.17C510.296 182.023 510.41 181.913 510.536 181.84C510.75 181.693 510.976 181.617 511.216 181.61C511.59 181.597 511.923 181.697 512.216 181.91C512.356 182.01 512.49 182.143 512.616 182.31C512.903 182.683 513.07 183.083 513.116 183.51C513.143 183.677 513.146 183.907 513.126 184.2C513.12 184.227 513.116 184.25 513.116 184.27C513.05 184.81 512.81 185.28 512.396 185.68C512.01 186.06 511.546 186.24 511.006 186.22C510.593 186.2 510.223 186.047 509.896 185.76C509.716 185.587 509.563 185.377 509.436 185.13C509.196 184.683 509.053 184.117 509.006 183.43C508.973 182.97 508.98 182.557 509.026 182.19C509.153 181.23 509.523 180.48 510.136 179.94C510.23 179.86 510.326 179.787 510.426 179.72C510.72 179.513 511.043 179.39 511.396 179.35ZM511.296 182.09C511.183 182.077 511.086 182.077 511.006 182.09C510.513 182.163 510.23 182.637 510.156 183.51C510.13 183.877 510.14 184.307 510.186 184.8C510.193 184.82 510.196 184.84 510.196 184.86C510.216 185.06 510.303 185.247 510.456 185.42C510.576 185.54 510.713 185.623 510.866 185.67C510.98 185.697 511.13 185.697 511.316 185.67C511.53 185.617 511.696 185.507 511.816 185.34C511.93 185.173 511.986 184.763 511.986 184.11C511.986 183.99 511.986 183.85 511.986 183.69C511.98 183.23 511.963 182.91 511.936 182.73C511.93 182.637 511.896 182.54 511.836 182.44C511.71 182.247 511.53 182.13 511.296 182.09ZM513.786 178.7V178.5H514.476H515.156V183.5V188.5H514.476H513.786V188.3V188.1H514.276H514.756V183.5V178.9H514.276H513.786V178.7Z" fill="#777777"/>
<path d="M630.18 183.5V178.5H630.87H631.55V178.7V178.9H631.07H630.58V183.5V188.1H631.07H631.55V188.3V188.5H630.87H630.18V183.5ZM632.503 180.37L632.653 179.24H632.903H633.153V179.28C633.173 179.4 633.3 179.477 633.533 179.51C633.687 179.537 634.267 179.553 635.273 179.56H636.633V179.81V180.05L635.973 180.93L635.273 181.89C634.913 182.417 634.7 183.14 634.633 184.06C634.607 184.307 634.59 184.69 634.583 185.21L634.573 185.77L634.553 185.84C634.513 185.933 634.463 186.007 634.403 186.06C634.23 186.227 634.027 186.267 633.793 186.18C633.713 186.153 633.647 186.113 633.593 186.06C633.533 186.007 633.483 185.933 633.443 185.84C633.43 185.807 633.42 185.737 633.413 185.63C633.413 185.39 633.427 185.177 633.453 184.99C633.567 183.937 633.977 182.893 634.683 181.86L635.613 180.59C635.62 180.583 635.59 180.58 635.523 180.58C635.443 180.58 635.117 180.58 634.543 180.58C633.723 180.587 633.25 180.6 633.123 180.62C633.07 180.62 633.03 180.663 633.003 180.75C632.957 180.85 632.9 181.103 632.833 181.51V181.55H632.583H632.333V181.53C632.333 181.537 632.39 181.15 632.503 180.37ZM638.023 184.7C638.25 184.653 638.447 184.713 638.613 184.88C638.753 185.02 638.853 185.24 638.913 185.54C638.94 185.767 638.937 186.01 638.903 186.27C638.83 186.743 638.65 187.177 638.363 187.57C638.237 187.75 638.12 187.873 638.013 187.94H637.963C637.917 187.927 637.84 187.853 637.733 187.72C637.713 187.7 637.703 187.683 637.703 187.67C637.697 187.63 637.737 187.563 637.823 187.47C638.057 187.23 638.23 186.943 638.343 186.61C638.41 186.397 638.45 186.2 638.463 186.02C638.463 185.967 638.457 185.94 638.443 185.94C638.377 185.973 638.287 185.99 638.173 185.99C638.073 185.99 637.997 185.98 637.943 185.96C637.837 185.933 637.743 185.873 637.663 185.78C637.563 185.66 637.513 185.513 637.513 185.34C637.513 185.173 637.563 185.03 637.663 184.91C637.737 184.817 637.857 184.747 638.023 184.7ZM641.896 179.35L642.386 179.36C642.98 179.467 643.406 179.74 643.666 180.18C643.686 180.22 643.706 180.257 643.726 180.29C643.786 180.43 643.826 180.547 643.846 180.64C643.873 180.793 643.873 180.967 643.846 181.16C643.78 181.467 643.613 181.75 643.346 182.01C643.233 182.123 643.103 182.227 642.956 182.32C642.916 182.347 642.893 182.363 642.886 182.37L643.076 182.5C643.21 182.587 643.3 182.647 643.346 182.68C643.486 182.787 643.603 182.9 643.696 183.02C644.036 183.433 644.18 183.907 644.126 184.44C644.06 185.04 643.766 185.513 643.246 185.86C643.046 185.993 642.823 186.093 642.576 186.16C642.016 186.293 641.48 186.223 640.966 185.95C640.906 185.917 640.85 185.883 640.796 185.85C640.37 185.57 640.11 185.193 640.016 184.72C639.976 184.507 639.976 184.3 640.016 184.1C640.076 183.82 640.203 183.557 640.396 183.31C640.516 183.157 640.65 183.027 640.796 182.92C640.943 182.807 641.063 182.727 641.156 182.68C641.176 182.667 641.19 182.657 641.196 182.65L641.106 182.58C640.693 182.327 640.43 181.97 640.316 181.51C640.183 181.03 640.263 180.567 640.556 180.12C640.696 179.927 640.85 179.773 641.016 179.66C641.216 179.533 641.416 179.447 641.616 179.4C641.683 179.373 641.776 179.357 641.896 179.35ZM642.236 179.85C641.85 179.797 641.516 179.89 641.236 180.13C641.15 180.203 641.083 180.283 641.036 180.37C640.87 180.683 640.923 180.977 641.196 181.25C641.25 181.31 641.453 181.453 641.806 181.68L641.916 181.75C642.256 181.977 642.433 182.083 642.446 182.07C642.506 182.05 642.613 181.963 642.766 181.81C642.966 181.61 643.096 181.387 643.156 181.14C643.19 180.993 643.186 180.83 643.146 180.65C643.093 180.463 643 180.303 642.866 180.17C642.693 179.997 642.483 179.89 642.236 179.85ZM642.366 183.39C641.926 183.11 641.716 182.977 641.736 182.99L641.656 182.94L641.556 183.01C641.043 183.35 640.77 183.787 640.736 184.32C640.736 184.373 640.736 184.427 640.736 184.48C640.756 184.813 640.89 185.093 641.136 185.32C641.31 185.493 641.533 185.61 641.806 185.67C641.966 185.697 642.143 185.697 642.336 185.67C642.79 185.577 643.103 185.363 643.276 185.03C643.303 184.983 643.323 184.933 643.336 184.88C643.45 184.507 643.363 184.177 643.076 183.89C643.016 183.83 642.78 183.663 642.366 183.39ZM644.786 178.7V178.5H645.476H646.156V183.5V188.5H645.476H644.786V188.3V188.1H645.276H645.756V183.5V178.9H645.276H644.786V178.7Z" fill="#777777"/>
<path d="M297.18 183.5V178.5H297.87H298.55V178.7V178.9H298.07H297.58V183.5V188.1H298.07H298.55V188.3V188.5H297.87H297.18V183.5ZM301.523 179.38L301.553 179.34H301.673C301.747 179.34 301.793 179.35 301.813 179.37L301.853 179.4V182.38V185.36L301.883 185.38C301.89 185.387 301.913 185.397 301.953 185.41C302.033 185.43 302.3 185.44 302.753 185.44H303.083V185.72V186H302.963L302.103 185.98C301.603 185.973 301.103 185.973 300.603 185.98C300.017 185.993 299.727 186 299.733 186H299.613V185.72V185.44H299.943C300.41 185.44 300.683 185.43 300.763 185.41C300.803 185.397 300.827 185.387 300.833 185.38L300.863 185.36V182.85C300.863 181.177 300.86 180.34 300.853 180.34C300.507 180.473 300.12 180.54 299.693 180.54H299.563V180.26V179.98H299.693C300.28 179.98 300.78 179.86 301.193 179.62C301.36 179.513 301.47 179.433 301.523 179.38ZM305.023 184.7C305.25 184.653 305.447 184.713 305.613 184.88C305.753 185.02 305.853 185.24 305.913 185.54C305.94 185.767 305.937 186.01 305.903 186.27C305.83 186.743 305.65 187.177 305.363 187.57C305.237 187.75 305.12 187.873 305.013 187.94H304.963C304.917 187.927 304.84 187.853 304.733 187.72C304.713 187.7 304.703 187.683 304.703 187.67C304.697 187.63 304.737 187.563 304.823 187.47C305.057 187.23 305.23 186.943 305.343 186.61C305.41 186.397 305.45 186.2 305.463 186.02C305.463 185.967 305.457 185.94 305.443 185.94C305.377 185.973 305.287 185.99 305.173 185.99C305.073 185.99 304.997 185.98 304.943 185.96C304.837 185.933 304.743 185.873 304.663 185.78C304.563 185.66 304.513 185.513 304.513 185.34C304.513 185.173 304.563 185.03 304.663 184.91C304.737 184.817 304.857 184.747 305.023 184.7ZM308.706 179.35C308.893 179.33 309.086 179.337 309.286 179.37C309.746 179.43 310.13 179.61 310.436 179.91C310.61 180.07 310.75 180.26 310.856 180.48C310.97 180.733 311.036 181.013 311.056 181.32C311.063 181.707 310.956 182.073 310.736 182.42C310.536 182.713 310.183 183.07 309.676 183.49C309.436 183.697 309.1 184.007 308.666 184.42L308.086 184.97L308.766 184.98C309.74 184.98 310.26 184.963 310.326 184.93C310.366 184.91 310.41 184.793 310.456 184.58L310.556 184.02C310.556 184.013 310.64 184.01 310.806 184.01H311.056V184.04C311.05 184.053 311.003 184.373 310.916 185C310.83 185.627 310.783 185.95 310.776 185.97V186H308.916H307.066V185.76C307.066 185.593 307.073 185.5 307.086 185.48L307.936 184.52C308.663 183.707 309.106 183.197 309.266 182.99C309.52 182.637 309.696 182.317 309.796 182.03C309.97 181.497 309.936 181.007 309.696 180.56C309.636 180.453 309.566 180.357 309.486 180.27C309.266 180.043 308.993 179.92 308.666 179.9C308.4 179.887 308.17 179.977 307.976 180.17L307.796 180.4C307.796 180.413 307.823 180.42 307.876 180.42C308.003 180.46 308.103 180.517 308.176 180.59C308.223 180.623 308.263 180.673 308.296 180.74C308.343 180.853 308.366 180.97 308.366 181.09C308.346 181.41 308.183 181.607 307.876 181.68C307.85 181.687 307.823 181.693 307.796 181.7C307.743 181.707 307.69 181.707 307.636 181.7C307.356 181.66 307.176 181.517 307.096 181.27C307.083 181.217 307.076 181.133 307.076 181.02C307.076 180.893 307.083 180.803 307.096 180.75C307.156 180.483 307.27 180.24 307.436 180.02C307.523 179.913 307.64 179.807 307.786 179.7C307.933 179.593 308.103 179.507 308.296 179.44C308.416 179.407 308.553 179.377 308.706 179.35ZM311.786 178.7V178.5H312.476H313.156V183.5V188.5H312.476H311.786V188.3V188.1H312.276H312.756V183.5V178.9H312.276H311.786V178.7Z" fill="#777777"/>
<path d="M555.18 90.5V85.5H555.87H556.55V85.7V85.9H556.07H555.58V90.5V95.1H556.07H556.55V95.3V95.5H555.87H555.18V90.5ZM557.713 86.36C557.74 86.34 557.79 86.3467 557.863 86.38C558.09 86.4733 558.327 86.5433 558.573 86.59C559.2 86.71 559.817 86.67 560.423 86.47C560.47 86.4567 560.553 86.4267 560.673 86.38C560.76 86.34 560.82 86.3367 560.853 86.37L560.883 86.4V86.57V86.75L560.823 86.82C560.677 86.98 560.497 87.13 560.283 87.27C559.877 87.5233 559.433 87.6667 558.953 87.7C558.653 87.7133 558.423 87.7 558.263 87.66L558.223 87.65V88.44V89.22L558.283 89.17C558.437 89.0433 558.6 88.95 558.773 88.89C559.227 88.7367 559.683 88.7733 560.143 89C560.71 89.2933 561.07 89.79 561.223 90.49C561.237 90.5433 561.247 90.5967 561.253 90.65C561.28 90.85 561.28 91.0733 561.253 91.32C561.16 91.8067 560.957 92.2133 560.643 92.54C560.47 92.7133 560.267 92.86 560.033 92.98C559.487 93.2467 558.97 93.2967 558.483 93.13C557.963 92.9633 557.603 92.6233 557.403 92.11C557.357 92.0033 557.323 91.89 557.303 91.77C557.277 91.5767 557.273 91.43 557.293 91.33C557.327 91.21 557.38 91.1133 557.453 91.04C557.633 90.86 557.853 90.81 558.113 90.89C558.273 90.9433 558.387 91.04 558.453 91.18C558.493 91.2667 558.513 91.3633 558.513 91.47C558.513 91.5833 558.493 91.6833 558.453 91.77C558.387 91.9167 558.26 92.0167 558.073 92.07C558.02 92.0833 557.987 92.09 557.973 92.09C557.96 92.09 557.97 92.1167 558.003 92.17C558.117 92.33 558.27 92.46 558.463 92.56C558.623 92.6467 558.81 92.69 559.023 92.69C559.39 92.69 559.673 92.5567 559.873 92.29C560.007 92.1167 560.087 91.8767 560.113 91.57C560.133 91.39 560.137 91.02 560.123 90.46C560.123 90.38 560.12 90.3233 560.113 90.29C560.087 89.9967 560.037 89.79 559.963 89.67C559.783 89.37 559.517 89.24 559.163 89.28C558.73 89.3333 558.407 89.56 558.193 89.96C558.153 90.02 558.107 90.0533 558.053 90.06C558.027 90.06 557.983 90.06 557.923 90.06C557.777 90.06 557.697 90.04 557.683 90C557.67 89.9733 557.663 89.3733 557.663 88.2C557.663 87.0133 557.667 86.4133 557.673 86.4C557.687 86.3733 557.7 86.36 557.713 86.36ZM563.023 91.7C563.25 91.6533 563.447 91.7133 563.613 91.88C563.753 92.02 563.853 92.24 563.913 92.54C563.94 92.7667 563.937 93.01 563.903 93.27C563.83 93.7433 563.65 94.1767 563.363 94.57C563.237 94.75 563.12 94.8733 563.013 94.94H562.963C562.917 94.9267 562.84 94.8533 562.733 94.72C562.713 94.7 562.703 94.6833 562.703 94.67C562.697 94.63 562.737 94.5633 562.823 94.47C563.057 94.23 563.23 93.9433 563.343 93.61C563.41 93.3967 563.45 93.2 563.463 93.02C563.463 92.9667 563.457 92.94 563.443 92.94C563.377 92.9733 563.287 92.99 563.173 92.99C563.073 92.99 562.997 92.98 562.943 92.96C562.837 92.9333 562.743 92.8733 562.663 92.78C562.563 92.66 562.513 92.5133 562.513 92.34C562.513 92.1733 562.563 92.03 562.663 91.91C562.737 91.8167 562.857 91.7467 563.023 91.7ZM566.896 86.35L567.386 86.36C567.98 86.4667 568.406 86.74 568.666 87.18C568.686 87.22 568.706 87.2567 568.726 87.29C568.786 87.43 568.826 87.5467 568.846 87.64C568.873 87.7933 568.873 87.9667 568.846 88.16C568.78 88.4667 568.613 88.75 568.346 89.01C568.233 89.1233 568.103 89.2267 567.956 89.32C567.916 89.3467 567.893 89.3633 567.886 89.37L568.076 89.5C568.21 89.5867 568.3 89.6467 568.346 89.68C568.486 89.7867 568.603 89.9 568.696 90.02C569.036 90.4333 569.18 90.9067 569.126 91.44C569.06 92.04 568.766 92.5133 568.246 92.86C568.046 92.9933 567.823 93.0933 567.576 93.16C567.016 93.2933 566.48 93.2233 565.966 92.95C565.906 92.9167 565.85 92.8833 565.796 92.85C565.37 92.57 565.11 92.1933 565.016 91.72C564.976 91.5067 564.976 91.3 565.016 91.1C565.076 90.82 565.203 90.5567 565.396 90.31C565.516 90.1567 565.65 90.0267 565.796 89.92C565.943 89.8067 566.063 89.7267 566.156 89.68C566.176 89.6667 566.19 89.6567 566.196 89.65L566.106 89.58C565.693 89.3267 565.43 88.97 565.316 88.51C565.183 88.03 565.263 87.5667 565.556 87.12C565.696 86.9267 565.85 86.7733 566.016 86.66C566.216 86.5333 566.416 86.4467 566.616 86.4C566.683 86.3733 566.776 86.3567 566.896 86.35ZM567.236 86.85C566.85 86.7967 566.516 86.89 566.236 87.13C566.15 87.2033 566.083 87.2833 566.036 87.37C565.87 87.6833 565.923 87.9767 566.196 88.25C566.25 88.31 566.453 88.4533 566.806 88.68L566.916 88.75C567.256 88.9767 567.433 89.0833 567.446 89.07C567.506 89.05 567.613 88.9633 567.766 88.81C567.966 88.61 568.096 88.3867 568.156 88.14C568.19 87.9933 568.186 87.83 568.146 87.65C568.093 87.4633 568 87.3033 567.866 87.17C567.693 86.9967 567.483 86.89 567.236 86.85ZM567.366 90.39C566.926 90.11 566.716 89.9767 566.736 89.99L566.656 89.94L566.556 90.01C566.043 90.35 565.77 90.7867 565.736 91.32C565.736 91.3733 565.736 91.4267 565.736 91.48C565.756 91.8133 565.89 92.0933 566.136 92.32C566.31 92.4933 566.533 92.61 566.806 92.67C566.966 92.6967 567.143 92.6967 567.336 92.67C567.79 92.5767 568.103 92.3633 568.276 92.03C568.303 91.9833 568.323 91.9333 568.336 91.88C568.45 91.5067 568.363 91.1767 568.076 90.89C568.016 90.83 567.78 90.6633 567.366 90.39ZM569.786 85.7V85.5H570.476H571.156V90.5V95.5H570.476H569.786V95.3V95.1H570.276H570.756V90.5V85.9H570.276H569.786V85.7Z" fill="#777777"/>
<path d="M462.18 5.5V0.499999H462.87H463.55V0.7V0.9H463.07H462.58V5.5V10.1H463.07H463.55V10.3V10.5H462.87H462.18V5.5ZM466.523 1.38L466.553 1.34H466.673C466.747 1.34 466.793 1.35 466.813 1.37L466.853 1.4V4.38V7.36L466.883 7.38C466.89 7.38667 466.913 7.39667 466.953 7.41C467.033 7.43 467.3 7.44 467.753 7.44H468.083V7.72V8H467.963L467.103 7.98C466.603 7.97333 466.103 7.97333 465.603 7.98C465.017 7.99333 464.727 8 464.733 8H464.613V7.72V7.44H464.943C465.41 7.44 465.683 7.43 465.763 7.41C465.803 7.39667 465.827 7.38667 465.833 7.38L465.863 7.36V4.85C465.863 3.17667 465.86 2.34 465.853 2.34C465.507 2.47333 465.12 2.54 464.693 2.54H464.563V2.26V1.98H464.693C465.28 1.98 465.78 1.86 466.193 1.62C466.36 1.51333 466.47 1.43333 466.523 1.38ZM470.023 6.7C470.25 6.65333 470.447 6.71333 470.613 6.88C470.753 7.02 470.853 7.24 470.913 7.54C470.94 7.76667 470.937 8.01 470.903 8.27C470.83 8.74333 470.65 9.17667 470.363 9.57C470.237 9.75 470.12 9.87333 470.013 9.94H469.963C469.917 9.92667 469.84 9.85333 469.733 9.72C469.713 9.7 469.703 9.68333 469.703 9.67C469.697 9.63 469.737 9.56333 469.823 9.47C470.057 9.23 470.23 8.94333 470.343 8.61C470.41 8.39667 470.45 8.2 470.463 8.02C470.463 7.96667 470.457 7.94 470.443 7.94C470.377 7.97333 470.287 7.99 470.173 7.99C470.073 7.99 469.997 7.98 469.943 7.96C469.837 7.93333 469.743 7.87333 469.663 7.78C469.563 7.66 469.513 7.51333 469.513 7.34C469.513 7.17333 469.563 7.03 469.663 6.91C469.737 6.81667 469.857 6.74667 470.023 6.7ZM473.896 1.35L474.386 1.36C474.98 1.46667 475.406 1.74 475.666 2.18C475.686 2.22 475.706 2.25667 475.726 2.29C475.786 2.43 475.826 2.54667 475.846 2.64C475.873 2.79333 475.873 2.96667 475.846 3.16C475.78 3.46667 475.613 3.75 475.346 4.01C475.233 4.12333 475.103 4.22667 474.956 4.32C474.916 4.34667 474.893 4.36333 474.886 4.37L475.076 4.5C475.21 4.58667 475.3 4.64667 475.346 4.68C475.486 4.78667 475.603 4.9 475.696 5.02C476.036 5.43333 476.18 5.90667 476.126 6.44C476.06 7.04 475.766 7.51333 475.246 7.86C475.046 7.99333 474.823 8.09333 474.576 8.16C474.016 8.29333 473.48 8.22333 472.966 7.95C472.906 7.91667 472.85 7.88333 472.796 7.85C472.37 7.57 472.11 7.19333 472.016 6.72C471.976 6.50667 471.976 6.3 472.016 6.1C472.076 5.82 472.203 5.55667 472.396 5.31C472.516 5.15667 472.65 5.02667 472.796 4.92C472.943 4.80667 473.063 4.72667 473.156 4.68C473.176 4.66667 473.19 4.65667 473.196 4.65L473.106 4.58C472.693 4.32667 472.43 3.97 472.316 3.51C472.183 3.03 472.263 2.56667 472.556 2.12C472.696 1.92667 472.85 1.77333 473.016 1.66C473.216 1.53333 473.416 1.44667 473.616 1.4C473.683 1.37333 473.776 1.35667 473.896 1.35ZM474.236 1.85C473.85 1.79667 473.516 1.89 473.236 2.13C473.15 2.20333 473.083 2.28333 473.036 2.37C472.87 2.68333 472.923 2.97667 473.196 3.25C473.25 3.31 473.453 3.45333 473.806 3.68L473.916 3.75C474.256 3.97667 474.433 4.08333 474.446 4.07C474.506 4.05 474.613 3.96333 474.766 3.81C474.966 3.61 475.096 3.38667 475.156 3.14C475.19 2.99333 475.186 2.83 475.146 2.65C475.093 2.46333 475 2.30333 474.866 2.17C474.693 1.99667 474.483 1.89 474.236 1.85ZM474.366 5.39C473.926 5.11 473.716 4.97667 473.736 4.99L473.656 4.94L473.556 5.01C473.043 5.35 472.77 5.78667 472.736 6.32C472.736 6.37333 472.736 6.42667 472.736 6.48C472.756 6.81333 472.89 7.09333 473.136 7.32C473.31 7.49333 473.533 7.61 473.806 7.67C473.966 7.69667 474.143 7.69667 474.336 7.67C474.79 7.57667 475.103 7.36333 475.276 7.03C475.303 6.98333 475.323 6.93333 475.336 6.88C475.45 6.50667 475.363 6.17667 475.076 5.89C475.016 5.83 474.78 5.66333 474.366 5.39ZM476.786 0.7V0.499999H477.476H478.156V5.5V10.5H477.476H476.786V10.3V10.1H477.276H477.756V5.5V0.9H477.276H476.786V0.7Z" fill="#777777"/>
<path d="M470.74 71.38L470.77 71.34H470.89C470.963 71.34 471.01 71.35 471.03 71.37L471.07 71.4V74.38V77.36L471.1 77.38C471.107 77.3867 471.13 77.3967 471.17 77.41C471.25 77.43 471.517 77.44 471.97 77.44H472.3V77.72V78H472.18L471.32 77.98C470.82 77.9733 470.32 77.9733 469.82 77.98C469.233 77.9933 468.943 78 468.95 78H468.83V77.72V77.44H469.16C469.627 77.44 469.9 77.43 469.98 77.41C470.02 77.3967 470.043 77.3867 470.05 77.38L470.08 77.36V74.85C470.08 73.1767 470.077 72.34 470.07 72.34C469.723 72.4733 469.337 72.54 468.91 72.54H468.78V72.26V71.98H468.91C469.497 71.98 469.997 71.86 470.41 71.62C470.577 71.5133 470.687 71.4333 470.74 71.38Z" fill="#777777"/>
<path d="M379.14 155.35C379.327 155.33 379.52 155.337 379.72 155.37C380.18 155.43 380.563 155.61 380.87 155.91C381.043 156.07 381.183 156.26 381.29 156.48C381.403 156.733 381.47 157.013 381.49 157.32C381.497 157.707 381.39 158.073 381.17 158.42C380.97 158.713 380.617 159.07 380.11 159.49C379.87 159.697 379.533 160.007 379.1 160.42L378.52 160.97L379.2 160.98C380.173 160.98 380.693 160.963 380.76 160.93C380.8 160.91 380.843 160.793 380.89 160.58L380.99 160.02C380.99 160.013 381.073 160.01 381.24 160.01H381.49V160.04C381.483 160.053 381.437 160.373 381.35 161C381.263 161.627 381.217 161.95 381.21 161.97V162H379.35H377.5V161.76C377.5 161.593 377.507 161.5 377.52 161.48L378.37 160.52C379.097 159.707 379.54 159.197 379.7 158.99C379.953 158.637 380.13 158.317 380.23 158.03C380.403 157.497 380.37 157.007 380.13 156.56C380.07 156.453 380 156.357 379.92 156.27C379.7 156.043 379.427 155.92 379.1 155.9C378.833 155.887 378.603 155.977 378.41 156.17L378.23 156.4C378.23 156.413 378.257 156.42 378.31 156.42C378.437 156.46 378.537 156.517 378.61 156.59C378.657 156.623 378.697 156.673 378.73 156.74C378.777 156.853 378.8 156.97 378.8 157.09C378.78 157.41 378.617 157.607 378.31 157.68C378.283 157.687 378.257 157.693 378.23 157.7C378.177 157.707 378.123 157.707 378.07 157.7C377.79 157.66 377.61 157.517 377.53 157.27C377.517 157.217 377.51 157.133 377.51 157.02C377.51 156.893 377.517 156.803 377.53 156.75C377.59 156.483 377.703 156.24 377.87 156.02C377.957 155.913 378.073 155.807 378.22 155.7C378.367 155.593 378.537 155.507 378.73 155.44C378.85 155.407 378.987 155.377 379.14 155.35Z" fill="#777777"/>
<path d="M321.27 246.25C321.29 246.237 321.38 246.23 321.54 246.23H321.78L321.81 246.26L321.84 246.29V248.55V250.8H322.28H322.71V251.08V251.36H322.28H321.84V251.86C321.84 252.193 321.847 252.367 321.86 252.38L321.92 252.41C321.98 252.43 322.167 252.44 322.48 252.44H322.71V252.72V253H322.62C322.627 253 322.397 252.993 321.93 252.98C321.53 252.973 321.117 252.973 320.69 252.98L319.95 253H319.85V252.72V252.44H320.23C320.597 252.433 320.79 252.41 320.81 252.37C320.817 252.363 320.82 252.193 320.82 251.86V251.36H319.55H318.28V251.08V250.8L319.76 248.53C320.74 247.023 321.243 246.263 321.27 246.25ZM320.88 250.8V249.25V247.71L319.87 249.25L318.86 250.79L319.87 250.8H320.88Z" fill="#777777"/>
<path d="M417.93 247.36C417.957 247.34 418.007 247.347 418.08 247.38C418.307 247.473 418.543 247.543 418.79 247.59C419.417 247.71 420.033 247.67 420.64 247.47C420.687 247.457 420.77 247.427 420.89 247.38C420.977 247.34 421.037 247.337 421.07 247.37L421.1 247.4V247.57V247.75L421.04 247.82C420.893 247.98 420.713 248.13 420.5 248.27C420.093 248.523 419.65 248.667 419.17 248.7C418.87 248.713 418.64 248.7 418.48 248.66L418.44 248.65V249.44V250.22L418.5 250.17C418.653 250.043 418.817 249.95 418.99 249.89C419.443 249.737 419.9 249.773 420.36 250C420.927 250.293 421.287 250.79 421.44 251.49C421.453 251.543 421.463 251.597 421.47 251.65C421.497 251.85 421.497 252.073 421.47 252.32C421.377 252.807 421.173 253.213 420.86 253.54C420.687 253.713 420.483 253.86 420.25 253.98C419.703 254.247 419.187 254.297 418.7 254.13C418.18 253.963 417.82 253.623 417.62 253.11C417.573 253.003 417.54 252.89 417.52 252.77C417.493 252.577 417.49 252.43 417.51 252.33C417.543 252.21 417.597 252.113 417.67 252.04C417.85 251.86 418.07 251.81 418.33 251.89C418.49 251.943 418.603 252.04 418.67 252.18C418.71 252.267 418.73 252.363 418.73 252.47C418.73 252.583 418.71 252.683 418.67 252.77C418.603 252.917 418.477 253.017 418.29 253.07C418.237 253.083 418.203 253.09 418.19 253.09C418.177 253.09 418.187 253.117 418.22 253.17C418.333 253.33 418.487 253.46 418.68 253.56C418.84 253.647 419.027 253.69 419.24 253.69C419.607 253.69 419.89 253.557 420.09 253.29C420.223 253.117 420.303 252.877 420.33 252.57C420.35 252.39 420.353 252.02 420.34 251.46C420.34 251.38 420.337 251.323 420.33 251.29C420.303 250.997 420.253 250.79 420.18 250.67C420 250.37 419.733 250.24 419.38 250.28C418.947 250.333 418.623 250.56 418.41 250.96C418.37 251.02 418.323 251.053 418.27 251.06C418.243 251.06 418.2 251.06 418.14 251.06C417.993 251.06 417.913 251.04 417.9 251C417.887 250.973 417.88 250.373 417.88 249.2C417.88 248.013 417.883 247.413 417.89 247.4C417.903 247.373 417.917 247.36 417.93 247.36Z" fill="#777777"/>
<path d="M523.83 246.35C523.97 246.337 524.14 246.34 524.34 246.36C524.773 246.453 525.063 246.673 525.21 247.02C525.33 247.28 525.36 247.513 525.3 247.72C525.227 247.993 525.04 248.137 524.74 248.15C524.633 248.15 524.537 248.127 524.45 248.08C524.243 247.987 524.143 247.813 524.15 247.56C524.15 247.46 524.173 247.367 524.22 247.28C524.293 247.14 524.4 247.053 524.54 247.02L524.58 247L524.52 246.96C524.387 246.88 524.23 246.843 524.05 246.85C523.897 246.85 523.76 246.87 523.64 246.91C523.353 247.01 523.12 247.2 522.94 247.48C522.727 247.787 522.607 248.297 522.58 249.01C522.58 249.097 522.577 249.173 522.57 249.24C522.577 249.24 522.597 249.217 522.63 249.17C522.73 249.023 522.843 248.913 522.97 248.84C523.183 248.693 523.41 248.617 523.65 248.61C524.023 248.597 524.357 248.697 524.65 248.91C524.79 249.01 524.923 249.143 525.05 249.31C525.337 249.683 525.503 250.083 525.55 250.51C525.577 250.677 525.58 250.907 525.56 251.2C525.553 251.227 525.55 251.25 525.55 251.27C525.483 251.81 525.243 252.28 524.83 252.68C524.443 253.06 523.98 253.24 523.44 253.22C523.027 253.2 522.657 253.047 522.33 252.76C522.15 252.587 521.997 252.377 521.87 252.13C521.63 251.683 521.487 251.117 521.44 250.43C521.407 249.97 521.413 249.557 521.46 249.19C521.587 248.23 521.957 247.48 522.57 246.94C522.663 246.86 522.76 246.787 522.86 246.72C523.153 246.513 523.477 246.39 523.83 246.35ZM523.73 249.09C523.617 249.077 523.52 249.077 523.44 249.09C522.947 249.163 522.663 249.637 522.59 250.51C522.563 250.877 522.573 251.307 522.62 251.8C522.627 251.82 522.63 251.84 522.63 251.86C522.65 252.06 522.737 252.247 522.89 252.42C523.01 252.54 523.147 252.623 523.3 252.67C523.413 252.697 523.563 252.697 523.75 252.67C523.963 252.617 524.13 252.507 524.25 252.34C524.363 252.173 524.42 251.763 524.42 251.11C524.42 250.99 524.42 250.85 524.42 250.69C524.413 250.23 524.397 249.91 524.37 249.73C524.363 249.637 524.33 249.54 524.27 249.44C524.143 249.247 523.963 249.13 523.73 249.09Z" fill="#777777"/>
<path d="M620.72 247.37L620.87 246.24H621.12H621.37V246.28C621.39 246.4 621.517 246.477 621.75 246.51C621.903 246.537 622.483 246.553 623.49 246.56H624.85V246.81V247.05L624.19 247.93L623.49 248.89C623.13 249.417 622.917 250.14 622.85 251.06C622.823 251.307 622.807 251.69 622.8 252.21L622.79 252.77L622.77 252.84C622.73 252.933 622.68 253.007 622.62 253.06C622.447 253.227 622.243 253.267 622.01 253.18C621.93 253.153 621.863 253.113 621.81 253.06C621.75 253.007 621.7 252.933 621.66 252.84C621.647 252.807 621.637 252.737 621.63 252.63C621.63 252.39 621.643 252.177 621.67 251.99C621.783 250.937 622.193 249.893 622.9 248.86L623.83 247.59C623.837 247.583 623.807 247.58 623.74 247.58C623.66 247.58 623.333 247.58 622.76 247.58C621.94 247.587 621.467 247.6 621.34 247.62C621.287 247.62 621.247 247.663 621.22 247.75C621.173 247.85 621.117 248.103 621.05 248.51V248.55H620.8H620.55V248.53C620.55 248.537 620.607 248.15 620.72 247.37Z" fill="#777777"/>
<path d="M565.17 155.35C565.31 155.337 565.503 155.34 565.75 155.36C566.383 155.46 566.837 155.73 567.11 156.17C567.197 156.317 567.257 156.47 567.29 156.63C567.317 156.777 567.31 156.94 567.27 157.12C567.197 157.487 567.027 157.8 566.76 158.06C566.573 158.247 566.37 158.387 566.15 158.48C566.097 158.513 566.067 158.53 566.06 158.53L566.21 158.58C566.543 158.693 566.833 158.867 567.08 159.1C567.287 159.313 567.43 159.557 567.51 159.83C567.643 160.303 567.563 160.773 567.27 161.24C567.197 161.347 567.117 161.447 567.03 161.54C566.85 161.72 566.66 161.86 566.46 161.96C566.233 162.073 565.98 162.153 565.7 162.2C565.547 162.227 565.343 162.23 565.09 162.21C565.063 162.203 565.043 162.2 565.03 162.2C564.343 162.087 563.863 161.797 563.59 161.33C563.583 161.317 563.577 161.303 563.57 161.29C563.477 161.103 563.43 160.9 563.43 160.68C563.43 160.573 563.437 160.493 563.45 160.44C563.557 160.147 563.773 159.997 564.1 159.99C564.433 159.99 564.653 160.14 564.76 160.44C564.773 160.493 564.78 160.57 564.78 160.67C564.78 160.77 564.773 160.843 564.76 160.89C564.693 161.097 564.56 161.237 564.36 161.31L564.3 161.33L564.32 161.35C564.407 161.417 564.493 161.47 564.58 161.51C564.847 161.65 565.127 161.71 565.42 161.69C565.453 161.69 565.48 161.687 565.5 161.68C565.8 161.633 566.017 161.457 566.15 161.15C566.163 161.117 566.177 161.083 566.19 161.05C566.25 160.883 566.28 160.607 566.28 160.22C566.28 159.827 566.243 159.537 566.17 159.35C566.083 159.117 565.93 158.943 565.71 158.83C565.617 158.79 565.437 158.767 565.17 158.76H565.11L564.71 158.75L564.68 158.73C564.667 158.71 564.66 158.643 564.66 158.53C564.66 158.41 564.667 158.343 564.68 158.33C564.693 158.31 564.707 158.3 564.72 158.3C564.727 158.293 564.823 158.283 565.01 158.27C565.283 158.25 565.477 158.203 565.59 158.13C565.83 157.97 565.993 157.69 566.08 157.29C566.173 156.81 566.153 156.447 566.02 156.2C565.967 156.087 565.873 155.993 565.74 155.92C565.64 155.873 565.517 155.85 565.37 155.85C565.037 155.837 564.75 155.94 564.51 156.16L564.45 156.21L564.51 156.23C564.763 156.297 564.91 156.467 564.95 156.74C564.957 156.76 564.96 156.78 564.96 156.8C564.96 156.92 564.937 157.037 564.89 157.15C564.837 157.25 564.75 157.333 564.63 157.4C564.517 157.447 564.413 157.47 564.32 157.47C564.233 157.47 564.133 157.447 564.02 157.4C563.9 157.333 563.813 157.25 563.76 157.15C563.713 157.05 563.69 156.923 563.69 156.77C563.717 156.263 563.967 155.873 564.44 155.6C564.467 155.58 564.493 155.563 564.52 155.55C564.727 155.443 564.943 155.377 565.17 155.35Z" fill="#777777"/>
<defs>
<filter id="filter0_i_3_2" x="296" y="15" width="352" height="230.959" filterUnits="userSpaceOnUse" color-interpolation-filters="sRGB">
<feFlood flood-opacity="0" result="BackgroundImageFix"/>
<feBlend mode="normal" in="SourceGraphic" in2="BackgroundImageFix" result="shape"/>
<feColorMatrix in="SourceAlpha" type="matrix" values="0 0 0 0 0 0 0 0 0 0 0 0 0 0 0 0 0 0 127 0" result="hardAlpha"/>
<feOffset dy="4"/>
<feGaussianBlur stdDeviation="2"/>
<feComposite in2="hardAlpha" operator="arithmetic" k2="-1" k3="1"/>
<feColorMatrix type="matrix" values="0 0 0 0 0 0 0 0 0 0 0 0 0 0 0 0 0 0 0.1 0"/>
<feBlend mode="normal" in2="shape" result="effect1_innerShadow_3_2"/>
</filter>
<filter id="filter1_i_3_2" x="279" y="274.474" width="382" height="33.8246" filterUnits="userSpaceOnUse" color-interpolation-filters="sRGB">
<feFlood flood-opacity="0" result="BackgroundImageFix"/>
<feBlend mode="normal" in="SourceGraphic" in2="BackgroundImageFix" result="shape"/>
<feColorMatrix in="SourceAlpha" type="matrix" values="0 0 0 0 0 0 0 0 0 0 0 0 0 0 0 0 0 0 127 0" result="hardAlpha"/>
<feOffset dy="4"/>
<feGaussianBlur stdDeviation="2"/>
<feComposite in2="hardAlpha" operator="arithmetic" k2="-1" k3="1"/>
<feColorMatrix type="matrix" values="0 0 0 0 0 0 0 0 0 0 0 0 0 0 0 0 0 0 0.1 0"/>
<feBlend mode="normal" in2="shape" result="effect1_innerShadow_3_2"/>
</filter>
</defs>
</svg>
