<?xml version="1.0" encoding="UTF-8" standalone="no"?>
<!-- Created with Inkscape (http://www.inkscape.org/) -->

<svg
   width="199.79604mm"
   height="96.202347mm"
   viewBox="0 0 199.79604 96.202346"
   version="1.1"
   id="svg1"
   inkscape:version="1.4 (e7c3feb100, 2024-10-09)"
   sodipodi:docname="matrix_patratica_diag_secondara_regiuni.svg"
   xml:space="preserve"
   xmlns:inkscape="http://www.inkscape.org/namespaces/inkscape"
   xmlns:sodipodi="http://sodipodi.sourceforge.net/DTD/sodipodi-0.dtd"
   xmlns="http://www.w3.org/2000/svg"
   xmlns:svg="http://www.w3.org/2000/svg"><sodipodi:namedview
     id="namedview1"
     pagecolor="#ffffff"
     bordercolor="#000000"
     borderopacity="0.25"
     inkscape:showpageshadow="2"
     inkscape:pageopacity="0.0"
     inkscape:pagecheckerboard="0"
     inkscape:deskcolor="#d1d1d1"
     inkscape:document-units="mm"
     inkscape:zoom="1.1633682"
     inkscape:cx="430.21635"
     inkscape:cy="139.68063"
     inkscape:window-width="1920"
     inkscape:window-height="1029"
     inkscape:window-x="1920"
     inkscape:window-y="27"
     inkscape:window-maximized="1"
     inkscape:current-layer="layer1" /><defs
     id="defs1" /><g
     inkscape:label="Layer 1"
     inkscape:groupmode="layer"
     id="layer1"
     transform="translate(78.069974,-36.708601)"><text
       xml:space="preserve"
       style="font-weight:bold;font-size:5.64444px;font-family:'Source Sans Pro';-inkscape-font-specification:'Source Sans Pro, Bold';text-align:start;writing-mode:lr-tb;direction:ltr;text-anchor:start;opacity:0.588064;fill:#000000;fill-opacity:1;stroke:none;stroke-width:0.499999;stroke-opacity:1;paint-order:stroke fill markers"
       x="59.612717"
       y="53.027283"
       id="text2"><tspan
         sodipodi:role="line"
         id="tspan2"
         style="fill:#000000;fill-opacity:1;stroke-width:0.5"
         x="59.612717"
         y="53.027283"></tspan></text><g
       id="g38"><path
         id="rect1"
         style="fill:#28afb0;fill-opacity:1;stroke:#196969;stroke-width:0.5;stroke-opacity:1"
         d="M 52.718559,99.617004 H 67.76801 V 114.66646 H 52.718559 Z" /><path
         id="rect1-63"
         style="fill:#ffd23f;stroke:#806600;stroke-width:0.5"
         d="M 34.815872,99.617004 H 49.865323 V 114.66646 H 34.815872 Z" /><path
         id="rect1-03"
         style="fill:#cb6359;fill-opacity:1;stroke:#806600;stroke-width:0.5;stroke-opacity:1"
         d="M 88.523926,99.617004 H 103.57338 V 114.66646 H 88.523926 Z" /><path
         id="rect1-03-7"
         style="fill:#cb6359;fill-opacity:1;stroke:#806600;stroke-width:0.5"
         d="m 106.42661,99.617004 h 15.04945 v 15.049456 h -15.04945 z" /><path
         id="rect1-0"
         style="fill:#cb6359;fill-opacity:1;stroke:#806600;stroke-width:0.5"
         d="M 70.621246,99.617004 H 85.670697 V 114.66646 H 70.621246 Z" /><path
         id="rect1-31"
         style="fill:#cb6359;fill-opacity:1;stroke:#806600;stroke-width:0.5"
         d="M 52.718559,117.56058 H 67.76801 v 15.04945 H 52.718559 Z" /><path
         id="rect1-31-9"
         style="fill:#28afb0;fill-opacity:1;stroke:#196969;stroke-width:0.5;stroke-opacity:1"
         d="m 34.815872,117.56058 h 15.049451 v 15.04945 H 34.815872 Z" /><path
         id="rect1-31-0"
         style="fill:#cb6359;fill-opacity:1;stroke:#806600;stroke-width:0.5"
         d="m 88.523926,117.56058 h 15.049454 v 15.04945 H 88.523926 Z" /><path
         id="rect1-31-0-5"
         style="fill:#cb6359;fill-opacity:1;stroke:#806600;stroke-width:0.5;stroke-opacity:1"
         d="m 106.42661,117.56058 h 15.04945 v 15.04945 h -15.04945 z" /><path
         id="rect1-31-8"
         style="fill:#cb6359;fill-opacity:1;stroke:#806600;stroke-width:0.5"
         d="m 70.621246,117.56058 h 15.049451 v 15.04945 H 70.621246 Z" /><path
         id="rect1-4"
         style="fill:#ffd23f;fill-opacity:1;stroke:#806600;stroke-width:0.499993;stroke-opacity:1"
         d="m 34.815868,45.785995 h 15.04946 v 15.049008 h -15.04946 z" /><path
         id="rect1-4-40"
         style="fill:#9a18c9;stroke:#540d6e;stroke-width:0.397736"
         d="m 34.764871,36.907469 h 86.762259 v 6.500486 H 34.764871 Z" /><path
         id="rect1-4-40-6"
         style="fill:#9a18c9;stroke:#540d6e;stroke-width:0.5"
         transform="rotate(90)"
         d="m 45.73505,-32.229599 h 86.9259 v 6.500123 h -86.9259 z" /><path
         id="rect1-4-4"
         style="fill:#ffd23f;stroke:#806600;stroke-width:0.5"
         d="M 88.523926,45.786285 H 103.57338 V 60.835736 H 88.523926 Z" /><path
         id="rect1-4-44"
         style="fill:#28afb0;fill-opacity:1;stroke:#196969;stroke-width:0.5;stroke-opacity:1"
         d="m 106.42661,45.786285 h 15.04945 v 15.049451 h -15.04945 z" /><path
         id="rect1-4-1"
         style="fill:#ffd23f;stroke:#806600;stroke-width:0.5"
         d="M 70.621246,45.786285 H 85.670697 V 60.835736 H 70.621246 Z" /><path
         id="rect1-4-8"
         style="fill:#ffd23f;stroke:#806600;stroke-width:0.5"
         d="M 52.718559,45.786285 H 67.76801 V 60.835736 H 52.718559 Z" /><path
         id="rect1-6"
         style="fill:#ffd23f;stroke:#806600;stroke-width:0.5"
         d="m 34.815872,63.729855 h 15.049451 v 15.04945 H 34.815872 Z" /><path
         id="rect1-6-8"
         style="fill:#28afb0;fill-opacity:1;stroke:#196969;stroke-width:0.5;stroke-opacity:1"
         d="m 88.523926,63.729855 h 15.049454 v 15.04945 H 88.523926 Z" /><path
         id="rect1-6-4"
         style="fill:#cb6359;fill-opacity:1;stroke:#806600;stroke-width:0.5"
         d="m 106.42661,63.729855 h 15.04945 v 15.04945 h -15.04945 z" /><path
         id="rect1-6-1"
         style="fill:#ffd23f;stroke:#806600;stroke-width:0.5"
         d="m 70.621246,63.729855 h 15.049451 v 15.04945 H 70.621246 Z" /><path
         id="rect1-6-5"
         style="fill:#ffd23f;fill-opacity:1;stroke:#806600;stroke-width:0.5;stroke-opacity:1"
         d="M 52.718559,63.729855 H 67.76801 v 15.04945 H 52.718559 Z" /><path
         id="rect1-1"
         style="fill:#ffd23f;stroke:#806600;stroke-width:0.5"
         d="M 34.815872,81.673431 H 49.865323 V 96.722882 H 34.815872 Z" /><path
         id="rect1-1-1"
         style="fill:#cb6359;fill-opacity:1;stroke:#806600;stroke-width:0.5"
         d="M 88.523926,81.673431 H 103.57338 V 96.722882 H 88.523926 Z" /><path
         id="rect1-1-4"
         style="fill:#cb6359;fill-opacity:1;stroke:#806600;stroke-width:0.5"
         d="m 106.42661,81.673431 h 15.04945 v 15.049451 h -15.04945 z" /><path
         id="rect1-1-5"
         style="fill:#28afb0;fill-opacity:1;stroke:#196969;stroke-width:0.5;stroke-opacity:1"
         d="M 70.621246,81.673431 H 85.670697 V 96.722882 H 70.621246 Z" /><path
         id="rect1-1-0"
         style="fill:#ffd23f;stroke:#806600;stroke-width:0.5"
         d="M 52.718559,81.673431 H 67.76801 V 96.722882 H 52.718559 Z" /><path
         style="font-weight:bold;font-size:4.5861px;font-family:'Source Sans Pro';-inkscape-font-specification:'Source Sans Pro, Bold';fill:#f3fcf0;stroke-width:0.5"
         d="m 42.3406,41.668833 c 0.632881,0 1.054803,-0.531987 1.054803,-1.522585 0,-0.990598 -0.421922,-1.499655 -1.054803,-1.499655 -0.632882,0 -1.054803,0.504471 -1.054803,1.499655 0,0.990598 0.421921,1.522585 1.054803,1.522585 z m 0,-0.545746 c -0.215547,0 -0.385233,-0.192616 -0.385233,-0.976839 0,-0.788809 0.169686,-0.949323 0.385233,-0.949323 0.21096,0 0.385232,0.160514 0.385232,0.949323 0,0.784223 -0.174272,0.976839 -0.385232,0.976839 z"
         id="text6"
         aria-label="0" /><path
         style="font-weight:bold;font-size:4.5861px;font-family:'Source Sans Pro';-inkscape-font-specification:'Source Sans Pro, Bold';fill:#f3fcf0;stroke-width:0.5"
         d="m 59.300842,41.6138 h 1.884887 v -0.573262 h -0.54116 v -2.338912 h -0.522815 c -0.206375,0.132997 -0.417335,0.210961 -0.733776,0.27058 v 0.440266 h 0.545746 v 1.628066 h -0.632882 z"
         id="text7"
         aria-label="1" /><path
         style="font-weight:bold;font-size:4.5861px;font-family:'Source Sans Pro';-inkscape-font-specification:'Source Sans Pro, Bold';fill:#f3fcf0;stroke-width:0.5"
         d="m 77.12098,41.641315 h 2.068331 v -0.596193 h -0.62371 c -0.132997,0 -0.334785,0.01835 -0.486126,0.0321 0.490712,-0.476954 0.967667,-0.949323 0.967667,-1.472138 0,-0.559504 -0.398991,-0.930978 -0.97684,-0.930978 -0.412749,0 -0.683329,0.160513 -0.967667,0.48154 l 0.366888,0.366888 c 0.142169,-0.151341 0.302683,-0.288924 0.504471,-0.288924 0.243064,0 0.394405,0.142169 0.394405,0.417335 0,0.403577 -0.531988,0.921806 -1.247419,1.554688 z"
         id="text8"
         aria-label="2" /><path
         style="font-weight:bold;font-size:4.5861px;font-family:'Source Sans Pro';-inkscape-font-specification:'Source Sans Pro, Bold';fill:#f3fcf0;stroke-width:0.5"
         d="m 96.01196,41.668833 c 0.591607,0 1.096078,-0.302682 1.096078,-0.848428 0,-0.37606 -0.238477,-0.609952 -0.573262,-0.70626 v -0.01834 c 0.311855,-0.132997 0.48154,-0.348544 0.48154,-0.642054 0,-0.518229 -0.403576,-0.807154 -1.0227,-0.807154 -0.35313,0 -0.651226,0.142169 -0.921806,0.37606 l 0.357716,0.431094 c 0.178858,-0.160514 0.330199,-0.24765 0.531987,-0.24765 0.220133,0 0.343958,0.105481 0.343958,0.302683 0,0.220133 -0.160514,0.371474 -0.669571,0.371474 v 0.499885 c 0.62371,0 0.761293,0.146755 0.761293,0.389819 0,0.21096 -0.178858,0.325613 -0.45861,0.325613 -0.229305,0 -0.444852,-0.119239 -0.62371,-0.288925 l -0.325613,0.449438 c 0.215547,0.24765 0.550332,0.412749 1.0227,0.412749 z"
         id="text9"
         aria-label="3" /><path
         style="font-weight:bold;font-size:4.5861px;font-family:'Source Sans Pro';-inkscape-font-specification:'Source Sans Pro, Bold';fill:#f3fcf0;stroke-width:0.5"
         d="m 113.50419,40.393897 0.34396,-0.591606 c 0.0825,-0.169686 0.1651,-0.334786 0.23848,-0.504472 h 0.0183 c -0.009,0.192617 -0.0229,0.476955 -0.0229,0.664985 v 0.431093 z m 0.57785,1.219903 h 0.6604 v -0.678743 h 0.3302 v -0.54116 h -0.3302 v -1.692271 h -0.87595 l -1.03646,1.738132 v 0.495299 h 1.25201 z"
         id="text10"
         aria-label="4" /><path
         style="font-weight:bold;font-size:4.5861px;font-family:'Source Sans Pro';-inkscape-font-specification:'Source Sans Pro, Bold';fill:#f3fcf0;stroke-width:0.5"
         d="m 29.059794,54.821619 c 0.632882,0 1.054803,-0.531988 1.054803,-1.522586 0,-0.990597 -0.421921,-1.499654 -1.054803,-1.499654 -0.632882,0 -1.054803,0.504471 -1.054803,1.499654 0,0.990598 0.421921,1.522586 1.054803,1.522586 z m 0,-0.545746 c -0.215547,0 -0.385232,-0.192616 -0.385232,-0.97684 0,-0.788809 0.169685,-0.949322 0.385232,-0.949322 0.210961,0 0.385232,0.160513 0.385232,0.949322 0,0.784224 -0.174271,0.97684 -0.385232,0.97684 z"
         id="text14"
         aria-label="0" /><path
         style="font-weight:bold;font-size:4.5861px;font-family:'Source Sans Pro';-inkscape-font-specification:'Source Sans Pro, Bold';fill:#f3fcf0;stroke-width:0.5"
         d="m 28.103593,72.71067 h 1.884887 v -0.573262 h -0.541159 v -2.338911 h -0.522816 c -0.206374,0.132997 -0.417335,0.210961 -0.733776,0.27058 v 0.440265 h 0.545746 v 1.628066 h -0.632882 z"
         id="text15"
         aria-label="1" /><path
         style="font-weight:bold;font-size:4.5861px;font-family:'Source Sans Pro';-inkscape-font-specification:'Source Sans Pro, Bold';fill:#f3fcf0;stroke-width:0.5"
         d="m 28.027922,90.681763 h 2.068331 V 90.08557 h -0.623709 c -0.132997,0 -0.334786,0.01834 -0.486127,0.0321 0.490713,-0.476954 0.967667,-0.949322 0.967667,-1.472138 0,-0.559504 -0.398991,-0.930978 -0.976839,-0.930978 -0.412749,0 -0.683329,0.160513 -0.967667,0.48154 l 0.366888,0.366888 c 0.142169,-0.151341 0.302682,-0.288924 0.504471,-0.288924 0.243063,0 0.394404,0.142169 0.394404,0.417335 0,0.403577 -0.531987,0.921806 -1.247419,1.554688 z"
         id="text16"
         aria-label="2" /><path
         style="font-weight:bold;font-size:4.5861px;font-family:'Source Sans Pro';-inkscape-font-specification:'Source Sans Pro, Bold';fill:#f3fcf0;stroke-width:0.5"
         d="m 29.013933,108.65285 c 0.591607,0 1.096078,-0.30268 1.096078,-0.84843 0,-0.37606 -0.238478,-0.60995 -0.573263,-0.70626 v -0.0183 c 0.311855,-0.133 0.481541,-0.34855 0.481541,-0.64206 0,-0.51823 -0.403577,-0.80715 -1.022701,-0.80715 -0.35313,0 -0.651226,0.14217 -0.921806,0.37606 l 0.357716,0.43109 c 0.178858,-0.16051 0.330199,-0.24765 0.531987,-0.24765 0.220133,0 0.343958,0.10548 0.343958,0.30269 0,0.22013 -0.160514,0.37147 -0.669571,0.37147 v 0.49989 c 0.62371,0 0.761293,0.14675 0.761293,0.38981 0,0.21096 -0.178858,0.32562 -0.45861,0.32562 -0.229305,0 -0.444852,-0.11924 -0.62371,-0.28893 l -0.325613,0.44944 c 0.215547,0.24765 0.550332,0.41275 1.022701,0.41275 z"
         id="text17"
         aria-label="3" /><path
         style="font-weight:bold;font-size:4.5861px;font-family:'Source Sans Pro';-inkscape-font-specification:'Source Sans Pro, Bold';fill:#f3fcf0;stroke-width:0.5"
         d="m 28.630993,125.32149 0.343957,-0.59161 c 0.08255,-0.16969 0.1651,-0.33479 0.238478,-0.50447 h 0.01834 c -0.0092,0.19262 -0.02293,0.47695 -0.02293,0.66498 v 0.4311 z m 0.577849,1.2199 h 0.660398 v -0.67874 h 0.330199 v -0.54116 H 29.86924 v -1.69227 h -0.875945 l -1.036459,1.73813 v 0.4953 h 1.252006 z"
         id="text18"
         aria-label="4" /><path
         style="font-weight:bold;font-size:5.64444px;font-family:'Source Sans Pro';-inkscape-font-specification:'Source Sans Pro, Bold';stroke-width:0.5;paint-order:stroke fill markers"
         d="m 42.340597,55.170852 c 0.778933,0 1.298222,-0.654755 1.298222,-1.873954 0,-1.219199 -0.519289,-1.845732 -1.298222,-1.845732 -0.778932,0 -1.298221,0.620889 -1.298221,1.845732 0,1.219199 0.519289,1.873954 1.298221,1.873954 z m 0,-0.671688 c -0.265288,0 -0.474133,-0.237067 -0.474133,-1.202266 0,-0.970844 0.208845,-1.168399 0.474133,-1.168399 0.259645,0 0.474133,0.197555 0.474133,1.168399 0,0.965199 -0.214488,1.202266 -0.474133,1.202266 z"
         id="text1"
         aria-label="0" /><path
         style="font-weight:bold;font-size:5.64444px;font-family:'Source Sans Pro';-inkscape-font-specification:'Source Sans Pro, Bold';stroke-width:0.5;paint-order:stroke fill markers"
         d="m 59.692953,53.601698 0.423333,-0.728133 c 0.1016,-0.208844 0.2032,-0.412044 0.293511,-0.620888 h 0.02258 c -0.01129,0.237066 -0.02822,0.587021 -0.02822,0.818443 v 0.530578 z m 0.7112,1.501421 h 0.812799 v -0.835377 h 0.4064 v -0.666044 h -0.4064 v -2.082799 h -1.078088 l -1.275643,2.139243 v 0.6096 h 1.540932 z"
         id="text3"
         aria-label="4" /><path
         style="font-weight:bold;font-size:5.64444px;font-family:'Source Sans Pro';-inkscape-font-specification:'Source Sans Pro, Bold';stroke-width:0.5;paint-order:stroke fill markers"
         d="m 76.884442,55.136986 h 2.545643 v -0.733777 h -0.767644 c -0.163689,0 -0.412044,0.02258 -0.598311,0.03951 0.603956,-0.587022 1.190977,-1.168399 1.190977,-1.811866 0,-0.688621 -0.491066,-1.145821 -1.202265,-1.145821 -0.508,0 -0.841022,0.197555 -1.190977,0.592666 l 0.451555,0.451555 c 0.174978,-0.186266 0.372533,-0.355599 0.620888,-0.355599 0.299156,0 0.485422,0.174977 0.485422,0.513644 0,0.49671 -0.654755,1.134532 -1.535288,1.913465 z"
         id="text4"
         aria-label="2" /><path
         style="font-weight:bold;font-size:5.64444px;font-family:'Source Sans Pro';-inkscape-font-specification:'Source Sans Pro, Bold';stroke-width:0.5;paint-order:stroke fill markers"
         d="m 95.560409,52.659076 c 0,-0.395111 0.197555,-0.553155 0.428977,-0.553155 0.225778,0 0.451556,0.158044 0.530578,0.7112 -0.135467,0.237066 -0.333022,0.333022 -0.513644,0.333022 -0.254,0 -0.445911,-0.124178 -0.445911,-0.491067 z m 0.321733,2.511776 c 0.756355,0 1.456266,-0.609599 1.456266,-1.936043 0,-1.269999 -0.677333,-1.783643 -1.371599,-1.783643 -0.654756,0 -1.207911,0.4572 -1.207911,1.20791 0,0.762 0.462844,1.106311 1.078088,1.106311 0.208845,0 0.513644,-0.135467 0.699911,-0.372533 -0.03387,0.80151 -0.327378,1.072443 -0.716844,1.072443 -0.2032,0 -0.428977,-0.118533 -0.547511,-0.254 l -0.462844,0.519289 c 0.231422,0.237066 0.587022,0.440266 1.072444,0.440266 z"
         id="text5"
         aria-label="9" /><path
         style="font-weight:bold;font-size:5.64444px;font-family:'Source Sans Pro';-inkscape-font-specification:'Source Sans Pro, Bold';fill:#ffffff;stroke-width:0.5;paint-order:stroke fill markers"
         d="m 112.7914,55.103119 h 2.31986 v -0.705555 h -0.66604 v -2.878665 h -0.64347 c -0.254,0.163689 -0.51364,0.259645 -0.90311,0.333022 v 0.541867 h 0.67169 v 2.003776 h -0.77893 z"
         id="text11"
         aria-label="1" /><path
         style="font-weight:bold;font-size:5.64444px;font-family:'Source Sans Pro';-inkscape-font-specification:'Source Sans Pro, Bold';stroke-width:0.5;paint-order:stroke fill markers"
         d="m 42.318021,73.080558 c 0.705555,0 1.326444,-0.457199 1.326444,-1.25871 0,-0.756355 -0.524933,-1.10631 -1.145822,-1.10631 -0.135466,0 -0.248355,0.01693 -0.378177,0.07338 l 0.0508,-0.626533 h 1.30951 v -0.733777 h -2.060221 l -0.09596,1.823154 0.383822,0.248355 c 0.214488,-0.135467 0.316088,-0.180622 0.519288,-0.180622 0.316089,0 0.541867,0.186266 0.541867,0.524933 0,0.349955 -0.225778,0.530577 -0.581378,0.530577 -0.293511,0 -0.541866,-0.1524 -0.756355,-0.349955 l -0.395111,0.547511 c 0.287867,0.287866 0.694267,0.507999 1.281288,0.507999 z"
         id="text12"
         aria-label="5" /><path
         style="font-weight:bold;font-size:5.64444px;font-family:'Source Sans Pro';-inkscape-font-specification:'Source Sans Pro, Bold';fill:#f9f9f9;stroke-width:0.5;paint-order:stroke fill markers"
         d="m 113.92876,73.080558 c 0.70555,0 1.32644,-0.457199 1.32644,-1.25871 0,-0.756355 -0.52493,-1.10631 -1.14582,-1.10631 -0.13547,0 -0.24836,0.01693 -0.37818,0.07338 l 0.0508,-0.626533 h 1.30951 v -0.733777 h -2.06022 l -0.096,1.823154 0.38382,0.248355 c 0.21449,-0.135467 0.31609,-0.180622 0.51929,-0.180622 0.31609,0 0.54186,0.186266 0.54186,0.524933 0,0.349955 -0.22577,0.530577 -0.58137,0.530577 -0.29351,0 -0.54187,-0.1524 -0.75636,-0.349955 l -0.39511,0.547511 c 0.28787,0.287866 0.69427,0.507999 1.28129,0.507999 z"
         id="text13"
         aria-label="5" /><path
         style="font-weight:bold;font-size:5.64444px;font-family:'Source Sans Pro';-inkscape-font-specification:'Source Sans Pro, Bold';stroke-width:0.5;paint-order:stroke fill markers"
         d="m 60.243284,73.114425 c 0.778933,0 1.298222,-0.654755 1.298222,-1.873954 0,-1.219199 -0.519289,-1.845732 -1.298222,-1.845732 -0.778932,0 -1.298221,0.620889 -1.298221,1.845732 0,1.219199 0.519289,1.873954 1.298221,1.873954 z m 0,-0.671688 c -0.265288,0 -0.474133,-0.237067 -0.474133,-1.202266 0,-0.970844 0.208845,-1.168399 0.474133,-1.168399 0.259645,0 0.474133,0.197555 0.474133,1.168399 0,0.965199 -0.214488,1.202266 -0.474133,1.202266 z"
         id="text19"
         aria-label="0" /><path
         style="font-weight:bold;font-size:5.64444px;font-family:'Source Sans Pro';-inkscape-font-specification:'Source Sans Pro, Bold';stroke-width:0.5;paint-order:stroke fill markers"
         d="m 76.884442,73.080559 h 2.545643 v -0.733777 h -0.767644 c -0.163689,0 -0.412044,0.02258 -0.598311,0.03951 0.603956,-0.587022 1.190977,-1.168399 1.190977,-1.811866 0,-0.688621 -0.491066,-1.145821 -1.202265,-1.145821 -0.508,0 -0.841022,0.197555 -1.190977,0.592666 l 0.451555,0.451555 c 0.174978,-0.186266 0.372533,-0.355599 0.620888,-0.355599 0.299156,0 0.485422,0.174977 0.485422,0.513644 0,0.49671 -0.654755,1.134532 -1.535288,1.913465 z"
         id="text20"
         aria-label="2" /><path
         style="font-weight:bold;font-size:5.64444px;font-family:'Source Sans Pro';-inkscape-font-specification:'Source Sans Pro, Bold';fill:#ffffff;stroke-width:0.5;paint-order:stroke fill markers"
         d="m 95.498324,71.545271 0.423333,-0.728133 c 0.1016,-0.208844 0.2032,-0.412044 0.293511,-0.620888 h 0.02258 c -0.01129,0.237066 -0.02822,0.587021 -0.02822,0.818443 v 0.530578 z m 0.711199,1.501421 h 0.8128 v -0.835377 h 0.406399 v -0.666044 h -0.406399 v -2.082799 h -1.078089 l -1.275643,2.139243 v 0.6096 h 1.540932 z"
         id="text21"
         aria-label="4" /><path
         style="font-weight:bold;font-size:5.64444px;font-family:'Source Sans Pro';-inkscape-font-specification:'Source Sans Pro, Bold';stroke-width:0.5;paint-order:stroke fill markers"
         d="m 42.329307,91.057998 c 0.767644,0 1.281288,-0.428977 1.281288,-0.999066 0,-0.474133 -0.276578,-0.75071 -0.620888,-0.936977 v -0.02258 c 0.248355,-0.163688 0.468488,-0.434621 0.468488,-0.773288 0,-0.598311 -0.440266,-0.987777 -1.100666,-0.987777 -0.677333,0 -1.162754,0.383822 -1.162754,0.999066 0,0.372533 0.197555,0.637822 0.479777,0.846666 v 0.02258 c -0.338666,0.180622 -0.603955,0.440266 -0.603955,0.869244 0,0.581377 0.536222,0.982132 1.25871,0.982132 z m 0.220133,-2.167465 c -0.355599,-0.141111 -0.587022,-0.276577 -0.587022,-0.553155 0,-0.265289 0.169334,-0.395111 0.372534,-0.395111 0.259644,0 0.412044,0.174978 0.412044,0.445911 0,0.174978 -0.06773,0.338666 -0.197556,0.502355 z m -0.2032,1.56351 c -0.282222,0 -0.524933,-0.174978 -0.524933,-0.479777 0,-0.208845 0.107245,-0.4064 0.248356,-0.541867 0.440266,0.186267 0.728133,0.299156 0.728133,0.598311 0,0.293511 -0.197556,0.423333 -0.451556,0.423333 z"
         id="text22"
         aria-label="8" /><path
         style="font-weight:bold;font-size:5.64444px;font-family:'Source Sans Pro';-inkscape-font-specification:'Source Sans Pro, Bold';stroke-width:0.5;paint-order:stroke fill markers"
         d="m 59.083353,90.990265 h 2.319865 V 90.28471 h -0.666044 v -2.878665 h -0.643466 c -0.254,0.163689 -0.513644,0.259645 -0.90311,0.333022 v 0.541867 h 0.671688 v 2.003776 h -0.778933 z"
         id="text23"
         aria-label="1" /><path
         style="font-weight:bold;font-size:5.64444px;font-family:'Source Sans Pro';-inkscape-font-specification:'Source Sans Pro, Bold';fill:#ffffff;stroke-width:0.5;paint-order:stroke fill markers"
         d="m 78.134685,91.057998 c 0.767644,0 1.281288,-0.428977 1.281288,-0.999066 0,-0.474133 -0.276578,-0.75071 -0.620888,-0.936977 v -0.02258 c 0.248355,-0.163688 0.468488,-0.434621 0.468488,-0.773288 0,-0.598311 -0.440266,-0.987777 -1.100666,-0.987777 -0.677333,0 -1.162754,0.383822 -1.162754,0.999066 0,0.372533 0.197555,0.637822 0.479777,0.846666 v 0.02258 c -0.338666,0.180622 -0.603955,0.440266 -0.603955,0.869244 0,0.581377 0.536222,0.982132 1.25871,0.982132 z m 0.220133,-2.167465 c -0.3556,-0.141111 -0.587022,-0.276577 -0.587022,-0.553155 0,-0.265289 0.169334,-0.395111 0.372533,-0.395111 0.259645,0 0.412045,0.174978 0.412045,0.445911 0,0.174978 -0.06773,0.338666 -0.197556,0.502355 z m -0.2032,1.56351 c -0.282222,0 -0.524933,-0.174978 -0.524933,-0.479777 0,-0.208845 0.107245,-0.4064 0.248356,-0.541867 0.440266,0.186267 0.728133,0.299156 0.728133,0.598311 0,0.293511 -0.197556,0.423333 -0.451556,0.423333 z"
         id="text24"
         aria-label="8" /><path
         style="font-weight:bold;font-size:5.64444px;font-family:'Source Sans Pro';-inkscape-font-specification:'Source Sans Pro, Bold';fill:#f9f9f9;stroke-width:0.5;paint-order:stroke fill markers"
         d="m 94.787122,91.024132 h 2.545642 v -0.733777 h -0.767643 c -0.163689,0 -0.412045,0.02258 -0.598311,0.03951 0.603955,-0.587022 1.190977,-1.168399 1.190977,-1.811866 0,-0.688621 -0.491067,-1.145821 -1.202266,-1.145821 -0.508,0 -0.841022,0.197555 -1.190977,0.592666 l 0.451555,0.451555 c 0.174978,-0.186266 0.372533,-0.355599 0.620889,-0.355599 0.299155,0 0.485422,0.174977 0.485422,0.513644 0,0.49671 -0.654755,1.134532 -1.535288,1.913465 z"
         id="text25"
         aria-label="2" /><path
         style="font-weight:bold;font-size:5.64444px;font-family:'Source Sans Pro';-inkscape-font-specification:'Source Sans Pro, Bold';fill:#f9f9f9;stroke-width:0.5;paint-order:stroke fill markers"
         d="m 113.92876,91.024131 c 0.70555,0 1.32644,-0.457199 1.32644,-1.25871 0,-0.756355 -0.52493,-1.10631 -1.14582,-1.10631 -0.13547,0 -0.24836,0.01693 -0.37818,0.07338 l 0.0508,-0.626533 h 1.30951 V 87.37218 h -2.06022 l -0.096,1.823155 0.38382,0.248355 c 0.21449,-0.135467 0.31609,-0.180622 0.51929,-0.180622 0.31609,0 0.54186,0.186266 0.54186,0.524933 0,0.349955 -0.22577,0.530577 -0.58137,0.530577 -0.29351,0 -0.54187,-0.1524 -0.75636,-0.349955 l -0.39511,0.547511 c 0.28787,0.287866 0.69427,0.507999 1.28129,0.507999 z"
         id="text26"
         aria-label="5" /><path
         style="font-weight:bold;font-size:5.64444px;font-family:'Source Sans Pro';-inkscape-font-specification:'Source Sans Pro, Bold';stroke-width:0.5;paint-order:stroke fill markers"
         d="m 41.790266,107.43243 0.423333,-0.72813 c 0.1016,-0.20885 0.2032,-0.41204 0.293511,-0.62089 h 0.02258 c -0.01129,0.23707 -0.02822,0.58702 -0.02822,0.81844 v 0.53058 z m 0.7112,1.50142 h 0.812799 v -0.83537 h 0.4064 v -0.66605 h -0.4064 v -2.0828 h -1.078088 l -1.275643,2.13925 v 0.6096 h 1.540932 z"
         id="text27"
         aria-label="4" /><path
         style="font-weight:bold;font-size:5.64444px;font-family:'Source Sans Pro';-inkscape-font-specification:'Source Sans Pro, Bold';fill:#f9f9f9;stroke-width:0.5;paint-order:stroke fill markers"
         d="m 112.6898,108.9677 h 2.54564 v -0.73378 h -0.76764 c -0.16369,0 -0.41204,0.0226 -0.59831,0.0395 0.60395,-0.58702 1.19098,-1.1684 1.19098,-1.81186 0,-0.68863 -0.49107,-1.14583 -1.20227,-1.14583 -0.508,0 -0.84102,0.19756 -1.19098,0.59267 l 0.45156,0.45156 c 0.17498,-0.18627 0.37253,-0.3556 0.62089,-0.3556 0.29915,0 0.48542,0.17497 0.48542,0.51364 0,0.49671 -0.65476,1.13453 -1.53529,1.91347 z"
         id="text28"
         aria-label="2" /><path
         style="font-weight:bold;font-size:5.64444px;font-family:'Source Sans Pro';-inkscape-font-specification:'Source Sans Pro, Bold';fill:#ffffff;stroke-width:0.5;paint-order:stroke fill markers"
         d="m 59.692953,107.43243 0.423333,-0.72813 c 0.1016,-0.20885 0.2032,-0.41204 0.293511,-0.62089 h 0.02258 c -0.01129,0.23707 -0.02822,0.58702 -0.02822,0.81844 v 0.53058 z m 0.7112,1.50142 h 0.812799 v -0.83537 h 0.4064 v -0.66605 h -0.4064 v -2.0828 h -1.078088 l -1.275643,2.13925 v 0.6096 h 1.540932 z"
         id="text29"
         aria-label="4" /><path
         style="font-weight:bold;font-size:5.64444px;font-family:'Source Sans Pro';-inkscape-font-specification:'Source Sans Pro, Bold';fill:#f9f9f9;stroke-width:0.5;paint-order:stroke fill markers"
         d="m 78.188305,107.30261 c 0.254,0 0.451555,0.12418 0.451555,0.49107 0,0.39511 -0.203199,0.55315 -0.434621,0.55315 -0.225778,0 -0.451556,-0.15804 -0.524933,-0.70555 0.129822,-0.23707 0.327377,-0.33867 0.507999,-0.33867 z m 0.03951,1.69898 c 0.654755,0 1.207911,-0.45156 1.207911,-1.20791 0,-0.762 -0.462845,-1.10631 -1.072444,-1.10631 -0.214489,0 -0.519289,0.13546 -0.705555,0.37253 0.03387,-0.80151 0.333022,-1.07244 0.716844,-1.07244 0.2032,0 0.428977,0.12417 0.54751,0.254 l 0.462845,-0.51929 c -0.231422,-0.23143 -0.587022,-0.44027 -1.072444,-0.44027 -0.756355,0 -1.456266,0.6096 -1.456266,1.93604 0,1.27 0.677333,1.78365 1.371599,1.78365 z"
         id="text30"
         aria-label="6" /><path
         style="font-weight:bold;font-size:5.64444px;font-family:'Source Sans Pro';-inkscape-font-specification:'Source Sans Pro, Bold';fill:#f9f9f9;stroke-width:0.5;paint-order:stroke fill markers"
         d="m 95.560409,106.48981 c 0,-0.39511 0.197555,-0.55315 0.428977,-0.55315 0.225778,0 0.451556,0.15804 0.530578,0.71119 -0.135467,0.23707 -0.333022,0.33303 -0.513644,0.33303 -0.254,0 -0.445911,-0.12418 -0.445911,-0.49107 z m 0.321733,2.51178 c 0.756355,0 1.456266,-0.6096 1.456266,-1.93605 0,-1.27 -0.677333,-1.78364 -1.371599,-1.78364 -0.654756,0 -1.207911,0.4572 -1.207911,1.20791 0,0.762 0.462844,1.10631 1.078088,1.10631 0.208845,0 0.513644,-0.13547 0.699911,-0.37253 -0.03387,0.80151 -0.327378,1.07244 -0.716844,1.07244 -0.2032,0 -0.428977,-0.11853 -0.547511,-0.254 l -0.462844,0.51929 c 0.231422,0.23707 0.587022,0.44027 1.072444,0.44027 z"
         id="text31"
         aria-label="9" /><path
         style="font-weight:bold;font-size:5.64444px;font-family:'Source Sans Pro';-inkscape-font-specification:'Source Sans Pro, Bold';fill:#ffffff;stroke-width:0.5;paint-order:stroke fill markers"
         d="m 42.295441,126.94515 c 0.728133,0 1.349021,-0.37253 1.349021,-1.04422 0,-0.46284 -0.293511,-0.75071 -0.705555,-0.86924 v -0.0226 c 0.383822,-0.16369 0.592666,-0.42898 0.592666,-0.79022 0,-0.63782 -0.49671,-0.99342 -1.25871,-0.99342 -0.434622,0 -0.80151,0.17497 -1.134532,0.46284 l 0.440266,0.53058 c 0.220133,-0.19756 0.4064,-0.3048 0.654755,-0.3048 0.270933,0 0.423333,0.12982 0.423333,0.37253 0,0.27093 -0.197555,0.4572 -0.824088,0.4572 v 0.61524 c 0.767644,0 0.936977,0.18063 0.936977,0.47978 0,0.25965 -0.220133,0.40076 -0.564444,0.40076 -0.282222,0 -0.547511,-0.14676 -0.767644,-0.3556 l -0.400755,0.55315 c 0.265289,0.3048 0.677333,0.508 1.25871,0.508 z"
         id="text32"
         aria-label="3" /><path
         style="font-weight:bold;font-size:5.64444px;font-family:'Source Sans Pro';-inkscape-font-specification:'Source Sans Pro, Bold';fill:#f9f9f9;stroke-width:0.5;paint-order:stroke fill markers"
         d="m 60.198128,126.94515 c 0.728133,0 1.349021,-0.37253 1.349021,-1.04422 0,-0.46284 -0.293511,-0.75071 -0.705555,-0.86924 v -0.0226 c 0.383822,-0.16369 0.592667,-0.42898 0.592667,-0.79022 0,-0.63782 -0.496711,-0.99342 -1.258711,-0.99342 -0.434622,0 -0.80151,0.17497 -1.134532,0.46284 l 0.440266,0.53058 c 0.220133,-0.19756 0.4064,-0.3048 0.654755,-0.3048 0.270933,0 0.423333,0.12982 0.423333,0.37253 0,0.27093 -0.197555,0.4572 -0.824088,0.4572 v 0.61524 c 0.767644,0 0.936977,0.18063 0.936977,0.47978 0,0.25965 -0.220133,0.40076 -0.564444,0.40076 -0.282222,0 -0.547511,-0.14676 -0.767644,-0.3556 l -0.400755,0.55315 c 0.265289,0.3048 0.677333,0.508 1.25871,0.508 z"
         id="text33"
         aria-label="3" /><path
         style="font-weight:bold;font-size:5.64444px;font-family:'Source Sans Pro';-inkscape-font-specification:'Source Sans Pro, Bold';fill:#f9f9f9;stroke-width:0.5;paint-order:stroke fill markers"
         d="m 95.560409,124.43338 c 0,-0.39511 0.197555,-0.55316 0.428977,-0.55316 0.225778,0 0.451556,0.15805 0.530578,0.7112 -0.135467,0.23707 -0.333022,0.33302 -0.513644,0.33302 -0.254,0 -0.445911,-0.12418 -0.445911,-0.49106 z m 0.321733,2.51177 c 0.756355,0 1.456266,-0.6096 1.456266,-1.93604 0,-1.27 -0.677333,-1.78364 -1.371599,-1.78364 -0.654756,0 -1.207911,0.4572 -1.207911,1.20791 0,0.762 0.462844,1.10631 1.078088,1.10631 0.208845,0 0.513644,-0.13547 0.699911,-0.37254 -0.03387,0.80151 -0.327378,1.07245 -0.716844,1.07245 -0.2032,0 -0.428977,-0.11854 -0.547511,-0.254 l -0.462844,0.51929 c 0.231422,0.23706 0.587022,0.44026 1.072444,0.44026 z"
         id="text34"
         aria-label="9" /><path
         style="font-weight:bold;font-size:5.64444px;font-family:'Source Sans Pro';-inkscape-font-specification:'Source Sans Pro, Bold';fill:#f9f9f9;stroke-width:0.5;paint-order:stroke fill markers"
         d="m 113.90618,126.94515 c 0.72813,0 1.34902,-0.37253 1.34902,-1.04422 0,-0.46284 -0.29351,-0.75071 -0.70555,-0.86924 v -0.0226 c 0.38382,-0.16369 0.59266,-0.42898 0.59266,-0.79022 0,-0.63782 -0.49671,-0.99342 -1.25871,-0.99342 -0.43462,0 -0.80151,0.17497 -1.13453,0.46284 l 0.44027,0.53058 c 0.22013,-0.19756 0.4064,-0.3048 0.65475,-0.3048 0.27094,0 0.42334,0.12982 0.42334,0.37253 0,0.27093 -0.19756,0.4572 -0.82409,0.4572 v 0.61524 c 0.76764,0 0.93697,0.18063 0.93697,0.47978 0,0.25965 -0.22013,0.40076 -0.56444,0.40076 -0.28222,0 -0.54751,-0.14676 -0.76764,-0.3556 l -0.40076,0.55315 c 0.26529,0.3048 0.67733,0.508 1.25871,0.508 z"
         id="text35"
         aria-label="3" /><path
         style="font-weight:bold;font-size:5.64444px;font-family:'Source Sans Pro';-inkscape-font-specification:'Source Sans Pro, Bold';fill:#f9f9f9;stroke-width:0.5;paint-order:stroke fill markers"
         d="m 77.595637,125.376 0.423333,-0.72814 c 0.1016,-0.20884 0.2032,-0.41204 0.293511,-0.62088 h 0.02258 c -0.01129,0.23706 -0.02822,0.58702 -0.02822,0.81844 v 0.53058 z m 0.711199,1.50142 h 0.812799 v -0.83538 h 0.4064 V 125.376 h -0.4064 v -2.0828 h -1.078088 l -1.275643,2.13924 v 0.6096 h 1.540932 z"
         id="text36"
         aria-label="4" /></g><g
       id="g37"
       transform="translate(3.1750001,-1.6765004)"><g
         id="g36"><g
           inkscape:label="Layer 1"
           id="layer1-9"
           transform="translate(-106.72445,1.6765004)"><path
             id="rect1-66"
             style="fill:#28afb0;fill-opacity:1;stroke:#196969;stroke-width:0.5;stroke-opacity:1"
             d="M 52.718559,99.617004 H 67.76801 V 114.66646 H 52.718559 Z" /><path
             id="rect1-63-1"
             style="fill:#cb6359;fill-opacity:1;stroke:#806600;stroke-width:0.5"
             d="M 34.815872,99.617004 H 49.865323 V 114.66646 H 34.815872 Z" /><path
             id="rect1-03-75"
             style="fill:#ffd23f;fill-opacity:1;stroke:#806600;stroke-width:0.5;stroke-opacity:1"
             d="M 88.523926,99.617004 H 103.57338 V 114.66646 H 88.523926 Z" /><path
             id="rect1-03-7-5"
             style="fill:#ffd23f;stroke:#806600;stroke-width:0.5"
             d="m 106.42661,99.617004 h 15.04945 v 15.049456 h -15.04945 z" /><path
             id="rect1-0-6"
             style="fill:#ffd23f;stroke:#806600;stroke-width:0.5"
             d="M 70.621246,99.617004 H 85.670697 V 114.66646 H 70.621246 Z" /><path
             id="rect1-31-3"
             style="fill:#ffd23f;stroke:#806600;stroke-width:0.5"
             d="M 52.718559,117.56058 H 67.76801 v 15.04945 H 52.718559 Z" /><path
             id="rect1-31-9-0"
             style="fill:#28afb0;fill-opacity:1;stroke:#196969;stroke-width:0.5;stroke-opacity:1"
             d="m 34.815872,117.56058 h 15.049451 v 15.04945 H 34.815872 Z" /><path
             id="rect1-31-0-2"
             style="fill:#ffd23f;stroke:#806600;stroke-width:0.5"
             d="m 88.523926,117.56058 h 15.049454 v 15.04945 H 88.523926 Z" /><path
             id="rect1-31-0-5-5"
             style="fill:#ffd23f;fill-opacity:1;stroke:#806600;stroke-width:0.5;stroke-opacity:1"
             d="m 106.42661,117.56058 h 15.04945 v 15.04945 h -15.04945 z" /><path
             id="rect1-31-8-9"
             style="fill:#ffd23f;stroke:#806600;stroke-width:0.5"
             d="m 70.621246,117.56058 h 15.049451 v 15.04945 H 70.621246 Z" /><path
             id="rect1-4-82"
             style="fill:#cb6359;fill-opacity:1;stroke:#806600;stroke-width:0.499993;stroke-opacity:1"
             d="m 34.815868,45.785995 h 15.04946 v 15.049008 h -15.04946 z" /><path
             id="rect1-4-40-3"
             style="fill:#9a18c9;stroke:#540d6e;stroke-width:0.397736"
             d="m 34.764871,36.907469 h 86.762259 v 6.500486 H 34.764871 Z" /><path
             id="rect1-4-40-6-8"
             style="fill:#9a18c9;stroke:#540d6e;stroke-width:0.5"
             transform="rotate(90)"
             d="m 45.73505,-32.229599 h 86.9259 v 6.500123 h -86.9259 z" /><path
             id="rect1-4-4-6"
             style="fill:#cb6359;fill-opacity:1;stroke:#806600;stroke-width:0.5"
             d="M 88.523926,45.786285 H 103.57338 V 60.835736 H 88.523926 Z" /><path
             id="rect1-4-44-1"
             style="fill:#28afb0;fill-opacity:1;stroke:#196969;stroke-width:0.5;stroke-opacity:1"
             d="m 106.42661,45.786285 h 15.04945 v 15.049451 h -15.04945 z" /><path
             id="rect1-4-1-6"
             style="fill:#cb6359;fill-opacity:1;stroke:#806600;stroke-width:0.5"
             d="M 70.621246,45.786285 H 85.670697 V 60.835736 H 70.621246 Z" /><path
             id="rect1-4-8-6"
             style="fill:#cb6359;fill-opacity:1;stroke:#806600;stroke-width:0.5"
             d="M 52.718559,45.786285 H 67.76801 V 60.835736 H 52.718559 Z" /><path
             id="rect1-6-13"
             style="fill:#cb6359;fill-opacity:1;stroke:#806600;stroke-width:0.5"
             d="m 34.815872,63.729855 h 15.049451 v 15.04945 H 34.815872 Z" /><path
             id="rect1-6-8-4"
             style="fill:#28afb0;fill-opacity:1;stroke:#196969;stroke-width:0.5;stroke-opacity:1"
             d="m 88.523926,63.729855 h 15.049454 v 15.04945 H 88.523926 Z" /><path
             id="rect1-6-4-0"
             style="fill:#ffd23f;stroke:#806600;stroke-width:0.5"
             d="m 106.42661,63.729855 h 15.04945 v 15.04945 h -15.04945 z" /><path
             id="rect1-6-1-9"
             style="fill:#cb6359;fill-opacity:1;stroke:#806600;stroke-width:0.5"
             d="m 70.621246,63.729855 h 15.049451 v 15.04945 H 70.621246 Z" /><path
             id="rect1-6-5-6"
             style="fill:#cb6359;fill-opacity:1;stroke:#806600;stroke-width:0.5;stroke-opacity:1"
             d="M 52.718559,63.729855 H 67.76801 v 15.04945 H 52.718559 Z" /><path
             id="rect1-1-8"
             style="fill:#cb6359;fill-opacity:1;stroke:#806600;stroke-width:0.5"
             d="M 34.815872,81.673431 H 49.865323 V 96.722882 H 34.815872 Z" /><path
             id="rect1-1-1-2"
             style="fill:#ffd23f;stroke:#806600;stroke-width:0.5"
             d="M 88.523926,81.673431 H 103.57338 V 96.722882 H 88.523926 Z" /><path
             id="rect1-1-4-6"
             style="fill:#ffd23f;stroke:#806600;stroke-width:0.5"
             d="m 106.42661,81.673431 h 15.04945 v 15.049451 h -15.04945 z" /><path
             id="rect1-1-5-4"
             style="fill:#28afb0;fill-opacity:1;stroke:#196969;stroke-width:0.5;stroke-opacity:1"
             d="M 70.621246,81.673431 H 85.670697 V 96.722882 H 70.621246 Z" /><path
             id="rect1-1-0-2"
             style="fill:#cb6359;fill-opacity:1;stroke:#806600;stroke-width:0.5"
             d="M 52.718559,81.673431 H 67.76801 V 96.722882 H 52.718559 Z" /><path
             style="font-weight:bold;font-size:4.5861px;font-family:'Source Sans Pro';-inkscape-font-specification:'Source Sans Pro, Bold';fill:#f3fcf0;stroke-width:0.5"
             d="m 42.3406,41.668833 c 0.632881,0 1.054803,-0.531987 1.054803,-1.522585 0,-0.990598 -0.421922,-1.499655 -1.054803,-1.499655 -0.632882,0 -1.054803,0.504471 -1.054803,1.499655 0,0.990598 0.421921,1.522585 1.054803,1.522585 z m 0,-0.545746 c -0.215547,0 -0.385233,-0.192616 -0.385233,-0.976839 0,-0.788809 0.169686,-0.949323 0.385233,-0.949323 0.21096,0 0.385232,0.160514 0.385232,0.949323 0,0.784223 -0.174272,0.976839 -0.385232,0.976839 z"
             id="text6-3"
             aria-label="0" /><path
             style="font-weight:bold;font-size:4.5861px;font-family:'Source Sans Pro';-inkscape-font-specification:'Source Sans Pro, Bold';fill:#f3fcf0;stroke-width:0.5"
             d="m 59.300842,41.6138 h 1.884887 v -0.573262 h -0.54116 v -2.338912 h -0.522815 c -0.206375,0.132997 -0.417335,0.210961 -0.733776,0.27058 v 0.440266 h 0.545746 v 1.628066 h -0.632882 z"
             id="text7-0"
             aria-label="1" /><path
             style="font-weight:bold;font-size:4.5861px;font-family:'Source Sans Pro';-inkscape-font-specification:'Source Sans Pro, Bold';fill:#f3fcf0;stroke-width:0.5"
             d="m 77.12098,41.641315 h 2.068331 v -0.596193 h -0.62371 c -0.132997,0 -0.334785,0.01835 -0.486126,0.0321 0.490712,-0.476954 0.967667,-0.949323 0.967667,-1.472138 0,-0.559504 -0.398991,-0.930978 -0.97684,-0.930978 -0.412749,0 -0.683329,0.160513 -0.967667,0.48154 l 0.366888,0.366888 c 0.142169,-0.151341 0.302683,-0.288924 0.504471,-0.288924 0.243064,0 0.394405,0.142169 0.394405,0.417335 0,0.403577 -0.531988,0.921806 -1.247419,1.554688 z"
             id="text8-5"
             aria-label="2" /><path
             style="font-weight:bold;font-size:4.5861px;font-family:'Source Sans Pro';-inkscape-font-specification:'Source Sans Pro, Bold';fill:#f3fcf0;stroke-width:0.5"
             d="m 96.01196,41.668833 c 0.591607,0 1.096078,-0.302682 1.096078,-0.848428 0,-0.37606 -0.238477,-0.609952 -0.573262,-0.70626 v -0.01834 c 0.311855,-0.132997 0.48154,-0.348544 0.48154,-0.642054 0,-0.518229 -0.403576,-0.807154 -1.0227,-0.807154 -0.35313,0 -0.651226,0.142169 -0.921806,0.37606 l 0.357716,0.431094 c 0.178858,-0.160514 0.330199,-0.24765 0.531987,-0.24765 0.220133,0 0.343958,0.105481 0.343958,0.302683 0,0.220133 -0.160514,0.371474 -0.669571,0.371474 v 0.499885 c 0.62371,0 0.761293,0.146755 0.761293,0.389819 0,0.21096 -0.178858,0.325613 -0.45861,0.325613 -0.229305,0 -0.444852,-0.119239 -0.62371,-0.288925 l -0.325613,0.449438 c 0.215547,0.24765 0.550332,0.412749 1.0227,0.412749 z"
             id="text9-0"
             aria-label="3" /><path
             style="font-weight:bold;font-size:4.5861px;font-family:'Source Sans Pro';-inkscape-font-specification:'Source Sans Pro, Bold';fill:#f3fcf0;stroke-width:0.5"
             d="m 113.50419,40.393897 0.34396,-0.591606 c 0.0825,-0.169686 0.1651,-0.334786 0.23848,-0.504472 h 0.0183 c -0.009,0.192617 -0.0229,0.476955 -0.0229,0.664985 v 0.431093 z m 0.57785,1.219903 h 0.6604 v -0.678743 h 0.3302 v -0.54116 h -0.3302 v -1.692271 h -0.87595 l -1.03646,1.738132 v 0.495299 h 1.25201 z"
             id="text10-7"
             aria-label="4" /><path
             style="font-weight:bold;font-size:4.5861px;font-family:'Source Sans Pro';-inkscape-font-specification:'Source Sans Pro, Bold';fill:#f3fcf0;stroke-width:0.5"
             d="m 29.059794,54.821619 c 0.632882,0 1.054803,-0.531988 1.054803,-1.522586 0,-0.990597 -0.421921,-1.499654 -1.054803,-1.499654 -0.632882,0 -1.054803,0.504471 -1.054803,1.499654 0,0.990598 0.421921,1.522586 1.054803,1.522586 z m 0,-0.545746 c -0.215547,0 -0.385232,-0.192616 -0.385232,-0.97684 0,-0.788809 0.169685,-0.949322 0.385232,-0.949322 0.210961,0 0.385232,0.160513 0.385232,0.949322 0,0.784224 -0.174271,0.97684 -0.385232,0.97684 z"
             id="text14-2"
             aria-label="0" /><path
             style="font-weight:bold;font-size:4.5861px;font-family:'Source Sans Pro';-inkscape-font-specification:'Source Sans Pro, Bold';fill:#f3fcf0;stroke-width:0.5"
             d="m 28.103593,72.71067 h 1.884887 v -0.573262 h -0.541159 v -2.338911 h -0.522816 c -0.206374,0.132997 -0.417335,0.210961 -0.733776,0.27058 v 0.440265 h 0.545746 v 1.628066 h -0.632882 z"
             id="text15-8"
             aria-label="1" /><path
             style="font-weight:bold;font-size:4.5861px;font-family:'Source Sans Pro';-inkscape-font-specification:'Source Sans Pro, Bold';fill:#f3fcf0;stroke-width:0.5"
             d="m 28.027922,90.681763 h 2.068331 V 90.08557 h -0.623709 c -0.132997,0 -0.334786,0.01834 -0.486127,0.0321 0.490713,-0.476954 0.967667,-0.949322 0.967667,-1.472138 0,-0.559504 -0.398991,-0.930978 -0.976839,-0.930978 -0.412749,0 -0.683329,0.160513 -0.967667,0.48154 l 0.366888,0.366888 c 0.142169,-0.151341 0.302682,-0.288924 0.504471,-0.288924 0.243063,0 0.394404,0.142169 0.394404,0.417335 0,0.403577 -0.531987,0.921806 -1.247419,1.554688 z"
             id="text16-0"
             aria-label="2" /><path
             style="font-weight:bold;font-size:4.5861px;font-family:'Source Sans Pro';-inkscape-font-specification:'Source Sans Pro, Bold';fill:#f3fcf0;stroke-width:0.5"
             d="m 29.013933,108.65285 c 0.591607,0 1.096078,-0.30268 1.096078,-0.84843 0,-0.37606 -0.238478,-0.60995 -0.573263,-0.70626 v -0.0183 c 0.311855,-0.133 0.481541,-0.34855 0.481541,-0.64206 0,-0.51823 -0.403577,-0.80715 -1.022701,-0.80715 -0.35313,0 -0.651226,0.14217 -0.921806,0.37606 l 0.357716,0.43109 c 0.178858,-0.16051 0.330199,-0.24765 0.531987,-0.24765 0.220133,0 0.343958,0.10548 0.343958,0.30269 0,0.22013 -0.160514,0.37147 -0.669571,0.37147 v 0.49989 c 0.62371,0 0.761293,0.14675 0.761293,0.38981 0,0.21096 -0.178858,0.32562 -0.45861,0.32562 -0.229305,0 -0.444852,-0.11924 -0.62371,-0.28893 l -0.325613,0.44944 c 0.215547,0.24765 0.550332,0.41275 1.022701,0.41275 z"
             id="text17-2"
             aria-label="3" /><path
             style="font-weight:bold;font-size:4.5861px;font-family:'Source Sans Pro';-inkscape-font-specification:'Source Sans Pro, Bold';fill:#f3fcf0;stroke-width:0.5"
             d="m 28.630993,125.32149 0.343957,-0.59161 c 0.08255,-0.16969 0.1651,-0.33479 0.238478,-0.50447 h 0.01834 c -0.0092,0.19262 -0.02293,0.47695 -0.02293,0.66498 v 0.4311 z m 0.577849,1.2199 h 0.660398 v -0.67874 h 0.330199 v -0.54116 H 29.86924 v -1.69227 h -0.875945 l -1.036459,1.73813 v 0.4953 h 1.252006 z"
             id="text18-3"
             aria-label="4" /><text
             xml:space="preserve"
             style="font-weight:bold;font-size:5.64444px;font-family:'Source Sans Pro';-inkscape-font-specification:'Source Sans Pro, Bold';text-align:start;writing-mode:lr-tb;direction:ltr;text-anchor:start;opacity:0.588064;fill:#000000;fill-opacity:1;stroke:none;stroke-width:0.499999;stroke-opacity:1;paint-order:stroke fill markers"
             x="59.612717"
             y="53.027283"
             id="text2-5"><tspan
               sodipodi:role="line"
               id="tspan2-4"
               style="fill:#000000;fill-opacity:1;stroke-width:0.5"
               x="59.612717"
               y="53.027283" /></text><path
             style="font-weight:bold;font-size:5.64444px;font-family:'Source Sans Pro';-inkscape-font-specification:'Source Sans Pro, Bold';fill:#f9f9f9;stroke-width:0.5;paint-order:stroke fill markers"
             d="m 42.340597,55.170852 c 0.778933,0 1.298222,-0.654755 1.298222,-1.873954 0,-1.219199 -0.519289,-1.845732 -1.298222,-1.845732 -0.778932,0 -1.298221,0.620889 -1.298221,1.845732 0,1.219199 0.519289,1.873954 1.298221,1.873954 z m 0,-0.671688 c -0.265288,0 -0.474133,-0.237067 -0.474133,-1.202266 0,-0.970844 0.208845,-1.168399 0.474133,-1.168399 0.259645,0 0.474133,0.197555 0.474133,1.168399 0,0.965199 -0.214488,1.202266 -0.474133,1.202266 z"
             id="text1-3"
             aria-label="0" /><path
             style="font-weight:bold;font-size:5.64444px;font-family:'Source Sans Pro';-inkscape-font-specification:'Source Sans Pro, Bold';fill:#f9f9f9;stroke-width:0.5;paint-order:stroke fill markers"
             d="m 59.692953,53.601698 0.423333,-0.728133 c 0.1016,-0.208844 0.2032,-0.412044 0.293511,-0.620888 h 0.02258 c -0.01129,0.237066 -0.02822,0.587021 -0.02822,0.818443 v 0.530578 z m 0.7112,1.501421 h 0.812799 v -0.835377 h 0.4064 v -0.666044 h -0.4064 v -2.082799 h -1.078088 l -1.275643,2.139243 v 0.6096 h 1.540932 z"
             id="text3-0"
             aria-label="4" /><path
             style="font-weight:bold;font-size:5.64444px;font-family:'Source Sans Pro';-inkscape-font-specification:'Source Sans Pro, Bold';fill:#f9f9f9;stroke-width:0.5;paint-order:stroke fill markers"
             d="m 76.884442,55.136986 h 2.545643 v -0.733777 h -0.767644 c -0.163689,0 -0.412044,0.02258 -0.598311,0.03951 0.603956,-0.587022 1.190977,-1.168399 1.190977,-1.811866 0,-0.688621 -0.491066,-1.145821 -1.202265,-1.145821 -0.508,0 -0.841022,0.197555 -1.190977,0.592666 l 0.451555,0.451555 c 0.174978,-0.186266 0.372533,-0.355599 0.620888,-0.355599 0.299156,0 0.485422,0.174977 0.485422,0.513644 0,0.49671 -0.654755,1.134532 -1.535288,1.913465 z"
             id="text4-7"
             aria-label="2" /><path
             style="font-weight:bold;font-size:5.64444px;font-family:'Source Sans Pro';-inkscape-font-specification:'Source Sans Pro, Bold';fill:#f9f9f9;stroke-width:0.5;paint-order:stroke fill markers"
             d="m 95.560409,52.659076 c 0,-0.395111 0.197555,-0.553155 0.428977,-0.553155 0.225778,0 0.451556,0.158044 0.530578,0.7112 -0.135467,0.237066 -0.333022,0.333022 -0.513644,0.333022 -0.254,0 -0.445911,-0.124178 -0.445911,-0.491067 z m 0.321733,2.511776 c 0.756355,0 1.456266,-0.609599 1.456266,-1.936043 0,-1.269999 -0.677333,-1.783643 -1.371599,-1.783643 -0.654756,0 -1.207911,0.4572 -1.207911,1.20791 0,0.762 0.462844,1.106311 1.078088,1.106311 0.208845,0 0.513644,-0.135467 0.699911,-0.372533 -0.03387,0.80151 -0.327378,1.072443 -0.716844,1.072443 -0.2032,0 -0.428977,-0.118533 -0.547511,-0.254 l -0.462844,0.519289 c 0.231422,0.237066 0.587022,0.440266 1.072444,0.440266 z"
             id="text5-1"
             aria-label="9" /><path
             style="font-weight:bold;font-size:5.64444px;font-family:'Source Sans Pro';-inkscape-font-specification:'Source Sans Pro, Bold';fill:#ffffff;stroke-width:0.5;paint-order:stroke fill markers"
             d="m 112.7914,55.103119 h 2.31986 v -0.705555 h -0.66604 v -2.878665 h -0.64347 c -0.254,0.163689 -0.51364,0.259645 -0.90311,0.333022 v 0.541867 h 0.67169 v 2.003776 h -0.77893 z"
             id="text11-8"
             aria-label="1" /><path
             style="font-weight:bold;font-size:5.64444px;font-family:'Source Sans Pro';-inkscape-font-specification:'Source Sans Pro, Bold';fill:#f9f9f9;stroke-width:0.5;paint-order:stroke fill markers"
             d="m 42.318021,73.080558 c 0.705555,0 1.326444,-0.457199 1.326444,-1.25871 0,-0.756355 -0.524933,-1.10631 -1.145822,-1.10631 -0.135466,0 -0.248355,0.01693 -0.378177,0.07338 l 0.0508,-0.626533 h 1.30951 v -0.733777 h -2.060221 l -0.09596,1.823154 0.383822,0.248355 c 0.214488,-0.135467 0.316088,-0.180622 0.519288,-0.180622 0.316089,0 0.541867,0.186266 0.541867,0.524933 0,0.349955 -0.225778,0.530577 -0.581378,0.530577 -0.293511,0 -0.541866,-0.1524 -0.756355,-0.349955 l -0.395111,0.547511 c 0.287867,0.287866 0.694267,0.507999 1.281288,0.507999 z"
             id="text12-8"
             aria-label="5" /><path
             style="font-weight:bold;font-size:5.64444px;font-family:'Source Sans Pro';-inkscape-font-specification:'Source Sans Pro, Bold';stroke-width:0.5;paint-order:stroke fill markers"
             d="m 113.92876,73.080558 c 0.70555,0 1.32644,-0.457199 1.32644,-1.25871 0,-0.756355 -0.52493,-1.10631 -1.14582,-1.10631 -0.13547,0 -0.24836,0.01693 -0.37818,0.07338 l 0.0508,-0.626533 h 1.30951 v -0.733777 h -2.06022 l -0.096,1.823154 0.38382,0.248355 c 0.21449,-0.135467 0.31609,-0.180622 0.51929,-0.180622 0.31609,0 0.54186,0.186266 0.54186,0.524933 0,0.349955 -0.22577,0.530577 -0.58137,0.530577 -0.29351,0 -0.54187,-0.1524 -0.75636,-0.349955 l -0.39511,0.547511 c 0.28787,0.287866 0.69427,0.507999 1.28129,0.507999 z"
             id="text13-7"
             aria-label="5" /><path
             style="font-weight:bold;font-size:5.64444px;font-family:'Source Sans Pro';-inkscape-font-specification:'Source Sans Pro, Bold';fill:#f9f9f9;stroke-width:0.5;paint-order:stroke fill markers"
             d="m 60.243284,73.114425 c 0.778933,0 1.298222,-0.654755 1.298222,-1.873954 0,-1.219199 -0.519289,-1.845732 -1.298222,-1.845732 -0.778932,0 -1.298221,0.620889 -1.298221,1.845732 0,1.219199 0.519289,1.873954 1.298221,1.873954 z m 0,-0.671688 c -0.265288,0 -0.474133,-0.237067 -0.474133,-1.202266 0,-0.970844 0.208845,-1.168399 0.474133,-1.168399 0.259645,0 0.474133,0.197555 0.474133,1.168399 0,0.965199 -0.214488,1.202266 -0.474133,1.202266 z"
             id="text19-4"
             aria-label="0" /><path
             style="font-weight:bold;font-size:5.64444px;font-family:'Source Sans Pro';-inkscape-font-specification:'Source Sans Pro, Bold';fill:#f9f9f9;stroke-width:0.5;paint-order:stroke fill markers"
             d="m 76.884442,73.080559 h 2.545643 v -0.733777 h -0.767644 c -0.163689,0 -0.412044,0.02258 -0.598311,0.03951 0.603956,-0.587022 1.190977,-1.168399 1.190977,-1.811866 0,-0.688621 -0.491066,-1.145821 -1.202265,-1.145821 -0.508,0 -0.841022,0.197555 -1.190977,0.592666 l 0.451555,0.451555 c 0.174978,-0.186266 0.372533,-0.355599 0.620888,-0.355599 0.299156,0 0.485422,0.174977 0.485422,0.513644 0,0.49671 -0.654755,1.134532 -1.535288,1.913465 z"
             id="text20-2"
             aria-label="2" /><path
             style="font-weight:bold;font-size:5.64444px;font-family:'Source Sans Pro';-inkscape-font-specification:'Source Sans Pro, Bold';fill:#ffffff;stroke-width:0.5;paint-order:stroke fill markers"
             d="m 95.498324,71.545271 0.423333,-0.728133 c 0.1016,-0.208844 0.2032,-0.412044 0.293511,-0.620888 h 0.02258 c -0.01129,0.237066 -0.02822,0.587021 -0.02822,0.818443 v 0.530578 z m 0.711199,1.501421 h 0.8128 v -0.835377 h 0.406399 v -0.666044 h -0.406399 v -2.082799 h -1.078089 l -1.275643,2.139243 v 0.6096 h 1.540932 z"
             id="text21-2"
             aria-label="4" /><path
             style="font-weight:bold;font-size:5.64444px;font-family:'Source Sans Pro';-inkscape-font-specification:'Source Sans Pro, Bold';fill:#f9f9f9;stroke-width:0.5;paint-order:stroke fill markers"
             d="m 42.329307,91.057998 c 0.767644,0 1.281288,-0.428977 1.281288,-0.999066 0,-0.474133 -0.276578,-0.75071 -0.620888,-0.936977 v -0.02258 c 0.248355,-0.163688 0.468488,-0.434621 0.468488,-0.773288 0,-0.598311 -0.440266,-0.987777 -1.100666,-0.987777 -0.677333,0 -1.162754,0.383822 -1.162754,0.999066 0,0.372533 0.197555,0.637822 0.479777,0.846666 v 0.02258 c -0.338666,0.180622 -0.603955,0.440266 -0.603955,0.869244 0,0.581377 0.536222,0.982132 1.25871,0.982132 z m 0.220133,-2.167465 c -0.355599,-0.141111 -0.587022,-0.276577 -0.587022,-0.553155 0,-0.265289 0.169334,-0.395111 0.372534,-0.395111 0.259644,0 0.412044,0.174978 0.412044,0.445911 0,0.174978 -0.06773,0.338666 -0.197556,0.502355 z m -0.2032,1.56351 c -0.282222,0 -0.524933,-0.174978 -0.524933,-0.479777 0,-0.208845 0.107245,-0.4064 0.248356,-0.541867 0.440266,0.186267 0.728133,0.299156 0.728133,0.598311 0,0.293511 -0.197556,0.423333 -0.451556,0.423333 z"
             id="text22-1"
             aria-label="8" /><path
             style="font-weight:bold;font-size:5.64444px;font-family:'Source Sans Pro';-inkscape-font-specification:'Source Sans Pro, Bold';fill:#f9f9f9;stroke-width:0.5;paint-order:stroke fill markers"
             d="m 59.083353,90.990265 h 2.319865 V 90.28471 h -0.666044 v -2.878665 h -0.643466 c -0.254,0.163689 -0.513644,0.259645 -0.90311,0.333022 v 0.541867 h 0.671688 v 2.003776 h -0.778933 z"
             id="text23-2"
             aria-label="1" /><path
             style="font-weight:bold;font-size:5.64444px;font-family:'Source Sans Pro';-inkscape-font-specification:'Source Sans Pro, Bold';fill:#ffffff;stroke-width:0.5;paint-order:stroke fill markers"
             d="m 78.134685,91.057998 c 0.767644,0 1.281288,-0.428977 1.281288,-0.999066 0,-0.474133 -0.276578,-0.75071 -0.620888,-0.936977 v -0.02258 c 0.248355,-0.163688 0.468488,-0.434621 0.468488,-0.773288 0,-0.598311 -0.440266,-0.987777 -1.100666,-0.987777 -0.677333,0 -1.162754,0.383822 -1.162754,0.999066 0,0.372533 0.197555,0.637822 0.479777,0.846666 v 0.02258 c -0.338666,0.180622 -0.603955,0.440266 -0.603955,0.869244 0,0.581377 0.536222,0.982132 1.25871,0.982132 z m 0.220133,-2.167465 c -0.3556,-0.141111 -0.587022,-0.276577 -0.587022,-0.553155 0,-0.265289 0.169334,-0.395111 0.372533,-0.395111 0.259645,0 0.412045,0.174978 0.412045,0.445911 0,0.174978 -0.06773,0.338666 -0.197556,0.502355 z m -0.2032,1.56351 c -0.282222,0 -0.524933,-0.174978 -0.524933,-0.479777 0,-0.208845 0.107245,-0.4064 0.248356,-0.541867 0.440266,0.186267 0.728133,0.299156 0.728133,0.598311 0,0.293511 -0.197556,0.423333 -0.451556,0.423333 z"
             id="text24-1"
             aria-label="8" /><path
             style="font-weight:bold;font-size:5.64444px;font-family:'Source Sans Pro';-inkscape-font-specification:'Source Sans Pro, Bold';stroke-width:0.5;paint-order:stroke fill markers"
             d="m 94.787122,91.024132 h 2.545642 v -0.733777 h -0.767643 c -0.163689,0 -0.412045,0.02258 -0.598311,0.03951 0.603955,-0.587022 1.190977,-1.168399 1.190977,-1.811866 0,-0.688621 -0.491067,-1.145821 -1.202266,-1.145821 -0.508,0 -0.841022,0.197555 -1.190977,0.592666 l 0.451555,0.451555 c 0.174978,-0.186266 0.372533,-0.355599 0.620889,-0.355599 0.299155,0 0.485422,0.174977 0.485422,0.513644 0,0.49671 -0.654755,1.134532 -1.535288,1.913465 z"
             id="text25-7"
             aria-label="2" /><path
             style="font-weight:bold;font-size:5.64444px;font-family:'Source Sans Pro';-inkscape-font-specification:'Source Sans Pro, Bold';stroke-width:0.5;paint-order:stroke fill markers"
             d="m 113.92876,91.024131 c 0.70555,0 1.32644,-0.457199 1.32644,-1.25871 0,-0.756355 -0.52493,-1.10631 -1.14582,-1.10631 -0.13547,0 -0.24836,0.01693 -0.37818,0.07338 l 0.0508,-0.626533 h 1.30951 V 87.37218 h -2.06022 l -0.096,1.823155 0.38382,0.248355 c 0.21449,-0.135467 0.31609,-0.180622 0.51929,-0.180622 0.31609,0 0.54186,0.186266 0.54186,0.524933 0,0.349955 -0.22577,0.530577 -0.58137,0.530577 -0.29351,0 -0.54187,-0.1524 -0.75636,-0.349955 l -0.39511,0.547511 c 0.28787,0.287866 0.69427,0.507999 1.28129,0.507999 z"
             id="text26-2"
             aria-label="5" /><path
             style="font-weight:bold;font-size:5.64444px;font-family:'Source Sans Pro';-inkscape-font-specification:'Source Sans Pro, Bold';fill:#f9f9f9;stroke-width:0.5;paint-order:stroke fill markers"
             d="m 41.790266,107.43243 0.423333,-0.72813 c 0.1016,-0.20885 0.2032,-0.41204 0.293511,-0.62089 h 0.02258 c -0.01129,0.23707 -0.02822,0.58702 -0.02822,0.81844 v 0.53058 z m 0.7112,1.50142 h 0.812799 v -0.83537 h 0.4064 v -0.66605 h -0.4064 v -2.0828 h -1.078088 l -1.275643,2.13925 v 0.6096 h 1.540932 z"
             id="text27-6"
             aria-label="4" /><path
             style="font-weight:bold;font-size:5.64444px;font-family:'Source Sans Pro';-inkscape-font-specification:'Source Sans Pro, Bold';stroke-width:0.5;paint-order:stroke fill markers"
             d="m 112.6898,108.9677 h 2.54564 v -0.73378 h -0.76764 c -0.16369,0 -0.41204,0.0226 -0.59831,0.0395 0.60395,-0.58702 1.19098,-1.1684 1.19098,-1.81186 0,-0.68863 -0.49107,-1.14583 -1.20227,-1.14583 -0.508,0 -0.84102,0.19756 -1.19098,0.59267 l 0.45156,0.45156 c 0.17498,-0.18627 0.37253,-0.3556 0.62089,-0.3556 0.29915,0 0.48542,0.17497 0.48542,0.51364 0,0.49671 -0.65476,1.13453 -1.53529,1.91347 z"
             id="text28-3"
             aria-label="2" /><path
             style="font-weight:bold;font-size:5.64444px;font-family:'Source Sans Pro';-inkscape-font-specification:'Source Sans Pro, Bold';fill:#ffffff;stroke-width:0.5;paint-order:stroke fill markers"
             d="m 59.692953,107.43243 0.423333,-0.72813 c 0.1016,-0.20885 0.2032,-0.41204 0.293511,-0.62089 h 0.02258 c -0.01129,0.23707 -0.02822,0.58702 -0.02822,0.81844 v 0.53058 z m 0.7112,1.50142 h 0.812799 v -0.83537 h 0.4064 v -0.66605 h -0.4064 v -2.0828 h -1.078088 l -1.275643,2.13925 v 0.6096 h 1.540932 z"
             id="text29-6"
             aria-label="4" /><path
             style="font-weight:bold;font-size:5.64444px;font-family:'Source Sans Pro';-inkscape-font-specification:'Source Sans Pro, Bold';stroke-width:0.5;paint-order:stroke fill markers"
             d="m 78.188305,107.30261 c 0.254,0 0.451555,0.12418 0.451555,0.49107 0,0.39511 -0.203199,0.55315 -0.434621,0.55315 -0.225778,0 -0.451556,-0.15804 -0.524933,-0.70555 0.129822,-0.23707 0.327377,-0.33867 0.507999,-0.33867 z m 0.03951,1.69898 c 0.654755,0 1.207911,-0.45156 1.207911,-1.20791 0,-0.762 -0.462845,-1.10631 -1.072444,-1.10631 -0.214489,0 -0.519289,0.13546 -0.705555,0.37253 0.03387,-0.80151 0.333022,-1.07244 0.716844,-1.07244 0.2032,0 0.428977,0.12417 0.54751,0.254 l 0.462845,-0.51929 c -0.231422,-0.23143 -0.587022,-0.44027 -1.072444,-0.44027 -0.756355,0 -1.456266,0.6096 -1.456266,1.93604 0,1.27 0.677333,1.78365 1.371599,1.78365 z"
             id="text30-0"
             aria-label="6" /><path
             style="font-weight:bold;font-size:5.64444px;font-family:'Source Sans Pro';-inkscape-font-specification:'Source Sans Pro, Bold';stroke-width:0.5;paint-order:stroke fill markers"
             d="m 95.560409,106.48981 c 0,-0.39511 0.197555,-0.55315 0.428977,-0.55315 0.225778,0 0.451556,0.15804 0.530578,0.71119 -0.135467,0.23707 -0.333022,0.33303 -0.513644,0.33303 -0.254,0 -0.445911,-0.12418 -0.445911,-0.49107 z m 0.321733,2.51178 c 0.756355,0 1.456266,-0.6096 1.456266,-1.93605 0,-1.27 -0.677333,-1.78364 -1.371599,-1.78364 -0.654756,0 -1.207911,0.4572 -1.207911,1.20791 0,0.762 0.462844,1.10631 1.078088,1.10631 0.208845,0 0.513644,-0.13547 0.699911,-0.37253 -0.03387,0.80151 -0.327378,1.07244 -0.716844,1.07244 -0.2032,0 -0.428977,-0.11853 -0.547511,-0.254 l -0.462844,0.51929 c 0.231422,0.23707 0.587022,0.44027 1.072444,0.44027 z"
             id="text31-8"
             aria-label="9" /><path
             style="font-weight:bold;font-size:5.64444px;font-family:'Source Sans Pro';-inkscape-font-specification:'Source Sans Pro, Bold';fill:#ffffff;stroke-width:0.5;paint-order:stroke fill markers"
             d="m 42.295441,126.94515 c 0.728133,0 1.349021,-0.37253 1.349021,-1.04422 0,-0.46284 -0.293511,-0.75071 -0.705555,-0.86924 v -0.0226 c 0.383822,-0.16369 0.592666,-0.42898 0.592666,-0.79022 0,-0.63782 -0.49671,-0.99342 -1.25871,-0.99342 -0.434622,0 -0.80151,0.17497 -1.134532,0.46284 l 0.440266,0.53058 c 0.220133,-0.19756 0.4064,-0.3048 0.654755,-0.3048 0.270933,0 0.423333,0.12982 0.423333,0.37253 0,0.27093 -0.197555,0.4572 -0.824088,0.4572 v 0.61524 c 0.767644,0 0.936977,0.18063 0.936977,0.47978 0,0.25965 -0.220133,0.40076 -0.564444,0.40076 -0.282222,0 -0.547511,-0.14676 -0.767644,-0.3556 l -0.400755,0.55315 c 0.265289,0.3048 0.677333,0.508 1.25871,0.508 z"
             id="text32-8"
             aria-label="3" /><path
             style="font-weight:bold;font-size:5.64444px;font-family:'Source Sans Pro';-inkscape-font-specification:'Source Sans Pro, Bold';stroke-width:0.5;paint-order:stroke fill markers"
             d="m 60.198128,126.94515 c 0.728133,0 1.349021,-0.37253 1.349021,-1.04422 0,-0.46284 -0.293511,-0.75071 -0.705555,-0.86924 v -0.0226 c 0.383822,-0.16369 0.592667,-0.42898 0.592667,-0.79022 0,-0.63782 -0.496711,-0.99342 -1.258711,-0.99342 -0.434622,0 -0.80151,0.17497 -1.134532,0.46284 l 0.440266,0.53058 c 0.220133,-0.19756 0.4064,-0.3048 0.654755,-0.3048 0.270933,0 0.423333,0.12982 0.423333,0.37253 0,0.27093 -0.197555,0.4572 -0.824088,0.4572 v 0.61524 c 0.767644,0 0.936977,0.18063 0.936977,0.47978 0,0.25965 -0.220133,0.40076 -0.564444,0.40076 -0.282222,0 -0.547511,-0.14676 -0.767644,-0.3556 l -0.400755,0.55315 c 0.265289,0.3048 0.677333,0.508 1.25871,0.508 z"
             id="text33-7"
             aria-label="3" /><path
             style="font-weight:bold;font-size:5.64444px;font-family:'Source Sans Pro';-inkscape-font-specification:'Source Sans Pro, Bold';stroke-width:0.5;paint-order:stroke fill markers"
             d="m 95.560409,124.43338 c 0,-0.39511 0.197555,-0.55316 0.428977,-0.55316 0.225778,0 0.451556,0.15805 0.530578,0.7112 -0.135467,0.23707 -0.333022,0.33302 -0.513644,0.33302 -0.254,0 -0.445911,-0.12418 -0.445911,-0.49106 z m 0.321733,2.51177 c 0.756355,0 1.456266,-0.6096 1.456266,-1.93604 0,-1.27 -0.677333,-1.78364 -1.371599,-1.78364 -0.654756,0 -1.207911,0.4572 -1.207911,1.20791 0,0.762 0.462844,1.10631 1.078088,1.10631 0.208845,0 0.513644,-0.13547 0.699911,-0.37254 -0.03387,0.80151 -0.327378,1.07245 -0.716844,1.07245 -0.2032,0 -0.428977,-0.11854 -0.547511,-0.254 l -0.462844,0.51929 c 0.231422,0.23706 0.587022,0.44026 1.072444,0.44026 z"
             id="text34-0"
             aria-label="9" /><path
             style="font-weight:bold;font-size:5.64444px;font-family:'Source Sans Pro';-inkscape-font-specification:'Source Sans Pro, Bold';stroke-width:0.5;paint-order:stroke fill markers"
             d="m 113.90618,126.94515 c 0.72813,0 1.34902,-0.37253 1.34902,-1.04422 0,-0.46284 -0.29351,-0.75071 -0.70555,-0.86924 v -0.0226 c 0.38382,-0.16369 0.59266,-0.42898 0.59266,-0.79022 0,-0.63782 -0.49671,-0.99342 -1.25871,-0.99342 -0.43462,0 -0.80151,0.17497 -1.13453,0.46284 l 0.44027,0.53058 c 0.22013,-0.19756 0.4064,-0.3048 0.65475,-0.3048 0.27094,0 0.42334,0.12982 0.42334,0.37253 0,0.27093 -0.19756,0.4572 -0.82409,0.4572 v 0.61524 c 0.76764,0 0.93697,0.18063 0.93697,0.47978 0,0.25965 -0.22013,0.40076 -0.56444,0.40076 -0.28222,0 -0.54751,-0.14676 -0.76764,-0.3556 l -0.40076,0.55315 c 0.26529,0.3048 0.67733,0.508 1.25871,0.508 z"
             id="text35-8"
             aria-label="3" /><path
             style="font-weight:bold;font-size:5.64444px;font-family:'Source Sans Pro';-inkscape-font-specification:'Source Sans Pro, Bold';stroke-width:0.5;paint-order:stroke fill markers"
             d="m 77.595637,125.376 0.423333,-0.72814 c 0.1016,-0.20884 0.2032,-0.41204 0.293511,-0.62088 h 0.02258 c -0.01129,0.23706 -0.02822,0.58702 -0.02822,0.81844 v 0.53058 z m 0.711199,1.50142 h 0.812799 v -0.83538 h 0.4064 V 125.376 h -0.4064 v -2.0828 h -1.078088 l -1.275643,2.13924 v 0.6096 h 1.540932 z"
             id="text36-9"
             aria-label="4" /></g></g></g></g></svg>
