<?xml version="1.0" encoding="UTF-8"?>
<!-- Created with Inkscape (http://www.inkscape.org/) -->
<svg width="149.95mm" height="96.202mm" version="1.1" viewBox="0 0 149.95 96.202" xmlns="http://www.w3.org/2000/svg" xmlns:xlink="http://www.w3.org/1999/xlink">
 <defs>
  <pattern id="pattern72" patternTransform="scale(1)" xlink:href="#Hatch1.0x045"/>
  <pattern id="Hatch1.0x045" width="5.345059133378628" height="5.345059133378628" patternUnits="userSpaceOnUse">
   <path d="m-3.7795 3.7795 7.5591-7.5591" stroke="#000" stroke-width=".25mm"/>
   <path d="m-3.7795 9.1246 12.904-12.904" stroke="#000" stroke-width=".25mm"/>
   <path d="m1.5655 9.1246 7.5591-7.5591" stroke="#000" stroke-width=".25mm"/>
  </pattern>
 </defs>
 <g transform="translate(-25.479 -36.709)">
  <g fill="#ffd23f" stroke="#806600">
   <g stroke-width=".5">
    <path d="m52.719 99.617h15.049v15.049h-15.049z"/>
    <path d="m34.816 99.617h15.049v15.049h-15.049z"/>
    <path d="m88.524 99.617h15.049v15.049h-15.049z"/>
    <path d="m124.33 99.617h15.049v15.049h-15.049z"/>
    <path d="m142.23 99.617h15.049v15.049h-15.049z"/>
    <path d="m160.13 99.617h15.049v15.049h-15.049z"/>
    <path d="m70.621 99.617h15.049v15.049h-15.049z"/>
    <path d="m52.719 117.56h15.049v15.049h-15.049z"/>
    <path d="m34.816 117.56h15.049v15.049h-15.049z"/>
    <path d="m88.524 117.56h15.049v15.049h-15.049z"/>
    <path d="m124.33 117.56h15.049v15.049h-15.049z"/>
    <path d="m142.23 117.56h15.049v15.049h-15.049z"/>
    <path d="m160.13 117.56h15.049v15.049h-15.049z"/>
    <path d="m70.621 117.56h15.049v15.049h-15.049z"/>
   </g>
   <path d="m34.816 45.786h15.049v15.049h-15.049z" stroke-width=".49999"/>
  </g>
  <path d="m34.817 36.96h140.37v6.3964h-140.37z" fill="#9a18c9" stroke="#540d6e" stroke-width=".50183"/>
  <path transform="rotate(90)" d="m45.735-32.23h86.926v6.5001h-86.926z" fill="#9a18c9" stroke="#540d6e" stroke-width=".5"/>
  <g fill="#ffd23f" stroke="#806600" stroke-width=".5">
   <path d="m88.524 45.786h15.049v15.049h-15.049z"/>
   <path d="m124.33 45.786h15.049v15.049h-15.049z"/>
   <path d="m142.23 45.786h15.049v15.049h-15.049z"/>
   <path d="m160.13 45.786h15.049v15.049h-15.049z"/>
   <path d="m70.621 45.786h15.049v15.049h-15.049z"/>
   <path d="m52.719 45.786h15.049v15.049h-15.049z"/>
   <path d="m34.816 63.73h15.049v15.049h-15.049z"/>
   <path d="m88.524 63.73h15.049v15.049h-15.049z"/>
   <path d="m124.33 63.73h15.049v15.049h-15.049z"/>
   <path d="m142.23 63.73h15.049v15.049h-15.049z"/>
   <path d="m160.13 63.73h15.049v15.049h-15.049z"/>
   <path d="m70.621 63.73h15.049v15.049h-15.049z"/>
   <path d="m52.719 63.73h15.049v15.049h-15.049z"/>
  </g>
  <g>
   <g fill="#ffd23f" stroke="#806600" stroke-width=".5">
    <path d="m34.816 81.673h15.049v15.049h-15.049z"/>
    <path d="m88.524 81.673h15.049v15.049h-15.049z"/>
    <path d="m106.43 81.673h15.049v15.049h-15.049z"/>
    <path d="m124.33 81.673h15.049v15.049h-15.049z"/>
    <path d="m142.23 81.673h15.049v15.049h-15.049z"/>
    <path d="m160.13 81.673h15.049v15.049h-15.049z"/>
    <path d="m70.621 81.673h15.049v15.049h-15.049z"/>
    <path d="m52.719 81.673h15.049v15.049h-15.049z"/>
   </g>
  </g>
  <path d="m34.816 81.673h15.049v15.049h-15.049z" display="none" fill="#ffd23f" stroke="#806600" stroke-width=".5"/>
  <path d="m88.524 81.647h15.049v15.049h-15.049z" display="none" fill="#ffd23f" stroke="#806600" stroke-width=".5"/>
  <g transform="matrix(.99997 0 0 1 .0029928 .00030747)" fill="#ffd23f" stroke="#806600" stroke-width=".5">
   <path d="m106.43 99.617h15.049v15.049h-15.049z"/>
   <path d="m106.43 117.56h15.049v15.049h-15.049z"/>
   <path d="m106.43 45.786h15.049v15.049h-15.049z"/>
   <path d="m106.43 63.73h15.049v15.049h-15.049z"/>
  </g>
  <path d="m106.43 81.673h15.049v15.049h-15.049z" fill="url(#pattern72)" opacity=".58806" stroke="#806600" stroke-width=".5"/>
  <g fill="#ffd23f" stroke="#806600" stroke-width=".5">
   <path d="m124.33 81.673h15.049v15.049h-15.049z"/>
   <path d="m142.23 81.673h15.049v15.049h-15.049z"/>
   <path d="m160.13 81.673h15.049v15.049h-15.049z"/>
   <path d="m70.621 81.673h15.049v15.049h-15.049z"/>
   <path d="m52.719 81.673h15.049v15.049h-15.049z"/>
  </g>
  <g fill="#f3fcf0" stroke-width=".5">
   <path d="m42.341 41.669c0.63288 0 1.0548-0.53199 1.0548-1.5226s-0.42192-1.4997-1.0548-1.4997c-0.63288 0-1.0548 0.50447-1.0548 1.4997 0 0.9906 0.42192 1.5226 1.0548 1.5226zm0-0.54575c-0.21555 0-0.38523-0.19262-0.38523-0.97684 0-0.78881 0.16969-0.94932 0.38523-0.94932 0.21096 0 0.38523 0.16051 0.38523 0.94932 0 0.78422-0.17427 0.97684-0.38523 0.97684z" aria-label="0"/>
   <path d="m59.301 41.614h1.8849v-0.57326h-0.54116v-2.3389h-0.52282c-0.20638 0.133-0.41734 0.21096-0.73378 0.27058v0.44027h0.54575v1.6281h-0.63288z" aria-label="1"/>
   <path d="m77.121 41.641h2.0683v-0.59619h-0.62371c-0.133 0-0.33478 0.01835-0.48613 0.0321 0.49071-0.47695 0.96767-0.94932 0.96767-1.4721 0-0.5595-0.39899-0.93098-0.97684-0.93098-0.41275 0-0.68333 0.16051-0.96767 0.48154l0.36689 0.36689c0.14217-0.15134 0.30268-0.28892 0.50447-0.28892 0.24306 0 0.3944 0.14217 0.3944 0.41734 0 0.40358-0.53199 0.92181-1.2474 1.5547z" aria-label="2"/>
   <path d="m96.012 41.669c0.59161 0 1.0961-0.30268 1.0961-0.84843 0-0.37606-0.23848-0.60995-0.57326-0.70626v-0.01834c0.31186-0.133 0.48154-0.34854 0.48154-0.64205 0-0.51823-0.40358-0.80715-1.0227-0.80715-0.35313 0-0.65123 0.14217-0.92181 0.37606l0.35772 0.43109c0.17886-0.16051 0.3302-0.24765 0.53199-0.24765 0.22013 0 0.34396 0.10548 0.34396 0.30268 0 0.22013-0.16051 0.37147-0.66957 0.37147v0.49988c0.62371 0 0.76129 0.14676 0.76129 0.38982 0 0.21096-0.17886 0.32561-0.45861 0.32561-0.2293 0-0.44485-0.11924-0.62371-0.28892l-0.32561 0.44944c0.21555 0.24765 0.55033 0.41275 1.0227 0.41275z" aria-label="3"/>
   <path d="m113.5 40.394 0.34396-0.59161c0.0825-0.16969 0.1651-0.33479 0.23848-0.50447h0.0183c-9e-3 0.19262-0.0229 0.47696-0.0229 0.66498v0.43109zm0.57785 1.2199h0.6604v-0.67874h0.3302v-0.54116h-0.3302v-1.6923h-0.87595l-1.0365 1.7381v0.4953h1.252z" aria-label="4"/>
   <path d="m131.84 41.641c0.57326 0 1.0777-0.37147 1.0777-1.0227 0-0.61454-0.4265-0.89888-0.93098-0.89888-0.11006 0-0.20178 0.01376-0.30726 0.05962l0.0413-0.50906h1.064v-0.59619h-1.6739l-0.078 1.4813 0.31185 0.20179c0.17427-0.11007 0.25682-0.14676 0.42192-0.14676 0.25682 0 0.44027 0.15134 0.44027 0.42651 0 0.28434-0.18345 0.43109-0.47237 0.43109-0.23848 0-0.44027-0.12382-0.61454-0.28434l-0.32102 0.44485c0.23389 0.23389 0.56409 0.41275 1.041 0.41275z" aria-label="5"/>
   <path d="m149.79 40.288c0.20638 0 0.36689 0.10089 0.36689 0.39899 0 0.32103-0.1651 0.44944-0.35313 0.44944-0.18344 0-0.36689-0.12841-0.42651-0.57326 0.10548-0.19262 0.266-0.27517 0.41275-0.27517zm0.0321 1.3804c0.53198 0 0.98142-0.36689 0.98142-0.98142 0-0.61912-0.37606-0.89888-0.87136-0.89888-0.17427 0-0.42192 0.11007-0.57326 0.30268 0.0275-0.65123 0.27058-0.87136 0.58243-0.87136 0.1651 0 0.34855 0.10089 0.44486 0.20637l0.37606-0.42192c-0.18803-0.18803-0.47696-0.35772-0.87136-0.35772-0.61454 0-1.1832 0.4953-1.1832 1.573 0 1.0319 0.55034 1.4492 1.1144 1.4492z" aria-label="6"/>
   <path d="m167.11 41.614h0.71084c0.055-1.1328 0.1651-1.6556 0.85761-2.4719v-0.44027h-2.0454v0.59619h1.2887c-0.56868 0.77046-0.76129 1.3621-0.81174 2.316z" aria-label="7"/>
   <path d="m29.06 54.822c0.63288 0 1.0548-0.53199 1.0548-1.5226 0-0.9906-0.42192-1.4997-1.0548-1.4997s-1.0548 0.50447-1.0548 1.4997c0 0.9906 0.42192 1.5226 1.0548 1.5226zm0-0.54575c-0.21555 0-0.38523-0.19262-0.38523-0.97684 0-0.78881 0.16968-0.94932 0.38523-0.94932 0.21096 0 0.38523 0.16051 0.38523 0.94932 0 0.78422-0.17427 0.97684-0.38523 0.97684z" aria-label="0"/>
   <path d="m28.104 72.711h1.8849v-0.57326h-0.54116v-2.3389h-0.52282c-0.20637 0.133-0.41734 0.21096-0.73378 0.27058v0.44026h0.54575v1.6281h-0.63288z" aria-label="1"/>
   <path d="m28.028 90.682h2.0683v-0.59619h-0.62371c-0.133 0-0.33479 0.01834-0.48613 0.0321 0.49071-0.47695 0.96767-0.94932 0.96767-1.4721 0-0.5595-0.39899-0.93098-0.97684-0.93098-0.41275 0-0.68333 0.16051-0.96767 0.48154l0.36689 0.36689c0.14217-0.15134 0.30268-0.28892 0.50447-0.28892 0.24306 0 0.3944 0.14217 0.3944 0.41734 0 0.40358-0.53199 0.92181-1.2474 1.5547z" aria-label="2"/>
   <path d="m29.014 108.65c0.59161 0 1.0961-0.30268 1.0961-0.84843 0-0.37606-0.23848-0.60995-0.57326-0.70626v-0.0183c0.31186-0.133 0.48154-0.34855 0.48154-0.64206 0-0.51823-0.40358-0.80715-1.0227-0.80715-0.35313 0-0.65123 0.14217-0.92181 0.37606l0.35772 0.43109c0.17886-0.16051 0.3302-0.24765 0.53199-0.24765 0.22013 0 0.34396 0.10548 0.34396 0.30269 0 0.22013-0.16051 0.37147-0.66957 0.37147v0.49989c0.62371 0 0.76129 0.14675 0.76129 0.38981 0 0.21096-0.17886 0.32562-0.45861 0.32562-0.2293 0-0.44485-0.11924-0.62371-0.28893l-0.32561 0.44944c0.21555 0.24765 0.55033 0.41275 1.0227 0.41275z" aria-label="3"/>
   <path d="m28.631 125.32 0.34396-0.59161c0.08255-0.16969 0.1651-0.33479 0.23848-0.50447h0.01834c-0.0092 0.19262-0.02293 0.47695-0.02293 0.66498v0.4311zm0.57785 1.2199h0.6604v-0.67874h0.3302v-0.54116h-0.3302v-1.6923h-0.87594l-1.0365 1.7381v0.4953h1.252z" aria-label="4"/>
  </g>
  <g fill="#504416" stroke-width=".5">
   <path d="m40.331 52.659c0-0.39511 0.19756-0.55316 0.42898-0.55316 0.22578 0 0.45156 0.15804 0.53058 0.7112-0.13547 0.23707-0.33302 0.33302-0.51364 0.33302-0.254 0-0.44591-0.12418-0.44591-0.49107zm0.32173 2.5118c0.75636 0 1.4563-0.6096 1.4563-1.936 0-1.27-0.67733-1.7836-1.3716-1.7836-0.65476 0-1.2079 0.4572-1.2079 1.2079 0 0.762 0.46284 1.1063 1.0781 1.1063 0.20884 0 0.51364-0.13547 0.69991-0.37253-0.03387 0.80151-0.32738 1.0724-0.71684 1.0724-0.2032 0-0.42898-0.11853-0.54751-0.254l-0.46284 0.51929c0.23142 0.23707 0.58702 0.44027 1.0724 0.44027zm3.2512-1.699c0.254 0 0.45156 0.12418 0.45156 0.49107 0 0.39511-0.2032 0.55316-0.43462 0.55316-0.22578 0-0.45156-0.15804-0.52493-0.70556 0.12982-0.23707 0.32738-0.33867 0.508-0.33867zm0.03951 1.699c0.65476 0 1.2079-0.45156 1.2079-1.2079 0-0.762-0.46284-1.1063-1.0724-1.1063-0.21449 0-0.51929 0.13547-0.70556 0.37253 0.03387-0.80151 0.33302-1.0724 0.71684-1.0724 0.2032 0 0.42898 0.12418 0.54751 0.254l0.46284-0.51929c-0.23142-0.23142-0.58702-0.44027-1.0724-0.44027-0.75636 0-1.4563 0.6096-1.4563 1.936 0 1.27 0.67733 1.7836 1.3716 1.7836z" aria-label="96"/>
   <path d="m58.065 55.103h0.87489c0.06773-1.3942 0.2032-2.0376 1.0555-3.0424v-0.54187h-2.5174v0.73378h1.5861c-0.69991 0.94827-0.93698 1.6764-0.99907 2.8504zm3.6632 0.06773c0.76764 0 1.2813-0.42898 1.2813-0.99907 0-0.47413-0.27658-0.75071-0.62089-0.93698v-0.02258c0.24836-0.16369 0.46849-0.43462 0.46849-0.77329 0-0.59831-0.44027-0.98778-1.1007-0.98778-0.67733 0-1.1628 0.38382-1.1628 0.99907 0 0.37253 0.19756 0.63782 0.47978 0.84667v0.02258c-0.33867 0.18062-0.60396 0.44027-0.60396 0.86924 0 0.58138 0.53622 0.98213 1.2587 0.98213zm0.22013-2.1675c-0.3556-0.14111-0.58702-0.27658-0.58702-0.55316 0-0.26529 0.16933-0.39511 0.37253-0.39511 0.25964 0 0.41204 0.17498 0.41204 0.44591 0 0.17498-0.06773 0.33867-0.19756 0.50236zm-0.2032 1.5635c-0.28222 0-0.52493-0.17498-0.52493-0.47978 0-0.20884 0.10724-0.4064 0.24836-0.54187 0.44027 0.18627 0.72813 0.29916 0.72813 0.59831 0 0.29351-0.19756 0.42333-0.45156 0.42333z" aria-label="78"/>
   <path d="m76.179 53.602 0.42333-0.72813c0.1016-0.20884 0.2032-0.41204 0.29351-0.62089h0.02258c-0.01129 0.23707-0.02822 0.58702-0.02822 0.81844v0.53058zm0.7112 1.5014h0.8128v-0.83538h0.4064v-0.66604h-0.4064v-2.0828h-1.0781l-1.2756 2.1392v0.6096h1.5409zm1.7328 0h2.3199v-0.70556h-0.66604v-2.8787h-0.64347c-0.254 0.16369-0.51364 0.25964-0.90311 0.33302v0.54187h0.67169v2.0038h-0.77893z" aria-label="41"/>
   <path d="m94.477 55.171c0.72813 0 1.349-0.37253 1.349-1.0442 0-0.46284-0.29351-0.75071-0.70556-0.86924v-0.02258c0.38382-0.16369 0.59267-0.42898 0.59267-0.79022 0-0.63782-0.49671-0.99342-1.2587-0.99342-0.43462 0-0.80151 0.17498-1.1345 0.46284l0.44027 0.53058c0.22013-0.19756 0.4064-0.3048 0.65476-0.3048 0.27093 0 0.42333 0.12982 0.42333 0.37253 0 0.27093-0.19756 0.4572-0.82409 0.4572v0.61524c0.76764 0 0.93698 0.18062 0.93698 0.47978 0 0.25964-0.22013 0.40076-0.56444 0.40076-0.28222 0-0.54751-0.14676-0.76764-0.3556l-0.40076 0.55316c0.26529 0.3048 0.67733 0.508 1.2587 0.508zm3.1214 0c0.76764 0 1.2813-0.42898 1.2813-0.99907 0-0.47413-0.27658-0.75071-0.62089-0.93698v-0.02258c0.24836-0.16369 0.46849-0.43462 0.46849-0.77329 0-0.59831-0.44027-0.98778-1.1007-0.98778-0.67733 0-1.1628 0.38382-1.1628 0.99907 0 0.37253 0.19756 0.63782 0.47978 0.84667v0.02258c-0.33867 0.18062-0.60396 0.44027-0.60396 0.86924 0 0.58138 0.53622 0.98213 1.2587 0.98213zm0.22013-2.1675c-0.3556-0.14111-0.58702-0.27658-0.58702-0.55316 0-0.26529 0.16933-0.39511 0.37253-0.39511 0.25964 0 0.41204 0.17498 0.41204 0.44591 0 0.17498-0.06773 0.33867-0.19756 0.50236zm-0.2032 1.5635c-0.28222 0-0.52493-0.17498-0.52493-0.47978 0-0.20884 0.10724-0.4064 0.24836-0.54187 0.44027 0.18627 0.72813 0.29916 0.72813 0.59831 0 0.29351-0.19756 0.42333-0.45156 0.42333z" aria-label="38"/>
   <path d="m112.42 55.171c0.72814 0 1.349-0.37253 1.349-1.0442 0-0.46284-0.29352-0.75071-0.70556-0.86924v-0.02258c0.38382-0.16369 0.59267-0.42898 0.59267-0.79022 0-0.63782-0.49671-0.99342-1.2587-0.99342-0.43463 0-0.80151 0.17498-1.1345 0.46284l0.44027 0.53058c0.22013-0.19756 0.4064-0.3048 0.65476-0.3048 0.27093 0 0.42333 0.12982 0.42333 0.37253 0 0.27093-0.19756 0.4572-0.82409 0.4572v0.61524c0.76764 0 0.93698 0.18062 0.93698 0.47978 0 0.25964-0.22014 0.40076-0.56445 0.40076-0.28222 0-0.54751-0.14676-0.76764-0.3556l-0.40076 0.55316c0.26529 0.3048 0.67734 0.508 1.2587 0.508zm2.0094-0.06773h2.3199v-0.70556h-0.66605v-2.8787h-0.64346c-0.254 0.16369-0.51365 0.25964-0.90311 0.33302v0.54187h0.67169v2.0038h-0.77894z" aria-label="31"/>
   <path d="m129.1 55.103h2.5456v-0.73378h-0.76764c-0.16369 0-0.41205 0.02258-0.59831 0.03951 0.60395-0.58702 1.191-1.1684 1.191-1.8119 0-0.68862-0.49106-1.1458-1.2023-1.1458-0.508 0-0.84102 0.19756-1.191 0.59267l0.45156 0.45156c0.17497-0.18627 0.37253-0.3556 0.62088-0.3556 0.29916 0 0.48543 0.17498 0.48543 0.51364 0 0.49671-0.65476 1.1345-1.5353 1.9135zm4.1995 0.06773c0.70555 0 1.3264-0.4572 1.3264-1.2587 0-0.75636-0.52493-1.1063-1.1458-1.1063-0.13546 0-0.24835 0.01693-0.37818 0.07338l0.0508-0.62653h1.3095v-0.73378h-2.0602l-0.0959 1.8232 0.38382 0.24836c0.21449-0.13547 0.31609-0.18062 0.51929-0.18062 0.31609 0 0.54186 0.18627 0.54186 0.52493 0 0.34996-0.22577 0.53058-0.58137 0.53058-0.29351 0-0.54187-0.1524-0.75636-0.34996l-0.39511 0.54751c0.28787 0.28787 0.69427 0.508 1.2813 0.508z" aria-label="25"/>
   <path d="m148.32 53.472c0.254 0 0.45155 0.12418 0.45155 0.49107 0 0.39511-0.2032 0.55316-0.43462 0.55316-0.22578 0-0.45155-0.15804-0.52493-0.70556 0.12982-0.23707 0.32738-0.33867 0.508-0.33867zm0.0395 1.699c0.65475 0 1.2079-0.45156 1.2079-1.2079 0-0.762-0.46285-1.1063-1.0724-1.1063-0.21449 0-0.51929 0.13547-0.70556 0.37253 0.0339-0.80151 0.33302-1.0724 0.71684-1.0724 0.2032 0 0.42898 0.12418 0.54751 0.254l0.46285-0.51929c-0.23142-0.23142-0.58702-0.44027-1.0724-0.44027-0.75636 0-1.4563 0.6096-1.4563 1.936 0 1.27 0.67733 1.7836 1.3716 1.7836zm1.6143-0.06773h2.5456v-0.73378h-0.76765c-0.16368 0-0.41204 0.02258-0.59831 0.03951 0.60396-0.58702 1.191-1.1684 1.191-1.8119 0-0.68862-0.49107-1.1458-1.2023-1.1458-0.508 0-0.84103 0.19756-1.191 0.59267l0.45155 0.45156c0.17498-0.18627 0.37254-0.3556 0.62089-0.3556 0.29916 0 0.48542 0.17498 0.48542 0.51364 0 0.49671-0.65475 1.1345-1.5353 1.9135z" aria-label="62"/>
   <path d="m164.95 55.103h2.3199v-0.70556h-0.66604v-2.8787h-0.64347c-0.254 0.16369-0.51364 0.25964-0.90311 0.33302v0.54187h0.67169v2.0038h-0.77893zm4.1204 0.06773c0.77894 0 1.2982-0.65476 1.2982-1.874s-0.51929-1.8457-1.2982-1.8457c-0.77893 0-1.2982 0.62089-1.2982 1.8457 0 1.2192 0.51929 1.874 1.2982 1.874zm0-0.67169c-0.26528 0-0.47413-0.23707-0.47413-1.2023 0-0.97084 0.20885-1.1684 0.47413-1.1684 0.25965 0 0.47414 0.19756 0.47414 1.1684 0 0.9652-0.21449 1.2023-0.47414 1.2023z" aria-label="10"/>
   <path d="m166.11 73.114c0.72813 0 1.349-0.37253 1.349-1.0442 0-0.46284-0.29351-0.75071-0.70555-0.86924v-0.02258c0.38382-0.16369 0.59266-0.42898 0.59266-0.79022 0-0.63782-0.49671-0.99342-1.2587-0.99342-0.43462 0-0.80151 0.17498-1.1345 0.46284l0.44027 0.53058c0.22013-0.19756 0.4064-0.3048 0.65475-0.3048 0.27094 0 0.42334 0.12982 0.42334 0.37253 0 0.27093-0.19756 0.4572-0.82409 0.4572v0.61524c0.76764 0 0.93697 0.18062 0.93697 0.47978 0 0.25964-0.22013 0.40076-0.56444 0.40076-0.28222 0-0.54751-0.14676-0.76764-0.3556l-0.40076 0.55316c0.26529 0.3048 0.67733 0.508 1.2587 0.508zm3.0311 0c0.70556 0 1.3264-0.4572 1.3264-1.2587 0-0.75636-0.52494-1.1063-1.1458-1.1063-0.13547 0-0.24836 0.01693-0.37818 0.07338l0.0508-0.62653h1.3095v-0.73378h-2.0602l-0.096 1.8232 0.38382 0.24836c0.21449-0.13547 0.31609-0.18062 0.51929-0.18062 0.31609 0 0.54187 0.18627 0.54187 0.52493 0 0.34996-0.22578 0.53058-0.58138 0.53058-0.29351 0-0.54187-0.1524-0.75635-0.34996l-0.39511 0.54751c0.28786 0.28787 0.69426 0.508 1.2813 0.508z" aria-label="35"/>
   <path d="m148.32 71.415c0.254 0 0.45155 0.12418 0.45155 0.49107 0 0.39511-0.2032 0.55316-0.43462 0.55316-0.22578 0-0.45155-0.15804-0.52493-0.70556 0.12982-0.23707 0.32738-0.33867 0.508-0.33867zm0.0395 1.699c0.65475 0 1.2079-0.45156 1.2079-1.2079 0-0.762-0.46285-1.1063-1.0724-1.1063-0.21449 0-0.51929 0.13547-0.70556 0.37253 0.0339-0.80151 0.33302-1.0724 0.71684-1.0724 0.2032 0 0.42898 0.12418 0.54751 0.254l0.46285-0.51929c-0.23142-0.23142-0.58702-0.44027-1.0724-0.44027-0.75636 0-1.4563 0.6096-1.4563 1.936 0 1.27 0.67733 1.7836 1.3716 1.7836zm1.6143-0.06773h2.5456v-0.73378h-0.76765c-0.16368 0-0.41204 0.02258-0.59831 0.03951 0.60396-0.58702 1.191-1.1684 1.191-1.8119 0-0.68862-0.49107-1.1458-1.2023-1.1458-0.508 0-0.84103 0.19756-1.191 0.59267l0.45155 0.45156c0.17498-0.18627 0.37254-0.3556 0.62089-0.3556 0.29916 0 0.48542 0.17498 0.48542 0.51364 0 0.49671-0.65475 1.1345-1.5353 1.9135z" aria-label="62"/>
   <path d="m130.45 71.415c0.254 0 0.45156 0.12418 0.45156 0.49107 0 0.39511-0.2032 0.55316-0.43462 0.55316-0.22578 0-0.45156-0.15804-0.52494-0.70556 0.12983-0.23707 0.32738-0.33867 0.508-0.33867zm0.0395 1.699c0.65476 0 1.2079-0.45156 1.2079-1.2079 0-0.762-0.46285-1.1063-1.0724-1.1063-0.21449 0-0.51929 0.13547-0.70555 0.37253 0.0339-0.80151 0.33302-1.0724 0.71684-1.0724 0.2032 0 0.42898 0.12418 0.54751 0.254l0.46285-0.51929c-0.23143-0.23142-0.58703-0.44027-1.0724-0.44027-0.75635 0-1.4563 0.6096-1.4563 1.936 0 1.27 0.67733 1.7836 1.3716 1.7836zm1.7893-0.06773h2.3199v-0.70556h-0.66605v-2.8787h-0.64347c-0.25399 0.16369-0.51364 0.25964-0.90311 0.33302v0.54187h0.67169v2.0038h-0.77893z" aria-label="61"/>
   <path d="m111.95 71.545 0.42333-0.72813c0.1016-0.20884 0.2032-0.41204 0.29352-0.62089h0.0226c-0.0113 0.23707-0.0282 0.58702-0.0282 0.81844v0.53058zm0.7112 1.5014h0.8128v-0.83538h0.4064v-0.66604h-0.4064v-2.0828h-1.0781l-1.2756 2.1392v0.6096h1.5409zm2.1844 0h0.87488c0.0677-1.3942 0.2032-2.0376 1.0555-3.0424v-0.54187h-2.5174v0.73378h1.5861c-0.69991 0.94827-0.93697 1.6764-0.99906 2.8504z" aria-label="47"/>
   <path d="m94.477 73.114c0.72813 0 1.349-0.37253 1.349-1.0442 0-0.46284-0.29351-0.75071-0.70556-0.86924v-0.02258c0.38382-0.16369 0.59267-0.42898 0.59267-0.79022 0-0.63782-0.49671-0.99342-1.2587-0.99342-0.43462 0-0.80151 0.17498-1.1345 0.46284l0.44027 0.53058c0.22013-0.19756 0.4064-0.3048 0.65476-0.3048 0.27093 0 0.42333 0.12982 0.42333 0.37253 0 0.27093-0.19756 0.4572-0.82409 0.4572v0.61524c0.76764 0 0.93698 0.18062 0.93698 0.47978 0 0.25964-0.22013 0.40076-0.56444 0.40076-0.28222 0-0.54751-0.14676-0.76764-0.3556l-0.40076 0.55316c0.26529 0.3048 0.67733 0.508 1.2587 0.508zm3.1214 0c0.76764 0 1.2813-0.42898 1.2813-0.99907 0-0.47413-0.27658-0.75071-0.62089-0.93698v-0.02258c0.24836-0.16369 0.46849-0.43462 0.46849-0.77329 0-0.59831-0.44027-0.98778-1.1007-0.98778-0.67733 0-1.1628 0.38382-1.1628 0.99907 0 0.37253 0.19756 0.63782 0.47978 0.84667v0.02258c-0.33867 0.18062-0.60396 0.44027-0.60396 0.86924 0 0.58138 0.53622 0.98213 1.2587 0.98213zm0.22013-2.1675c-0.3556-0.14111-0.58702-0.27658-0.58702-0.55316 0-0.26529 0.16933-0.39511 0.37253-0.39511 0.25964 0 0.41204 0.17498 0.41204 0.44591 0 0.17498-0.06773 0.33867-0.19756 0.50236zm-0.2032 1.5635c-0.28222 0-0.52493-0.17498-0.52493-0.47978 0-0.20884 0.10724-0.4064 0.24836-0.54187 0.44027 0.18627 0.72813 0.29916 0.72813 0.59831 0 0.29351-0.19756 0.42333-0.45156 0.42333z" aria-label="38"/>
   <path d="m76.707 71.415c0.254 0 0.45156 0.12418 0.45156 0.49107 0 0.39511-0.2032 0.55316-0.43462 0.55316-0.22578 0-0.45156-0.15804-0.52493-0.70556 0.12982-0.23707 0.32738-0.33867 0.508-0.33867zm0.03951 1.699c0.65476 0 1.2079-0.45156 1.2079-1.2079 0-0.762-0.46284-1.1063-1.0724-1.1063-0.21449 0-0.51929 0.13547-0.70556 0.37253 0.03387-0.80151 0.33302-1.0724 0.71684-1.0724 0.2032 0 0.42898 0.12418 0.54751 0.254l0.46284-0.51929c-0.23142-0.23142-0.58702-0.44027-1.0724-0.44027-0.75636 0-1.4563 0.6096-1.4563 1.936 0 1.27 0.67733 1.7836 1.3716 1.7836zm2.3932-2.5118c0-0.39511 0.19756-0.55316 0.42898-0.55316 0.22578 0 0.45156 0.15804 0.53058 0.7112-0.13547 0.23707-0.33302 0.33302-0.51364 0.33302-0.254 0-0.44591-0.12418-0.44591-0.49107zm0.32173 2.5118c0.75636 0 1.4563-0.6096 1.4563-1.936 0-1.27-0.67733-1.7836-1.3716-1.7836-0.65476 0-1.2079 0.4572-1.2079 1.2079 0 0.762 0.46284 1.1063 1.0781 1.1063 0.20884 0 0.51364-0.13547 0.69991-0.37253-0.03387 0.80151-0.32738 1.0724-0.71684 1.0724-0.2032 0-0.42898-0.11853-0.54751-0.254l-0.46284 0.51929c0.23142 0.23707 0.58702 0.44027 1.0724 0.44027z" aria-label="69"/>
   <path d="m58.053 73.047h0.87489c0.06773-1.3942 0.2032-2.0376 1.0555-3.0424v-0.54187h-2.5174v0.73378h1.5861c-0.69991 0.94827-0.93698 1.6764-0.99907 2.8504zm3.6689 0.06773c0.77893 0 1.2982-0.65476 1.2982-1.874s-0.51929-1.8457-1.2982-1.8457-1.2982 0.62089-1.2982 1.8457c0 1.2192 0.51929 1.874 1.2982 1.874zm0-0.67169c-0.26529 0-0.47413-0.23707-0.47413-1.2023 0-0.97084 0.20884-1.1684 0.47413-1.1684 0.25964 0 0.47413 0.19756 0.47413 1.1684 0 0.9652-0.21449 1.2023-0.47413 1.2023z" aria-label="70"/>
   <path d="m39.654 73.081h2.3199v-0.70556h-0.66604v-2.8787h-0.64347c-0.254 0.16369-0.51364 0.25964-0.90311 0.33302v0.54187h0.67169v2.0038h-0.77893zm2.8279 0h2.5456v-0.73378h-0.76764c-0.16369 0-0.41204 0.02258-0.59831 0.03951 0.60396-0.58702 1.191-1.1684 1.191-1.8119 0-0.68862-0.49107-1.1458-1.2023-1.1458-0.508 0-0.84102 0.19756-1.191 0.59267l0.45156 0.45156c0.17498-0.18627 0.37253-0.3556 0.62089-0.3556 0.29916 0 0.48542 0.17498 0.48542 0.51364 0 0.49671-0.65476 1.1345-1.5353 1.9135z" aria-label="12"/>
   <path d="m39.552 90.99h2.5456v-0.73378h-0.76764c-0.16369 0-0.41204 0.02258-0.59831 0.03951 0.60396-0.58702 1.191-1.1684 1.191-1.8119 0-0.68862-0.49107-1.1458-1.2023-1.1458-0.508 0-0.84102 0.19756-1.191 0.59267l0.45156 0.45156c0.17498-0.18627 0.37253-0.3556 0.62089-0.3556 0.29916 0 0.48542 0.17498 0.48542 0.51364 0 0.49671-0.65476 1.1345-1.5353 1.9135zm4.3519-1.6312c0.254 0 0.45156 0.12418 0.45156 0.49107 0 0.39511-0.2032 0.55316-0.43462 0.55316-0.22578 0-0.45156-0.15804-0.52493-0.70556 0.12982-0.23707 0.32738-0.33867 0.508-0.33867zm0.03951 1.699c0.65476 0 1.2079-0.45156 1.2079-1.2079 0-0.762-0.46284-1.1063-1.0724-1.1063-0.21449 0-0.51929 0.13547-0.70556 0.37253 0.03387-0.80151 0.33302-1.0724 0.71684-1.0724 0.2032 0 0.42898 0.12418 0.54751 0.254l0.46284-0.51929c-0.23142-0.23142-0.58702-0.44027-1.0724-0.44027-0.75636 0-1.4563 0.6096-1.4563 1.936 0 1.27 0.67733 1.7836 1.3716 1.7836z" aria-label="26"/>
   <path d="m58.75 89.359c0.254 0 0.45156 0.12418 0.45156 0.49107 0 0.39511-0.2032 0.55316-0.43462 0.55316-0.22578 0-0.45156-0.15804-0.52493-0.70556 0.12982-0.23707 0.32738-0.33867 0.508-0.33867zm0.03951 1.699c0.65476 0 1.2079-0.45156 1.2079-1.2079 0-0.762-0.46284-1.1063-1.0724-1.1063-0.21449 0-0.51929 0.13547-0.70556 0.37253 0.03387-0.80151 0.33302-1.0724 0.71684-1.0724 0.2032 0 0.42898 0.12418 0.54751 0.254l0.46284-0.51929c-0.23142-0.23142-0.58702-0.44027-1.0724-0.44027-0.75636 0-1.4563 0.6096-1.4563 1.936 0 1.27 0.67733 1.7836 1.3716 1.7836zm2.3481-1.5692 0.42333-0.72813c0.1016-0.20884 0.2032-0.41204 0.29351-0.62089h0.02258c-0.01129 0.23707-0.02822 0.58702-0.02822 0.81844v0.53058zm0.7112 1.5014h0.8128v-0.83538h0.4064v-0.66604h-0.4064v-2.0828h-1.0781l-1.2756 2.1392v0.6096h1.5409z" aria-label="64"/>
   <path d="m76.659 91.058c0.76764 0 1.2813-0.42898 1.2813-0.99907 0-0.47413-0.27658-0.75071-0.62089-0.93698v-0.02258c0.24836-0.16369 0.46849-0.43462 0.46849-0.77329 0-0.59831-0.44027-0.98778-1.1007-0.98778-0.67733 0-1.1628 0.38382-1.1628 0.99907 0 0.37253 0.19756 0.63782 0.47978 0.84667v0.02258c-0.33867 0.18062-0.60396 0.44027-0.60396 0.86924 0 0.58138 0.53622 0.98213 1.2587 0.98213zm0.22013-2.1675c-0.3556-0.14111-0.58702-0.27658-0.58702-0.55316 0-0.26529 0.16933-0.39511 0.37253-0.39511 0.25964 0 0.41204 0.17498 0.41204 0.44591 0 0.17498-0.06773 0.33867-0.19756 0.50236zm-0.2032 1.5635c-0.28222 0-0.52493-0.17498-0.52493-0.47978 0-0.20884 0.10724-0.4064 0.24836-0.54187 0.44027 0.18627 0.72813 0.29916 0.72813 0.59831 0 0.29351-0.19756 0.42333-0.45156 0.42333zm2.8674 0.60396c0.72813 0 1.349-0.37253 1.349-1.0442 0-0.46284-0.29351-0.75071-0.70556-0.86924v-0.02258c0.38382-0.16369 0.59267-0.42898 0.59267-0.79022 0-0.63782-0.49671-0.99342-1.2587-0.99342-0.43462 0-0.80151 0.17498-1.1345 0.46284l0.44027 0.53058c0.22013-0.19756 0.4064-0.3048 0.65476-0.3048 0.27093 0 0.42333 0.12982 0.42333 0.37253 0 0.27093-0.19756 0.4572-0.82409 0.4572v0.61524c0.76764 0 0.93698 0.18062 0.93698 0.47978 0 0.25964-0.22013 0.40076-0.56444 0.40076-0.28222 0-0.54751-0.14676-0.76764-0.3556l-0.40076 0.55316c0.26529 0.3048 0.67733 0.508 1.2587 0.508z" aria-label="83"/>
   <path d="m94.499 91.058c0.72813 0 1.349-0.37253 1.349-1.0442 0-0.46284-0.29351-0.75071-0.70556-0.86924v-0.02258c0.38382-0.16369 0.59267-0.42898 0.59267-0.79022 0-0.63782-0.49671-0.99342-1.2587-0.99342-0.43462 0-0.80151 0.17498-1.1345 0.46284l0.44027 0.53058c0.22013-0.19756 0.4064-0.3048 0.65476-0.3048 0.27093 0 0.42333 0.12982 0.42333 0.37253 0 0.27093-0.19756 0.4572-0.82409 0.4572v0.61524c0.76764 0 0.93698 0.18062 0.93698 0.47978 0 0.25964-0.22013 0.40076-0.56444 0.40076-0.28222 0-0.54751-0.14676-0.76764-0.3556l-0.40076 0.55316c0.26529 0.3048 0.67733 0.508 1.2587 0.508zm3.0311 0c0.70556 0 1.3264-0.4572 1.3264-1.2587 0-0.75636-0.52493-1.1063-1.1458-1.1063-0.13547 0-0.24836 0.01693-0.37818 0.07338l0.0508-0.62653h1.3095v-0.73378h-2.0602l-0.09596 1.8232 0.38382 0.24836c0.21449-0.13547 0.31609-0.18062 0.51929-0.18062 0.31609 0 0.54187 0.18627 0.54187 0.52493 0 0.34996-0.22578 0.53058-0.58138 0.53058-0.29351 0-0.54187-0.1524-0.75636-0.34996l-0.39511 0.54751c0.28787 0.28787 0.69427 0.508 1.2813 0.508z" aria-label="35"/>
   <path d="m130.31 91.058c0.72813 0 1.349-0.37253 1.349-1.0442 0-0.46284-0.29351-0.75071-0.70555-0.86924v-0.02258c0.38382-0.16369 0.59266-0.42898 0.59266-0.79022 0-0.63782-0.49671-0.99342-1.2587-0.99342-0.43462 0-0.80151 0.17498-1.1345 0.46284l0.44027 0.53058c0.22013-0.19756 0.4064-0.3048 0.65475-0.3048 0.27093 0 0.42333 0.12982 0.42333 0.37253 0 0.27093-0.19755 0.4572-0.82408 0.4572v0.61524c0.76764 0 0.93697 0.18062 0.93697 0.47978 0 0.25964-0.22013 0.40076-0.56444 0.40076-0.28222 0-0.54751-0.14676-0.76765-0.3556l-0.40075 0.55316c0.26529 0.3048 0.67733 0.508 1.2587 0.508zm3.0028 0c0.72813 0 1.349-0.37253 1.349-1.0442 0-0.46284-0.29351-0.75071-0.70555-0.86924v-0.02258c0.38382-0.16369 0.59266-0.42898 0.59266-0.79022 0-0.63782-0.49671-0.99342-1.2587-0.99342-0.43462 0-0.80151 0.17498-1.1345 0.46284l0.44027 0.53058c0.22013-0.19756 0.4064-0.3048 0.65475-0.3048 0.27093 0 0.42333 0.12982 0.42333 0.37253 0 0.27093-0.19755 0.4572-0.82408 0.4572v0.61524c0.76764 0 0.93697 0.18062 0.93697 0.47978 0 0.25964-0.22013 0.40076-0.56444 0.40076-0.28222 0-0.54751-0.14676-0.76765-0.3556l-0.40075 0.55316c0.26529 0.3048 0.67733 0.508 1.2587 0.508z" aria-label="33"/>
   <path d="m147.78 89.455 0.42333-0.72813c0.1016-0.20884 0.2032-0.41204 0.29351-0.62089h0.0226c-0.0113 0.23707-0.0282 0.58702-0.0282 0.81844v0.53058zm0.7112 1.5014h0.8128v-0.83538h0.4064v-0.66604h-0.4064v-2.0828h-1.0781l-1.2756 2.1392v0.6096h1.5409zm2.7545 0.06773c0.70556 0 1.3264-0.4572 1.3264-1.2587 0-0.75636-0.52493-1.1063-1.1458-1.1063-0.13546 0-0.24835 0.01693-0.37817 0.07338l0.0508-0.62653h1.3095v-0.73378h-2.0602l-0.096 1.8232 0.38382 0.24836c0.21449-0.13547 0.31609-0.18062 0.51929-0.18062 0.31609 0 0.54187 0.18627 0.54187 0.52493 0 0.34996-0.22578 0.53058-0.58138 0.53058-0.29351 0-0.54187-0.1524-0.75636-0.34996l-0.39511 0.54751c0.28787 0.28787 0.69427 0.508 1.2813 0.508z" aria-label="45"/>
   <path d="m166.23 89.359c0.254 0 0.45156 0.12418 0.45156 0.49107 0 0.39511-0.2032 0.55316-0.43462 0.55316-0.22578 0-0.45156-0.15804-0.52494-0.70556 0.12982-0.23707 0.32738-0.33867 0.508-0.33867zm0.0395 1.699c0.65476 0 1.2079-0.45156 1.2079-1.2079 0-0.762-0.46284-1.1063-1.0724-1.1063-0.21449 0-0.51929 0.13547-0.70556 0.37253 0.0339-0.80151 0.33303-1.0724 0.71685-1.0724 0.2032 0 0.42898 0.12418 0.54751 0.254l0.46284-0.51929c-0.23142-0.23142-0.58702-0.44027-1.0724-0.44027-0.75636 0-1.4563 0.6096-1.4563 1.936 0 1.27 0.67734 1.7836 1.3716 1.7836zm1.6143-0.06773h2.5456v-0.73378h-0.76764c-0.16369 0-0.41204 0.02258-0.59831 0.03951 0.60395-0.58702 1.191-1.1684 1.191-1.8119 0-0.68862-0.49107-1.1458-1.2023-1.1458-0.508 0-0.84102 0.19756-1.191 0.59267l0.45156 0.45156c0.17498-0.18627 0.37253-0.3556 0.62089-0.3556 0.29915 0 0.48542 0.17498 0.48542 0.51364 0 0.49671-0.65476 1.1345-1.5353 1.9135z" aria-label="62"/>
   <path d="m164.87 108.93h2.5456v-0.73378h-0.76765c-0.16368 0-0.41204 0.0226-0.59831 0.0395 0.60396-0.58702 1.191-1.1684 1.191-1.8119 0-0.68863-0.49107-1.1458-1.2023-1.1458-0.508 0-0.84102 0.19755-1.191 0.59266l0.45155 0.45156c0.17498-0.18627 0.37254-0.3556 0.62089-0.3556 0.29916 0 0.48542 0.17497 0.48542 0.51364 0 0.49671-0.65475 1.1345-1.5353 1.9135zm4.3519-1.6312c0.254 0 0.45155 0.12418 0.45155 0.49107 0 0.39511-0.2032 0.55316-0.43462 0.55316-0.22578 0-0.45156-0.15805-0.52493-0.70556 0.12982-0.23707 0.32737-0.33867 0.508-0.33867zm0.0395 1.699c0.65475 0 1.2079-0.45155 1.2079-1.2079 0-0.762-0.46285-1.1063-1.0724-1.1063-0.21448 0-0.51928 0.13547-0.70555 0.37253 0.0339-0.80151 0.33302-1.0724 0.71684-1.0724 0.2032 0 0.42898 0.12418 0.54751 0.254l0.46285-0.51929c-0.23142-0.23142-0.58702-0.44026-1.0724-0.44026-0.75635 0-1.4563 0.60959-1.4563 1.936 0 1.27 0.67733 1.7836 1.3716 1.7836z" aria-label="26"/>
   <path d="m146.97 108.93h2.5456v-0.73378h-0.76764c-0.16369 0-0.41204 0.0226-0.59831 0.0395 0.60395-0.58702 1.191-1.1684 1.191-1.8119 0-0.68863-0.49107-1.1458-1.2023-1.1458-0.508 0-0.84102 0.19755-1.191 0.59266l0.45156 0.45156c0.17498-0.18627 0.37253-0.3556 0.62089-0.3556 0.29915 0 0.48542 0.17497 0.48542 0.51364 0 0.49671-0.65476 1.1345-1.5353 1.9135zm4.3519-1.6312c0.254 0 0.45156 0.12418 0.45156 0.49107 0 0.39511-0.2032 0.55316-0.43463 0.55316-0.22577 0-0.45155-0.15805-0.52493-0.70556 0.12982-0.23707 0.32738-0.33867 0.508-0.33867zm0.0395 1.699c0.65476 0 1.2079-0.45155 1.2079-1.2079 0-0.762-0.46284-1.1063-1.0724-1.1063-0.21449 0-0.51929 0.13547-0.70556 0.37253 0.0339-0.80151 0.33303-1.0724 0.71685-1.0724 0.2032 0 0.42898 0.12418 0.54751 0.254l0.46284-0.51929c-0.23142-0.23142-0.58702-0.44026-1.0724-0.44026-0.75636 0-1.4563 0.60959-1.4563 1.936 0 1.27 0.67734 1.7836 1.3716 1.7836z" aria-label="26"/>
   <path d="m130.37 109c0.76764 0 1.2813-0.42898 1.2813-0.99906 0-0.47414-0.27658-0.75072-0.62089-0.93698v-0.0226c0.24835-0.16369 0.46849-0.43462 0.46849-0.77329 0-0.59831-0.44027-0.98777-1.1007-0.98777-0.67733 0-1.1628 0.38382-1.1628 0.99906 0 0.37253 0.19755 0.63782 0.47977 0.84667v0.0226c-0.33866 0.18063-0.60395 0.44027-0.60395 0.86925 0 0.58138 0.53622 0.98213 1.2587 0.98213zm0.22013-2.1675c-0.3556-0.14111-0.58702-0.27658-0.58702-0.55316 0-0.26529 0.16933-0.39511 0.37253-0.39511 0.25965 0 0.41205 0.17498 0.41205 0.44591 0 0.17498-0.0677 0.33867-0.19756 0.50236zm-0.2032 1.5635c-0.28222 0-0.52493-0.17498-0.52493-0.47978 0-0.20885 0.10724-0.4064 0.24835-0.54187 0.44027 0.18627 0.72814 0.29916 0.72814 0.59831 0 0.29351-0.19756 0.42334-0.45156 0.42334zm2.8674 0.60395c0.72814 0 1.349-0.37253 1.349-1.0442 0-0.46284-0.29352-0.75071-0.70556-0.86924v-0.0226c0.38382-0.16369 0.59267-0.42898 0.59267-0.79022 0-0.63783-0.49671-0.99342-1.2587-0.99342-0.43463 0-0.80151 0.17497-1.1345 0.46284l0.44027 0.53058c0.22013-0.19756 0.4064-0.3048 0.65476-0.3048 0.27093 0 0.42333 0.12982 0.42333 0.37253 0 0.27093-0.19756 0.4572-0.82409 0.4572v0.61524c0.76764 0 0.93698 0.18063 0.93698 0.47978 0 0.25965-0.22014 0.40076-0.56445 0.40076-0.28222 0-0.54751-0.14676-0.76764-0.3556l-0.40076 0.55315c0.26529 0.3048 0.67734 0.508 1.2587 0.508z" aria-label="83"/>
   <path d="m111.26 108.97h2.3199v-0.70556h-0.66604v-2.8787h-0.64347c-0.254 0.16369-0.51364 0.25964-0.90311 0.33302v0.54187h0.67169v2.0038h-0.77893zm2.8279 0h2.5456v-0.73378h-0.76764c-0.16369 0-0.41204 0.0226-0.59831 0.0395 0.60396-0.58702 1.191-1.1684 1.191-1.8119 0-0.68863-0.49107-1.1458-1.2023-1.1458-0.508 0-0.84102 0.19756-1.191 0.59267l0.45156 0.45156c0.17498-0.18627 0.37253-0.3556 0.62089-0.3556 0.29915 0 0.48542 0.17497 0.48542 0.51364 0 0.49671-0.65476 1.1345-1.5353 1.9135z" aria-label="12"/>
   <path d="m93.376 108.93h2.3199v-0.70556h-0.66604v-2.8787h-0.64347c-0.254 0.16369-0.51364 0.25964-0.90311 0.33302v0.54187h0.67169v2.0038h-0.77893zm3.9963 0.0677c0.72813 0 1.349-0.37253 1.349-1.0442 0-0.46284-0.29351-0.75071-0.70556-0.86924v-0.0226c0.38382-0.16369 0.59267-0.42898 0.59267-0.79022 0-0.63783-0.49671-0.99342-1.2587-0.99342-0.43462 0-0.80151 0.17497-1.1345 0.46284l0.44027 0.53058c0.22013-0.19756 0.4064-0.3048 0.65476-0.3048 0.27093 0 0.42333 0.12982 0.42333 0.37253 0 0.27093-0.19756 0.4572-0.82409 0.4572v0.61524c0.76764 0 0.93698 0.18063 0.93698 0.47978 0 0.25965-0.22013 0.40076-0.56444 0.40076-0.28222 0-0.54751-0.14676-0.76764-0.3556l-0.40076 0.55315c0.26529 0.3048 0.67733 0.508 1.2587 0.508z" aria-label="13"/>
   <path d="m76.633 109c0.76764 0 1.2813-0.42898 1.2813-0.99906 0-0.47414-0.27658-0.75072-0.62089-0.93698v-0.0226c0.24836-0.16369 0.46849-0.43462 0.46849-0.77329 0-0.59831-0.44027-0.98777-1.1007-0.98777-0.67733 0-1.1628 0.38382-1.1628 0.99906 0 0.37253 0.19756 0.63782 0.47978 0.84667v0.0226c-0.33867 0.18063-0.60396 0.44027-0.60396 0.86925 0 0.58138 0.53622 0.98213 1.2587 0.98213zm0.22013-2.1675c-0.3556-0.14111-0.58702-0.27658-0.58702-0.55316 0-0.26529 0.16933-0.39511 0.37253-0.39511 0.25964 0 0.41204 0.17498 0.41204 0.44591 0 0.17498-0.06773 0.33867-0.19756 0.50236zm-0.2032 1.5635c-0.28222 0-0.52493-0.17498-0.52493-0.47978 0-0.20885 0.10724-0.4064 0.24836-0.54187 0.44027 0.18627 0.72813 0.29916 0.72813 0.59831 0 0.29351-0.19756 0.42334-0.45156 0.42334zm2.9859 0.60395c0.76764 0 1.2813-0.42898 1.2813-0.99906 0-0.47414-0.27658-0.75072-0.62089-0.93698v-0.0226c0.24836-0.16369 0.46849-0.43462 0.46849-0.77329 0-0.59831-0.44027-0.98777-1.1007-0.98777-0.67733 0-1.1628 0.38382-1.1628 0.99906 0 0.37253 0.19756 0.63782 0.47978 0.84667v0.0226c-0.33867 0.18063-0.60396 0.44027-0.60396 0.86925 0 0.58138 0.53622 0.98213 1.2587 0.98213zm0.22013-2.1675c-0.3556-0.14111-0.58702-0.27658-0.58702-0.55316 0-0.26529 0.16933-0.39511 0.37253-0.39511 0.25964 0 0.41204 0.17498 0.41204 0.44591 0 0.17498-0.06773 0.33867-0.19756 0.50236zm-0.2032 1.5635c-0.28222 0-0.52493-0.17498-0.52493-0.47978 0-0.20885 0.10724-0.4064 0.24836-0.54187 0.44027 0.18627 0.72813 0.29916 0.72813 0.59831 0 0.29351-0.19756 0.42334-0.45156 0.42334z" aria-label="88"/>
   <path d="m58.683 109c0.72813 0 1.349-0.37253 1.349-1.0442 0-0.46284-0.29351-0.75071-0.70556-0.86924v-0.0226c0.38382-0.16369 0.59267-0.42898 0.59267-0.79022 0-0.63783-0.49671-0.99342-1.2587-0.99342-0.43462 0-0.80151 0.17497-1.1345 0.46284l0.44027 0.53058c0.22013-0.19756 0.4064-0.3048 0.65476-0.3048 0.27093 0 0.42333 0.12982 0.42333 0.37253 0 0.27093-0.19756 0.4572-0.82409 0.4572v0.61524c0.76764 0 0.93698 0.18063 0.93698 0.47978 0 0.25965-0.22013 0.40076-0.56444 0.40076-0.28222 0-0.54751-0.14676-0.76764-0.3556l-0.40076 0.55315c0.26529 0.3048 0.67733 0.508 1.2587 0.508zm1.8344-0.0677h2.5456v-0.73378h-0.76764c-0.16369 0-0.41204 0.0226-0.59831 0.0395 0.60396-0.58702 1.191-1.1684 1.191-1.8119 0-0.68863-0.49107-1.1458-1.2023-1.1458-0.508 0-0.84102 0.19755-1.191 0.59266l0.45156 0.45156c0.17498-0.18627 0.37253-0.3556 0.62089-0.3556 0.29916 0 0.48542 0.17497 0.48542 0.51364 0 0.49671-0.65476 1.1345-1.5353 1.9135z" aria-label="32"/>
   <path d="m39.578 108.97h2.5456v-0.73378h-0.76764c-0.16369 0-0.41204 0.0226-0.59831 0.0395 0.60396-0.58702 1.191-1.1684 1.191-1.8119 0-0.68863-0.49107-1.1458-1.2023-1.1458-0.508 0-0.84102 0.19756-1.191 0.59267l0.45156 0.45156c0.17498-0.18627 0.37253-0.3556 0.62089-0.3556 0.29916 0 0.48542 0.17497 0.48542 0.51364 0 0.49671-0.65476 1.1345-1.5353 1.9135zm3.0028 0h2.5456v-0.73378h-0.76764c-0.16369 0-0.41204 0.0226-0.59831 0.0395 0.60396-0.58702 1.191-1.1684 1.191-1.8119 0-0.68863-0.49107-1.1458-1.2023-1.1458-0.508 0-0.84102 0.19756-1.191 0.59267l0.45156 0.45156c0.17498-0.18627 0.37253-0.3556 0.62089-0.3556 0.29916 0 0.48542 0.17497 0.48542 0.51364 0 0.49671-0.65476 1.1345-1.5353 1.9135z" aria-label="22"/>
   <path d="m40.342 125.38 0.42333-0.72813c0.1016-0.20885 0.2032-0.41205 0.29351-0.62089h0.02258c-0.01129 0.23707-0.02822 0.58702-0.02822 0.81844v0.53058zm0.7112 1.5014h0.8128v-0.83538h0.4064v-0.66604h-0.4064v-2.0828h-1.0781l-1.2756 2.1392v0.6096h1.5409zm2.1844 0h0.87489c0.06773-1.3942 0.2032-2.0376 1.0555-3.0424v-0.54187h-2.5174v0.73378h1.5861c-0.69991 0.94826-0.93698 1.6764-0.99907 2.8504z" aria-label="47"/>
   <path d="m57.531 126.88h2.3199v-0.70555h-0.66604v-2.8787h-0.64347c-0.254 0.16369-0.51364 0.25965-0.90311 0.33302v0.54187h0.67169v2.0038h-0.77893zm4.1769-1.6312c0.254 0 0.45156 0.12418 0.45156 0.49106 0 0.39511-0.2032 0.55316-0.43462 0.55316-0.22578 0-0.45156-0.15805-0.52493-0.70556 0.12982-0.23706 0.32738-0.33866 0.508-0.33866zm0.03951 1.699c0.65476 0 1.2079-0.45155 1.2079-1.2079 0-0.762-0.46284-1.1063-1.0724-1.1063-0.21449 0-0.51929 0.13547-0.70556 0.37254 0.03387-0.80151 0.33302-1.0724 0.71684-1.0724 0.2032 0 0.42898 0.12418 0.54751 0.254l0.46284-0.51929c-0.23142-0.23142-0.58702-0.44026-1.0724-0.44026-0.75636 0-1.4563 0.6096-1.4563 1.936 0 1.27 0.67733 1.7836 1.3716 1.7836z" aria-label="16"/>
   <path d="m76.131 125.38 0.42333-0.72813c0.1016-0.20885 0.2032-0.41205 0.29351-0.62089h0.02258c-0.01129 0.23707-0.02822 0.58702-0.02822 0.81844v0.53058zm0.7112 1.5014h0.8128v-0.83538h0.4064v-0.66604h-0.4064v-2.0828h-1.0781l-1.2756 2.1392v0.6096h1.5409zm2.8504 0.0677c0.77893 0 1.2982-0.65475 1.2982-1.874s-0.51929-1.8457-1.2982-1.8457c-0.77893 0-1.2982 0.62089-1.2982 1.8457 0 1.2192 0.51929 1.874 1.2982 1.874zm0-0.67168c-0.26529 0-0.47413-0.23707-0.47413-1.2023 0-0.97084 0.20884-1.1684 0.47413-1.1684 0.25964 0 0.47413 0.19756 0.47413 1.1684 0 0.9652-0.21449 1.2023-0.47413 1.2023z" aria-label="40"/>
   <path d="m94.609 125.25c0.254 0 0.45156 0.12418 0.45156 0.49106 0 0.39511-0.2032 0.55316-0.43462 0.55316-0.22578 0-0.45156-0.15805-0.52493-0.70556 0.12982-0.23706 0.32738-0.33866 0.508-0.33866zm0.03951 1.699c0.65476 0 1.2079-0.45155 1.2079-1.2079 0-0.762-0.46284-1.1063-1.0724-1.1063-0.21449 0-0.51929 0.13547-0.70556 0.37254 0.03387-0.80151 0.33302-1.0724 0.71684-1.0724 0.2032 0 0.42898 0.12418 0.54751 0.254l0.46284-0.51929c-0.23142-0.23142-0.58702-0.44026-1.0724-0.44026-0.75636 0-1.4563 0.6096-1.4563 1.936 0 1.27 0.67733 1.7836 1.3716 1.7836zm2.3932-2.5118c0-0.39511 0.19756-0.55316 0.42898-0.55316 0.22578 0 0.45156 0.15805 0.53058 0.7112-0.13547 0.23707-0.33302 0.33302-0.51364 0.33302-0.254 0-0.44591-0.12417-0.44591-0.49106zm0.32173 2.5118c0.75636 0 1.4563-0.6096 1.4563-1.936 0-1.27-0.67733-1.7836-1.3716-1.7836-0.65476 0-1.2079 0.4572-1.2079 1.2079 0 0.762 0.46284 1.1063 1.0781 1.1063 0.20884 0 0.51364-0.13547 0.69991-0.37253-0.03387 0.80151-0.32738 1.0724-0.71684 1.0724-0.2032 0-0.42898-0.11853-0.54751-0.254l-0.46284 0.51929c0.23142 0.23706 0.58702 0.44026 1.0724 0.44026z" aria-label="69"/>
   <path d="m111.24 126.88h2.3199v-0.70555h-0.66604v-2.8787h-0.64347c-0.254 0.16369-0.51364 0.25965-0.90311 0.33302v0.54187h0.67169v2.0038h-0.77893zm4.1204 0.0677c0.77893 0 1.2982-0.65475 1.2982-1.874s-0.51929-1.8457-1.2982-1.8457-1.2982 0.62089-1.2982 1.8457c0 1.2192 0.51929 1.874 1.2982 1.874zm0-0.67168c-0.26529 0-0.47413-0.23707-0.47413-1.2023 0-0.97084 0.20884-1.1684 0.47413-1.1684 0.25964 0 0.47413 0.19756 0.47413 1.1684 0 0.9652-0.21449 1.2023-0.47413 1.2023z" aria-label="10"/>
   <path d="m129.1 126.88h2.5456v-0.73378h-0.76764c-0.16369 0-0.41205 0.0226-0.59831 0.0395 0.60395-0.58702 1.191-1.1684 1.191-1.8119 0-0.68862-0.49106-1.1458-1.2023-1.1458-0.508 0-0.84102 0.19755-1.191 0.59266l0.45156 0.45156c0.17497-0.18627 0.37253-0.3556 0.62088-0.3556 0.29916 0 0.48543 0.17498 0.48543 0.51364 0 0.49671-0.65476 1.1345-1.5353 1.9135zm4.1995 0.0677c0.70555 0 1.3264-0.4572 1.3264-1.2587 0-0.75635-0.52493-1.1063-1.1458-1.1063-0.13546 0-0.24835 0.0169-0.37818 0.0734l0.0508-0.62653h1.3095v-0.73378h-2.0602l-0.0959 1.8232 0.38382 0.24835c0.21449-0.13547 0.31609-0.18062 0.51929-0.18062 0.31609 0 0.54186 0.18627 0.54186 0.52493 0 0.34996-0.22577 0.53058-0.58137 0.53058-0.29351 0-0.54187-0.1524-0.75636-0.34996l-0.39511 0.54751c0.28787 0.28787 0.69427 0.508 1.2813 0.508z" aria-label="25"/>
   <path d="m148.27 126.95c0.76764 0 1.2813-0.42897 1.2813-0.99906 0-0.47413-0.27658-0.75071-0.62089-0.93698v-0.0226c0.24835-0.16369 0.46849-0.43462 0.46849-0.77328 0-0.59832-0.44027-0.98778-1.1007-0.98778-0.67733 0-1.1628 0.38382-1.1628 0.99906 0 0.37254 0.19756 0.63783 0.47978 0.84667v0.0226c-0.33866 0.18062-0.60395 0.44026-0.60395 0.86924 0 0.58138 0.53622 0.98213 1.2587 0.98213zm0.22013-2.1675c-0.3556-0.14111-0.58702-0.27658-0.58702-0.55316 0-0.26528 0.16933-0.39511 0.37253-0.39511 0.25965 0 0.41205 0.17498 0.41205 0.44591 0 0.17498-0.0677 0.33867-0.19756 0.50236zm-0.2032 1.5635c-0.28222 0-0.52493-0.17498-0.52493-0.47978 0-0.20884 0.10724-0.4064 0.24835-0.54186 0.44027 0.18626 0.72814 0.29915 0.72814 0.59831 0 0.29351-0.19756 0.42333-0.45156 0.42333zm2.8674 0.60395c0.72814 0 1.349-0.37253 1.349-1.0442 0-0.46284-0.29352-0.75071-0.70556-0.86924v-0.0226c0.38382-0.16369 0.59267-0.42898 0.59267-0.79022 0-0.63782-0.49671-0.99342-1.2587-0.99342-0.43463 0-0.80151 0.17498-1.1345 0.46284l0.44027 0.53058c0.22013-0.19756 0.4064-0.3048 0.65475-0.3048 0.27094 0 0.42334 0.12982 0.42334 0.37253 0 0.27094-0.19756 0.4572-0.82409 0.4572v0.61525c0.76764 0 0.93698 0.18062 0.93698 0.47977 0 0.25965-0.22014 0.40076-0.56445 0.40076-0.28222 0-0.54751-0.14676-0.76764-0.3556l-0.40076 0.55315c0.26529 0.3048 0.67734 0.508 1.2587 0.508z" aria-label="83"/>
   <path d="m166.09 126.95c0.72814 0 1.349-0.37253 1.349-1.0442 0-0.46284-0.29351-0.75071-0.70555-0.86924v-0.0226c0.38382-0.16369 0.59267-0.42898 0.59267-0.79022 0-0.63782-0.49671-0.99342-1.2587-0.99342-0.43463 0-0.80151 0.17498-1.1345 0.46284l0.44027 0.53058c0.22013-0.19756 0.4064-0.3048 0.65475-0.3048 0.27094 0 0.42334 0.12982 0.42334 0.37253 0 0.27094-0.19756 0.4572-0.82409 0.4572v0.61525c0.76764 0 0.93698 0.18062 0.93698 0.47977 0 0.25965-0.22014 0.40076-0.56445 0.40076-0.28222 0-0.54751-0.14676-0.76764-0.3556l-0.40076 0.55315c0.26529 0.3048 0.67734 0.508 1.2587 0.508zm2.6134-2.5118c0-0.39511 0.19755-0.55316 0.42897-0.55316 0.22578 0 0.45156 0.15805 0.53058 0.7112-0.13546 0.23707-0.33302 0.33302-0.51364 0.33302-0.254 0-0.44591-0.12417-0.44591-0.49106zm0.32173 2.5118c0.75636 0 1.4563-0.6096 1.4563-1.936 0-1.27-0.67734-1.7836-1.3716-1.7836-0.65476 0-1.2079 0.4572-1.2079 1.2079 0 0.762 0.46284 1.1063 1.0781 1.1063 0.20885 0 0.51365-0.13547 0.69992-0.37253-0.0339 0.80151-0.32738 1.0724-0.71685 1.0724-0.2032 0-0.42898-0.11853-0.54751-0.254l-0.46284 0.51929c0.23142 0.23706 0.58702 0.44026 1.0724 0.44026z" aria-label="39"/>
  </g>
  <rect x="34.565" y="81.424" width="140.87" height="15.549" fill="#c54423" fill-opacity=".90782" opacity=".60177" style="mix-blend-mode:multiply"/>
  <rect x="106.18" y="45.537" width="15.549" height="87.324" fill="#00eaff" fill-opacity=".61496" style="mix-blend-mode:darken"/>
  <path d="m111.97 88.546c0-0.39511 0.19756-0.55316 0.42898-0.55316 0.22578 0 0.45156 0.15804 0.53058 0.7112-0.13547 0.23707-0.33302 0.33302-0.51364 0.33302-0.254 0-0.44592-0.12418-0.44592-0.49107zm0.32174 2.5118c0.75635 0 1.4563-0.6096 1.4563-1.936 0-1.27-0.67733-1.7836-1.3716-1.7836-0.65475 0-1.2079 0.4572-1.2079 1.2079 0 0.762 0.46285 1.1063 1.0781 1.1063 0.20885 0 0.51365-0.13547 0.69991-0.37253-0.0339 0.80151-0.32737 1.0724-0.71684 1.0724-0.2032 0-0.42898-0.11853-0.54751-0.254l-0.46285 0.51929c0.23143 0.23707 0.58703 0.44027 1.0724 0.44027zm1.9022-0.06773h2.5456v-0.73378h-0.76764c-0.16369 0-0.41204 0.02258-0.59831 0.03951 0.60396-0.58702 1.191-1.1684 1.191-1.8119 0-0.68862-0.49107-1.1458-1.2023-1.1458-0.508 0-0.84102 0.19756-1.191 0.59267l0.45156 0.45156c0.17498-0.18627 0.37253-0.3556 0.62089-0.3556 0.29915 0 0.48542 0.17498 0.48542 0.51364 0 0.49671-0.65476 1.1345-1.5353 1.9135z" fill="#fff" stroke-width=".5" aria-label="92"/>
 </g>
</svg>
