<?xml version="1.0" encoding="UTF-8" standalone="no"?>
<!-- Created with Inkscape (http://www.inkscape.org/) -->

<svg
   width="96.247mm"
   height="96.202mm"
   version="1.1"
   viewBox="0 0 96.247 96.202"
   id="svg62"
   sodipodi:docname="matrix_patratica_diag_principala.svg"
   inkscape:version="1.4 (e7c3feb100, 2024-10-09)"
   xmlns:inkscape="http://www.inkscape.org/namespaces/inkscape"
   xmlns:sodipodi="http://sodipodi.sourceforge.net/DTD/sodipodi-0.dtd"
   xmlns="http://www.w3.org/2000/svg"
   xmlns:svg="http://www.w3.org/2000/svg">
  <defs
     id="defs62" />
  <sodipodi:namedview
     id="namedview62"
     pagecolor="#ffffff"
     bordercolor="#000000"
     borderopacity="0.25"
     inkscape:showpageshadow="2"
     inkscape:pageopacity="0.0"
     inkscape:pagecheckerboard="0"
     inkscape:deskcolor="#d1d1d1"
     inkscape:document-units="mm"
     inkscape:zoom="2.2524869"
     inkscape:cx="182.02104"
     inkscape:cy="181.79906"
     inkscape:window-width="1920"
     inkscape:window-height="1029"
     inkscape:window-x="1920"
     inkscape:window-y="27"
     inkscape:window-maximized="1"
     inkscape:current-layer="svg62" />
  <g
     stroke-width="0.5"
     id="g3"
     transform="translate(-25.479,-36.709)">
    <path
       d="m 52.719,99.617 h 15.049 v 15.049 H 52.719 Z"
       fill="#ffd23f"
       stroke="#806600"
       id="path1" />
    <path
       d="m 34.816,99.617 h 15.049 v 15.049 H 34.816 Z"
       fill="#ffd23f"
       stroke="#806600"
       id="path2" />
    <path
       d="m 88.524,99.617 h 15.049 v 15.049 H 88.524 Z"
       fill="#28afb0"
       stroke="#196969"
       id="path3" />
  </g>
  <g
     fill="#ffd23f"
     stroke="#806600"
     stroke-width="0.5"
     id="g8"
     transform="translate(-25.479,-36.709)">
    <path
       d="m 106.43,99.617 h 15.049 v 15.049 H 106.43 Z"
       id="path4" />
    <path
       d="M 70.621,99.617 H 85.67 v 15.049 H 70.621 Z"
       id="path5" />
    <path
       d="m 52.719,117.56 h 15.049 v 15.049 H 52.719 Z"
       id="path6" />
    <path
       d="m 34.816,117.56 h 15.049 v 15.049 H 34.816 Z"
       id="path7" />
    <path
       d="m 88.524,117.56 h 15.049 v 15.049 H 88.524 Z"
       id="path8" />
  </g>
  <path
     d="M 80.951,80.851 H 96 V 95.9 H 80.951 Z"
     fill="#28afb0"
     stroke="#196969"
     stroke-width="0.5"
     id="path9" />
  <path
     d="M 45.142,80.851 H 60.191 V 95.9 H 45.142 Z"
     fill="#ffd23f"
     stroke="#806600"
     stroke-width="0.5"
     id="path10" />
  <path
     d="M 9.337,9.077 H 24.386 V 24.126 H 9.337 Z"
     fill="#28afb0"
     stroke="#196969"
     stroke-width="0.49999"
     id="path11" />
  <path
     d="M 9.286,0.198 H 96.048 V 6.6985 H 9.286 Z"
     fill="#9a18c9"
     stroke="#540d6e"
     stroke-width="0.39774"
     id="path12" />
  <path
     d="M 6.751,9.026 V 95.952 H 0.2509 V 9.026 Z"
     fill="#9a18c9"
     stroke="#540d6e"
     stroke-width="0.5"
     id="path13" />
  <g
     fill="#ffd23f"
     stroke="#806600"
     stroke-width="0.5"
     id="g21"
     transform="translate(-25.479,-36.709)">
    <path
       d="m 88.524,45.786 h 15.049 V 60.835 H 88.524 Z"
       id="path14" />
    <path
       d="m 106.43,45.786 h 15.049 V 60.835 H 106.43 Z"
       id="path15" />
    <path
       d="M 70.621,45.786 H 85.67 V 60.835 H 70.621 Z"
       id="path16" />
    <path
       d="M 52.719,45.786 H 67.768 V 60.835 H 52.719 Z"
       id="path17" />
    <path
       d="M 34.816,63.73 H 49.865 V 78.779 H 34.816 Z"
       id="path18" />
    <path
       d="m 88.524,63.73 h 15.049 V 78.779 H 88.524 Z"
       id="path19" />
    <path
       d="m 106.43,63.73 h 15.049 V 78.779 H 106.43 Z"
       id="path20" />
    <path
       d="M 70.621,63.73 H 85.67 V 78.779 H 70.621 Z"
       id="path21" />
  </g>
  <path
     d="M 27.24,27.021 H 42.289 V 42.07 H 27.24 Z"
     fill="#28afb0"
     stroke="#196969"
     stroke-width="0.5"
     id="path22" />
  <g
     fill="#ffd23f"
     stroke="#806600"
     stroke-width="0.5"
     id="g25"
     transform="translate(-25.479,-36.709)">
    <path
       d="M 34.816,81.673 H 49.865 V 96.722 H 34.816 Z"
       id="path23" />
    <path
       d="m 88.524,81.673 h 15.049 V 96.722 H 88.524 Z"
       id="path24" />
    <path
       d="m 106.43,81.673 h 15.049 V 96.722 H 106.43 Z"
       id="path25" />
  </g>
  <path
     d="M 45.142,44.964 H 60.191 V 60.013 H 45.142 Z"
     fill="#28afb0"
     stroke="#196969"
     stroke-width="0.5"
     id="path26" />
  <path
     d="M 27.24,44.964 H 42.289 V 60.013 H 27.24 Z"
     fill="#ffd23f"
     stroke="#806600"
     stroke-width="0.5"
     id="path27" />
  <g
     fill="#f3fcf0"
     stroke-width="0.5"
     id="g37"
     transform="translate(-25.479,-36.709)">
    <path
       d="m 42.341,41.669 c 0.63288,0 1.0548,-0.53199 1.0548,-1.5226 0,-0.99061 -0.42192,-1.4997 -1.0548,-1.4997 -0.63288,0 -1.0548,0.50447 -1.0548,1.4997 0,0.9906 0.42192,1.5226 1.0548,1.5226 z m 0,-0.54575 c -0.21555,0 -0.38523,-0.19262 -0.38523,-0.97684 0,-0.78881 0.16969,-0.94932 0.38523,-0.94932 0.21096,0 0.38523,0.16051 0.38523,0.94932 0,0.78422 -0.17427,0.97684 -0.38523,0.97684 z"
       aria-label="0"
       id="path28" />
    <path
       d="m 59.301,41.614 h 1.8849 v -0.57326 h -0.54116 v -2.3389 h -0.52282 c -0.20638,0.133 -0.41734,0.21096 -0.73378,0.27058 v 0.44027 h 0.54575 v 1.6281 h -0.63288 z"
       aria-label="1"
       id="path29" />
    <path
       d="m 77.121,41.641 h 2.0683 v -0.59619 h -0.62371 c -0.133,0 -0.33478,0.01835 -0.48613,0.0321 0.49071,-0.47695 0.96767,-0.94932 0.96767,-1.4721 0,-0.5595 -0.39899,-0.93098 -0.97684,-0.93098 -0.41275,0 -0.68333,0.16051 -0.96767,0.48154 l 0.36689,0.36689 c 0.14217,-0.15134 0.30268,-0.28892 0.50447,-0.28892 0.24306,0 0.3944,0.14217 0.3944,0.41734 0,0.40358 -0.53199,0.92181 -1.2474,1.5547 z"
       aria-label="2"
       id="path30" />
    <path
       d="m 96.012,41.669 c 0.59161,0 1.0961,-0.30268 1.0961,-0.84843 0,-0.37606 -0.23848,-0.60995 -0.57326,-0.70626 v -0.01834 c 0.31186,-0.133 0.48154,-0.34854 0.48154,-0.64205 0,-0.51823 -0.40358,-0.80715 -1.0227,-0.80715 -0.35313,0 -0.65123,0.14217 -0.92181,0.37606 l 0.35772,0.43109 c 0.17886,-0.16051 0.3302,-0.24765 0.53199,-0.24765 0.22013,0 0.34396,0.10548 0.34396,0.30268 0,0.22013 -0.16051,0.37147 -0.66957,0.37147 v 0.49988 c 0.62371,0 0.76129,0.14676 0.76129,0.38982 0,0.21096 -0.17886,0.32561 -0.45861,0.32561 -0.2293,0 -0.44485,-0.11924 -0.62371,-0.28892 l -0.32561,0.44944 c 0.21555,0.24765 0.55033,0.41275 1.0227,0.41275 z"
       aria-label="3"
       id="path31" />
    <path
       d="m 113.5,40.394 0.34396,-0.59161 c 0.0825,-0.16969 0.1651,-0.33479 0.23848,-0.50447 h 0.0183 c -0.009,0.19262 -0.0229,0.47696 -0.0229,0.66498 v 0.43109 z m 0.57785,1.2199 h 0.6604 v -0.67874 h 0.3302 V 40.394 h -0.3302 v -1.6923 h -0.87595 l -1.0365,1.7381 v 0.4953 h 1.252 z"
       aria-label="4"
       id="path32" />
    <path
       d="m 29.06,54.822 c 0.63288,0 1.0548,-0.53199 1.0548,-1.5226 0,-0.9906 -0.42192,-1.4997 -1.0548,-1.4997 -0.63288,0 -1.0548,0.50447 -1.0548,1.4997 0,0.9906 0.42192,1.5226 1.0548,1.5226 z m 0,-0.54575 c -0.21555,0 -0.38523,-0.19262 -0.38523,-0.97684 0,-0.78881 0.16968,-0.94932 0.38523,-0.94932 0.21096,0 0.38523,0.16051 0.38523,0.94932 0,0.78422 -0.17427,0.97684 -0.38523,0.97684 z"
       aria-label="0"
       id="path33" />
    <path
       d="m 28.104,72.711 h 1.8849 v -0.57326 h -0.54116 v -2.3389 h -0.52282 c -0.20637,0.133 -0.41734,0.21096 -0.73378,0.27058 v 0.44026 h 0.54575 v 1.6281 h -0.63288 z"
       aria-label="1"
       id="path34" />
    <path
       d="m 28.028,90.682 h 2.0683 v -0.59619 h -0.62371 c -0.133,0 -0.33479,0.01834 -0.48613,0.0321 0.49071,-0.47695 0.96767,-0.94932 0.96767,-1.4721 0,-0.5595 -0.39899,-0.93098 -0.97684,-0.93098 -0.41275,0 -0.68333,0.16051 -0.96767,0.48154 l 0.36689,0.36689 c 0.14217,-0.15134 0.30268,-0.28892 0.50447,-0.28892 0.24306,0 0.3944,0.14217 0.3944,0.41734 0,0.40358 -0.53199,0.92181 -1.2474,1.5547 z"
       aria-label="2"
       id="path35" />
    <path
       d="m 29.014,108.65 c 0.59161,0 1.0961,-0.30268 1.0961,-0.84843 0,-0.37606 -0.23848,-0.60995 -0.57326,-0.70626 v -0.0183 c 0.31186,-0.133 0.48154,-0.34855 0.48154,-0.64206 0,-0.51823 -0.40358,-0.80715 -1.0227,-0.80715 -0.35313,0 -0.65123,0.14217 -0.92181,0.37606 l 0.35772,0.43109 c 0.17886,-0.16051 0.3302,-0.24765 0.53199,-0.24765 0.22013,0 0.34396,0.10548 0.34396,0.30269 0,0.22013 -0.16051,0.37147 -0.66957,0.37147 v 0.49989 c 0.62371,0 0.76129,0.14675 0.76129,0.38981 0,0.21096 -0.17886,0.32562 -0.45861,0.32562 -0.2293,0 -0.44485,-0.11924 -0.62371,-0.28893 l -0.32561,0.44944 c 0.21555,0.24765 0.55033,0.41275 1.0227,0.41275 z"
       aria-label="3"
       id="path36" />
    <path
       d="m 28.631,125.32 0.34396,-0.59161 c 0.08255,-0.16969 0.1651,-0.33479 0.23848,-0.50447 h 0.01834 c -0.0092,0.19262 -0.02293,0.47695 -0.02293,0.66498 v 0.4311 z m 0.57785,1.2199 h 0.6604 v -0.67874 h 0.3302 V 125.32 h -0.3302 v -1.6923 h -0.87594 l -1.0365,1.7381 v 0.4953 h 1.252 z"
       aria-label="4"
       id="path37" />
  </g>
  <text
     x="34.133717"
     y="16.318283"
     fill="#000000"
     font-family="'Source Sans Pro'"
     font-size="5.6444px"
     font-weight="bold"
     opacity="0.58806"
     stroke-width="0.5"
     style="paint-order:stroke fill markers"
     xml:space="preserve"
     id="text37"><tspan
       fill="#000000"
       stroke-width="0.5"
       id="tspan37" /></text>
  <path
     d="m 16.861587,18.461852 c 0.778927,0 1.298212,-0.65475 1.298212,-1.873941 0,-1.21919 -0.519285,-1.845719 -1.298212,-1.845719 -0.778928,0 -1.298213,0.620884 -1.298213,1.845719 0,1.219191 0.519285,1.873941 1.298213,1.873941 z m 0,-0.671684 c -0.265287,0 -0.47413,-0.237064 -0.47413,-1.202257 0,-0.970837 0.208843,-1.168391 0.47413,-1.168391 0.259642,0 0.474129,0.197554 0.474129,1.168391 0,0.965193 -0.214487,1.202257 -0.474129,1.202257 z"
     id="text38"
     style="font-weight:bold;font-size:5.6444px;font-family:'Source Sans Pro';fill:#e4f8f8;stroke-width:0.5;paint-order:stroke fill markers"
     aria-label="0" />
  <g
     fill="#000000"
     font-family="'Source Sans Pro'"
     font-size="5.6444px"
     font-weight="bold"
     stroke-width="0.5"
     id="g44"
     transform="translate(-25.479,-36.709)">
    <path
       d="m 59.692947,53.601708 0.42333,-0.728127 c 0.101599,-0.208843 0.203198,-0.412041 0.293509,-0.620884 h 0.02258 c -0.01129,0.237065 -0.02822,0.587017 -0.02822,0.818438 v 0.530573 z m 0.711194,1.501411 h 0.812794 v -0.835371 h 0.406397 v -0.66604 h -0.406397 v -2.082783 h -1.078081 l -1.275634,2.139227 v 0.609596 h 1.540921 z"
       id="text39"
       style="paint-order:stroke fill markers"
       aria-label="4" />
    <path
       d="m 76.884441,55.136986 h 2.545624 v -0.733772 h -0.767638 c -0.163688,0 -0.412041,0.02258 -0.598306,0.03951 0.60395,-0.587018 1.190968,-1.168391 1.190968,-1.811853 0,-0.688617 -0.491063,-1.145813 -1.202257,-1.145813 -0.507996,0 -0.841016,0.197554 -1.190969,0.592662 l 0.451552,0.451552 c 0.174977,-0.186265 0.372531,-0.355597 0.620884,-0.355597 0.299154,0 0.485419,0.174976 0.485419,0.51364 0,0.496707 -0.654751,1.134525 -1.535277,1.913452 z"
       id="text40"
       style="paint-order:stroke fill markers"
       aria-label="2" />
    <path
       d="m 95.560402,52.659094 c 0,-0.395108 0.197554,-0.553152 0.428974,-0.553152 0.225776,0 0.451552,0.158044 0.530574,0.711195 -0.135466,0.237065 -0.33302,0.333019 -0.513641,0.333019 -0.253998,0 -0.445907,-0.124176 -0.445907,-0.491062 z m 0.321731,2.511758 c 0.756349,0 1.456255,-0.609596 1.456255,-1.93603 0,-1.26999 -0.677328,-1.78363 -1.371589,-1.78363 -0.654751,0 -1.207902,0.457196 -1.207902,1.207902 0,0.761994 0.462841,1.106302 1.07808,1.106302 0.208843,0 0.513641,-0.135466 0.699906,-0.37253 -0.03387,0.801504 -0.327375,1.072436 -0.716839,1.072436 -0.203198,0 -0.428974,-0.118533 -0.547507,-0.253998 l -0.46284,0.519284 c 0.23142,0.237065 0.587017,0.440264 1.072436,0.440264 z"
       id="text41"
       style="paint-order:stroke fill markers"
       aria-label="9" />
    <path
       d="m 112.7914,55.103119 h 2.31985 v -0.70555 h -0.66604 v -2.878644 h -0.64347 c -0.25399,0.163687 -0.51364,0.259642 -0.9031,0.333019 v 0.541863 h 0.67168 v 2.003762 h -0.77892 z"
       id="text42"
       style="paint-order:stroke fill markers"
       aria-label="1" />
    <path
       d="m 42.318011,73.080558 c 0.70555,0 1.326434,-0.457197 1.326434,-1.258701 0,-0.75635 -0.524929,-1.106303 -1.145813,-1.106303 -0.135465,0 -0.248353,0.01693 -0.378175,0.07338 l 0.0508,-0.626528 h 1.309501 v -0.733772 h -2.060206 l -0.09596,1.823141 0.383819,0.248354 c 0.214487,-0.135466 0.316087,-0.180621 0.519285,-0.180621 0.316086,0 0.541862,0.186265 0.541862,0.524929 0,0.349953 -0.225776,0.530574 -0.581373,0.530574 -0.293509,0 -0.541862,-0.152399 -0.756349,-0.349953 l -0.395109,0.547507 c 0.287865,0.287864 0.694262,0.507996 1.281279,0.507996 z"
       id="text43"
       style="paint-order:stroke fill markers"
       aria-label="5" />
    <path
       d="m 113.92875,73.080558 c 0.70555,0 1.32643,-0.457197 1.32643,-1.258701 0,-0.75635 -0.52493,-1.106303 -1.14581,-1.106303 -0.13547,0 -0.24835,0.01693 -0.37818,0.07338 l 0.0508,-0.626528 h 1.3095 v -0.733772 h -2.0602 l -0.096,1.823141 0.38382,0.248354 c 0.21449,-0.135466 0.31609,-0.180621 0.51929,-0.180621 0.31608,0 0.54186,0.186265 0.54186,0.524929 0,0.349953 -0.22578,0.530574 -0.58137,0.530574 -0.29351,0 -0.54187,-0.152399 -0.75635,-0.349953 l -0.39511,0.547507 c 0.28786,0.287864 0.69426,0.507996 1.28128,0.507996 z"
       id="text44"
       style="paint-order:stroke fill markers"
       aria-label="5" />
  </g>
  <path
     d="m 34.764274,36.405425 c 0.778927,0 1.298212,-0.65475 1.298212,-1.873941 0,-1.21919 -0.519285,-1.845719 -1.298212,-1.845719 -0.778928,0 -1.298212,0.620884 -1.298212,1.845719 0,1.219191 0.519284,1.873941 1.298212,1.873941 z m 0,-0.671684 c -0.265287,0 -0.47413,-0.237064 -0.47413,-1.202257 0,-0.970837 0.208843,-1.168391 0.47413,-1.168391 0.259642,0 0.474129,0.197554 0.474129,1.168391 0,0.965193 -0.214487,1.202257 -0.474129,1.202257 z"
     id="text45"
     style="font-weight:bold;font-size:5.6444px;font-family:'Source Sans Pro';fill:#e4f8f8;stroke-width:0.5;paint-order:stroke fill markers"
     aria-label="0" />
  <g
     fill="#000000"
     font-family="'Source Sans Pro'"
     font-size="5.6444px"
     font-weight="bold"
     stroke-width="0.5"
     id="g49"
     transform="translate(-25.479,-36.709)">
    <path
       d="m 76.884441,73.080559 h 2.545624 v -0.733772 h -0.767638 c -0.163688,0 -0.412041,0.02258 -0.598306,0.03951 0.60395,-0.587018 1.190968,-1.168391 1.190968,-1.811853 0,-0.688617 -0.491063,-1.145813 -1.202257,-1.145813 -0.507996,0 -0.841016,0.197554 -1.190969,0.592662 l 0.451552,0.451552 c 0.174977,-0.186265 0.372531,-0.355597 0.620884,-0.355597 0.299154,0 0.485419,0.174976 0.485419,0.51364 0,0.496707 -0.654751,1.134525 -1.535277,1.913452 z"
       id="text46"
       style="paint-order:stroke fill markers"
       aria-label="2" />
    <path
       d="m 95.498317,71.545281 0.42333,-0.728127 c 0.101599,-0.208843 0.203198,-0.412041 0.293509,-0.620884 h 0.02258 c -0.01129,0.237065 -0.02822,0.587017 -0.02822,0.818438 v 0.530573 z m 0.711194,1.501411 h 0.812794 v -0.835371 h 0.406397 v -0.66604 h -0.406397 v -2.082783 h -1.07808 l -1.275635,2.139227 v 0.609596 h 1.540921 z"
       id="text47"
       style="paint-order:stroke fill markers"
       aria-label="4" />
    <path
       d="m 42.329296,91.057998 c 0.767639,0 1.281279,-0.428975 1.281279,-0.999059 0,-0.47413 -0.276575,-0.750705 -0.620884,-0.936971 v -0.02258 c 0.248354,-0.163688 0.468485,-0.434619 0.468485,-0.773283 0,-0.598306 -0.440263,-0.98777 -1.100658,-0.98777 -0.677328,0 -1.162746,0.383819 -1.162746,0.999059 0,0.37253 0.197554,0.637817 0.479774,0.84666 v 0.02258 c -0.338664,0.180621 -0.603951,0.440264 -0.603951,0.869238 0,0.581373 0.536218,0.982126 1.258701,0.982126 z m 0.220132,-2.16745 c -0.355597,-0.14111 -0.587018,-0.276576 -0.587018,-0.553151 0,-0.265287 0.169332,-0.395108 0.372531,-0.395108 0.259642,0 0.412041,0.174976 0.412041,0.445907 0,0.174977 -0.06773,0.338664 -0.197554,0.502352 z m -0.203198,1.563499 c -0.28222,0 -0.52493,-0.174977 -0.52493,-0.479774 0,-0.208843 0.107244,-0.406397 0.248354,-0.541863 0.440263,0.186266 0.728128,0.299154 0.728128,0.598307 0,0.293509 -0.197554,0.42333 -0.451552,0.42333 z"
       id="text48"
       style="paint-order:stroke fill markers"
       aria-label="8" />
    <path
       d="m 59.083351,90.990265 h 2.319848 v -0.70555 H 60.73716 v -2.878644 h -0.643462 c -0.253998,0.163687 -0.51364,0.259642 -0.903104,0.333019 v 0.541863 h 0.671684 v 2.003762 h -0.778927 z"
       id="text49"
       style="paint-order:stroke fill markers"
       aria-label="1" />
  </g>
  <path
     d="m 52.655674,54.348998 c 0.767639,0 1.281279,-0.428974 1.281279,-0.999059 0,-0.474129 -0.276575,-0.750705 -0.620884,-0.93697 v -0.02258 c 0.248354,-0.163687 0.468485,-0.434619 0.468485,-0.773283 0,-0.598306 -0.440263,-0.98777 -1.100658,-0.98777 -0.677328,0 -1.162746,0.38382 -1.162746,0.999059 0,0.372531 0.197554,0.637817 0.479774,0.84666 v 0.02258 c -0.338664,0.180621 -0.603951,0.440263 -0.603951,0.869237 0,0.581374 0.536218,0.982126 1.258701,0.982126 z m 0.220132,-2.16745 c -0.355597,-0.14111 -0.587018,-0.276575 -0.587018,-0.553151 0,-0.265287 0.169332,-0.395108 0.372531,-0.395108 0.259642,0 0.412041,0.174977 0.412041,0.445908 0,0.174976 -0.06773,0.338664 -0.197554,0.502351 z m -0.203198,1.563499 c -0.28222,0 -0.52493,-0.174976 -0.52493,-0.479774 0,-0.208843 0.107244,-0.406397 0.248354,-0.541862 0.440263,0.186265 0.728128,0.299153 0.728128,0.598306 0,0.293509 -0.197554,0.42333 -0.451552,0.42333 z"
     id="text50"
     style="font-weight:bold;font-size:5.6444px;font-family:'Source Sans Pro';fill:#e4f8f8;stroke-width:0.5;paint-order:stroke fill markers"
     aria-label="8" />
  <g
     fill="#000000"
     font-family="'Source Sans Pro'"
     font-size="5.6444px"
     font-weight="bold"
     stroke-width="0.5"
     id="g56"
     transform="translate(-25.479,-36.709)">
    <path
       d="m 94.78712,91.024132 h 2.545625 V 90.29036 h -0.767639 c -0.163687,0 -0.412041,0.02258 -0.598306,0.03951 0.603951,-0.587018 1.190968,-1.168391 1.190968,-1.811853 0,-0.688617 -0.491062,-1.145813 -1.202257,-1.145813 -0.507996,0 -0.841015,0.197554 -1.190968,0.592662 l 0.451552,0.451552 c 0.174976,-0.186265 0.37253,-0.355597 0.620884,-0.355597 0.299153,0 0.485418,0.174976 0.485418,0.51364 0,0.496707 -0.65475,1.134525 -1.535277,1.913452 z"
       id="text51"
       style="paint-order:stroke fill markers"
       aria-label="2" />
    <path
       d="m 113.92875,91.024131 c 0.70555,0 1.32643,-0.457197 1.32643,-1.258701 0,-0.75635 -0.52493,-1.106303 -1.14581,-1.106303 -0.13547,0 -0.24835,0.01693 -0.37818,0.07338 l 0.0508,-0.626528 h 1.3095 v -0.733772 h -2.0602 l -0.096,1.823141 0.38382,0.248354 c 0.21449,-0.135466 0.31609,-0.180621 0.51929,-0.180621 0.31608,0 0.54186,0.186265 0.54186,0.524929 0,0.349953 -0.22578,0.530574 -0.58137,0.530574 -0.29351,0 -0.54187,-0.152399 -0.75635,-0.349953 l -0.39511,0.547507 c 0.28786,0.287864 0.69426,0.507996 1.28128,0.507996 z"
       id="text52"
       style="paint-order:stroke fill markers"
       aria-label="5" />
    <path
       d="m 41.79026,107.43244 0.42333,-0.72812 c 0.101599,-0.20885 0.203198,-0.41205 0.293508,-0.62089 h 0.02258 c -0.01129,0.23707 -0.02822,0.58702 -0.02822,0.81844 v 0.53057 z m 0.711194,1.50141 h 0.812794 v -0.83537 h 0.406396 v -0.66604 h -0.406396 v -2.08278 h -1.078081 l -1.275634,2.13923 v 0.60959 h 1.540921 z"
       id="text53"
       style="paint-order:stroke fill markers"
       aria-label="4" />
    <path
       d="m 112.6898,108.9677 h 2.54562 v -0.73377 h -0.76763 c -0.16369,0 -0.41205,0.0226 -0.59831,0.0395 0.60395,-0.58702 1.19097,-1.16839 1.19097,-1.81186 0,-0.68861 -0.49106,-1.14581 -1.20226,-1.14581 -0.508,0 -0.84101,0.19755 -1.19097,0.59266 l 0.45155,0.45155 c 0.17498,-0.18626 0.37253,-0.35559 0.62089,-0.35559 0.29915,0 0.48542,0.17497 0.48542,0.51364 0,0.4967 -0.65475,1.13452 -1.53528,1.91345 z"
       id="text54"
       style="paint-order:stroke fill markers"
       aria-label="2" />
    <path
       d="m 59.692947,107.43244 0.42333,-0.72812 c 0.101599,-0.20885 0.203198,-0.41205 0.293509,-0.62089 h 0.02258 c -0.01129,0.23707 -0.02822,0.58702 -0.02822,0.81844 v 0.53057 z m 0.711194,1.50141 h 0.812794 v -0.83537 h 0.406397 v -0.66604 h -0.406397 v -2.08278 h -1.078081 l -1.275634,2.13923 v 0.60959 h 1.540921 z"
       id="text55"
       style="paint-order:stroke fill markers"
       aria-label="4" />
    <path
       d="m 78.188294,107.30262 c 0.253998,0 0.451552,0.12418 0.451552,0.49106 0,0.39511 -0.203198,0.55316 -0.434619,0.55316 -0.225776,0 -0.451552,-0.15805 -0.524929,-0.70555 0.129821,-0.23707 0.327375,-0.33867 0.507996,-0.33867 z m 0.03951,1.69897 c 0.65475,0 1.207902,-0.45156 1.207902,-1.20791 0,-0.76199 -0.462841,-1.1063 -1.072436,-1.1063 -0.214488,0 -0.519285,0.13547 -0.70555,0.37253 0.03387,-0.8015 0.333019,-1.07243 0.716838,-1.07243 0.203199,0 0.428975,0.12417 0.547507,0.25399 l 0.462841,-0.51928 c -0.23142,-0.23142 -0.587018,-0.44026 -1.072436,-0.44026 -0.75635,0 -1.456255,0.60959 -1.456255,1.93603 0,1.26999 0.677328,1.78363 1.371589,1.78363 z"
       id="text56"
       style="paint-order:stroke fill markers"
       aria-label="6" />
  </g>
  <path
     d="m 70.081406,69.780828 c 0,-0.395108 0.197554,-0.553151 0.428974,-0.553151 0.225776,0 0.451552,0.158043 0.530574,0.711194 -0.135466,0.237065 -0.33302,0.33302 -0.513641,0.33302 -0.253998,0 -0.445907,-0.124177 -0.445907,-0.491063 z m 0.32173,2.511758 c 0.75635,0 1.456256,-0.609595 1.456256,-1.936029 0,-1.26999 -0.677328,-1.78363 -1.37159,-1.78363 -0.65475,0 -1.207901,0.457196 -1.207901,1.207901 0,0.761994 0.462841,1.106303 1.07808,1.106303 0.208843,0 0.513641,-0.135466 0.699906,-0.372531 -0.03387,0.801505 -0.327375,1.072436 -0.716839,1.072436 -0.203198,0 -0.428974,-0.118532 -0.547507,-0.253998 L 69.3307,71.852323 c 0.231421,0.237065 0.587018,0.440263 1.072436,0.440263 z"
     id="text57"
     style="font-weight:bold;font-size:5.6444px;font-family:'Source Sans Pro';fill:#e4f8f8;stroke-width:0.5;paint-order:stroke fill markers"
     aria-label="9" />
  <g
     fill="#000000"
     font-family="'Source Sans Pro'"
     font-size="5.6444px"
     font-weight="bold"
     stroke-width="0.5"
     id="g60"
     transform="translate(-25.479,-36.709)">
    <path
       d="m 42.295431,126.94515 c 0.728128,0 1.349012,-0.37253 1.349012,-1.04421 0,-0.46284 -0.293509,-0.75071 -0.70555,-0.86924 v -0.0226 c 0.383819,-0.16369 0.592662,-0.42897 0.592662,-0.79021 0,-0.63782 -0.496707,-0.99342 -1.258701,-0.99342 -0.434619,0 -0.801505,0.17498 -1.134525,0.46284 l 0.440263,0.53058 c 0.220132,-0.19756 0.406397,-0.3048 0.654751,-0.3048 0.270931,0 0.42333,0.12982 0.42333,0.37253 0,0.27093 -0.197554,0.4572 -0.824083,0.4572 v 0.61523 c 0.767639,0 0.936971,0.18063 0.936971,0.47978 0,0.25964 -0.220132,0.40075 -0.56444,0.40075 -0.28222,0 -0.547507,-0.14675 -0.767639,-0.3556 l -0.400752,0.55316 c 0.265287,0.30479 0.677328,0.50799 1.258701,0.50799 z"
       id="text58"
       style="paint-order:stroke fill markers"
       aria-label="3" />
    <path
       d="m 60.198118,126.94515 c 0.728128,0 1.349012,-0.37253 1.349012,-1.04421 0,-0.46284 -0.293509,-0.75071 -0.70555,-0.86924 v -0.0226 c 0.383819,-0.16369 0.592662,-0.42897 0.592662,-0.79021 0,-0.63782 -0.496707,-0.99342 -1.258701,-0.99342 -0.434619,0 -0.801505,0.17498 -1.134525,0.46284 l 0.440264,0.53058 c 0.220131,-0.19756 0.406396,-0.3048 0.65475,-0.3048 0.270931,0 0.42333,0.12982 0.42333,0.37253 0,0.27093 -0.197554,0.4572 -0.824082,0.4572 v 0.61523 c 0.767638,0 0.93697,0.18063 0.93697,0.47978 0,0.25964 -0.220132,0.40075 -0.56444,0.40075 -0.28222,0 -0.547507,-0.14675 -0.767638,-0.3556 l -0.400753,0.55316 c 0.265287,0.30479 0.677328,0.50799 1.258701,0.50799 z"
       id="text59"
       style="paint-order:stroke fill markers"
       aria-label="3" />
    <path
       d="m 95.560402,124.43339 c 0,-0.3951 0.197554,-0.55315 0.428974,-0.55315 0.225776,0 0.451552,0.15805 0.530574,0.7112 -0.135466,0.23706 -0.33302,0.33302 -0.513641,0.33302 -0.253998,0 -0.445907,-0.12418 -0.445907,-0.49107 z m 0.321731,2.51176 c 0.756349,0 1.456255,-0.60959 1.456255,-1.93603 0,-1.26999 -0.677328,-1.78363 -1.371589,-1.78363 -0.654751,0 -1.207902,0.4572 -1.207902,1.2079 0,0.762 0.462841,1.10631 1.07808,1.10631 0.208843,0 0.513641,-0.13547 0.699906,-0.37253 -0.03387,0.8015 -0.327375,1.07243 -0.716839,1.07243 -0.203198,0 -0.428974,-0.11853 -0.547507,-0.254 l -0.46284,0.51929 c 0.23142,0.23706 0.587017,0.44026 1.072436,0.44026 z"
       id="text60"
       style="paint-order:stroke fill markers"
       aria-label="9" />
  </g>
  <path
     d="m 88.427176,90.236152 c 0.728127,0 1.349011,-0.372531 1.349011,-1.044214 0,-0.462841 -0.293509,-0.750706 -0.70555,-0.869238 v -0.02258 c 0.383819,-0.163687 0.592662,-0.428974 0.592662,-0.790216 0,-0.637817 -0.496707,-0.993414 -1.258701,-0.993414 -0.434619,0 -0.801505,0.174976 -1.134524,0.462841 l 0.440263,0.530573 c 0.220131,-0.197554 0.406397,-0.304797 0.65475,-0.304797 0.270931,0 0.42333,0.129821 0.42333,0.37253 0,0.270931 -0.197554,0.457197 -0.824082,0.457197 v 0.615239 c 0.767638,0 0.93697,0.180621 0.93697,0.479774 0,0.259643 -0.220131,0.400753 -0.56444,0.400753 -0.28222,0 -0.547507,-0.146755 -0.767638,-0.355598 l -0.400753,0.553152 c 0.265287,0.304797 0.677328,0.507996 1.258702,0.507996 z"
     id="text61"
     style="font-weight:bold;font-size:5.6444px;font-family:'Source Sans Pro';fill:#e4f8f8;stroke-width:0.5;paint-order:stroke fill markers"
     aria-label="3" />
  <path
     d="m 52.11663,88.667008 0.42333,-0.728127 c 0.101599,-0.208843 0.203198,-0.412041 0.293509,-0.620884 h 0.02258 c -0.01129,0.237065 -0.02822,0.587017 -0.02822,0.818438 v 0.530573 z m 0.711194,1.501411 h 0.812794 v -0.835371 h 0.406397 v -0.66604 h -0.406397 v -2.082783 h -1.078081 l -1.275634,2.139227 v 0.609596 h 1.540921 z"
     id="text62"
     style="font-weight:bold;font-size:5.6444px;font-family:'Source Sans Pro';stroke-width:0.5;paint-order:stroke fill markers"
     aria-label="4" />
</svg>
