<?xml version="1.0" encoding="UTF-8" standalone="no"?>
<!-- Created with Inkscape (http://www.inkscape.org/) -->

<svg
   width="149.95465mm"
   height="96.202354mm"
   viewBox="0 0 149.95465 96.202354"
   version="1.1"
   id="svg1"
   inkscape:version="1.4 (e7c3feb100, 2024-10-09)"
   sodipodi:docname="matrix_1.svg"
   xmlns:inkscape="http://www.inkscape.org/namespaces/inkscape"
   xmlns:sodipodi="http://sodipodi.sourceforge.net/DTD/sodipodi-0.dtd"
   xmlns="http://www.w3.org/2000/svg"
   xmlns:svg="http://www.w3.org/2000/svg">
  <sodipodi:namedview
     id="namedview1"
     pagecolor="#ffffff"
     bordercolor="#000000"
     borderopacity="0.25"
     inkscape:showpageshadow="2"
     inkscape:pageopacity="0.0"
     inkscape:pagecheckerboard="0"
     inkscape:deskcolor="#d1d1d1"
     inkscape:document-units="mm"
     inkscape:zoom="5.8368687"
     inkscape:cx="87.032967"
     inkscape:cy="39.661677"
     inkscape:window-width="1920"
     inkscape:window-height="1029"
     inkscape:window-x="1920"
     inkscape:window-y="27"
     inkscape:window-maximized="1"
     inkscape:current-layer="layer1" />
  <defs
     id="defs1" />
  <g
     inkscape:label="Layer 1"
     inkscape:groupmode="layer"
     id="layer1"
     transform="translate(-25.479476,-36.7086)">
    <path
       id="rect1"
       style="fill:#ffd23f;stroke:#806600;stroke-width:0.5"
       d="M 52.718559,99.617004 H 67.76801 V 114.66646 H 52.718559 Z" />
    <path
       id="rect1-63"
       style="fill:#ffd23f;stroke:#806600;stroke-width:0.5"
       d="M 34.815872,99.617004 H 49.865323 V 114.66646 H 34.815872 Z" />
    <path
       id="rect1-03"
       style="fill:#ffd23f;stroke:#806600;stroke-width:0.5"
       d="M 88.523926,99.617004 H 103.57338 V 114.66646 H 88.523926 Z" />
    <path
       id="rect1-03-7"
       style="fill:#ffd23f;stroke:#806600;stroke-width:0.5"
       d="m 106.42661,99.617004 h 15.04945 v 15.049456 h -15.04945 z" />
    <path
       id="rect1-03-74"
       style="fill:#ffd23f;stroke:#806600;stroke-width:0.5"
       d="m 124.3293,99.617004 h 15.04945 V 114.66646 H 124.3293 Z" />
    <path
       id="rect1-03-8"
       style="fill:#ffd23f;stroke:#806600;stroke-width:0.5"
       d="m 142.23198,99.617004 h 15.04945 v 15.049456 h -15.04945 z" />
    <path
       id="rect1-5"
       style="fill:#ffd23f;stroke:#806600;stroke-width:0.5"
       d="m 160.13467,99.617004 h 15.04945 v 15.049456 h -15.04945 z" />
    <path
       id="rect1-0"
       style="fill:#ffd23f;stroke:#806600;stroke-width:0.5"
       d="M 70.621246,99.617004 H 85.670697 V 114.66646 H 70.621246 Z" />
    <path
       id="rect1-31"
       style="fill:#ffd23f;stroke:#806600;stroke-width:0.5"
       d="M 52.718559,117.56058 H 67.76801 v 15.04945 H 52.718559 Z" />
    <path
       id="rect1-31-9"
       style="fill:#ffd23f;stroke:#806600;stroke-width:0.5"
       d="m 34.815872,117.56058 h 15.049451 v 15.04945 H 34.815872 Z" />
    <path
       id="rect1-31-0"
       style="fill:#ffd23f;stroke:#806600;stroke-width:0.5"
       d="m 88.523926,117.56058 h 15.049454 v 15.04945 H 88.523926 Z" />
    <path
       id="rect1-31-0-5"
       style="fill:#ffd23f;stroke:#806600;stroke-width:0.5"
       d="m 106.42661,117.56058 h 15.04945 v 15.04945 h -15.04945 z" />
    <path
       id="rect1-31-0-1"
       style="fill:#ffd23f;stroke:#806600;stroke-width:0.5"
       d="m 124.3293,117.56058 h 15.04945 v 15.04945 H 124.3293 Z" />
    <path
       id="rect1-31-0-3"
       style="fill:#ffd23f;stroke:#806600;stroke-width:0.5"
       d="m 142.23198,117.56058 h 15.04945 v 15.04945 h -15.04945 z" />
    <path
       id="rect1-31-6"
       style="fill:#ffd23f;stroke:#806600;stroke-width:0.5"
       d="m 160.13467,117.56058 h 15.04945 v 15.04945 h -15.04945 z" />
    <path
       id="rect1-31-8"
       style="fill:#ffd23f;stroke:#806600;stroke-width:0.5"
       d="m 70.621246,117.56058 h 15.049451 v 15.04945 H 70.621246 Z" />
    <path
       id="rect1-4"
       style="fill:#ffd23f;stroke:#806600;stroke-width:0.499993"
       d="m 34.815868,45.785995 h 15.04946 v 15.049008 h -15.04946 z" />
    <path
       id="rect1-4-40"
       style="fill:#9a18c9;stroke:#540d6e;stroke-width:0.501829"
       d="M 34.816917,36.959515 H 175.18308 v 6.396394 H 34.816917 Z" />
    <path
       id="rect1-4-40-6"
       style="fill:#9a18c9;stroke:#540d6e;stroke-width:0.5"
       transform="rotate(90)"
       d="m 45.73505,-32.229599 h 86.9259 v 6.500123 h -86.9259 z" />
    <path
       id="rect1-4-4"
       style="fill:#ffd23f;stroke:#806600;stroke-width:0.5"
       d="M 88.523926,45.786285 H 103.57338 V 60.835736 H 88.523926 Z" />
    <path
       id="rect1-4-44"
       style="fill:#ffd23f;stroke:#806600;stroke-width:0.5"
       d="m 106.42661,45.786285 h 15.04945 v 15.049451 h -15.04945 z" />
    <path
       id="rect1-4-44-9"
       style="fill:#ffd23f;stroke:#806600;stroke-width:0.5"
       d="m 124.3293,45.786285 h 15.04945 V 60.835736 H 124.3293 Z" />
    <path
       id="rect1-4-44-8"
       style="fill:#ffd23f;stroke:#806600;stroke-width:0.5"
       d="m 142.23198,45.786285 h 15.04945 v 15.049451 h -15.04945 z" />
    <path
       id="rect1-4-44-1"
       style="fill:#ffd23f;stroke:#806600;stroke-width:0.5"
       d="m 160.13467,45.786285 h 15.04945 v 15.049451 h -15.04945 z" />
    <path
       id="rect1-4-1"
       style="fill:#ffd23f;stroke:#806600;stroke-width:0.5"
       d="M 70.621246,45.786285 H 85.670697 V 60.835736 H 70.621246 Z" />
    <path
       id="rect1-4-8"
       style="fill:#ffd23f;stroke:#806600;stroke-width:0.5"
       d="M 52.718559,45.786285 H 67.76801 V 60.835736 H 52.718559 Z" />
    <path
       id="rect1-6"
       style="fill:#ffd23f;stroke:#806600;stroke-width:0.5"
       d="m 34.815872,63.729855 h 15.049451 v 15.04945 H 34.815872 Z" />
    <path
       id="rect1-6-8"
       style="fill:#ffd23f;stroke:#806600;stroke-width:0.5"
       d="m 88.523926,63.729855 h 15.049454 v 15.04945 H 88.523926 Z" />
    <path
       id="rect1-6-4"
       style="fill:#ffd23f;stroke:#806600;stroke-width:0.5"
       d="m 106.42661,63.729855 h 15.04945 v 15.04945 h -15.04945 z" />
    <path
       id="rect1-6-4-6"
       style="fill:#ffd23f;stroke:#806600;stroke-width:0.5"
       d="m 124.3293,63.729855 h 15.04945 v 15.04945 H 124.3293 Z" />
    <path
       id="rect1-6-4-5"
       style="fill:#ffd23f;stroke:#806600;stroke-width:0.5"
       d="m 142.23198,63.729855 h 15.04945 v 15.04945 h -15.04945 z" />
    <path
       id="rect1-6-4-8"
       style="fill:#ffd23f;stroke:#806600;stroke-width:0.5"
       d="m 160.13467,63.729855 h 15.04945 v 15.04945 h -15.04945 z" />
    <path
       id="rect1-6-1"
       style="fill:#ffd23f;stroke:#806600;stroke-width:0.5"
       d="m 70.621246,63.729855 h 15.049451 v 15.04945 H 70.621246 Z" />
    <path
       id="rect1-6-5"
       style="fill:#ffd23f;stroke:#806600;stroke-width:0.5"
       d="M 52.718559,63.729855 H 67.76801 v 15.04945 H 52.718559 Z" />
    <path
       id="rect1-1"
       style="fill:#ffd23f;stroke:#806600;stroke-width:0.5"
       d="M 34.815872,81.673431 H 49.865323 V 96.722882 H 34.815872 Z" />
    <path
       id="rect1-1-1"
       style="fill:#ffd23f;stroke:#806600;stroke-width:0.5"
       d="M 88.523926,81.673431 H 103.57338 V 96.722882 H 88.523926 Z" />
    <path
       id="rect1-1-4"
       style="fill:#ffd23f;stroke:#806600;stroke-width:0.5"
       d="m 106.42661,81.673431 h 15.04945 v 15.049451 h -15.04945 z" />
    <path
       id="rect1-1-4-2"
       style="fill:#ffd23f;stroke:#806600;stroke-width:0.5"
       d="m 124.3293,81.673431 h 15.04945 V 96.722882 H 124.3293 Z" />
    <path
       id="rect1-1-4-9"
       style="fill:#ffd23f;stroke:#806600;stroke-width:0.5"
       d="m 142.23198,81.673431 h 15.04945 v 15.049451 h -15.04945 z" />
    <path
       id="rect1-1-4-96"
       style="fill:#ffd23f;stroke:#806600;stroke-width:0.5"
       d="m 160.13467,81.673431 h 15.04945 v 15.049451 h -15.04945 z" />
    <path
       id="rect1-1-5"
       style="fill:#ffd23f;stroke:#806600;stroke-width:0.5"
       d="M 70.621246,81.673431 H 85.670697 V 96.722882 H 70.621246 Z" />
    <path
       id="rect1-1-0"
       style="fill:#ffd23f;stroke:#806600;stroke-width:0.5"
       d="M 52.718559,81.673431 H 67.76801 V 96.722882 H 52.718559 Z" />
    <path
       style="font-weight:bold;font-size:4.5861px;font-family:'Source Sans Pro';-inkscape-font-specification:'Source Sans Pro, Bold';fill:#f3fcf0;stroke-width:0.5"
       d="m 42.3406,41.668833 c 0.632881,0 1.054803,-0.531987 1.054803,-1.522585 0,-0.990598 -0.421922,-1.499655 -1.054803,-1.499655 -0.632882,0 -1.054803,0.504471 -1.054803,1.499655 0,0.990598 0.421921,1.522585 1.054803,1.522585 z m 0,-0.545746 c -0.215547,0 -0.385233,-0.192616 -0.385233,-0.976839 0,-0.788809 0.169686,-0.949323 0.385233,-0.949323 0.21096,0 0.385232,0.160514 0.385232,0.949323 0,0.784223 -0.174272,0.976839 -0.385232,0.976839 z"
       id="text6"
       aria-label="0" />
    <path
       style="font-weight:bold;font-size:4.5861px;font-family:'Source Sans Pro';-inkscape-font-specification:'Source Sans Pro, Bold';fill:#f3fcf0;stroke-width:0.5"
       d="m 59.300842,41.6138 h 1.884887 v -0.573262 h -0.54116 v -2.338912 h -0.522815 c -0.206375,0.132997 -0.417335,0.210961 -0.733776,0.27058 v 0.440266 h 0.545746 v 1.628066 h -0.632882 z"
       id="text7"
       aria-label="1" />
    <path
       style="font-weight:bold;font-size:4.5861px;font-family:'Source Sans Pro';-inkscape-font-specification:'Source Sans Pro, Bold';fill:#f3fcf0;stroke-width:0.5"
       d="m 77.12098,41.641315 h 2.068331 v -0.596193 h -0.62371 c -0.132997,0 -0.334785,0.01835 -0.486126,0.0321 0.490712,-0.476954 0.967667,-0.949323 0.967667,-1.472138 0,-0.559504 -0.398991,-0.930978 -0.97684,-0.930978 -0.412749,0 -0.683329,0.160513 -0.967667,0.48154 l 0.366888,0.366888 c 0.142169,-0.151341 0.302683,-0.288924 0.504471,-0.288924 0.243064,0 0.394405,0.142169 0.394405,0.417335 0,0.403577 -0.531988,0.921806 -1.247419,1.554688 z"
       id="text8"
       aria-label="2" />
    <path
       style="font-weight:bold;font-size:4.5861px;font-family:'Source Sans Pro';-inkscape-font-specification:'Source Sans Pro, Bold';fill:#f3fcf0;stroke-width:0.5"
       d="m 96.01196,41.668833 c 0.591607,0 1.096078,-0.302682 1.096078,-0.848428 0,-0.37606 -0.238477,-0.609952 -0.573262,-0.70626 v -0.01834 c 0.311855,-0.132997 0.48154,-0.348544 0.48154,-0.642054 0,-0.518229 -0.403576,-0.807154 -1.0227,-0.807154 -0.35313,0 -0.651226,0.142169 -0.921806,0.37606 l 0.357716,0.431094 c 0.178858,-0.160514 0.330199,-0.24765 0.531987,-0.24765 0.220133,0 0.343958,0.105481 0.343958,0.302683 0,0.220133 -0.160514,0.371474 -0.669571,0.371474 v 0.499885 c 0.62371,0 0.761293,0.146755 0.761293,0.389819 0,0.21096 -0.178858,0.325613 -0.45861,0.325613 -0.229305,0 -0.444852,-0.119239 -0.62371,-0.288925 l -0.325613,0.449438 c 0.215547,0.24765 0.550332,0.412749 1.0227,0.412749 z"
       id="text9"
       aria-label="3" />
    <path
       style="font-weight:bold;font-size:4.5861px;font-family:'Source Sans Pro';-inkscape-font-specification:'Source Sans Pro, Bold';fill:#f3fcf0;stroke-width:0.5"
       d="m 113.50419,40.393897 0.34396,-0.591606 c 0.0825,-0.169686 0.1651,-0.334786 0.23848,-0.504472 h 0.0183 c -0.009,0.192617 -0.0229,0.476955 -0.0229,0.664985 v 0.431093 z m 0.57785,1.219903 h 0.6604 v -0.678743 h 0.3302 v -0.54116 h -0.3302 v -1.692271 h -0.87595 l -1.03646,1.738132 v 0.495299 h 1.25201 z"
       id="text10"
       aria-label="4" />
    <path
       style="font-weight:bold;font-size:4.5861px;font-family:'Source Sans Pro';-inkscape-font-specification:'Source Sans Pro, Bold';fill:#f3fcf0;stroke-width:0.5"
       d="m 131.83568,41.641314 c 0.57326,0 1.07773,-0.371474 1.07773,-1.0227 0,-0.614538 -0.4265,-0.898876 -0.93098,-0.898876 -0.11006,0 -0.20178,0.01376 -0.30726,0.05962 l 0.0413,-0.509057 h 1.06398 v -0.596193 h -1.67393 l -0.078,1.481311 0.31185,0.201788 c 0.17427,-0.110066 0.25682,-0.146755 0.42192,-0.146755 0.25682,0 0.44027,0.151341 0.44027,0.426507 0,0.284338 -0.18345,0.431094 -0.47237,0.431094 -0.23848,0 -0.44027,-0.123825 -0.61454,-0.284339 l -0.32102,0.444852 c 0.23389,0.233891 0.56409,0.412749 1.04104,0.412749 z"
       id="text11"
       aria-label="5" />
    <path
       style="font-weight:bold;font-size:4.5861px;font-family:'Source Sans Pro';-inkscape-font-specification:'Source Sans Pro, Bold';fill:#f3fcf0;stroke-width:0.5"
       d="m 149.79109,40.288417 c 0.20638,0 0.36689,0.100894 0.36689,0.398991 0,0.321027 -0.1651,0.449438 -0.35313,0.449438 -0.18344,0 -0.36689,-0.128411 -0.42651,-0.573263 0.10548,-0.192616 0.266,-0.275166 0.41275,-0.275166 z m 0.0321,1.380416 c 0.53198,0 0.98142,-0.366888 0.98142,-0.981425 0,-0.619124 -0.37606,-0.898876 -0.87136,-0.898876 -0.17427,0 -0.42192,0.110067 -0.57326,0.302683 0.0275,-0.651226 0.27058,-0.871359 0.58243,-0.871359 0.1651,0 0.34855,0.100894 0.44486,0.206374 l 0.37606,-0.421921 c -0.18803,-0.18803 -0.47696,-0.357716 -0.87136,-0.357716 -0.61454,0 -1.18322,0.495299 -1.18322,1.573033 0,1.031872 0.55034,1.449207 1.11443,1.449207 z"
       id="text12"
       aria-label="6" />
    <path
       style="font-weight:bold;font-size:4.5861px;font-family:'Source Sans Pro';-inkscape-font-specification:'Source Sans Pro, Bold';fill:#f3fcf0;stroke-width:0.5"
       d="m 167.11365,41.6138 h 0.71084 c 0.055,-1.132767 0.1651,-1.655582 0.85761,-2.471908 v -0.440266 h -2.04541 v 0.596193 h 1.2887 c -0.56868,0.770465 -0.76129,1.362072 -0.81174,2.315981 z"
       id="text13"
       aria-label="7" />
    <path
       style="font-weight:bold;font-size:4.5861px;font-family:'Source Sans Pro';-inkscape-font-specification:'Source Sans Pro, Bold';fill:#f3fcf0;stroke-width:0.5"
       d="m 29.059794,54.822131 c 0.632882,0 1.054803,-0.531988 1.054803,-1.522586 0,-0.990597 -0.421921,-1.499654 -1.054803,-1.499654 -0.632882,0 -1.054803,0.504471 -1.054803,1.499654 0,0.990598 0.421921,1.522586 1.054803,1.522586 z m 0,-0.545746 c -0.215547,0 -0.385232,-0.192616 -0.385232,-0.97684 0,-0.788809 0.169685,-0.949322 0.385232,-0.949322 0.210961,0 0.385232,0.160513 0.385232,0.949322 0,0.784224 -0.174271,0.97684 -0.385232,0.97684 z"
       id="text14"
       aria-label="0" />
    <path
       style="font-weight:bold;font-size:4.5861px;font-family:'Source Sans Pro';-inkscape-font-specification:'Source Sans Pro, Bold';fill:#f3fcf0;stroke-width:0.5"
       d="m 28.103593,72.71067 h 1.884887 v -0.573262 h -0.541159 v -2.338911 h -0.522816 c -0.206374,0.132997 -0.417335,0.210961 -0.733776,0.27058 v 0.440265 h 0.545746 v 1.628066 h -0.632882 z"
       id="text15"
       aria-label="1" />
    <path
       style="font-weight:bold;font-size:4.5861px;font-family:'Source Sans Pro';-inkscape-font-specification:'Source Sans Pro, Bold';fill:#f3fcf0;stroke-width:0.5"
       d="m 28.027922,90.681763 h 2.068331 V 90.08557 h -0.623709 c -0.132997,0 -0.334786,0.01834 -0.486127,0.0321 0.490713,-0.476954 0.967667,-0.949322 0.967667,-1.472138 0,-0.559504 -0.398991,-0.930978 -0.976839,-0.930978 -0.412749,0 -0.683329,0.160513 -0.967667,0.48154 l 0.366888,0.366888 c 0.142169,-0.151341 0.302682,-0.288924 0.504471,-0.288924 0.243063,0 0.394404,0.142169 0.394404,0.417335 0,0.403577 -0.531987,0.921806 -1.247419,1.554688 z"
       id="text16"
       aria-label="2" />
    <path
       style="font-weight:bold;font-size:4.5861px;font-family:'Source Sans Pro';-inkscape-font-specification:'Source Sans Pro, Bold';fill:#f3fcf0;stroke-width:0.5"
       d="m 29.013933,108.65285 c 0.591607,0 1.096078,-0.30268 1.096078,-0.84843 0,-0.37606 -0.238478,-0.60995 -0.573263,-0.70626 v -0.0183 c 0.311855,-0.133 0.481541,-0.34855 0.481541,-0.64206 0,-0.51823 -0.403577,-0.80715 -1.022701,-0.80715 -0.35313,0 -0.651226,0.14217 -0.921806,0.37606 l 0.357716,0.43109 c 0.178858,-0.16051 0.330199,-0.24765 0.531987,-0.24765 0.220133,0 0.343958,0.10548 0.343958,0.30269 0,0.22013 -0.160514,0.37147 -0.669571,0.37147 v 0.49989 c 0.62371,0 0.761293,0.14675 0.761293,0.38981 0,0.21096 -0.178858,0.32562 -0.45861,0.32562 -0.229305,0 -0.444852,-0.11924 -0.62371,-0.28893 l -0.325613,0.44944 c 0.215547,0.24765 0.550332,0.41275 1.022701,0.41275 z"
       id="text17"
       aria-label="3" />
    <path
       style="font-weight:bold;font-size:4.5861px;font-family:'Source Sans Pro';-inkscape-font-specification:'Source Sans Pro, Bold';fill:#f3fcf0;stroke-width:0.5"
       d="m 28.630993,125.32149 0.343957,-0.59161 c 0.08255,-0.16969 0.1651,-0.33479 0.238478,-0.50447 h 0.01834 c -0.0092,0.19262 -0.02293,0.47695 -0.02293,0.66498 v 0.4311 z m 0.577849,1.2199 h 0.660398 v -0.67874 h 0.330199 v -0.54116 H 29.86924 v -1.69227 h -0.875945 l -1.036459,1.73813 v 0.4953 h 1.252006 z"
       id="text18"
       aria-label="4" />
    <path
       style="font-weight:bold;font-size:5.64444px;font-family:'Source Sans Pro';-inkscape-font-specification:'Source Sans Pro, Bold';fill:#504416;stroke-width:0.5"
       d="m 40.33118,52.659076 c 0,-0.395111 0.197555,-0.553155 0.428977,-0.553155 0.225778,0 0.451556,0.158044 0.530578,0.7112 -0.135467,0.237066 -0.333022,0.333022 -0.513644,0.333022 -0.254,0 -0.445911,-0.124178 -0.445911,-0.491067 z m 0.321733,2.511776 c 0.756355,0 1.456266,-0.609599 1.456266,-1.936043 0,-1.269999 -0.677333,-1.783643 -1.371599,-1.783643 -0.654755,0 -1.207911,0.4572 -1.207911,1.20791 0,0.762 0.462844,1.106311 1.078088,1.106311 0.208845,0 0.513645,-0.135467 0.699911,-0.372533 -0.03387,0.80151 -0.327377,1.072443 -0.716844,1.072443 -0.2032,0 -0.428977,-0.118533 -0.547511,-0.254 l -0.462844,0.519289 c 0.231422,0.237066 0.587022,0.440266 1.072444,0.440266 z m 3.251195,-1.698976 c 0.254,0 0.451555,0.124177 0.451555,0.491066 0,0.395111 -0.203199,0.553155 -0.434622,0.553155 -0.225777,0 -0.451555,-0.158044 -0.524932,-0.705555 0.129822,-0.237066 0.327377,-0.338666 0.507999,-0.338666 z m 0.03951,1.698976 c 0.654755,0 1.20791,-0.451555 1.20791,-1.20791 0,-0.761999 -0.462844,-1.10631 -1.072443,-1.10631 -0.214489,0 -0.519289,0.135466 -0.705555,0.372533 0.03387,-0.801511 0.333022,-1.072444 0.716844,-1.072444 0.2032,0 0.428977,0.124178 0.54751,0.254 l 0.462844,-0.519289 c -0.231422,-0.231422 -0.587021,-0.440266 -1.072443,-0.440266 -0.756355,0 -1.456266,0.6096 -1.456266,1.936043 0,1.269999 0.677333,1.783643 1.371599,1.783643 z"
       id="text19"
       aria-label="96" />
    <path
       style="font-weight:bold;font-size:5.64444px;font-family:'Source Sans Pro';-inkscape-font-specification:'Source Sans Pro, Bold';fill:#504416;stroke-width:0.5"
       d="m 58.064534,55.103119 h 0.874888 c 0.06773,-1.394177 0.2032,-2.037643 1.05551,-3.042353 v -0.541867 h -2.51742 v 0.733778 H 59.0636 c -0.699911,0.948266 -0.936978,1.676398 -0.999066,2.850442 z m 3.663239,0.06773 c 0.767644,0 1.281288,-0.428977 1.281288,-0.999066 0,-0.474133 -0.276578,-0.75071 -0.620889,-0.936977 v -0.02258 c 0.248356,-0.163688 0.468489,-0.434621 0.468489,-0.773288 0,-0.598311 -0.440266,-0.987777 -1.100666,-0.987777 -0.677333,0 -1.162755,0.383822 -1.162755,0.999066 0,0.372533 0.197556,0.637822 0.479778,0.846666 v 0.02258 c -0.338667,0.180622 -0.603955,0.440266 -0.603955,0.869244 0,0.581377 0.536222,0.982132 1.25871,0.982132 z m 0.220133,-2.167465 c -0.3556,-0.141111 -0.587022,-0.276577 -0.587022,-0.553155 0,-0.265289 0.169334,-0.395111 0.372533,-0.395111 0.259645,0 0.412045,0.174978 0.412045,0.445911 0,0.174978 -0.06773,0.338666 -0.197556,0.502355 z m -0.2032,1.56351 c -0.282222,0 -0.524933,-0.174978 -0.524933,-0.479777 0,-0.208845 0.107245,-0.4064 0.248356,-0.541867 0.440266,0.186267 0.728132,0.299156 0.728132,0.598311 0,0.293511 -0.197555,0.423333 -0.451555,0.423333 z"
       id="text19-0"
       aria-label="78" />
    <path
       style="font-weight:bold;font-size:5.64444px;font-family:'Source Sans Pro';-inkscape-font-specification:'Source Sans Pro, Bold';fill:#504416;stroke-width:0.5"
       d="m 76.178889,53.601698 0.423333,-0.728133 c 0.1016,-0.208844 0.203199,-0.412044 0.293511,-0.620888 h 0.02258 c -0.01129,0.237066 -0.02822,0.587021 -0.02822,0.818443 v 0.530578 z m 0.711199,1.501421 h 0.812799 v -0.835377 h 0.4064 v -0.666044 h -0.4064 v -2.082799 h -1.078088 l -1.275643,2.139243 v 0.6096 h 1.540932 z m 1.732841,0 h 2.319865 V 54.397564 H 80.27675 v -2.878665 h -0.643466 c -0.254,0.163689 -0.513644,0.259645 -0.903111,0.333022 v 0.541867 h 0.671689 v 2.003776 h -0.778933 z"
       id="text19-08"
       aria-label="41" />
    <path
       style="font-weight:bold;font-size:5.64444px;font-family:'Source Sans Pro';-inkscape-font-specification:'Source Sans Pro, Bold';fill:#504416;stroke-width:0.5"
       d="m 94.476677,55.170852 c 0.728133,0 1.349022,-0.372533 1.349022,-1.044221 0,-0.462844 -0.293511,-0.750711 -0.705556,-0.869244 v -0.02258 c 0.383822,-0.163689 0.592667,-0.428977 0.592667,-0.790221 0,-0.637822 -0.496711,-0.993422 -1.25871,-0.993422 -0.434622,0 -0.801511,0.174978 -1.134533,0.462844 l 0.440266,0.530578 c 0.220134,-0.197556 0.4064,-0.3048 0.654755,-0.3048 0.270934,0 0.423333,0.129822 0.423333,0.372533 0,0.270933 -0.197555,0.4572 -0.824088,0.4572 v 0.615243 c 0.767644,0 0.936977,0.180623 0.936977,0.479778 0,0.259644 -0.220133,0.400755 -0.564444,0.400755 -0.282222,0 -0.54751,-0.146755 -0.767644,-0.3556 l -0.400755,0.553156 c 0.265289,0.304799 0.677333,0.507999 1.25871,0.507999 z m 3.121373,0 c 0.767644,0 1.281288,-0.428977 1.281288,-0.999066 0,-0.474133 -0.276577,-0.75071 -0.620888,-0.936977 v -0.02258 c 0.248355,-0.163688 0.468488,-0.434621 0.468488,-0.773288 0,-0.598311 -0.440266,-0.987777 -1.100665,-0.987777 -0.677333,0 -1.162755,0.383822 -1.162755,0.999066 0,0.372533 0.197555,0.637822 0.479777,0.846666 v 0.02258 c -0.338666,0.180622 -0.603955,0.440266 -0.603955,0.869244 0,0.581377 0.536222,0.982132 1.25871,0.982132 z m 0.220134,-2.167465 c -0.3556,-0.141111 -0.587022,-0.276577 -0.587022,-0.553155 0,-0.265289 0.169333,-0.395111 0.372533,-0.395111 0.259644,0 0.412044,0.174978 0.412044,0.445911 0,0.174978 -0.06773,0.338666 -0.197555,0.502355 z m -0.2032,1.56351 c -0.282222,0 -0.524933,-0.174978 -0.524933,-0.479777 0,-0.208845 0.107244,-0.4064 0.248355,-0.541867 0.440266,0.186267 0.728133,0.299156 0.728133,0.598311 0,0.293511 -0.197556,0.423333 -0.451555,0.423333 z"
       id="text19-03"
       aria-label="38" />
    <path
       style="font-weight:bold;font-size:5.64444px;font-family:'Source Sans Pro';-inkscape-font-specification:'Source Sans Pro, Bold';fill:#504416;stroke-width:0.5"
       d="m 112.41605,55.170852 c 0.72814,0 1.34903,-0.372533 1.34903,-1.044221 0,-0.462844 -0.29352,-0.750711 -0.70556,-0.869244 v -0.02258 c 0.38382,-0.163689 0.59267,-0.428977 0.59267,-0.790221 0,-0.637822 -0.49671,-0.993422 -1.25871,-0.993422 -0.43463,0 -0.80151,0.174978 -1.13454,0.462844 l 0.44027,0.530578 c 0.22013,-0.197556 0.4064,-0.3048 0.65476,-0.3048 0.27093,0 0.42333,0.129822 0.42333,0.372533 0,0.270933 -0.19756,0.4572 -0.82409,0.4572 v 0.615243 c 0.76764,0 0.93698,0.180623 0.93698,0.479778 0,0.259644 -0.22014,0.400755 -0.56445,0.400755 -0.28222,0 -0.54751,-0.146755 -0.76764,-0.3556 l -0.40076,0.553156 c 0.26529,0.304799 0.67734,0.507999 1.25871,0.507999 z m 2.00942,-0.06773 h 2.31987 v -0.705555 h -0.66605 v -2.878665 h -0.64346 c -0.254,0.163689 -0.51365,0.259645 -0.90311,0.333022 v 0.541867 h 0.67169 v 2.003776 h -0.77894 z"
       id="text19-1"
       aria-label="31" />
    <path
       style="font-weight:bold;font-size:5.64444px;font-family:'Source Sans Pro';-inkscape-font-specification:'Source Sans Pro, Bold';fill:#504416;stroke-width:0.5"
       d="m 129.10237,55.103119 h 2.54564 v -0.733777 h -0.76764 c -0.16369,0 -0.41205,0.02258 -0.59831,0.03951 0.60395,-0.587022 1.19097,-1.168399 1.19097,-1.811866 0,-0.688621 -0.49106,-1.145821 -1.20226,-1.145821 -0.508,0 -0.84102,0.197556 -1.19098,0.592666 l 0.45156,0.451556 c 0.17497,-0.186267 0.37253,-0.3556 0.62088,-0.3556 0.29916,0 0.48543,0.174977 0.48543,0.513644 0,0.496711 -0.65476,1.134532 -1.53529,1.913465 z m 4.19946,0.06773 c 0.70555,0 1.32644,-0.457199 1.32644,-1.25871 0,-0.756355 -0.52493,-1.10631 -1.14582,-1.10631 -0.13546,0 -0.24835,0.01693 -0.37818,0.07338 l 0.0508,-0.626532 h 1.30951 v -0.733778 h -2.06022 l -0.0959,1.823155 0.38382,0.248355 c 0.21449,-0.135467 0.31609,-0.180622 0.51929,-0.180622 0.31609,0 0.54186,0.186266 0.54186,0.524933 0,0.349955 -0.22577,0.530577 -0.58137,0.530577 -0.29351,0 -0.54187,-0.1524 -0.75636,-0.349955 l -0.39511,0.547511 c 0.28787,0.287866 0.69427,0.507999 1.28129,0.507999 z"
       id="text19-6"
       aria-label="25" />
    <path
       style="font-weight:bold;font-size:5.64444px;font-family:'Source Sans Pro';-inkscape-font-specification:'Source Sans Pro, Bold';fill:#504416;stroke-width:0.5"
       d="m 148.32302,53.471876 c 0.254,0 0.45155,0.124177 0.45155,0.491066 0,0.395111 -0.2032,0.553155 -0.43462,0.553155 -0.22578,0 -0.45155,-0.158044 -0.52493,-0.705555 0.12982,-0.237066 0.32738,-0.338666 0.508,-0.338666 z m 0.0395,1.698976 c 0.65475,0 1.20791,-0.451555 1.20791,-1.20791 0,-0.761999 -0.46285,-1.10631 -1.07244,-1.10631 -0.21449,0 -0.51929,0.135466 -0.70556,0.372533 0.0339,-0.801511 0.33302,-1.072444 0.71684,-1.072444 0.2032,0 0.42898,0.124178 0.54751,0.254 l 0.46285,-0.519289 c -0.23142,-0.231422 -0.58702,-0.440266 -1.07244,-0.440266 -0.75636,0 -1.45627,0.6096 -1.45627,1.936043 0,1.269999 0.67733,1.783643 1.3716,1.783643 z m 1.61431,-0.06773 h 2.54564 v -0.733777 h -0.76765 c -0.16368,0 -0.41204,0.02258 -0.59831,0.03951 0.60396,-0.587022 1.19098,-1.168399 1.19098,-1.811866 0,-0.688621 -0.49107,-1.145821 -1.20226,-1.145821 -0.508,0 -0.84103,0.197556 -1.19098,0.592666 l 0.45155,0.451556 c 0.17498,-0.186267 0.37254,-0.3556 0.62089,-0.3556 0.29916,0 0.48542,0.174977 0.48542,0.513644 0,0.496711 -0.65475,1.134532 -1.53528,1.913465 z"
       id="text19-2"
       aria-label="62" />
    <path
       style="font-weight:bold;font-size:5.64444px;font-family:'Source Sans Pro';-inkscape-font-specification:'Source Sans Pro, Bold';fill:#504416;stroke-width:0.5"
       d="m 164.95008,55.103119 h 2.31986 v -0.705555 h -0.66604 v -2.878665 h -0.64347 c -0.254,0.163689 -0.51364,0.259645 -0.90311,0.333022 v 0.541867 h 0.67169 v 2.003776 h -0.77893 z m 4.12043,0.06773 c 0.77894,0 1.29823,-0.654755 1.29823,-1.873954 0,-1.219199 -0.51929,-1.845732 -1.29823,-1.845732 -0.77893,0 -1.29822,0.620889 -1.29822,1.845732 0,1.219199 0.51929,1.873954 1.29822,1.873954 z m 0,-0.671688 c -0.26528,0 -0.47413,-0.237067 -0.47413,-1.202266 0,-0.970844 0.20885,-1.168399 0.47413,-1.168399 0.25965,0 0.47414,0.197555 0.47414,1.168399 0,0.965199 -0.21449,1.202266 -0.47414,1.202266 z"
       id="text19-8"
       aria-label="10" />
    <path
       style="font-weight:bold;font-size:5.64444px;font-family:'Source Sans Pro';-inkscape-font-specification:'Source Sans Pro, Bold';fill:#504416;stroke-width:0.5"
       d="m 166.11,73.114425 c 0.72813,0 1.34902,-0.372533 1.34902,-1.044221 0,-0.462844 -0.29351,-0.750711 -0.70555,-0.869244 v -0.02258 c 0.38382,-0.163689 0.59266,-0.428977 0.59266,-0.790221 0,-0.637822 -0.49671,-0.993422 -1.25871,-0.993422 -0.43462,0 -0.80151,0.174978 -1.13453,0.462844 l 0.44027,0.530578 c 0.22013,-0.197556 0.4064,-0.3048 0.65475,-0.3048 0.27094,0 0.42334,0.129822 0.42334,0.372533 0,0.270933 -0.19756,0.4572 -0.82409,0.4572 v 0.615243 c 0.76764,0 0.93697,0.180623 0.93697,0.479778 0,0.259644 -0.22013,0.400755 -0.56444,0.400755 -0.28222,0 -0.54751,-0.146755 -0.76764,-0.3556 l -0.40076,0.553156 c 0.26529,0.304799 0.67733,0.507999 1.25871,0.507999 z m 3.03106,0 c 0.70556,0 1.32645,-0.457199 1.32645,-1.25871 0,-0.756355 -0.52494,-1.10631 -1.14582,-1.10631 -0.13547,0 -0.24836,0.01693 -0.37818,0.07338 l 0.0508,-0.626532 h 1.30951 v -0.733778 h -2.06022 l -0.096,1.823155 0.38382,0.248355 c 0.21449,-0.135467 0.31609,-0.180622 0.51929,-0.180622 0.31609,0 0.54187,0.186266 0.54187,0.524933 0,0.349955 -0.22578,0.530577 -0.58138,0.530577 -0.29351,0 -0.54187,-0.1524 -0.75635,-0.349955 l -0.39511,0.547511 c 0.28786,0.287866 0.69426,0.507999 1.28128,0.507999 z"
       id="text19-9"
       aria-label="35" />
    <path
       style="font-weight:bold;font-size:5.64444px;font-family:'Source Sans Pro';-inkscape-font-specification:'Source Sans Pro, Bold';fill:#504416;stroke-width:0.5"
       d="m 148.32302,71.415449 c 0.254,0 0.45155,0.124177 0.45155,0.491066 0,0.395111 -0.2032,0.553155 -0.43462,0.553155 -0.22578,0 -0.45155,-0.158044 -0.52493,-0.705555 0.12982,-0.237066 0.32738,-0.338666 0.508,-0.338666 z m 0.0395,1.698976 c 0.65475,0 1.20791,-0.451555 1.20791,-1.20791 0,-0.761999 -0.46285,-1.10631 -1.07244,-1.10631 -0.21449,0 -0.51929,0.135466 -0.70556,0.372533 0.0339,-0.801511 0.33302,-1.072444 0.71684,-1.072444 0.2032,0 0.42898,0.124178 0.54751,0.254 l 0.46285,-0.519289 c -0.23142,-0.231422 -0.58702,-0.440266 -1.07244,-0.440266 -0.75636,0 -1.45627,0.6096 -1.45627,1.936043 0,1.269999 0.67733,1.783643 1.3716,1.783643 z m 1.61431,-0.06773 h 2.54564 v -0.733777 h -0.76765 c -0.16368,0 -0.41204,0.02258 -0.59831,0.03951 0.60396,-0.587022 1.19098,-1.168399 1.19098,-1.811866 0,-0.688621 -0.49107,-1.145821 -1.20226,-1.145821 -0.508,0 -0.84103,0.197556 -1.19098,0.592666 l 0.45155,0.451556 c 0.17498,-0.186267 0.37254,-0.3556 0.62089,-0.3556 0.29916,0 0.48542,0.174977 0.48542,0.513644 0,0.496711 -0.65475,1.134532 -1.53528,1.913465 z"
       id="text19-61"
       aria-label="62" />
    <path
       style="font-weight:bold;font-size:5.64444px;font-family:'Source Sans Pro';-inkscape-font-specification:'Source Sans Pro, Bold';fill:#504416;stroke-width:0.5"
       d="m 130.44574,71.415449 c 0.254,0 0.45156,0.124177 0.45156,0.491066 0,0.395111 -0.2032,0.553155 -0.43462,0.553155 -0.22578,0 -0.45156,-0.158044 -0.52494,-0.705555 0.12983,-0.237066 0.32738,-0.338666 0.508,-0.338666 z m 0.0395,1.698976 c 0.65476,0 1.20792,-0.451555 1.20792,-1.20791 0,-0.761999 -0.46285,-1.10631 -1.07245,-1.10631 -0.21449,0 -0.51929,0.135466 -0.70555,0.372533 0.0339,-0.801511 0.33302,-1.072444 0.71684,-1.072444 0.2032,0 0.42898,0.124178 0.54751,0.254 l 0.46285,-0.519289 c -0.23143,-0.231422 -0.58703,-0.440266 -1.07245,-0.440266 -0.75635,0 -1.45626,0.6096 -1.45626,1.936043 0,1.269999 0.67733,1.783643 1.37159,1.783643 z m 1.78929,-0.06773 h 2.31987 v -0.705555 h -0.66605 v -2.878665 h -0.64347 c -0.25399,0.163689 -0.51364,0.259645 -0.90311,0.333022 v 0.541867 h 0.67169 v 2.003776 h -0.77893 z"
       id="text19-99"
       aria-label="61" />
    <path
       style="font-weight:bold;font-size:5.64444px;font-family:'Source Sans Pro';-inkscape-font-specification:'Source Sans Pro, Bold';fill:#504416;stroke-width:0.5"
       d="m 111.95321,71.545271 0.42333,-0.728133 c 0.1016,-0.208844 0.2032,-0.412044 0.29352,-0.620888 h 0.0226 c -0.0113,0.237066 -0.0282,0.587021 -0.0282,0.818443 v 0.530578 z m 0.7112,1.501421 h 0.8128 v -0.835377 h 0.4064 v -0.666044 h -0.4064 v -2.082799 h -1.07809 l -1.27564,2.139243 v 0.6096 h 1.54093 z m 2.1844,0 h 0.87488 c 0.0677,-1.394177 0.2032,-2.037643 1.05552,-3.042353 v -0.541867 h -2.51743 v 0.733778 h 1.58609 c -0.69991,0.948266 -0.93697,1.676398 -0.99906,2.850442 z"
       id="text19-7"
       aria-label="47" />
    <path
       style="font-weight:bold;font-size:5.64444px;font-family:'Source Sans Pro';-inkscape-font-specification:'Source Sans Pro, Bold';fill:#504416;stroke-width:0.5"
       d="m 94.476677,73.114425 c 0.728133,0 1.349022,-0.372533 1.349022,-1.044221 0,-0.462844 -0.293511,-0.750711 -0.705556,-0.869244 v -0.02258 c 0.383822,-0.163689 0.592667,-0.428977 0.592667,-0.790221 0,-0.637822 -0.496711,-0.993422 -1.25871,-0.993422 -0.434622,0 -0.801511,0.174978 -1.134533,0.462844 l 0.440266,0.530578 c 0.220134,-0.197556 0.4064,-0.3048 0.654755,-0.3048 0.270934,0 0.423333,0.129822 0.423333,0.372533 0,0.270933 -0.197555,0.4572 -0.824088,0.4572 v 0.615243 c 0.767644,0 0.936977,0.180623 0.936977,0.479778 0,0.259644 -0.220133,0.400755 -0.564444,0.400755 -0.282222,0 -0.54751,-0.146755 -0.767644,-0.3556 l -0.400755,0.553156 c 0.265289,0.304799 0.677333,0.507999 1.25871,0.507999 z m 3.121373,0 c 0.767644,0 1.281288,-0.428977 1.281288,-0.999066 0,-0.474133 -0.276577,-0.75071 -0.620888,-0.936977 v -0.02258 c 0.248355,-0.163688 0.468488,-0.434621 0.468488,-0.773288 0,-0.598311 -0.440266,-0.987777 -1.100665,-0.987777 -0.677333,0 -1.162755,0.383822 -1.162755,0.999066 0,0.372533 0.197555,0.637822 0.479777,0.846666 v 0.02258 c -0.338666,0.180622 -0.603955,0.440266 -0.603955,0.869244 0,0.581377 0.536222,0.982132 1.25871,0.982132 z m 0.220134,-2.167465 c -0.3556,-0.141111 -0.587022,-0.276577 -0.587022,-0.553155 0,-0.265289 0.169333,-0.395111 0.372533,-0.395111 0.259644,0 0.412044,0.174978 0.412044,0.445911 0,0.174978 -0.06773,0.338666 -0.197555,0.502355 z m -0.2032,1.56351 c -0.282222,0 -0.524933,-0.174978 -0.524933,-0.479777 0,-0.208845 0.107244,-0.4064 0.248355,-0.541867 0.440266,0.186267 0.728133,0.299156 0.728133,0.598311 0,0.293511 -0.197556,0.423333 -0.451555,0.423333 z"
       id="text19-4"
       aria-label="38" />
    <path
       style="font-weight:bold;font-size:5.64444px;font-family:'Source Sans Pro';-inkscape-font-specification:'Source Sans Pro, Bold';fill:#504416;stroke-width:0.5"
       d="m 76.706639,71.415449 c 0.253999,0 0.451555,0.124177 0.451555,0.491066 0,0.395111 -0.2032,0.553155 -0.434622,0.553155 -0.225778,0 -0.451555,-0.158044 -0.524933,-0.705555 0.129822,-0.237066 0.327378,-0.338666 0.508,-0.338666 z m 0.03951,1.698976 c 0.654755,0 1.20791,-0.451555 1.20791,-1.20791 0,-0.761999 -0.462844,-1.10631 -1.072444,-1.10631 -0.214488,0 -0.519288,0.135466 -0.705555,0.372533 0.03387,-0.801511 0.333022,-1.072444 0.716844,-1.072444 0.2032,0 0.428978,0.124178 0.547511,0.254 l 0.462844,-0.519289 c -0.231422,-0.231422 -0.587022,-0.440266 -1.072444,-0.440266 -0.756355,0 -1.456265,0.6096 -1.456265,1.936043 0,1.269999 0.677333,1.783643 1.371599,1.783643 z m 2.39324,-2.511776 c 0,-0.395111 0.197555,-0.553155 0.428977,-0.553155 0.225778,0 0.451556,0.158044 0.530578,0.7112 -0.135467,0.237066 -0.333022,0.333022 -0.513644,0.333022 -0.254,0 -0.445911,-0.124178 -0.445911,-0.491067 z m 0.321733,2.511776 c 0.756355,0 1.456266,-0.609599 1.456266,-1.936043 0,-1.269999 -0.677333,-1.783643 -1.371599,-1.783643 -0.654755,0 -1.20791,0.4572 -1.20791,1.20791 0,0.762 0.462844,1.106311 1.078088,1.106311 0.208844,0 0.513644,-0.135467 0.69991,-0.372533 -0.03387,0.80151 -0.327377,1.072443 -0.716844,1.072443 -0.2032,0 -0.428977,-0.118533 -0.54751,-0.254 l -0.462845,0.519289 c 0.231423,0.237066 0.587022,0.440266 1.072444,0.440266 z"
       id="text19-96"
       aria-label="69" />
    <path
       style="font-weight:bold;font-size:5.64444px;font-family:'Source Sans Pro';-inkscape-font-specification:'Source Sans Pro, Bold';fill:#504416;stroke-width:0.5"
       d="m 58.053242,73.046692 h 0.874888 c 0.06773,-1.394177 0.2032,-2.037643 1.055511,-3.042353 V 69.462472 H 57.46622 v 0.733778 h 1.586088 c -0.699911,0.948266 -0.936977,1.676398 -0.999066,2.850442 z m 3.668884,0.06773 c 0.778933,0 1.298221,-0.654755 1.298221,-1.873954 0,-1.219199 -0.519288,-1.845732 -1.298221,-1.845732 -0.778933,0 -1.298221,0.620889 -1.298221,1.845732 0,1.219199 0.519288,1.873954 1.298221,1.873954 z m 0,-0.671688 c -0.265289,0 -0.474133,-0.237067 -0.474133,-1.202266 0,-0.970844 0.208844,-1.168399 0.474133,-1.168399 0.259644,0 0.474133,0.197555 0.474133,1.168399 0,0.965199 -0.214489,1.202266 -0.474133,1.202266 z"
       id="text19-20"
       aria-label="70" />
    <path
       style="font-weight:bold;font-size:5.64444px;font-family:'Source Sans Pro';-inkscape-font-specification:'Source Sans Pro, Bold';fill:#504416;stroke-width:0.5"
       d="M 39.653845,73.080559 H 41.97371 V 72.375004 H 41.307666 V 69.496339 H 40.6642 c -0.254,0.163689 -0.513644,0.259645 -0.90311,0.333022 v 0.541866 h 0.671688 v 2.003777 h -0.778933 z m 2.827862,0 h 2.545643 v -0.733777 h -0.767644 c -0.163689,0 -0.412044,0.02258 -0.598311,0.03951 0.603956,-0.587022 1.190977,-1.168399 1.190977,-1.811866 0,-0.688621 -0.491066,-1.145821 -1.202265,-1.145821 -0.508,0 -0.841022,0.197555 -1.190977,0.592666 l 0.451555,0.451555 c 0.174978,-0.186266 0.372533,-0.355599 0.620888,-0.355599 0.299156,0 0.485422,0.174977 0.485422,0.513644 0,0.49671 -0.654755,1.134532 -1.535288,1.913465 z"
       id="text19-28"
       aria-label="12" />
    <path
       style="font-weight:bold;font-size:5.64444px;font-family:'Source Sans Pro';-inkscape-font-specification:'Source Sans Pro, Bold';fill:#504416;stroke-width:0.5"
       d="m 39.552247,90.990265 h 2.545643 v -0.733777 h -0.767644 c -0.163689,0 -0.412044,0.02258 -0.598311,0.03951 0.603955,-0.587022 1.190977,-1.168399 1.190977,-1.811866 0,-0.688621 -0.491066,-1.145821 -1.202266,-1.145821 -0.507999,0 -0.841021,0.197556 -1.190977,0.592666 l 0.451556,0.451556 c 0.174977,-0.186267 0.372533,-0.3556 0.620888,-0.3556 0.299155,0 0.485422,0.174977 0.485422,0.513644 0,0.496711 -0.654755,1.134532 -1.535288,1.913465 z m 4.351861,-1.631243 c 0.254,0 0.451555,0.124177 0.451555,0.491066 0,0.395111 -0.203199,0.553155 -0.434622,0.553155 -0.225777,0 -0.451555,-0.158044 -0.524932,-0.705555 0.129822,-0.237066 0.327377,-0.338666 0.507999,-0.338666 z m 0.03951,1.698976 c 0.654755,0 1.20791,-0.451555 1.20791,-1.20791 0,-0.761999 -0.462844,-1.10631 -1.072443,-1.10631 -0.214489,0 -0.519289,0.135466 -0.705555,0.372533 0.03387,-0.801511 0.333022,-1.072444 0.716844,-1.072444 0.2032,0 0.428977,0.124178 0.54751,0.254 l 0.462844,-0.519289 c -0.231422,-0.231422 -0.587021,-0.440266 -1.072443,-0.440266 -0.756355,0 -1.456266,0.6096 -1.456266,1.936043 0,1.269999 0.677333,1.783643 1.371599,1.783643 z"
       id="text19-91"
       aria-label="26" />
    <path
       style="font-weight:bold;font-size:5.64444px;font-family:'Source Sans Pro';-inkscape-font-specification:'Source Sans Pro, Bold';fill:#504416;stroke-width:0.5"
       d="m 58.750332,89.359022 c 0.254,0 0.451555,0.124177 0.451555,0.491066 0,0.395111 -0.203199,0.553155 -0.434621,0.553155 -0.225778,0 -0.451556,-0.158044 -0.524933,-0.705555 0.129822,-0.237066 0.327377,-0.338666 0.507999,-0.338666 z m 0.03951,1.698976 c 0.654755,0 1.207911,-0.451555 1.207911,-1.20791 0,-0.761999 -0.462845,-1.10631 -1.072444,-1.10631 -0.214489,0 -0.519289,0.135466 -0.705555,0.372533 0.03387,-0.801511 0.333022,-1.072444 0.716844,-1.072444 0.2032,0 0.428977,0.124178 0.54751,0.254 l 0.462845,-0.519289 c -0.231423,-0.231422 -0.587022,-0.440266 -1.072444,-0.440266 -0.756355,0 -1.456266,0.6096 -1.456266,1.936043 0,1.269999 0.677333,1.783643 1.371599,1.783643 z m 2.348085,-1.569154 0.423333,-0.728133 c 0.1016,-0.208844 0.2032,-0.412044 0.293511,-0.620888 h 0.02258 c -0.01129,0.237066 -0.02822,0.587021 -0.02822,0.818443 v 0.530578 z m 0.7112,1.501421 h 0.812799 v -0.835377 h 0.4064 v -0.666044 h -0.4064 v -2.082799 h -1.078088 l -1.275644,2.139243 v 0.6096 h 1.540933 z"
       id="text19-993"
       aria-label="64" />
    <path
       style="font-weight:bold;font-size:5.64444px;font-family:'Source Sans Pro';-inkscape-font-specification:'Source Sans Pro, Bold';fill:#504416;stroke-width:0.5"
       d="m 76.658664,91.057998 c 0.767644,0 1.281288,-0.428977 1.281288,-0.999066 0,-0.474133 -0.276577,-0.75071 -0.620888,-0.936977 v -0.02258 c 0.248355,-0.163688 0.468488,-0.434621 0.468488,-0.773288 0,-0.598311 -0.440266,-0.987777 -1.100666,-0.987777 -0.677332,0 -1.162754,0.383822 -1.162754,0.999066 0,0.372533 0.197555,0.637822 0.479777,0.846666 v 0.02258 c -0.338666,0.180622 -0.603955,0.440266 -0.603955,0.869244 0,0.581377 0.536222,0.982132 1.25871,0.982132 z m 0.220133,-2.167465 c -0.355599,-0.141111 -0.587021,-0.276577 -0.587021,-0.553155 0,-0.265289 0.169333,-0.395111 0.372533,-0.395111 0.259644,0 0.412044,0.174978 0.412044,0.445911 0,0.174978 -0.06773,0.338666 -0.197556,0.502355 z m -0.203199,1.56351 c -0.282222,0 -0.524933,-0.174978 -0.524933,-0.479777 0,-0.208845 0.107244,-0.4064 0.248355,-0.541867 0.440266,0.186267 0.728133,0.299156 0.728133,0.598311 0,0.293511 -0.197556,0.423333 -0.451555,0.423333 z m 2.867373,0.603955 c 0.728133,0 1.349021,-0.372533 1.349021,-1.044221 0,-0.462844 -0.293511,-0.750711 -0.705555,-0.869244 v -0.02258 c 0.383822,-0.163689 0.592666,-0.428977 0.592666,-0.790221 0,-0.637822 -0.496711,-0.993422 -1.25871,-0.993422 -0.434622,0 -0.80151,0.174978 -1.134532,0.462844 l 0.440266,0.530578 c 0.220133,-0.197556 0.4064,-0.3048 0.654755,-0.3048 0.270933,0 0.423333,0.129822 0.423333,0.372533 0,0.270933 -0.197555,0.4572 -0.824088,0.4572 v 0.615243 c 0.767644,0 0.936977,0.180623 0.936977,0.479778 0,0.259644 -0.220133,0.400755 -0.564444,0.400755 -0.282222,0 -0.547511,-0.146755 -0.767644,-0.3556 l -0.400755,0.553156 c 0.265288,0.304799 0.677332,0.507999 1.25871,0.507999 z"
       id="text19-94"
       aria-label="83" />
    <path
       style="font-weight:bold;font-size:5.64444px;font-family:'Source Sans Pro';-inkscape-font-specification:'Source Sans Pro, Bold';fill:#504416;stroke-width:0.5"
       d="m 94.499253,91.057998 c 0.728132,0 1.349021,-0.372533 1.349021,-1.044221 0,-0.462844 -0.293511,-0.750711 -0.705555,-0.869244 v -0.02258 c 0.383822,-0.163689 0.592666,-0.428977 0.592666,-0.790221 0,-0.637822 -0.496711,-0.993422 -1.25871,-0.993422 -0.434622,0 -0.801511,0.174978 -1.134533,0.462844 l 0.440267,0.530578 c 0.220133,-0.197556 0.406399,-0.3048 0.654755,-0.3048 0.270933,0 0.423333,0.129822 0.423333,0.372533 0,0.270933 -0.197556,0.4572 -0.824088,0.4572 v 0.615243 c 0.767643,0 0.936977,0.180623 0.936977,0.479778 0,0.259644 -0.220134,0.400755 -0.564444,0.400755 -0.282222,0 -0.547511,-0.146755 -0.767644,-0.3556 l -0.400755,0.553156 c 0.265288,0.304799 0.677332,0.507999 1.25871,0.507999 z m 3.031062,0 c 0.705555,0 1.326443,-0.457199 1.326443,-1.25871 0,-0.756355 -0.524933,-1.10631 -1.145821,-1.10631 -0.135467,0 -0.248356,0.01693 -0.378178,0.07338 l 0.0508,-0.626532 h 1.30951 v -0.733778 h -2.06022 l -0.09596,1.823155 0.383822,0.248355 c 0.214489,-0.135467 0.316089,-0.180622 0.519289,-0.180622 0.316088,0 0.541866,0.186266 0.541866,0.524933 0,0.349955 -0.225778,0.530577 -0.581377,0.530577 -0.293511,0 -0.541867,-0.1524 -0.756355,-0.349955 l -0.395111,0.547511 c 0.287866,0.287866 0.694266,0.507999 1.281288,0.507999 z"
       id="text19-3"
       aria-label="35" />
    <path
       style="font-weight:bold;font-size:5.64444px;font-family:'Source Sans Pro';-inkscape-font-specification:'Source Sans Pro, Bold';fill:#504416;stroke-width:0.5"
       d="m 111.96731,88.546222 c 0,-0.395111 0.19756,-0.553155 0.42898,-0.553155 0.22578,0 0.45156,0.158044 0.53058,0.7112 -0.13547,0.237066 -0.33302,0.333022 -0.51364,0.333022 -0.254,0 -0.44592,-0.124178 -0.44592,-0.491067 z m 0.32174,2.511776 c 0.75635,0 1.45626,-0.609599 1.45626,-1.936043 0,-1.269999 -0.67733,-1.783643 -1.3716,-1.783643 -0.65475,0 -1.20791,0.4572 -1.20791,1.20791 0,0.762 0.46285,1.106311 1.07809,1.106311 0.20885,0 0.51365,-0.135467 0.69991,-0.372533 -0.0339,0.80151 -0.32737,1.072443 -0.71684,1.072443 -0.2032,0 -0.42898,-0.118533 -0.54751,-0.254 l -0.46285,0.519289 c 0.23143,0.237066 0.58703,0.440266 1.07245,0.440266 z m 1.90217,-0.06773 h 2.54564 v -0.733777 h -0.76764 c -0.16369,0 -0.41204,0.02258 -0.59831,0.03951 0.60396,-0.587022 1.19098,-1.168399 1.19098,-1.811866 0,-0.688621 -0.49107,-1.145821 -1.20227,-1.145821 -0.508,0 -0.84102,0.197556 -1.19098,0.592666 l 0.45156,0.451556 c 0.17498,-0.186267 0.37253,-0.3556 0.62089,-0.3556 0.29915,0 0.48542,0.174977 0.48542,0.513644 0,0.496711 -0.65476,1.134532 -1.53529,1.913465 z"
       id="text19-26"
       aria-label="92" />
    <path
       style="font-weight:bold;font-size:5.64444px;font-family:'Source Sans Pro';-inkscape-font-specification:'Source Sans Pro, Bold';fill:#504416;stroke-width:0.5"
       d="m 130.30745,91.057998 c 0.72813,0 1.34902,-0.372533 1.34902,-1.044221 0,-0.462844 -0.29351,-0.750711 -0.70555,-0.869244 v -0.02258 c 0.38382,-0.163689 0.59266,-0.428977 0.59266,-0.790221 0,-0.637822 -0.49671,-0.993422 -1.25871,-0.993422 -0.43462,0 -0.80151,0.174978 -1.13453,0.462844 l 0.44027,0.530578 c 0.22013,-0.197556 0.4064,-0.3048 0.65475,-0.3048 0.27093,0 0.42333,0.129822 0.42333,0.372533 0,0.270933 -0.19755,0.4572 -0.82408,0.4572 v 0.615243 c 0.76764,0 0.93697,0.180623 0.93697,0.479778 0,0.259644 -0.22013,0.400755 -0.56444,0.400755 -0.28222,0 -0.54751,-0.146755 -0.76765,-0.3556 l -0.40075,0.553156 c 0.26529,0.304799 0.67733,0.507999 1.25871,0.507999 z m 3.00284,0 c 0.72813,0 1.34902,-0.372533 1.34902,-1.044221 0,-0.462844 -0.29351,-0.750711 -0.70555,-0.869244 v -0.02258 c 0.38382,-0.163689 0.59266,-0.428977 0.59266,-0.790221 0,-0.637822 -0.49671,-0.993422 -1.25871,-0.993422 -0.43462,0 -0.80151,0.174978 -1.13453,0.462844 l 0.44027,0.530578 c 0.22013,-0.197556 0.4064,-0.3048 0.65475,-0.3048 0.27093,0 0.42333,0.129822 0.42333,0.372533 0,0.270933 -0.19755,0.4572 -0.82408,0.4572 v 0.615243 c 0.76764,0 0.93697,0.180623 0.93697,0.479778 0,0.259644 -0.22013,0.400755 -0.56444,0.400755 -0.28222,0 -0.54751,-0.146755 -0.76765,-0.3556 l -0.40075,0.553156 c 0.26529,0.304799 0.67733,0.507999 1.25871,0.507999 z"
       id="text19-92"
       aria-label="33" />
    <path
       style="font-weight:bold;font-size:5.64444px;font-family:'Source Sans Pro';-inkscape-font-specification:'Source Sans Pro, Bold';fill:#504416;stroke-width:0.5"
       d="m 147.77551,89.454977 0.42333,-0.728133 c 0.1016,-0.208844 0.2032,-0.412044 0.29351,-0.620888 h 0.0226 c -0.0113,0.237066 -0.0282,0.587022 -0.0282,0.818444 v 0.530577 z m 0.7112,1.501421 h 0.8128 v -0.835377 h 0.4064 v -0.666044 h -0.4064 v -2.082799 h -1.07809 l -1.27565,2.139243 v 0.6096 h 1.54094 z m 2.75448,0.06773 c 0.70556,0 1.32644,-0.457199 1.32644,-1.25871 0,-0.756355 -0.52493,-1.10631 -1.14582,-1.10631 -0.13546,0 -0.24835,0.01693 -0.37817,0.07338 l 0.0508,-0.626533 h 1.30951 v -0.733778 h -2.06022 l -0.096,1.823155 0.38382,0.248355 c 0.21449,-0.135467 0.31609,-0.180622 0.51929,-0.180622 0.31609,0 0.54187,0.186266 0.54187,0.524933 0,0.349955 -0.22578,0.530577 -0.58138,0.530577 -0.29351,0 -0.54187,-0.1524 -0.75636,-0.349955 l -0.39511,0.547511 c 0.28787,0.287866 0.69427,0.507999 1.28129,0.507999 z"
       id="text19-38"
       aria-label="45" />
    <path
       style="font-weight:bold;font-size:5.64444px;font-family:'Source Sans Pro';-inkscape-font-specification:'Source Sans Pro, Bold';fill:#504416;stroke-width:0.5"
       d="m 166.22571,89.359022 c 0.254,0 0.45156,0.124177 0.45156,0.491066 0,0.395111 -0.2032,0.553155 -0.43462,0.553155 -0.22578,0 -0.45156,-0.158044 -0.52494,-0.705555 0.12982,-0.237066 0.32738,-0.338666 0.508,-0.338666 z m 0.0395,1.698976 c 0.65476,0 1.20791,-0.451555 1.20791,-1.20791 0,-0.761999 -0.46284,-1.10631 -1.07244,-1.10631 -0.21449,0 -0.51929,0.135466 -0.70556,0.372533 0.0339,-0.801511 0.33303,-1.072444 0.71685,-1.072444 0.2032,0 0.42898,0.124178 0.54751,0.254 l 0.46284,-0.519289 c -0.23142,-0.231422 -0.58702,-0.440266 -1.07244,-0.440266 -0.75636,0 -1.45627,0.6096 -1.45627,1.936043 0,1.269999 0.67734,1.783643 1.3716,1.783643 z m 1.61431,-0.06773 h 2.54564 v -0.733777 h -0.76764 c -0.16369,0 -0.41204,0.02258 -0.59831,0.03951 0.60395,-0.587022 1.19098,-1.168399 1.19098,-1.811866 0,-0.688621 -0.49107,-1.145821 -1.20227,-1.145821 -0.508,0 -0.84102,0.197556 -1.19098,0.592666 l 0.45156,0.451556 c 0.17498,-0.186267 0.37253,-0.3556 0.62089,-0.3556 0.29915,0 0.48542,0.174977 0.48542,0.513644 0,0.496711 -0.65476,1.134532 -1.53529,1.913465 z"
       id="text19-47"
       aria-label="62" />
    <path
       style="font-weight:bold;font-size:5.64444px;font-family:'Source Sans Pro';-inkscape-font-specification:'Source Sans Pro, Bold';fill:#504416;stroke-width:0.5"
       d="m 164.87105,108.93384 h 2.54564 v -0.73378 h -0.76765 c -0.16368,0 -0.41204,0.0226 -0.59831,0.0395 0.60396,-0.58702 1.19098,-1.1684 1.19098,-1.81186 0,-0.68863 -0.49107,-1.14582 -1.20227,-1.14582 -0.508,0 -0.84102,0.19755 -1.19097,0.59266 l 0.45155,0.45156 c 0.17498,-0.18627 0.37254,-0.3556 0.62089,-0.3556 0.29916,0 0.48542,0.17497 0.48542,0.51364 0,0.49671 -0.65475,1.13453 -1.53528,1.91347 z m 4.35186,-1.63125 c 0.254,0 0.45155,0.12418 0.45155,0.49107 0,0.39511 -0.2032,0.55316 -0.43462,0.55316 -0.22578,0 -0.45156,-0.15805 -0.52493,-0.70556 0.12982,-0.23707 0.32737,-0.33867 0.508,-0.33867 z m 0.0395,1.69898 c 0.65475,0 1.20791,-0.45155 1.20791,-1.20791 0,-0.762 -0.46285,-1.10631 -1.07245,-1.10631 -0.21448,0 -0.51928,0.13547 -0.70555,0.37253 0.0339,-0.80151 0.33302,-1.07244 0.71684,-1.07244 0.2032,0 0.42898,0.12418 0.54751,0.254 l 0.46285,-0.51929 c -0.23142,-0.23142 -0.58702,-0.44026 -1.07245,-0.44026 -0.75635,0 -1.45626,0.60959 -1.45626,1.93604 0,1.27 0.67733,1.78364 1.3716,1.78364 z"
       id="text19-87"
       aria-label="26" />
    <path
       style="font-weight:bold;font-size:5.64444px;font-family:'Source Sans Pro';-inkscape-font-specification:'Source Sans Pro, Bold';fill:#504416;stroke-width:0.5"
       d="m 146.96835,108.93384 h 2.54564 v -0.73378 h -0.76764 c -0.16369,0 -0.41204,0.0226 -0.59831,0.0395 0.60395,-0.58702 1.19098,-1.1684 1.19098,-1.81186 0,-0.68863 -0.49107,-1.14582 -1.20227,-1.14582 -0.508,0 -0.84102,0.19755 -1.19098,0.59266 l 0.45156,0.45156 c 0.17498,-0.18627 0.37253,-0.3556 0.62089,-0.3556 0.29915,0 0.48542,0.17497 0.48542,0.51364 0,0.49671 -0.65476,1.13453 -1.53529,1.91347 z m 4.35186,-1.63125 c 0.254,0 0.45156,0.12418 0.45156,0.49107 0,0.39511 -0.2032,0.55316 -0.43463,0.55316 -0.22577,0 -0.45155,-0.15805 -0.52493,-0.70556 0.12982,-0.23707 0.32738,-0.33867 0.508,-0.33867 z m 0.0395,1.69898 c 0.65476,0 1.20791,-0.45155 1.20791,-1.20791 0,-0.762 -0.46284,-1.10631 -1.07244,-1.10631 -0.21449,0 -0.51929,0.13547 -0.70556,0.37253 0.0339,-0.80151 0.33303,-1.07244 0.71685,-1.07244 0.2032,0 0.42898,0.12418 0.54751,0.254 l 0.46284,-0.51929 c -0.23142,-0.23142 -0.58702,-0.44026 -1.07244,-0.44026 -0.75636,0 -1.45627,0.60959 -1.45627,1.93604 0,1.27 0.67734,1.78364 1.3716,1.78364 z"
       id="text19-73"
       aria-label="26" />
    <path
       style="font-weight:bold;font-size:5.64444px;font-family:'Source Sans Pro';-inkscape-font-specification:'Source Sans Pro, Bold';fill:#504416;stroke-width:0.5"
       d="m 130.36672,109.00157 c 0.76764,0 1.28129,-0.42898 1.28129,-0.99906 0,-0.47414 -0.27658,-0.75072 -0.62089,-0.93698 v -0.0226 c 0.24835,-0.16369 0.46849,-0.43462 0.46849,-0.77329 0,-0.59831 -0.44027,-0.98777 -1.10067,-0.98777 -0.67733,0 -1.16275,0.38382 -1.16275,0.99906 0,0.37253 0.19755,0.63782 0.47977,0.84667 v 0.0226 c -0.33866,0.18063 -0.60395,0.44027 -0.60395,0.86925 0,0.58138 0.53622,0.98213 1.25871,0.98213 z m 0.22013,-2.16746 c -0.3556,-0.14111 -0.58702,-0.27658 -0.58702,-0.55316 0,-0.26529 0.16933,-0.39511 0.37253,-0.39511 0.25965,0 0.41205,0.17498 0.41205,0.44591 0,0.17498 -0.0677,0.33867 -0.19756,0.50236 z m -0.2032,1.56351 c -0.28222,0 -0.52493,-0.17498 -0.52493,-0.47978 0,-0.20885 0.10724,-0.4064 0.24835,-0.54187 0.44027,0.18627 0.72814,0.29916 0.72814,0.59831 0,0.29351 -0.19756,0.42334 -0.45156,0.42334 z m 2.86737,0.60395 c 0.72814,0 1.34903,-0.37253 1.34903,-1.04422 0,-0.46284 -0.29352,-0.75071 -0.70556,-0.86924 v -0.0226 c 0.38382,-0.16369 0.59267,-0.42898 0.59267,-0.79022 0,-0.63783 -0.49671,-0.99342 -1.25871,-0.99342 -0.43463,0 -0.80151,0.17497 -1.13454,0.46284 l 0.44027,0.53058 c 0.22013,-0.19756 0.4064,-0.3048 0.65476,-0.3048 0.27093,0 0.42333,0.12982 0.42333,0.37253 0,0.27093 -0.19756,0.4572 -0.82409,0.4572 v 0.61524 c 0.76764,0 0.93698,0.18063 0.93698,0.47978 0,0.25965 -0.22014,0.40076 -0.56445,0.40076 -0.28222,0 -0.54751,-0.14676 -0.76764,-0.3556 l -0.40076,0.55315 c 0.26529,0.3048 0.67734,0.508 1.25871,0.508 z"
       id="text19-65"
       aria-label="83" />
    <path
       style="font-weight:bold;font-size:5.64444px;font-family:'Source Sans Pro';-inkscape-font-specification:'Source Sans Pro, Bold';fill:#504416;stroke-width:0.5"
       d="m 111.26459,108.9677 h 2.31986 v -0.70556 h -0.66604 v -2.87866 h -0.64347 c -0.254,0.16369 -0.51364,0.25964 -0.90311,0.33302 v 0.54187 h 0.67169 v 2.00377 h -0.77893 z m 2.82786,0 h 2.54564 v -0.73378 h -0.76764 c -0.16369,0 -0.41204,0.0226 -0.59831,0.0395 0.60396,-0.58702 1.19098,-1.1684 1.19098,-1.81186 0,-0.68863 -0.49107,-1.14583 -1.20227,-1.14583 -0.508,0 -0.84102,0.19756 -1.19098,0.59267 l 0.45156,0.45156 c 0.17498,-0.18627 0.37253,-0.3556 0.62089,-0.3556 0.29915,0 0.48542,0.17497 0.48542,0.51364 0,0.49671 -0.65476,1.13453 -1.53529,1.91347 z"
       id="text19-41"
       aria-label="12" />
    <path
       style="font-weight:bold;font-size:5.64444px;font-family:'Source Sans Pro';-inkscape-font-specification:'Source Sans Pro, Bold';fill:#504416;stroke-width:0.5"
       d="m 93.376009,108.93384 h 2.319865 v -0.70556 H 95.02983 v -2.87866 h -0.643466 c -0.254,0.16369 -0.513644,0.25964 -0.90311,0.33302 v 0.54187 h 0.671688 v 2.00377 h -0.778933 z m 3.996262,0.0677 c 0.728132,0 1.349021,-0.37253 1.349021,-1.04422 0,-0.46284 -0.293511,-0.75071 -0.705555,-0.86924 v -0.0226 c 0.383822,-0.16369 0.592666,-0.42898 0.592666,-0.79022 0,-0.63783 -0.496711,-0.99342 -1.25871,-0.99342 -0.434622,0 -0.801511,0.17497 -1.134533,0.46284 l 0.440267,0.53058 c 0.220133,-0.19756 0.406399,-0.3048 0.654755,-0.3048 0.270933,0 0.423333,0.12982 0.423333,0.37253 0,0.27093 -0.197556,0.4572 -0.824088,0.4572 v 0.61524 c 0.767643,0 0.936977,0.18063 0.936977,0.47978 0,0.25965 -0.220133,0.40076 -0.564444,0.40076 -0.282222,0 -0.547511,-0.14676 -0.767644,-0.3556 l -0.400755,0.55315 c 0.265288,0.3048 0.677332,0.508 1.25871,0.508 z"
       id="text19-086"
       aria-label="13" />
    <path
       style="font-weight:bold;font-size:5.64444px;font-family:'Source Sans Pro';-inkscape-font-specification:'Source Sans Pro, Bold';fill:#504416;stroke-width:0.5"
       d="m 76.633266,109.00157 c 0.767644,0 1.281288,-0.42898 1.281288,-0.99906 0,-0.47414 -0.276578,-0.75072 -0.620889,-0.93698 v -0.0226 c 0.248356,-0.16369 0.468489,-0.43462 0.468489,-0.77329 0,-0.59831 -0.440266,-0.98777 -1.100666,-0.98777 -0.677333,0 -1.162755,0.38382 -1.162755,0.99906 0,0.37253 0.197556,0.63782 0.479778,0.84667 v 0.0226 c -0.338667,0.18063 -0.603955,0.44027 -0.603955,0.86925 0,0.58138 0.536222,0.98213 1.25871,0.98213 z m 0.220133,-2.16746 c -0.3556,-0.14111 -0.587022,-0.27658 -0.587022,-0.55316 0,-0.26529 0.169334,-0.39511 0.372533,-0.39511 0.259645,0 0.412045,0.17498 0.412045,0.44591 0,0.17498 -0.06773,0.33867 -0.197556,0.50236 z m -0.2032,1.56351 c -0.282222,0 -0.524933,-0.17498 -0.524933,-0.47978 0,-0.20885 0.107245,-0.4064 0.248356,-0.54187 0.440266,0.18627 0.728132,0.29916 0.728132,0.59831 0,0.29351 -0.197555,0.42334 -0.451555,0.42334 z m 2.985907,0.60395 c 0.767644,0 1.281288,-0.42898 1.281288,-0.99906 0,-0.47414 -0.276578,-0.75072 -0.620889,-0.93698 v -0.0226 c 0.248356,-0.16369 0.468489,-0.43462 0.468489,-0.77329 0,-0.59831 -0.440267,-0.98777 -1.100666,-0.98777 -0.677333,0 -1.162755,0.38382 -1.162755,0.99906 0,0.37253 0.197556,0.63782 0.479778,0.84667 v 0.0226 c -0.338667,0.18063 -0.603955,0.44027 -0.603955,0.86925 0,0.58138 0.536221,0.98213 1.25871,0.98213 z m 0.220133,-2.16746 c -0.3556,-0.14111 -0.587022,-0.27658 -0.587022,-0.55316 0,-0.26529 0.169333,-0.39511 0.372533,-0.39511 0.259644,0 0.412044,0.17498 0.412044,0.44591 0,0.17498 -0.06773,0.33867 -0.197555,0.50236 z m -0.2032,1.56351 c -0.282222,0 -0.524933,-0.17498 -0.524933,-0.47978 0,-0.20885 0.107245,-0.4064 0.248356,-0.54187 0.440266,0.18627 0.728132,0.29916 0.728132,0.59831 0,0.29351 -0.197555,0.42334 -0.451555,0.42334 z"
       id="text19-928"
       aria-label="88" />
    <path
       style="font-weight:bold;font-size:5.64444px;font-family:'Source Sans Pro';-inkscape-font-specification:'Source Sans Pro, Bold';fill:#504416;stroke-width:0.5"
       d="m 58.682598,109.00157 c 0.728133,0 1.349022,-0.37253 1.349022,-1.04422 0,-0.46284 -0.293511,-0.75071 -0.705555,-0.86924 v -0.0226 c 0.383822,-0.16369 0.592666,-0.42898 0.592666,-0.79022 0,-0.63783 -0.496711,-0.99342 -1.25871,-0.99342 -0.434622,0 -0.801511,0.17497 -1.134533,0.46284 l 0.440267,0.53058 c 0.220133,-0.19756 0.406399,-0.3048 0.654755,-0.3048 0.270933,0 0.423333,0.12982 0.423333,0.37253 0,0.27093 -0.197556,0.4572 -0.824089,0.4572 v 0.61524 c 0.767644,0 0.936977,0.18063 0.936977,0.47978 0,0.25965 -0.220133,0.40076 -0.564444,0.40076 -0.282222,0 -0.54751,-0.14676 -0.767643,-0.3556 l -0.400756,0.55315 c 0.265289,0.3048 0.677333,0.508 1.25871,0.508 z m 1.834441,-0.0677 h 2.545643 v -0.73378 h -0.767644 c -0.163689,0 -0.412044,0.0226 -0.598311,0.0395 0.603955,-0.58702 1.190977,-1.1684 1.190977,-1.81186 0,-0.68863 -0.491066,-1.14582 -1.202266,-1.14582 -0.507999,0 -0.841021,0.19755 -1.190977,0.59266 l 0.451556,0.45156 c 0.174977,-0.18627 0.372533,-0.3556 0.620888,-0.3556 0.299155,0 0.485422,0.17497 0.485422,0.51364 0,0.49671 -0.654755,1.13453 -1.535288,1.91347 z"
       id="text19-915"
       aria-label="32" />
    <path
       style="font-weight:bold;font-size:5.64444px;font-family:'Source Sans Pro';-inkscape-font-specification:'Source Sans Pro, Bold';fill:#504416;stroke-width:0.5"
       d="m 39.577645,108.9677 h 2.545643 v -0.73378 h -0.767644 c -0.163689,0 -0.412044,0.0226 -0.598311,0.0395 0.603955,-0.58702 1.190977,-1.1684 1.190977,-1.81186 0,-0.68863 -0.491066,-1.14583 -1.202265,-1.14583 -0.508,0 -0.841022,0.19756 -1.190977,0.59267 l 0.451555,0.45156 c 0.174978,-0.18627 0.372533,-0.3556 0.620888,-0.3556 0.299156,0 0.485422,0.17497 0.485422,0.51364 0,0.49671 -0.654755,1.13453 -1.535288,1.91347 z m 3.00284,0 h 2.545643 v -0.73378 h -0.767644 c -0.163689,0 -0.412044,0.0226 -0.598311,0.0395 0.603955,-0.58702 1.190977,-1.1684 1.190977,-1.81186 0,-0.68863 -0.491066,-1.14583 -1.202266,-1.14583 -0.507999,0 -0.841021,0.19756 -1.190977,0.59267 l 0.451556,0.45156 c 0.174977,-0.18627 0.372533,-0.3556 0.620888,-0.3556 0.299155,0 0.485422,0.17497 0.485422,0.51364 0,0.49671 -0.654755,1.13453 -1.535288,1.91347 z"
       id="text19-49"
       aria-label="22" />
    <path
       style="font-weight:bold;font-size:5.64444px;font-family:'Source Sans Pro';-inkscape-font-specification:'Source Sans Pro, Bold';fill:#504416;stroke-width:0.5"
       d="m 40.342467,125.37599 0.423333,-0.72813 c 0.1016,-0.20885 0.203199,-0.41205 0.293511,-0.62089 h 0.02258 c -0.01129,0.23707 -0.02822,0.58702 -0.02822,0.81844 v 0.53058 z m 0.711199,1.50142 h 0.812799 v -0.83538 h 0.4064 v -0.66604 h -0.4064 v -2.0828 h -1.078088 l -1.275643,2.13924 v 0.6096 h 1.540932 z m 2.184396,0 h 0.874888 c 0.06773,-1.39418 0.2032,-2.03764 1.055511,-3.04235 v -0.54187 H 42.65104 v 0.73378 h 1.586088 c -0.699911,0.94826 -0.936977,1.6764 -0.999066,2.85044 z"
       id="text19-5"
       aria-label="47" />
    <path
       style="font-weight:bold;font-size:5.64444px;font-family:'Source Sans Pro';-inkscape-font-specification:'Source Sans Pro, Bold';fill:#504416;stroke-width:0.5"
       d="m 57.531134,126.87741 h 2.319865 v -0.70555 h -0.666044 v -2.87867 h -0.643466 c -0.254,0.16369 -0.513644,0.25965 -0.903111,0.33302 v 0.54187 h 0.671689 v 2.00378 h -0.778933 z m 4.176883,-1.63124 c 0.254,0 0.451556,0.12418 0.451556,0.49106 0,0.39511 -0.2032,0.55316 -0.434622,0.55316 -0.225778,0 -0.451555,-0.15805 -0.524933,-0.70556 0.129822,-0.23706 0.327377,-0.33866 0.507999,-0.33866 z m 0.03951,1.69897 c 0.654755,0 1.20791,-0.45155 1.20791,-1.20791 0,-0.762 -0.462844,-1.10631 -1.072444,-1.10631 -0.214489,0 -0.519288,0.13547 -0.705555,0.37254 0.03387,-0.80151 0.333022,-1.07245 0.716844,-1.07245 0.2032,0 0.428977,0.12418 0.547511,0.254 l 0.462844,-0.51929 c -0.231422,-0.23142 -0.587022,-0.44026 -1.072444,-0.44026 -0.756355,0 -1.456265,0.6096 -1.456265,1.93604 0,1.27 0.677332,1.78364 1.371599,1.78364 z"
       id="text19-97"
       aria-label="16" />
    <path
       style="font-weight:bold;font-size:5.64444px;font-family:'Source Sans Pro';-inkscape-font-specification:'Source Sans Pro, Bold';fill:#504416;stroke-width:0.5"
       d="m 76.130907,125.37599 0.423333,-0.72813 c 0.1016,-0.20885 0.2032,-0.41205 0.293511,-0.62089 h 0.02258 c -0.01129,0.23707 -0.02822,0.58702 -0.02822,0.81844 v 0.53058 z m 0.7112,1.50142 h 0.812799 v -0.83538 h 0.4064 v -0.66604 h -0.4064 v -2.0828 h -1.078088 l -1.275643,2.13924 v 0.6096 h 1.540932 z m 2.85044,0.0677 c 0.778932,0 1.298221,-0.65475 1.298221,-1.87395 0,-1.2192 -0.519289,-1.84573 -1.298221,-1.84573 -0.778933,0 -1.298222,0.62089 -1.298222,1.84573 0,1.2192 0.519289,1.87395 1.298222,1.87395 z m 0,-0.67168 c -0.265289,0 -0.474133,-0.23707 -0.474133,-1.20227 0,-0.97084 0.208844,-1.1684 0.474133,-1.1684 0.259644,0 0.474133,0.19756 0.474133,1.1684 0,0.9652 -0.214489,1.20227 -0.474133,1.20227 z"
       id="text19-90"
       aria-label="40" />
    <path
       style="font-weight:bold;font-size:5.64444px;font-family:'Source Sans Pro';-inkscape-font-specification:'Source Sans Pro, Bold';fill:#504416;stroke-width:0.5"
       d="m 94.609318,125.24617 c 0.254,0 0.451555,0.12418 0.451555,0.49106 0,0.39511 -0.2032,0.55316 -0.434622,0.55316 -0.225777,0 -0.451555,-0.15805 -0.524932,-0.70556 0.129822,-0.23706 0.327377,-0.33866 0.507999,-0.33866 z m 0.03951,1.69897 c 0.654755,0 1.20791,-0.45155 1.20791,-1.20791 0,-0.762 -0.462844,-1.10631 -1.072443,-1.10631 -0.214489,0 -0.519289,0.13547 -0.705555,0.37254 0.03387,-0.80151 0.333022,-1.07245 0.716844,-1.07245 0.203199,0 0.428977,0.12418 0.54751,0.254 l 0.462844,-0.51929 c -0.231422,-0.23142 -0.587021,-0.44026 -1.072443,-0.44026 -0.756355,0 -1.456266,0.6096 -1.456266,1.93604 0,1.27 0.677333,1.78364 1.371599,1.78364 z m 2.39324,-2.51177 c 0,-0.39511 0.197556,-0.55316 0.428978,-0.55316 0.225778,0 0.451555,0.15805 0.530577,0.7112 -0.135466,0.23707 -0.333022,0.33302 -0.513644,0.33302 -0.254,0 -0.445911,-0.12417 -0.445911,-0.49106 z m 0.321734,2.51177 c 0.756355,0 1.456265,-0.6096 1.456265,-1.93604 0,-1.27 -0.677333,-1.78364 -1.371599,-1.78364 -0.654755,0 -1.20791,0.4572 -1.20791,1.20791 0,0.762 0.462844,1.10631 1.078088,1.10631 0.208844,0 0.513644,-0.13547 0.699911,-0.37253 -0.03387,0.80151 -0.327378,1.07244 -0.716844,1.07244 -0.2032,0 -0.428978,-0.11853 -0.547511,-0.254 l -0.462844,0.51929 c 0.231422,0.23706 0.587022,0.44026 1.072444,0.44026 z"
       id="text19-21"
       aria-label="69" />
    <path
       style="font-weight:bold;font-size:5.64444px;font-family:'Source Sans Pro';-inkscape-font-specification:'Source Sans Pro, Bold';fill:#504416;stroke-width:0.5"
       d="m 111.242,126.87741 h 2.31986 v -0.70555 h -0.66604 v -2.87867 h -0.64347 c -0.254,0.16369 -0.51364,0.25965 -0.90311,0.33302 v 0.54187 h 0.67169 v 2.00378 H 111.242 Z m 4.12044,0.0677 c 0.77893,0 1.29822,-0.65475 1.29822,-1.87395 0,-1.2192 -0.51929,-1.84573 -1.29822,-1.84573 -0.77893,0 -1.29822,0.62089 -1.29822,1.84573 0,1.2192 0.51929,1.87395 1.29822,1.87395 z m 0,-0.67168 c -0.26529,0 -0.47413,-0.23707 -0.47413,-1.20227 0,-0.97084 0.20884,-1.1684 0.47413,-1.1684 0.25964,0 0.47413,0.19756 0.47413,1.1684 0,0.9652 -0.21449,1.20227 -0.47413,1.20227 z"
       id="text19-905"
       aria-label="10" />
    <path
       style="font-weight:bold;font-size:5.64444px;font-family:'Source Sans Pro';-inkscape-font-specification:'Source Sans Pro, Bold';fill:#504416;stroke-width:0.5"
       d="m 129.10237,126.87741 h 2.54564 v -0.73378 h -0.76764 c -0.16369,0 -0.41205,0.0226 -0.59831,0.0395 0.60395,-0.58702 1.19097,-1.16839 1.19097,-1.81186 0,-0.68862 -0.49106,-1.14582 -1.20226,-1.14582 -0.508,0 -0.84102,0.19755 -1.19098,0.59266 l 0.45156,0.45156 c 0.17497,-0.18627 0.37253,-0.3556 0.62088,-0.3556 0.29916,0 0.48543,0.17498 0.48543,0.51364 0,0.49671 -0.65476,1.13454 -1.53529,1.91347 z m 4.19946,0.0677 c 0.70555,0 1.32644,-0.4572 1.32644,-1.25871 0,-0.75635 -0.52493,-1.10631 -1.14582,-1.10631 -0.13546,0 -0.24835,0.0169 -0.37818,0.0734 l 0.0508,-0.62653 h 1.30951 v -0.73378 h -2.06022 l -0.0959,1.82316 0.38382,0.24835 c 0.21449,-0.13547 0.31609,-0.18062 0.51929,-0.18062 0.31609,0 0.54186,0.18627 0.54186,0.52493 0,0.34996 -0.22577,0.53058 -0.58137,0.53058 -0.29351,0 -0.54187,-0.1524 -0.75636,-0.34996 l -0.39511,0.54751 c 0.28787,0.28787 0.69427,0.508 1.28129,0.508 z"
       id="text19-474"
       aria-label="25" />
    <path
       style="font-weight:bold;font-size:5.64444px;font-family:'Source Sans Pro';-inkscape-font-specification:'Source Sans Pro, Bold';fill:#504416;stroke-width:0.5"
       d="m 148.2694,126.94514 c 0.76764,0 1.28129,-0.42897 1.28129,-0.99906 0,-0.47413 -0.27658,-0.75071 -0.62089,-0.93698 v -0.0226 c 0.24835,-0.16369 0.46849,-0.43462 0.46849,-0.77328 0,-0.59832 -0.44027,-0.98778 -1.10067,-0.98778 -0.67733,0 -1.16276,0.38382 -1.16276,0.99906 0,0.37254 0.19756,0.63783 0.47978,0.84667 v 0.0226 c -0.33866,0.18062 -0.60395,0.44026 -0.60395,0.86924 0,0.58138 0.53622,0.98213 1.25871,0.98213 z m 0.22013,-2.16746 c -0.3556,-0.14111 -0.58702,-0.27658 -0.58702,-0.55316 0,-0.26528 0.16933,-0.39511 0.37253,-0.39511 0.25965,0 0.41205,0.17498 0.41205,0.44591 0,0.17498 -0.0677,0.33867 -0.19756,0.50236 z m -0.2032,1.56351 c -0.28222,0 -0.52493,-0.17498 -0.52493,-0.47978 0,-0.20884 0.10724,-0.4064 0.24835,-0.54186 0.44027,0.18626 0.72814,0.29915 0.72814,0.59831 0,0.29351 -0.19756,0.42333 -0.45156,0.42333 z m 2.86737,0.60395 c 0.72814,0 1.34903,-0.37253 1.34903,-1.04422 0,-0.46284 -0.29352,-0.75071 -0.70556,-0.86924 v -0.0226 c 0.38382,-0.16369 0.59267,-0.42898 0.59267,-0.79022 0,-0.63782 -0.49671,-0.99342 -1.25871,-0.99342 -0.43463,0 -0.80151,0.17498 -1.13454,0.46284 l 0.44027,0.53058 c 0.22013,-0.19756 0.4064,-0.3048 0.65475,-0.3048 0.27094,0 0.42334,0.12982 0.42334,0.37253 0,0.27094 -0.19756,0.4572 -0.82409,0.4572 v 0.61525 c 0.76764,0 0.93698,0.18062 0.93698,0.47977 0,0.25965 -0.22014,0.40076 -0.56445,0.40076 -0.28222,0 -0.54751,-0.14676 -0.76764,-0.3556 l -0.40076,0.55315 c 0.26529,0.3048 0.67734,0.508 1.25871,0.508 z"
       id="text19-06"
       aria-label="83" />
    <path
       style="font-weight:bold;font-size:5.64444px;font-family:'Source Sans Pro';-inkscape-font-specification:'Source Sans Pro, Bold';fill:#504416;stroke-width:0.5"
       d="m 166.09306,126.94514 c 0.72814,0 1.34902,-0.37253 1.34902,-1.04422 0,-0.46284 -0.29351,-0.75071 -0.70555,-0.86924 v -0.0226 c 0.38382,-0.16369 0.59267,-0.42898 0.59267,-0.79022 0,-0.63782 -0.49671,-0.99342 -1.25871,-0.99342 -0.43463,0 -0.80151,0.17498 -1.13454,0.46284 l 0.44027,0.53058 c 0.22013,-0.19756 0.4064,-0.3048 0.65475,-0.3048 0.27094,0 0.42334,0.12982 0.42334,0.37253 0,0.27094 -0.19756,0.4572 -0.82409,0.4572 v 0.61525 c 0.76764,0 0.93698,0.18062 0.93698,0.47977 0,0.25965 -0.22014,0.40076 -0.56445,0.40076 -0.28222,0 -0.54751,-0.14676 -0.76764,-0.3556 l -0.40076,0.55315 c 0.26529,0.3048 0.67734,0.508 1.25871,0.508 z m 2.61338,-2.51177 c 0,-0.39511 0.19755,-0.55316 0.42897,-0.55316 0.22578,0 0.45156,0.15805 0.53058,0.7112 -0.13546,0.23707 -0.33302,0.33302 -0.51364,0.33302 -0.254,0 -0.44591,-0.12417 -0.44591,-0.49106 z m 0.32173,2.51177 c 0.75636,0 1.45627,-0.6096 1.45627,-1.93604 0,-1.27 -0.67734,-1.78364 -1.3716,-1.78364 -0.65476,0 -1.20791,0.4572 -1.20791,1.20791 0,0.762 0.46284,1.10631 1.07808,1.10631 0.20885,0 0.51365,-0.13547 0.69992,-0.37253 -0.0339,0.80151 -0.32738,1.07244 -0.71685,1.07244 -0.2032,0 -0.42898,-0.11853 -0.54751,-0.254 l -0.46284,0.51929 c 0.23142,0.23706 0.58702,0.44026 1.07244,0.44026 z"
       id="text19-960"
       aria-label="39" />
  </g>
</svg>
