<?xml version="1.0" encoding="UTF-8" standalone="no"?>
<!-- Created with Inkscape (http://www.inkscape.org/) -->

<svg
   width="205.047mm"
   height="96.202873mm"
   version="1.1"
   viewBox="0 0 205.04699 96.20287"
   id="svg62"
   sodipodi:docname="matrix_patratica_diag_principala_regiuni.svg"
   inkscape:version="1.4 (e7c3feb100, 2024-10-09)"
   xmlns:inkscape="http://www.inkscape.org/namespaces/inkscape"
   xmlns:sodipodi="http://sodipodi.sourceforge.net/DTD/sodipodi-0.dtd"
   xmlns="http://www.w3.org/2000/svg"
   xmlns:svg="http://www.w3.org/2000/svg">
  <defs
     id="defs62" />
  <sodipodi:namedview
     id="namedview62"
     pagecolor="#ffffff"
     bordercolor="#000000"
     borderopacity="0.25"
     inkscape:showpageshadow="2"
     inkscape:pageopacity="0.0"
     inkscape:pagecheckerboard="0"
     inkscape:deskcolor="#d1d1d1"
     inkscape:document-units="mm"
     inkscape:zoom="0.56312173"
     inkscape:cx="605.55291"
     inkscape:cy="458.16027"
     inkscape:window-width="1239"
     inkscape:window-height="1062"
     inkscape:window-x="2591"
     inkscape:window-y="27"
     inkscape:window-maximized="0"
     inkscape:current-layer="svg62" />
  <path
     d="m 27.2391,62.90887 h 15.049 v 15.049 h -15.049 z"
     fill="#ffd23f"
     stroke="#806600"
     id="path1"
     style="stroke-width:0.5" />
  <path
     d="m 9.3361,62.90887 h 15.049 v 15.049 H 9.3361 Z"
     fill="#ffd23f"
     stroke="#806600"
     id="path2"
     style="stroke-width:0.5" />
  <path
     d="m 63.0441,62.90887 h 15.049 v 15.049 h -15.049 z"
     fill="#28afb0"
     stroke="#196969"
     id="path3"
     style="stroke-width:0.5" />
  <path
     d="m 80.9501,62.90887 h 15.049 v 15.049 h -15.049 z"
     id="path4"
     style="fill:#cb6359;stroke:#806600;stroke-width:0.5;fill-opacity:1" />
  <path
     d="m 45.1411,62.90887 h 15.049 v 15.049 h -15.049 z"
     id="path5"
     style="fill:#ffd23f;stroke:#806600;stroke-width:0.5" />
  <path
     d="m 27.2391,80.85187 h 15.049 v 15.049 h -15.049 z"
     id="path6"
     style="fill:#ffd23f;stroke:#806600;stroke-width:0.5" />
  <path
     d="m 9.3361,80.85187 h 15.049 v 15.049 H 9.3361 Z"
     id="path7"
     style="fill:#ffd23f;stroke:#806600;stroke-width:0.5" />
  <path
     d="m 63.0441,80.85187 h 15.049 v 15.049 h -15.049 z"
     id="path8"
     style="fill:#ffd23f;stroke:#806600;stroke-width:0.5" />
  <path
     d="m 80.9501,80.85187 h 15.049 v 15.049 h -15.049 z"
     fill="#28afb0"
     stroke="#196969"
     stroke-width="0.5"
     id="path9" />
  <path
     d="m 45.1411,80.85187 h 15.049 v 15.049 h -15.049 z"
     fill="#ffd23f"
     stroke="#806600"
     stroke-width="0.5"
     id="path10" />
  <path
     d="m 9.3361,9.07787 h 15.049 v 15.049 H 9.3361 Z"
     fill="#28afb0"
     stroke="#196969"
     stroke-width="0.49999"
     id="path11" />
  <path
     d="m 9.2851,0.19887 h 86.762 v 6.5005 H 9.2851 Z"
     fill="#9a18c9"
     stroke="#540d6e"
     stroke-width="0.39774"
     id="path12" />
  <path
     d="m 6.7501,9.02687 v 86.926 H 0.25 v -86.926 z"
     fill="#9a18c9"
     stroke="#540d6e"
     stroke-width="0.5"
     id="path13" />
  <path
     d="m 63.0441,9.07787 h 15.049 v 15.049 h -15.049 z"
     id="path14"
     style="fill:#cb6359;stroke:#806600;stroke-width:0.5;fill-opacity:1" />
  <path
     d="m 80.9501,9.07787 h 15.049 v 15.049 h -15.049 z"
     id="path15"
     style="fill:#cb6359;stroke:#806600;stroke-width:0.5;fill-opacity:1" />
  <path
     d="m 45.1411,9.07787 h 15.049 v 15.049 h -15.049 z"
     id="path16"
     style="fill:#cb6359;stroke:#806600;stroke-width:0.5;fill-opacity:1" />
  <path
     d="m 27.2391,9.07787 h 15.049 v 15.049 h -15.049 z"
     id="path17"
     style="fill:#cb6359;stroke:#806600;stroke-width:0.5;fill-opacity:1" />
  <path
     d="m 9.3361,27.02187 h 15.049 v 15.049 H 9.3361 Z"
     id="path18"
     style="fill:#ffd23f;stroke:#806600;stroke-width:0.5" />
  <path
     d="m 63.0441,27.02187 h 15.049 v 15.049 h -15.049 z"
     id="path19"
     style="fill:#cb6359;stroke:#806600;stroke-width:0.5;fill-opacity:1" />
  <path
     d="m 80.9501,27.02187 h 15.049 v 15.049 h -15.049 z"
     id="path20"
     style="fill:#cb6359;stroke:#806600;stroke-width:0.5;fill-opacity:1" />
  <path
     d="m 45.1411,27.02187 h 15.049 v 15.049 h -15.049 z"
     id="path21"
     style="fill:#cb6359;stroke:#806600;stroke-width:0.5;fill-opacity:1" />
  <path
     d="m 27.2391,27.02187 h 15.049 v 15.049 h -15.049 z"
     fill="#28afb0"
     stroke="#196969"
     stroke-width="0.5"
     id="path22" />
  <path
     d="m 9.3361,44.96487 h 15.049 v 15.049 H 9.3361 Z"
     id="path23"
     style="fill:#ffd23f;stroke:#806600;stroke-width:0.5" />
  <path
     d="m 63.0441,44.96487 h 15.049 v 15.049 h -15.049 z"
     id="path24"
     style="fill:#cb6359;stroke:#806600;stroke-width:0.5;fill-opacity:1" />
  <path
     d="m 80.9501,44.96487 h 15.049 v 15.049 h -15.049 z"
     id="path25"
     style="fill:#cb6359;stroke:#806600;stroke-width:0.5;fill-opacity:1" />
  <path
     d="m 45.1411,44.96487 h 15.049 v 15.049 h -15.049 z"
     fill="#28afb0"
     stroke="#196969"
     stroke-width="0.5"
     id="path26" />
  <path
     d="m 27.2391,44.96487 h 15.049 v 15.049 h -15.049 z"
     fill="#ffd23f"
     stroke="#806600"
     stroke-width="0.5"
     id="path27" />
  <path
     d="m 16.8611,4.96087 c 0.63288,0 1.0548,-0.53199 1.0548,-1.5226 0,-0.99061 -0.42192,-1.4997 -1.0548,-1.4997 -0.63288,0 -1.0548,0.50447 -1.0548,1.4997 0,0.9906 0.42192,1.5226 1.0548,1.5226 z m 0,-0.54575 c -0.21555,0 -0.38523,-0.19262 -0.38523,-0.97684 0,-0.78881 0.16969,-0.94932 0.38523,-0.94932 0.21096,0 0.38523,0.16051 0.38523,0.94932 0,0.78422 -0.17427,0.97684 -0.38523,0.97684 z"
     aria-label="0"
     id="path28"
     style="fill:#f3fcf0;stroke-width:0.5" />
  <path
     d="M 33.8211,4.90587 H 35.706 V 4.33261 h -0.54116 v -2.3389 h -0.52282 c -0.20638,0.133 -0.41734,0.21096 -0.73378,0.27058 v 0.44027 h 0.54575 v 1.6281 h -0.63288 z"
     aria-label="1"
     id="path29"
     style="fill:#f3fcf0;stroke-width:0.5" />
  <path
     d="m 51.6411,4.93287 h 2.0683 V 4.33668 h -0.62371 c -0.133,0 -0.33478,0.01835 -0.48613,0.0321 0.49071,-0.47695 0.96767,-0.94932 0.96767,-1.4721 0,-0.5595 -0.39899,-0.93098 -0.97684,-0.93098 -0.41275,0 -0.68333,0.16051 -0.96767,0.48154 l 0.36689,0.36689 c 0.14217,-0.15134 0.30268,-0.28892 0.50447,-0.28892 0.24306,0 0.3944,0.14217 0.3944,0.41734 0,0.40358 -0.53199,0.92181 -1.2474,1.5547 z"
     aria-label="2"
     id="path30"
     style="fill:#f3fcf0;stroke-width:0.5" />
  <path
     d="m 70.5321,4.96087 c 0.59161,0 1.0961,-0.30268 1.0961,-0.84843 0,-0.37606 -0.23848,-0.60995 -0.57326,-0.70626 V 3.38784 c 0.31186,-0.133 0.48154,-0.34854 0.48154,-0.64205 0,-0.51823 -0.40358,-0.80715 -1.0227,-0.80715 -0.35313,0 -0.65123,0.14217 -0.92181,0.37606 l 0.35772,0.43109 c 0.17886,-0.16051 0.3302,-0.24765 0.53199,-0.24765 0.22013,0 0.34396,0.10548 0.34396,0.30268 0,0.22013 -0.16051,0.37147 -0.66957,0.37147 v 0.49988 c 0.62371,0 0.76129,0.14676 0.76129,0.38982 0,0.21096 -0.17886,0.32561 -0.45861,0.32561 -0.2293,0 -0.44485,-0.11924 -0.62371,-0.28892 l -0.32561,0.44944 c 0.21555,0.24765 0.55033,0.41275 1.0227,0.41275 z"
     aria-label="3"
     id="path31"
     style="fill:#f3fcf0;stroke-width:0.5" />
  <path
     d="m 88.0201,3.68587 0.34396,-0.59161 c 0.0825,-0.16969 0.1651,-0.33479 0.23848,-0.50447 h 0.0183 c -0.009,0.19262 -0.0229,0.47696 -0.0229,0.66498 v 0.43109 z m 0.57785,1.2199 h 0.6604 V 4.22703 h 0.3302 V 3.68587 h -0.3302 V 1.99357 H 88.3824 l -1.0365,1.7381 v 0.4953 h 1.252 z"
     aria-label="4"
     id="path32"
     style="fill:#f3fcf0;stroke-width:0.5" />
  <path
     d="m 3.5801,18.11387 c 0.63288,0 1.0548,-0.53199 1.0548,-1.5226 0,-0.9906 -0.42192,-1.4997 -1.0548,-1.4997 -0.63288,0 -1.0548,0.50447 -1.0548,1.4997 0,0.9906 0.42192,1.5226 1.0548,1.5226 z m 0,-0.54575 c -0.21555,0 -0.38523,-0.19262 -0.38523,-0.97684 0,-0.78881 0.16968,-0.94932 0.38523,-0.94932 0.21096,0 0.38523,0.16051 0.38523,0.94932 0,0.78422 -0.17427,0.97684 -0.38523,0.97684 z"
     aria-label="0"
     id="path33"
     style="fill:#f3fcf0;stroke-width:0.5" />
  <path
     d="M 2.6241,36.00287 H 4.509 V 35.42961 H 3.96784 v -2.3389 H 3.44502 c -0.20637,0.133 -0.41734,0.21096 -0.73378,0.27058 v 0.44026 h 0.54575 v 1.6281 H 2.62411 Z"
     aria-label="1"
     id="path34"
     style="fill:#f3fcf0;stroke-width:0.5" />
  <path
     d="M 2.5481,53.97387 H 4.6164 V 53.37768 H 3.99269 c -0.133,0 -0.33479,0.01834 -0.48613,0.0321 0.49071,-0.47695 0.96767,-0.94932 0.96767,-1.4721 0,-0.5595 -0.39899,-0.93098 -0.97684,-0.93098 -0.41275,0 -0.68333,0.16051 -0.96767,0.48154 l 0.36689,0.36689 c 0.14217,-0.15134 0.30268,-0.28892 0.50447,-0.28892 0.24306,0 0.3944,0.14217 0.3944,0.41734 0,0.40358 -0.53199,0.92181 -1.2474,1.5547 z"
     aria-label="2"
     id="path35"
     style="fill:#f3fcf0;stroke-width:0.5" />
  <path
     d="m 3.5341,71.94187 c 0.59161,0 1.0961,-0.30268 1.0961,-0.84843 0,-0.37606 -0.23848,-0.60995 -0.57326,-0.70626 v -0.0183 c 0.31186,-0.133 0.48154,-0.34855 0.48154,-0.64206 0,-0.51823 -0.40358,-0.80715 -1.0227,-0.80715 -0.35313,0 -0.65123,0.14217 -0.92181,0.37606 l 0.35772,0.43109 c 0.17886,-0.16051 0.3302,-0.24765 0.53199,-0.24765 0.22013,0 0.34396,0.10548 0.34396,0.30269 0,0.22013 -0.16051,0.37147 -0.66957,0.37147 v 0.49989 c 0.62371,0 0.76129,0.14675 0.76129,0.38981 0,0.21096 -0.17886,0.32562 -0.45861,0.32562 -0.2293,0 -0.44485,-0.11924 -0.62371,-0.28893 l -0.32561,0.44944 c 0.21555,0.24765 0.55033,0.41275 1.0227,0.41275 z"
     aria-label="3"
     id="path36"
     style="fill:#f3fcf0;stroke-width:0.5" />
  <path
     d="m 3.1511,88.61187 0.34396,-0.59161 c 0.08255,-0.16969 0.1651,-0.33479 0.23848,-0.50447 h 0.01834 c -0.0092,0.19262 -0.02293,0.47695 -0.02293,0.66498 v 0.4311 z m 0.57785,1.2199 h 0.6604 v -0.67874 h 0.3302 v -0.54116 h -0.3302 v -1.6923 H 3.51341 l -1.0365,1.7381 v 0.4953 h 1.252 z"
     aria-label="4"
     id="path37"
     style="fill:#f3fcf0;stroke-width:0.5" />
  <text
     x="34.132816"
     y="16.319153"
     fill="#000000"
     font-family="'Source Sans Pro'"
     font-size="5.6444px"
     font-weight="bold"
     opacity="0.58806"
     stroke-width="0.5"
     style="paint-order:stroke fill markers"
     xml:space="preserve"
     id="text37"><tspan
       fill="#000000"
       stroke-width="0.5"
       id="tspan37" /></text>
  <path
     d="m 16.860687,18.462722 c 0.778927,0 1.298212,-0.65475 1.298212,-1.873941 0,-1.21919 -0.519285,-1.845719 -1.298212,-1.845719 -0.778928,0 -1.298213,0.620884 -1.298213,1.845719 0,1.219191 0.519285,1.873941 1.298213,1.873941 z m 0,-0.671684 c -0.265287,0 -0.47413,-0.237064 -0.47413,-1.202257 0,-0.970837 0.208843,-1.168391 0.47413,-1.168391 0.259642,0 0.474129,0.197554 0.474129,1.168391 0,0.965193 -0.214487,1.202257 -0.474129,1.202257 z"
     id="text38"
     style="font-weight:bold;font-size:5.6444px;font-family:'Source Sans Pro';fill:#e4f8f8;stroke-width:0.5;paint-order:stroke fill markers"
     aria-label="0" />
  <path
     d="m 34.213047,16.893578 0.42333,-0.728127 c 0.101599,-0.208843 0.203198,-0.412041 0.293509,-0.620884 h 0.02258 c -0.01129,0.237065 -0.02822,0.587017 -0.02822,0.818438 v 0.530573 z m 0.711194,1.501411 h 0.812794 v -0.835371 h 0.406397 v -0.66604 h -0.406397 v -2.082783 h -1.078081 l -1.275634,2.139227 v 0.609596 h 1.540921 z"
     id="text39"
     style="font-weight:bold;font-size:5.6444px;font-family:'Source Sans Pro';fill:#ffffff;stroke-width:0.5;paint-order:stroke fill markers"
     aria-label="4" />
  <path
     d="m 51.404541,18.428856 h 2.545624 v -0.733772 h -0.767638 c -0.163688,0 -0.412041,0.02258 -0.598306,0.03951 0.60395,-0.587018 1.190968,-1.168391 1.190968,-1.811853 0,-0.688617 -0.491063,-1.145813 -1.202257,-1.145813 -0.507996,0 -0.841016,0.197554 -1.190969,0.592662 l 0.451552,0.451552 c 0.174977,-0.186265 0.372531,-0.355597 0.620884,-0.355597 0.299154,0 0.485419,0.174976 0.485419,0.51364 0,0.496707 -0.654751,1.134525 -1.535277,1.913452 z"
     id="text40"
     style="font-weight:bold;font-size:5.6444px;font-family:'Source Sans Pro';fill:#ffffff;stroke-width:0.5;paint-order:stroke fill markers"
     aria-label="2" />
  <path
     d="m 70.080502,15.950964 c 0,-0.395108 0.197554,-0.553152 0.428974,-0.553152 0.225776,0 0.451552,0.158044 0.530574,0.711195 -0.135466,0.237065 -0.33302,0.333019 -0.513641,0.333019 -0.253998,0 -0.445907,-0.124176 -0.445907,-0.491062 z m 0.321731,2.511758 c 0.756349,0 1.456255,-0.609596 1.456255,-1.93603 0,-1.26999 -0.677328,-1.78363 -1.371589,-1.78363 -0.654751,0 -1.207902,0.457196 -1.207902,1.207902 0,0.761994 0.462841,1.106302 1.07808,1.106302 0.208843,0 0.513641,-0.135466 0.699906,-0.37253 -0.03387,0.801504 -0.327375,1.072436 -0.716839,1.072436 -0.203198,0 -0.428974,-0.118533 -0.547507,-0.253998 l -0.46284,0.519284 c 0.23142,0.237065 0.587017,0.440264 1.072436,0.440264 z"
     id="text41"
     style="font-weight:bold;font-size:5.6444px;font-family:'Source Sans Pro';fill:#ffffff;stroke-width:0.5;paint-order:stroke fill markers"
     aria-label="9" />
  <path
     d="m 87.3115,18.394989 h 2.31985 v -0.70555 h -0.66604 v -2.878644 h -0.64347 c -0.25399,0.163687 -0.51364,0.259642 -0.9031,0.333019 v 0.541863 h 0.67168 v 2.003762 H 87.3115 Z"
     id="text42"
     style="font-weight:bold;font-size:5.6444px;font-family:'Source Sans Pro';fill:#ffffff;stroke-width:0.5;paint-order:stroke fill markers"
     aria-label="1" />
  <path
     d="m 16.838111,36.372428 c 0.70555,0 1.326434,-0.457197 1.326434,-1.258701 0,-0.75635 -0.524929,-1.106303 -1.145813,-1.106303 -0.135465,0 -0.248353,0.01693 -0.378175,0.07338 l 0.0508,-0.626528 h 1.309501 v -0.733772 h -2.060206 l -0.09596,1.823141 0.383819,0.248354 c 0.214487,-0.135466 0.316087,-0.180621 0.519285,-0.180621 0.316086,0 0.541862,0.186265 0.541862,0.524929 0,0.349953 -0.225776,0.530574 -0.581373,0.530574 -0.293509,0 -0.541862,-0.152399 -0.756349,-0.349953 l -0.395109,0.547507 c 0.287865,0.287864 0.694262,0.507996 1.281279,0.507996 z"
     id="text43"
     style="font-weight:bold;font-size:5.6444px;font-family:'Source Sans Pro';fill:#000000;stroke-width:0.5;paint-order:stroke fill markers"
     aria-label="5" />
  <path
     d="m 88.44885,36.372428 c 0.70555,0 1.32643,-0.457197 1.32643,-1.258701 0,-0.75635 -0.52493,-1.106303 -1.14581,-1.106303 -0.13547,0 -0.24835,0.01693 -0.37818,0.07338 l 0.0508,-0.626528 h 1.3095 v -0.733772 h -2.0602 l -0.096,1.823141 0.38382,0.248354 c 0.21449,-0.135466 0.31609,-0.180621 0.51929,-0.180621 0.31608,0 0.54186,0.186265 0.54186,0.524929 0,0.349953 -0.22578,0.530574 -0.58137,0.530574 -0.29351,0 -0.54187,-0.152399 -0.75635,-0.349953 l -0.39511,0.547507 c 0.28786,0.287864 0.69426,0.507996 1.28128,0.507996 z"
     id="text44"
     style="font-weight:bold;font-size:5.6444px;font-family:'Source Sans Pro';fill:#ffffff;stroke-width:0.5;paint-order:stroke fill markers"
     aria-label="5" />
  <path
     d="m 34.763374,36.406295 c 0.778927,0 1.298212,-0.65475 1.298212,-1.873941 0,-1.21919 -0.519285,-1.845719 -1.298212,-1.845719 -0.778928,0 -1.298212,0.620884 -1.298212,1.845719 0,1.219191 0.519284,1.873941 1.298212,1.873941 z m 0,-0.671684 c -0.265287,0 -0.47413,-0.237064 -0.47413,-1.202257 0,-0.970837 0.208843,-1.168391 0.47413,-1.168391 0.259642,0 0.474129,0.197554 0.474129,1.168391 0,0.965193 -0.214487,1.202257 -0.474129,1.202257 z"
     id="text45"
     style="font-weight:bold;font-size:5.6444px;font-family:'Source Sans Pro';fill:#e4f8f8;stroke-width:0.5;paint-order:stroke fill markers"
     aria-label="0" />
  <path
     d="m 51.404541,36.372429 h 2.545624 v -0.733772 h -0.767638 c -0.163688,0 -0.412041,0.02258 -0.598306,0.03951 0.60395,-0.587018 1.190968,-1.168391 1.190968,-1.811853 0,-0.688617 -0.491063,-1.145813 -1.202257,-1.145813 -0.507996,0 -0.841016,0.197554 -1.190969,0.592662 l 0.451552,0.451552 c 0.174977,-0.186265 0.372531,-0.355597 0.620884,-0.355597 0.299154,0 0.485419,0.174976 0.485419,0.51364 0,0.496707 -0.654751,1.134525 -1.535277,1.913452 z"
     id="text46"
     style="font-weight:bold;font-size:5.6444px;font-family:'Source Sans Pro';fill:#ffffff;stroke-width:0.5;paint-order:stroke fill markers"
     aria-label="2" />
  <path
     d="m 70.018417,34.837151 0.42333,-0.728127 c 0.101599,-0.208843 0.203198,-0.412041 0.293509,-0.620884 h 0.02258 c -0.01129,0.237065 -0.02822,0.587017 -0.02822,0.818438 v 0.530573 z m 0.711194,1.501411 h 0.812794 v -0.835371 h 0.406397 v -0.66604 h -0.406397 v -2.082783 h -1.07808 l -1.275635,2.139227 v 0.609596 h 1.540921 z"
     id="text47"
     style="font-weight:bold;font-size:5.6444px;font-family:'Source Sans Pro';fill:#ffffff;stroke-width:0.5;paint-order:stroke fill markers"
     aria-label="4" />
  <path
     d="m 16.849396,54.349868 c 0.767639,0 1.281279,-0.428975 1.281279,-0.999059 0,-0.47413 -0.276575,-0.750705 -0.620884,-0.936971 v -0.02258 c 0.248354,-0.163688 0.468485,-0.434619 0.468485,-0.773283 0,-0.598306 -0.440263,-0.98777 -1.100658,-0.98777 -0.677328,0 -1.162746,0.383819 -1.162746,0.999059 0,0.37253 0.197554,0.637817 0.479774,0.84666 v 0.02258 c -0.338664,0.180621 -0.603951,0.440264 -0.603951,0.869238 0,0.581373 0.536218,0.982126 1.258701,0.982126 z m 0.220132,-2.16745 c -0.355597,-0.14111 -0.587018,-0.276576 -0.587018,-0.553151 0,-0.265287 0.169332,-0.395108 0.372531,-0.395108 0.259642,0 0.412041,0.174976 0.412041,0.445907 0,0.174977 -0.06773,0.338664 -0.197554,0.502352 z m -0.203198,1.563499 c -0.28222,0 -0.52493,-0.174977 -0.52493,-0.479774 0,-0.208843 0.107244,-0.406397 0.248354,-0.541863 0.440263,0.186266 0.728128,0.299154 0.728128,0.598307 0,0.293509 -0.197554,0.42333 -0.451552,0.42333 z"
     id="text48"
     style="font-weight:bold;font-size:5.6444px;font-family:'Source Sans Pro';fill:#000000;stroke-width:0.5;paint-order:stroke fill markers"
     aria-label="8" />
  <path
     d="m 33.603451,54.282135 h 2.319848 v -0.70555 H 35.25726 v -2.878644 h -0.643462 c -0.253998,0.163687 -0.51364,0.259642 -0.903104,0.333019 v 0.541863 h 0.671684 v 2.003762 h -0.778927 z"
     id="text49"
     style="font-weight:bold;font-size:5.6444px;font-family:'Source Sans Pro';fill:#000000;stroke-width:0.5;paint-order:stroke fill markers"
     aria-label="1" />
  <path
     d="m 52.654774,54.349868 c 0.767639,0 1.281279,-0.428974 1.281279,-0.999059 0,-0.474129 -0.276575,-0.750705 -0.620884,-0.93697 v -0.02258 c 0.248354,-0.163687 0.468485,-0.434619 0.468485,-0.773283 0,-0.598306 -0.440263,-0.98777 -1.100658,-0.98777 -0.677328,0 -1.162746,0.38382 -1.162746,0.999059 0,0.372531 0.197554,0.637817 0.479774,0.84666 v 0.02258 c -0.338664,0.180621 -0.603951,0.440263 -0.603951,0.869237 0,0.581374 0.536218,0.982126 1.258701,0.982126 z m 0.220132,-2.16745 c -0.355597,-0.14111 -0.587018,-0.276575 -0.587018,-0.553151 0,-0.265287 0.169332,-0.395108 0.372531,-0.395108 0.259642,0 0.412041,0.174977 0.412041,0.445908 0,0.174976 -0.06773,0.338664 -0.197554,0.502351 z m -0.203198,1.563499 c -0.28222,0 -0.52493,-0.174976 -0.52493,-0.479774 0,-0.208843 0.107244,-0.406397 0.248354,-0.541862 0.440263,0.186265 0.728128,0.299153 0.728128,0.598306 0,0.293509 -0.197554,0.42333 -0.451552,0.42333 z"
     id="text50"
     style="font-weight:bold;font-size:5.6444px;font-family:'Source Sans Pro';fill:#e4f8f8;stroke-width:0.5;paint-order:stroke fill markers"
     aria-label="8" />
  <path
     d="m 69.30722,54.316002 h 2.545625 V 53.58223 h -0.767639 c -0.163687,0 -0.412041,0.02258 -0.598306,0.03951 0.603951,-0.587018 1.190968,-1.168391 1.190968,-1.811853 0,-0.688617 -0.491062,-1.145813 -1.202257,-1.145813 -0.507996,0 -0.841015,0.197554 -1.190968,0.592662 l 0.451552,0.451552 c 0.174976,-0.186265 0.37253,-0.355597 0.620884,-0.355597 0.299153,0 0.485418,0.174976 0.485418,0.51364 0,0.496707 -0.65475,1.134525 -1.535277,1.913452 z"
     id="text51"
     style="font-weight:bold;font-size:5.6444px;font-family:'Source Sans Pro';fill:#ffffff;stroke-width:0.5;paint-order:stroke fill markers"
     aria-label="2" />
  <path
     d="m 88.44885,54.316001 c 0.70555,0 1.32643,-0.457197 1.32643,-1.258701 0,-0.75635 -0.52493,-1.106303 -1.14581,-1.106303 -0.13547,0 -0.24835,0.01693 -0.37818,0.07338 l 0.0508,-0.626528 h 1.3095 v -0.733772 h -2.0602 l -0.096,1.823141 0.38382,0.248354 c 0.21449,-0.135466 0.31609,-0.180621 0.51929,-0.180621 0.31608,0 0.54186,0.186265 0.54186,0.524929 0,0.349953 -0.22578,0.530574 -0.58137,0.530574 -0.29351,0 -0.54187,-0.152399 -0.75635,-0.349953 l -0.39511,0.547507 c 0.28786,0.287864 0.69426,0.507996 1.28128,0.507996 z"
     id="text52"
     style="font-weight:bold;font-size:5.6444px;font-family:'Source Sans Pro';fill:#ffffff;stroke-width:0.5;paint-order:stroke fill markers"
     aria-label="5" />
  <path
     d="m 16.31036,70.72431 0.42333,-0.72812 c 0.101599,-0.20885 0.203198,-0.41205 0.293508,-0.62089 h 0.02258 c -0.01129,0.23707 -0.02822,0.58702 -0.02822,0.81844 v 0.53057 z m 0.711194,1.50141 h 0.812794 v -0.83537 h 0.406396 v -0.66604 h -0.406396 v -2.08278 h -1.078081 l -1.275634,2.13923 v 0.60959 h 1.540921 z"
     id="text53"
     style="font-weight:bold;font-size:5.6444px;font-family:'Source Sans Pro';fill:#000000;stroke-width:0.5;paint-order:stroke fill markers"
     aria-label="4" />
  <path
     d="m 87.2099,72.25957 h 2.54562 V 71.5258 h -0.76763 c -0.16369,0 -0.41205,0.0226 -0.59831,0.0395 0.60395,-0.58702 1.19097,-1.16839 1.19097,-1.81186 0,-0.68861 -0.49106,-1.14581 -1.20226,-1.14581 -0.508,0 -0.84101,0.19755 -1.19097,0.59266 l 0.45155,0.45155 c 0.17498,-0.18626 0.37253,-0.35559 0.62089,-0.35559 0.29915,0 0.48542,0.17497 0.48542,0.51364 0,0.4967 -0.65475,1.13452 -1.53528,1.91345 z"
     id="text54"
     style="font-weight:bold;font-size:5.6444px;font-family:'Source Sans Pro';fill:#ffffff;stroke-width:0.5;paint-order:stroke fill markers"
     aria-label="2" />
  <path
     d="m 34.213047,70.72431 0.42333,-0.72812 c 0.101599,-0.20885 0.203198,-0.41205 0.293509,-0.62089 h 0.02258 c -0.01129,0.23707 -0.02822,0.58702 -0.02822,0.81844 v 0.53057 z m 0.711194,1.50141 h 0.812794 v -0.83537 h 0.406397 v -0.66604 h -0.406397 v -2.08278 h -1.078081 l -1.275634,2.13923 v 0.60959 h 1.540921 z"
     id="text55"
     style="font-weight:bold;font-size:5.6444px;font-family:'Source Sans Pro';fill:#000000;stroke-width:0.5;paint-order:stroke fill markers"
     aria-label="4" />
  <path
     d="m 52.708394,70.59449 c 0.253998,0 0.451552,0.12418 0.451552,0.49106 0,0.39511 -0.203198,0.55316 -0.434619,0.55316 -0.225776,0 -0.451552,-0.15805 -0.524929,-0.70555 0.129821,-0.23707 0.327375,-0.33867 0.507996,-0.33867 z m 0.03951,1.69897 c 0.65475,0 1.207902,-0.45156 1.207902,-1.20791 0,-0.76199 -0.462841,-1.1063 -1.072436,-1.1063 -0.214488,0 -0.519285,0.13547 -0.70555,0.37253 0.03387,-0.8015 0.333019,-1.07243 0.716838,-1.07243 0.203199,0 0.428975,0.12417 0.547507,0.25399 l 0.462841,-0.51928 c -0.23142,-0.23142 -0.587018,-0.44026 -1.072436,-0.44026 -0.75635,0 -1.456255,0.60959 -1.456255,1.93603 0,1.26999 0.677328,1.78363 1.371589,1.78363 z"
     id="text56"
     style="font-weight:bold;font-size:5.6444px;font-family:'Source Sans Pro';fill:#000000;stroke-width:0.5;paint-order:stroke fill markers"
     aria-label="6" />
  <path
     d="m 70.080506,69.781698 c 0,-0.395108 0.197554,-0.553151 0.428974,-0.553151 0.225776,0 0.451552,0.158043 0.530574,0.711194 -0.135466,0.237065 -0.33302,0.33302 -0.513641,0.33302 -0.253998,0 -0.445907,-0.124177 -0.445907,-0.491063 z m 0.32173,2.511758 c 0.75635,0 1.456256,-0.609595 1.456256,-1.936029 0,-1.26999 -0.677328,-1.78363 -1.37159,-1.78363 -0.65475,0 -1.207901,0.457196 -1.207901,1.207901 0,0.761994 0.462841,1.106303 1.07808,1.106303 0.208843,0 0.513641,-0.135466 0.699906,-0.372531 -0.03387,0.801505 -0.327375,1.072436 -0.716839,1.072436 -0.203198,0 -0.428974,-0.118532 -0.547507,-0.253998 L 69.3298,71.853193 c 0.231421,0.237065 0.587018,0.440263 1.072436,0.440263 z"
     id="text57"
     style="font-weight:bold;font-size:5.6444px;font-family:'Source Sans Pro';fill:#e4f8f8;stroke-width:0.5;paint-order:stroke fill markers"
     aria-label="9" />
  <path
     d="m 16.815531,90.23702 c 0.728128,0 1.349012,-0.37253 1.349012,-1.04421 0,-0.46284 -0.293509,-0.75071 -0.70555,-0.86924 v -0.0226 c 0.383819,-0.16369 0.592662,-0.42897 0.592662,-0.79021 0,-0.63782 -0.496707,-0.99342 -1.258701,-0.99342 -0.434619,0 -0.801505,0.17498 -1.134525,0.46284 l 0.440263,0.53058 c 0.220132,-0.19756 0.406397,-0.3048 0.654751,-0.3048 0.270931,0 0.42333,0.12982 0.42333,0.37253 0,0.27093 -0.197554,0.4572 -0.824083,0.4572 v 0.61523 c 0.767639,0 0.936971,0.18063 0.936971,0.47978 0,0.25964 -0.220132,0.40075 -0.56444,0.40075 -0.28222,0 -0.547507,-0.14675 -0.767639,-0.3556 l -0.400752,0.55316 c 0.265287,0.30479 0.677328,0.50799 1.258701,0.50799 z"
     id="text58"
     style="font-weight:bold;font-size:5.6444px;font-family:'Source Sans Pro';fill:#000000;stroke-width:0.5;paint-order:stroke fill markers"
     aria-label="3" />
  <path
     d="m 34.718218,90.23702 c 0.728128,0 1.349012,-0.37253 1.349012,-1.04421 0,-0.46284 -0.293509,-0.75071 -0.70555,-0.86924 v -0.0226 c 0.383819,-0.16369 0.592662,-0.42897 0.592662,-0.79021 0,-0.63782 -0.496707,-0.99342 -1.258701,-0.99342 -0.434619,0 -0.801505,0.17498 -1.134525,0.46284 l 0.440264,0.53058 c 0.220131,-0.19756 0.406396,-0.3048 0.65475,-0.3048 0.270931,0 0.42333,0.12982 0.42333,0.37253 0,0.27093 -0.197554,0.4572 -0.824082,0.4572 v 0.61523 c 0.767638,0 0.93697,0.18063 0.93697,0.47978 0,0.25964 -0.220132,0.40075 -0.56444,0.40075 -0.28222,0 -0.547507,-0.14675 -0.767638,-0.3556 l -0.400753,0.55316 c 0.265287,0.30479 0.677328,0.50799 1.258701,0.50799 z"
     id="text59"
     style="font-weight:bold;font-size:5.6444px;font-family:'Source Sans Pro';fill:#000000;stroke-width:0.5;paint-order:stroke fill markers"
     aria-label="3" />
  <path
     d="m 70.080502,87.72526 c 0,-0.3951 0.197554,-0.55315 0.428974,-0.55315 0.225776,0 0.451552,0.15805 0.530574,0.7112 -0.135466,0.23706 -0.33302,0.33302 -0.513641,0.33302 -0.253998,0 -0.445907,-0.12418 -0.445907,-0.49107 z m 0.321731,2.51176 c 0.756349,0 1.456255,-0.60959 1.456255,-1.93603 0,-1.26999 -0.677328,-1.78363 -1.371589,-1.78363 -0.654751,0 -1.207902,0.4572 -1.207902,1.2079 0,0.762 0.462841,1.10631 1.07808,1.10631 0.208843,0 0.513641,-0.13547 0.699906,-0.37253 -0.03387,0.8015 -0.327375,1.07243 -0.716839,1.07243 -0.203198,0 -0.428974,-0.11853 -0.547507,-0.254 l -0.46284,0.51929 c 0.23142,0.23706 0.587017,0.44026 1.072436,0.44026 z"
     id="text60"
     style="font-weight:bold;font-size:5.6444px;font-family:'Source Sans Pro';fill:#000000;stroke-width:0.5;paint-order:stroke fill markers"
     aria-label="9" />
  <path
     d="m 88.426276,90.237022 c 0.728127,0 1.349011,-0.372531 1.349011,-1.044214 0,-0.462841 -0.293509,-0.750706 -0.70555,-0.869238 v -0.02258 c 0.383819,-0.163687 0.592662,-0.428974 0.592662,-0.790216 0,-0.637817 -0.496707,-0.993414 -1.258701,-0.993414 -0.434619,0 -0.801505,0.174976 -1.134524,0.462841 l 0.440263,0.530573 c 0.220131,-0.197554 0.406397,-0.304797 0.65475,-0.304797 0.270931,0 0.42333,0.129821 0.42333,0.37253 0,0.270931 -0.197554,0.457197 -0.824082,0.457197 v 0.615239 c 0.767638,0 0.93697,0.180621 0.93697,0.479774 0,0.259643 -0.220131,0.400753 -0.56444,0.400753 -0.28222,0 -0.547507,-0.146755 -0.767638,-0.355598 l -0.400753,0.553152 c 0.265287,0.304797 0.677328,0.507996 1.258702,0.507996 z"
     id="text61"
     style="font-weight:bold;font-size:5.6444px;font-family:'Source Sans Pro';fill:#e4f8f8;stroke-width:0.5;paint-order:stroke fill markers"
     aria-label="3" />
  <path
     d="m 52.11573,88.667878 0.42333,-0.728127 c 0.101599,-0.208843 0.203198,-0.412041 0.293509,-0.620884 h 0.02258 c -0.01129,0.237065 -0.02822,0.587017 -0.02822,0.818438 v 0.530573 z m 0.711194,1.501411 h 0.812794 v -0.835371 h 0.406397 v -0.66604 h -0.406397 v -2.082783 h -1.078081 l -1.275634,2.139227 v 0.609596 h 1.540921 z"
     id="text62"
     style="font-weight:bold;font-size:5.6444px;font-family:'Source Sans Pro';stroke-width:0.5;paint-order:stroke fill markers"
     aria-label="4" />
  <path
     d="m 136.03699,62.90887 h 15.049 v 15.049 h -15.049 z"
     fill="#ffd23f"
     stroke="#806600"
     id="path1-7"
     style="stroke-width:0.5;fill:#cb6359;fill-opacity:1" />
  <path
     d="m 118.13399,62.90887 h 15.049 v 15.049 h -15.049 z"
     fill="#ffd23f"
     stroke="#806600"
     id="path2-4"
     style="stroke-width:0.5;fill:#cb6359;fill-opacity:1" />
  <path
     d="m 171.84199,62.90887 h 15.049 v 15.049 h -15.049 z"
     fill="#28afb0"
     stroke="#196969"
     id="path3-7"
     style="stroke-width:0.5" />
  <path
     d="m 189.74799,62.90887 h 15.049 v 15.049 h -15.049 z"
     id="path4-1"
     style="fill:#ffd23f;stroke:#806600;stroke-width:0.5" />
  <path
     d="m 153.93899,62.90887 h 15.049 v 15.049 h -15.049 z"
     id="path5-8"
     style="fill:#cb6359;stroke:#806600;stroke-width:0.5;fill-opacity:1" />
  <path
     d="m 136.03699,80.85187 h 15.049 v 15.049 h -15.049 z"
     id="path6-0"
     style="fill:#cb6359;stroke:#806600;stroke-width:0.5;fill-opacity:1" />
  <path
     d="m 118.13399,80.85187 h 15.049 v 15.049 h -15.049 z"
     id="path7-6"
     style="fill:#cb6359;stroke:#806600;stroke-width:0.5;fill-opacity:1" />
  <path
     d="m 171.84199,80.85187 h 15.049 v 15.049 h -15.049 z"
     id="path8-6"
     style="fill:#cb6359;stroke:#806600;stroke-width:0.5;fill-opacity:1" />
  <path
     d="m 189.74799,80.85187 h 15.049 v 15.049 h -15.049 z"
     fill="#28afb0"
     stroke="#196969"
     stroke-width="0.5"
     id="path9-6" />
  <path
     d="m 153.93899,80.85187 h 15.049 v 15.049 h -15.049 z"
     fill="#ffd23f"
     stroke="#806600"
     stroke-width="0.5"
     id="path10-0"
     style="fill:#cb6359;fill-opacity:1" />
  <path
     d="m 118.13399,9.07787 h 15.049 v 15.049 h -15.049 z"
     fill="#28afb0"
     stroke="#196969"
     stroke-width="0.49999"
     id="path11-9" />
  <path
     d="m 118.08299,0.19887 h 86.762 v 6.5005 h -86.762 z"
     fill="#9a18c9"
     stroke="#540d6e"
     stroke-width="0.39774"
     id="path12-0" />
  <path
     d="m 115.54799,9.02687 v 86.926 h -6.5001 v -86.926 z"
     fill="#9a18c9"
     stroke="#540d6e"
     stroke-width="0.5"
     id="path13-5" />
  <path
     d="m 171.84199,9.07787 h 15.049 v 15.049 h -15.049 z"
     id="path14-7"
     style="fill:#ffd23f;stroke:#806600;stroke-width:0.5" />
  <path
     d="m 189.74799,9.07787 h 15.049 v 15.049 h -15.049 z"
     id="path15-0"
     style="fill:#ffd23f;stroke:#806600;stroke-width:0.5" />
  <path
     d="m 153.93899,9.07787 h 15.049 v 15.049 h -15.049 z"
     id="path16-4"
     style="fill:#ffd23f;stroke:#806600;stroke-width:0.5" />
  <path
     d="m 136.03699,9.07787 h 15.049 v 15.049 h -15.049 z"
     id="path17-6"
     style="fill:#ffd23f;stroke:#806600;stroke-width:0.5" />
  <path
     d="m 118.13399,27.02187 h 15.049 v 15.049 h -15.049 z"
     id="path18-6"
     style="fill:#cb6359;stroke:#806600;stroke-width:0.5;fill-opacity:1" />
  <path
     d="m 171.84199,27.02187 h 15.049 v 15.049 h -15.049 z"
     id="path19-0"
     style="fill:#ffd23f;stroke:#806600;stroke-width:0.5" />
  <path
     d="m 189.74799,27.02187 h 15.049 v 15.049 h -15.049 z"
     id="path20-0"
     style="fill:#ffd23f;stroke:#806600;stroke-width:0.5" />
  <path
     d="m 153.93899,27.02187 h 15.049 v 15.049 h -15.049 z"
     id="path21-6"
     style="fill:#ffd23f;stroke:#806600;stroke-width:0.5" />
  <path
     d="m 136.03699,27.02187 h 15.049 v 15.049 h -15.049 z"
     fill="#28afb0"
     stroke="#196969"
     stroke-width="0.5"
     id="path22-2" />
  <path
     d="m 118.13399,44.96487 h 15.049 v 15.049 h -15.049 z"
     id="path23-5"
     style="fill:#cb6359;stroke:#806600;stroke-width:0.5;fill-opacity:1" />
  <path
     d="m 171.84199,44.96487 h 15.049 v 15.049 h -15.049 z"
     id="path24-2"
     style="fill:#ffd23f;stroke:#806600;stroke-width:0.5" />
  <path
     d="m 189.74799,44.96487 h 15.049 v 15.049 h -15.049 z"
     id="path25-4"
     style="fill:#ffd23f;stroke:#806600;stroke-width:0.5" />
  <path
     d="m 153.93899,44.96487 h 15.049 v 15.049 h -15.049 z"
     fill="#28afb0"
     stroke="#196969"
     stroke-width="0.5"
     id="path26-1" />
  <path
     d="m 136.03699,44.96487 h 15.049 v 15.049 h -15.049 z"
     fill="#ffd23f"
     stroke="#806600"
     stroke-width="0.5"
     id="path27-4"
     style="fill:#cb6359;fill-opacity:1" />
  <path
     d="m 125.65899,4.96087 c 0.63288,0 1.0548,-0.53199 1.0548,-1.5226 0,-0.99061 -0.42192,-1.4997 -1.0548,-1.4997 -0.63288,0 -1.0548,0.50447 -1.0548,1.4997 0,0.9906 0.42192,1.5226 1.0548,1.5226 z m 0,-0.54575 c -0.21555,0 -0.38523,-0.19262 -0.38523,-0.97684 0,-0.78881 0.16969,-0.94932 0.38523,-0.94932 0.21096,0 0.38523,0.16051 0.38523,0.94932 0,0.78422 -0.17427,0.97684 -0.38523,0.97684 z"
     aria-label="0"
     id="path28-0"
     style="fill:#f3fcf0;stroke-width:0.5" />
  <path
     d="m 142.61899,4.90587 h 1.8849 V 4.33261 h -0.54116 v -2.3389 h -0.52282 c -0.20638,0.133 -0.41734,0.21096 -0.73378,0.27058 v 0.44027 h 0.54575 v 1.6281 H 142.619 Z"
     aria-label="1"
     id="path29-1"
     style="fill:#f3fcf0;stroke-width:0.5" />
  <path
     d="m 160.43899,4.93287 h 2.0683 V 4.33668 h -0.62371 c -0.133,0 -0.33478,0.01835 -0.48613,0.0321 0.49071,-0.47695 0.96767,-0.94932 0.96767,-1.4721 0,-0.5595 -0.39899,-0.93098 -0.97684,-0.93098 -0.41275,0 -0.68333,0.16051 -0.96767,0.48154 l 0.36689,0.36689 c 0.14217,-0.15134 0.30268,-0.28892 0.50447,-0.28892 0.24306,0 0.3944,0.14217 0.3944,0.41734 0,0.40358 -0.53199,0.92181 -1.2474,1.5547 z"
     aria-label="2"
     id="path30-0"
     style="fill:#f3fcf0;stroke-width:0.5" />
  <path
     d="m 179.32999,4.96087 c 0.59161,0 1.0961,-0.30268 1.0961,-0.84843 0,-0.37606 -0.23848,-0.60995 -0.57326,-0.70626 V 3.38784 c 0.31186,-0.133 0.48154,-0.34854 0.48154,-0.64205 0,-0.51823 -0.40358,-0.80715 -1.0227,-0.80715 -0.35313,0 -0.65123,0.14217 -0.92181,0.37606 l 0.35772,0.43109 c 0.17886,-0.16051 0.3302,-0.24765 0.53199,-0.24765 0.22013,0 0.34396,0.10548 0.34396,0.30268 0,0.22013 -0.16051,0.37147 -0.66957,0.37147 v 0.49988 c 0.62371,0 0.76129,0.14676 0.76129,0.38982 0,0.21096 -0.17886,0.32561 -0.45861,0.32561 -0.2293,0 -0.44485,-0.11924 -0.62371,-0.28892 l -0.32561,0.44944 c 0.21555,0.24765 0.55033,0.41275 1.0227,0.41275 z"
     aria-label="3"
     id="path31-3"
     style="fill:#f3fcf0;stroke-width:0.5" />
  <path
     d="m 196.81799,3.68587 0.34396,-0.59161 c 0.0825,-0.16969 0.1651,-0.33479 0.23848,-0.50447 h 0.0183 c -0.009,0.19262 -0.0229,0.47696 -0.0229,0.66498 v 0.43109 z m 0.57785,1.2199 h 0.6604 V 4.22703 h 0.3302 V 3.68587 h -0.3302 v -1.6923 h -0.87595 l -1.0365,1.7381 v 0.4953 h 1.252 z"
     aria-label="4"
     id="path32-4"
     style="fill:#f3fcf0;stroke-width:0.5" />
  <path
     d="m 112.37799,18.11387 c 0.63288,0 1.0548,-0.53199 1.0548,-1.5226 0,-0.9906 -0.42192,-1.4997 -1.0548,-1.4997 -0.63288,0 -1.0548,0.50447 -1.0548,1.4997 0,0.9906 0.42192,1.5226 1.0548,1.5226 z m 0,-0.54575 c -0.21555,0 -0.38523,-0.19262 -0.38523,-0.97684 0,-0.78881 0.16968,-0.94932 0.38523,-0.94932 0.21096,0 0.38523,0.16051 0.38523,0.94932 0,0.78422 -0.17427,0.97684 -0.38523,0.97684 z"
     aria-label="0"
     id="path33-0"
     style="fill:#f3fcf0;stroke-width:0.5" />
  <path
     d="m 111.42199,36.00287 h 1.8849 v -0.57326 h -0.54116 v -2.3389 h -0.52282 c -0.20637,0.133 -0.41734,0.21096 -0.73378,0.27058 v 0.44026 h 0.54575 v 1.6281 H 111.422 Z"
     aria-label="1"
     id="path34-4"
     style="fill:#f3fcf0;stroke-width:0.5" />
  <path
     d="m 111.34599,53.97387 h 2.0683 v -0.59619 h -0.62371 c -0.133,0 -0.33479,0.01834 -0.48613,0.0321 0.49071,-0.47695 0.96767,-0.94932 0.96767,-1.4721 0,-0.5595 -0.39899,-0.93098 -0.97684,-0.93098 -0.41275,0 -0.68333,0.16051 -0.96767,0.48154 l 0.36689,0.36689 c 0.14217,-0.15134 0.30268,-0.28892 0.50447,-0.28892 0.24306,0 0.3944,0.14217 0.3944,0.41734 0,0.40358 -0.53199,0.92181 -1.2474,1.5547 z"
     aria-label="2"
     id="path35-0"
     style="fill:#f3fcf0;stroke-width:0.5" />
  <path
     d="m 112.33199,71.94187 c 0.59161,0 1.0961,-0.30268 1.0961,-0.84843 0,-0.37606 -0.23848,-0.60995 -0.57326,-0.70626 v -0.0183 c 0.31186,-0.133 0.48154,-0.34855 0.48154,-0.64206 0,-0.51823 -0.40358,-0.80715 -1.0227,-0.80715 -0.35313,0 -0.65123,0.14217 -0.92181,0.37606 l 0.35772,0.43109 c 0.17886,-0.16051 0.3302,-0.24765 0.53199,-0.24765 0.22013,0 0.34396,0.10548 0.34396,0.30269 0,0.22013 -0.16051,0.37147 -0.66957,0.37147 v 0.49989 c 0.62371,0 0.76129,0.14675 0.76129,0.38981 0,0.21096 -0.17886,0.32562 -0.45861,0.32562 -0.2293,0 -0.44485,-0.11924 -0.62371,-0.28893 l -0.32561,0.44944 c 0.21555,0.24765 0.55033,0.41275 1.0227,0.41275 z"
     aria-label="3"
     id="path36-6"
     style="fill:#f3fcf0;stroke-width:0.5" />
  <path
     d="m 111.94899,88.61187 0.34396,-0.59161 c 0.0825,-0.16969 0.1651,-0.33479 0.23848,-0.50447 h 0.0183 c -0.009,0.19262 -0.0229,0.47695 -0.0229,0.66498 v 0.4311 z m 0.57785,1.2199 h 0.6604 v -0.67874 h 0.3302 v -0.54116 h -0.3302 v -1.6923 h -0.87594 l -1.0365,1.7381 v 0.4953 h 1.252 z"
     aria-label="4"
     id="path37-2"
     style="fill:#f3fcf0;stroke-width:0.5" />
  <text
     x="142.93071"
     y="16.319153"
     fill="#000000"
     font-family="'Source Sans Pro'"
     font-size="5.6444px"
     font-weight="bold"
     opacity="0.58806"
     stroke-width="0.5"
     style="paint-order:stroke fill markers"
     xml:space="preserve"
     id="text37-2"><tspan
       fill="#000000"
       stroke-width="0.5"
       id="tspan37-7" /></text>
  <path
     d="m 125.65858,18.462722 c 0.77892,0 1.29821,-0.65475 1.29821,-1.873941 0,-1.21919 -0.51929,-1.845719 -1.29821,-1.845719 -0.77893,0 -1.29822,0.620884 -1.29822,1.845719 0,1.219191 0.51929,1.873941 1.29822,1.873941 z m 0,-0.671684 c -0.26529,0 -0.47413,-0.237064 -0.47413,-1.202257 0,-0.970837 0.20884,-1.168391 0.47413,-1.168391 0.25964,0 0.47413,0.197554 0.47413,1.168391 0,0.965193 -0.21449,1.202257 -0.47413,1.202257 z"
     id="text38-2"
     style="font-weight:bold;font-size:5.6444px;font-family:'Source Sans Pro';fill:#e4f8f8;stroke-width:0.5;paint-order:stroke fill markers"
     aria-label="0" />
  <path
     d="m 143.01094,16.893578 0.42333,-0.728127 c 0.1016,-0.208843 0.20319,-0.412041 0.29351,-0.620884 h 0.0226 c -0.0113,0.237065 -0.0282,0.587017 -0.0282,0.818438 v 0.530573 z m 0.71119,1.501411 h 0.81279 v -0.835371 h 0.4064 v -0.66604 h -0.4064 v -2.082783 h -1.07808 l -1.27563,2.139227 v 0.609596 h 1.54092 z"
     id="text39-5"
     style="font-weight:bold;font-size:5.6444px;font-family:'Source Sans Pro';fill:#000000;stroke-width:0.5;paint-order:stroke fill markers"
     aria-label="4" />
  <path
     d="m 160.20243,18.428856 h 2.54562 v -0.733772 h -0.76763 c -0.16369,0 -0.41204,0.02258 -0.59831,0.03951 0.60395,-0.587018 1.19097,-1.168391 1.19097,-1.811853 0,-0.688617 -0.49106,-1.145813 -1.20226,-1.145813 -0.50799,0 -0.84101,0.197554 -1.19097,0.592662 l 0.45155,0.451552 c 0.17498,-0.186265 0.37254,-0.355597 0.62089,-0.355597 0.29915,0 0.48542,0.174976 0.48542,0.51364 0,0.496707 -0.65475,1.134525 -1.53528,1.913452 z"
     id="text40-1"
     style="font-weight:bold;font-size:5.6444px;font-family:'Source Sans Pro';fill:#000000;stroke-width:0.5;paint-order:stroke fill markers"
     aria-label="2" />
  <path
     d="m 178.87839,15.950964 c 0,-0.395108 0.19756,-0.553152 0.42898,-0.553152 0.22577,0 0.45155,0.158044 0.53057,0.711195 -0.13547,0.237065 -0.33302,0.333019 -0.51364,0.333019 -0.254,0 -0.44591,-0.124176 -0.44591,-0.491062 z m 0.32173,2.511758 c 0.75635,0 1.45626,-0.609596 1.45626,-1.93603 0,-1.26999 -0.67733,-1.78363 -1.37159,-1.78363 -0.65475,0 -1.2079,0.457196 -1.2079,1.207902 0,0.761994 0.46284,1.106302 1.07808,1.106302 0.20884,0 0.51364,-0.135466 0.6999,-0.37253 -0.0339,0.801504 -0.32737,1.072436 -0.71684,1.072436 -0.20319,0 -0.42897,-0.118533 -0.5475,-0.253998 l -0.46284,0.519284 c 0.23142,0.237065 0.58701,0.440264 1.07243,0.440264 z"
     id="text41-9"
     style="font-weight:bold;font-size:5.6444px;font-family:'Source Sans Pro';fill:#000000;stroke-width:0.5;paint-order:stroke fill markers"
     aria-label="9" />
  <path
     d="m 196.10939,18.394989 h 2.31985 v -0.70555 h -0.66604 v -2.878644 h -0.64347 c -0.25399,0.163687 -0.51364,0.259642 -0.9031,0.333019 v 0.541863 h 0.67168 v 2.003762 h -0.77892 z"
     id="text42-0"
     style="font-weight:bold;font-size:5.6444px;font-family:'Source Sans Pro';fill:#000000;stroke-width:0.5;paint-order:stroke fill markers"
     aria-label="1" />
  <path
     d="m 125.636,36.372428 c 0.70555,0 1.32644,-0.457197 1.32644,-1.258701 0,-0.75635 -0.52493,-1.106303 -1.14582,-1.106303 -0.13546,0 -0.24835,0.01693 -0.37817,0.07338 l 0.0508,-0.626528 h 1.3095 v -0.733772 h -2.06021 l -0.096,1.823141 0.38382,0.248354 c 0.21449,-0.135466 0.31609,-0.180621 0.51929,-0.180621 0.31608,0 0.54186,0.186265 0.54186,0.524929 0,0.349953 -0.22578,0.530574 -0.58137,0.530574 -0.29351,0 -0.54187,-0.152399 -0.75635,-0.349953 l -0.39511,0.547507 c 0.28786,0.287864 0.69426,0.507996 1.28128,0.507996 z"
     id="text43-0"
     style="font-weight:bold;font-size:5.6444px;font-family:'Source Sans Pro';fill:#ffffff;stroke-width:0.5;paint-order:stroke fill markers"
     aria-label="5" />
  <path
     d="m 197.24674,36.372428 c 0.70555,0 1.32643,-0.457197 1.32643,-1.258701 0,-0.75635 -0.52493,-1.106303 -1.14581,-1.106303 -0.13547,0 -0.24835,0.01693 -0.37818,0.07338 l 0.0508,-0.626528 h 1.3095 v -0.733772 h -2.0602 l -0.096,1.823141 0.38382,0.248354 c 0.21449,-0.135466 0.31609,-0.180621 0.51929,-0.180621 0.31608,0 0.54186,0.186265 0.54186,0.524929 0,0.349953 -0.22578,0.530574 -0.58137,0.530574 -0.29351,0 -0.54187,-0.152399 -0.75635,-0.349953 l -0.39511,0.547507 c 0.28786,0.287864 0.69426,0.507996 1.28128,0.507996 z"
     id="text44-6"
     style="font-weight:bold;font-size:5.6444px;font-family:'Source Sans Pro';fill:#000000;stroke-width:0.5;paint-order:stroke fill markers"
     aria-label="5" />
  <path
     d="m 143.56126,36.406295 c 0.77893,0 1.29822,-0.65475 1.29822,-1.873941 0,-1.21919 -0.51929,-1.845719 -1.29822,-1.845719 -0.77892,0 -1.29821,0.620884 -1.29821,1.845719 0,1.219191 0.51929,1.873941 1.29821,1.873941 z m 0,-0.671684 c -0.26528,0 -0.47413,-0.237064 -0.47413,-1.202257 0,-0.970837 0.20885,-1.168391 0.47413,-1.168391 0.25965,0 0.47413,0.197554 0.47413,1.168391 0,0.965193 -0.21448,1.202257 -0.47413,1.202257 z"
     id="text45-2"
     style="font-weight:bold;font-size:5.6444px;font-family:'Source Sans Pro';fill:#e4f8f8;stroke-width:0.5;paint-order:stroke fill markers"
     aria-label="0" />
  <path
     d="m 160.20243,36.372429 h 2.54562 v -0.733772 h -0.76763 c -0.16369,0 -0.41204,0.02258 -0.59831,0.03951 0.60395,-0.587018 1.19097,-1.168391 1.19097,-1.811853 0,-0.688617 -0.49106,-1.145813 -1.20226,-1.145813 -0.50799,0 -0.84101,0.197554 -1.19097,0.592662 l 0.45155,0.451552 c 0.17498,-0.186265 0.37254,-0.355597 0.62089,-0.355597 0.29915,0 0.48542,0.174976 0.48542,0.51364 0,0.496707 -0.65475,1.134525 -1.53528,1.913452 z"
     id="text46-2"
     style="font-weight:bold;font-size:5.6444px;font-family:'Source Sans Pro';fill:#000000;stroke-width:0.5;paint-order:stroke fill markers"
     aria-label="2" />
  <path
     d="m 178.81631,34.837151 0.42333,-0.728127 c 0.1016,-0.208843 0.20319,-0.412041 0.29351,-0.620884 h 0.0226 c -0.0113,0.237065 -0.0282,0.587017 -0.0282,0.818438 v 0.530573 z m 0.71119,1.501411 h 0.81279 v -0.835371 h 0.4064 v -0.66604 h -0.4064 v -2.082783 h -1.07808 l -1.27563,2.139227 v 0.609596 h 1.54092 z"
     id="text47-4"
     style="font-weight:bold;font-size:5.6444px;font-family:'Source Sans Pro';fill:#000000;stroke-width:0.5;paint-order:stroke fill markers"
     aria-label="4" />
  <path
     d="m 125.64729,54.349868 c 0.76763,0 1.28127,-0.428975 1.28127,-0.999059 0,-0.47413 -0.27657,-0.750705 -0.62088,-0.936971 v -0.02258 c 0.24835,-0.163688 0.46849,-0.434619 0.46849,-0.773283 0,-0.598306 -0.44027,-0.98777 -1.10066,-0.98777 -0.67733,0 -1.16275,0.383819 -1.16275,0.999059 0,0.37253 0.19756,0.637817 0.47978,0.84666 v 0.02258 c -0.33867,0.180621 -0.60396,0.440264 -0.60396,0.869238 0,0.581373 0.53622,0.982126 1.25871,0.982126 z m 0.22013,-2.16745 c -0.3556,-0.14111 -0.58702,-0.276576 -0.58702,-0.553151 0,-0.265287 0.16933,-0.395108 0.37253,-0.395108 0.25964,0 0.41204,0.174976 0.41204,0.445907 0,0.174977 -0.0677,0.338664 -0.19755,0.502352 z m -0.2032,1.563499 c -0.28222,0 -0.52493,-0.174977 -0.52493,-0.479774 0,-0.208843 0.10724,-0.406397 0.24835,-0.541863 0.44027,0.186266 0.72813,0.299154 0.72813,0.598307 0,0.293509 -0.19755,0.42333 -0.45155,0.42333 z"
     id="text48-9"
     style="font-weight:bold;font-size:5.6444px;font-family:'Source Sans Pro';fill:#ffffff;stroke-width:0.5;paint-order:stroke fill markers"
     aria-label="8" />
  <path
     d="m 142.40134,54.282135 h 2.31985 v -0.70555 h -0.66604 v -2.878644 h -0.64346 c -0.254,0.163687 -0.51364,0.259642 -0.90311,0.333019 v 0.541863 h 0.67169 v 2.003762 h -0.77893 z"
     id="text49-9"
     style="font-weight:bold;font-size:5.6444px;font-family:'Source Sans Pro';fill:#ffffff;stroke-width:0.5;paint-order:stroke fill markers"
     aria-label="1" />
  <path
     d="m 161.45266,54.349868 c 0.76764,0 1.28128,-0.428974 1.28128,-0.999059 0,-0.474129 -0.27657,-0.750705 -0.62088,-0.93697 v -0.02258 c 0.24835,-0.163687 0.46848,-0.434619 0.46848,-0.773283 0,-0.598306 -0.44026,-0.98777 -1.10065,-0.98777 -0.67733,0 -1.16275,0.38382 -1.16275,0.999059 0,0.372531 0.19755,0.637817 0.47977,0.84666 v 0.02258 c -0.33866,0.180621 -0.60395,0.440263 -0.60395,0.869237 0,0.581374 0.53622,0.982126 1.2587,0.982126 z m 0.22014,-2.16745 c -0.3556,-0.14111 -0.58702,-0.276575 -0.58702,-0.553151 0,-0.265287 0.16933,-0.395108 0.37253,-0.395108 0.25964,0 0.41204,0.174977 0.41204,0.445908 0,0.174976 -0.0677,0.338664 -0.19755,0.502351 z m -0.2032,1.563499 c -0.28222,0 -0.52493,-0.174976 -0.52493,-0.479774 0,-0.208843 0.10724,-0.406397 0.24835,-0.541862 0.44026,0.186265 0.72813,0.299153 0.72813,0.598306 0,0.293509 -0.19755,0.42333 -0.45155,0.42333 z"
     id="text50-9"
     style="font-weight:bold;font-size:5.6444px;font-family:'Source Sans Pro';fill:#e4f8f8;stroke-width:0.5;paint-order:stroke fill markers"
     aria-label="8" />
  <path
     d="m 178.10511,54.316002 h 2.54562 V 53.58223 h -0.76763 c -0.16369,0 -0.41205,0.02258 -0.59831,0.03951 0.60395,-0.587018 1.19097,-1.168391 1.19097,-1.811853 0,-0.688617 -0.49106,-1.145813 -1.20226,-1.145813 -0.508,0 -0.84101,0.197554 -1.19097,0.592662 l 0.45155,0.451552 c 0.17498,-0.186265 0.37253,-0.355597 0.62089,-0.355597 0.29915,0 0.48542,0.174976 0.48542,0.51364 0,0.496707 -0.65475,1.134525 -1.53528,1.913452 z"
     id="text51-0"
     style="font-weight:bold;font-size:5.6444px;font-family:'Source Sans Pro';fill:#000000;stroke-width:0.5;paint-order:stroke fill markers"
     aria-label="2" />
  <path
     d="m 197.24674,54.316001 c 0.70555,0 1.32643,-0.457197 1.32643,-1.258701 0,-0.75635 -0.52493,-1.106303 -1.14581,-1.106303 -0.13547,0 -0.24835,0.01693 -0.37818,0.07338 l 0.0508,-0.626528 h 1.3095 v -0.733772 h -2.0602 l -0.096,1.823141 0.38382,0.248354 c 0.21449,-0.135466 0.31609,-0.180621 0.51929,-0.180621 0.31608,0 0.54186,0.186265 0.54186,0.524929 0,0.349953 -0.22578,0.530574 -0.58137,0.530574 -0.29351,0 -0.54187,-0.152399 -0.75635,-0.349953 l -0.39511,0.547507 c 0.28786,0.287864 0.69426,0.507996 1.28128,0.507996 z"
     id="text52-3"
     style="font-weight:bold;font-size:5.6444px;font-family:'Source Sans Pro';fill:#000000;stroke-width:0.5;paint-order:stroke fill markers"
     aria-label="5" />
  <path
     d="m 125.10825,70.72431 0.42333,-0.72812 c 0.1016,-0.20885 0.2032,-0.41205 0.29351,-0.62089 h 0.0226 c -0.0113,0.23707 -0.0282,0.58702 -0.0282,0.81844 v 0.53057 z m 0.71119,1.50141 h 0.8128 v -0.83537 h 0.40639 v -0.66604 h -0.40639 v -2.08278 h -1.07808 l -1.27564,2.13923 v 0.60959 h 1.54092 z"
     id="text53-7"
     style="font-weight:bold;font-size:5.6444px;font-family:'Source Sans Pro';fill:#ffffff;stroke-width:0.5;paint-order:stroke fill markers"
     aria-label="4" />
  <path
     d="m 196.00779,72.25957 h 2.54562 V 71.5258 h -0.76763 c -0.16369,0 -0.41205,0.0226 -0.59831,0.0395 0.60395,-0.58702 1.19097,-1.16839 1.19097,-1.81186 0,-0.68861 -0.49106,-1.14581 -1.20226,-1.14581 -0.508,0 -0.84101,0.19755 -1.19097,0.59266 l 0.45155,0.45155 c 0.17498,-0.18626 0.37253,-0.35559 0.62089,-0.35559 0.29915,0 0.48542,0.17497 0.48542,0.51364 0,0.4967 -0.65475,1.13452 -1.53528,1.91345 z"
     id="text54-0"
     style="font-weight:bold;font-size:5.6444px;font-family:'Source Sans Pro';fill:#000000;stroke-width:0.5;paint-order:stroke fill markers"
     aria-label="2" />
  <path
     d="m 143.01094,70.72431 0.42333,-0.72812 c 0.1016,-0.20885 0.20319,-0.41205 0.29351,-0.62089 h 0.0226 c -0.0113,0.23707 -0.0282,0.58702 -0.0282,0.81844 v 0.53057 z m 0.71119,1.50141 h 0.81279 v -0.83537 h 0.4064 v -0.66604 h -0.4064 v -2.08278 h -1.07808 l -1.27563,2.13923 v 0.60959 h 1.54092 z"
     id="text55-4"
     style="font-weight:bold;font-size:5.6444px;font-family:'Source Sans Pro';fill:#ffffff;stroke-width:0.5;paint-order:stroke fill markers"
     aria-label="4" />
  <path
     d="m 161.50628,70.59449 c 0.254,0 0.45156,0.12418 0.45156,0.49106 0,0.39511 -0.2032,0.55316 -0.43462,0.55316 -0.22578,0 -0.45156,-0.15805 -0.52493,-0.70555 0.12982,-0.23707 0.32737,-0.33867 0.50799,-0.33867 z m 0.0395,1.69897 c 0.65475,0 1.20791,-0.45156 1.20791,-1.20791 0,-0.76199 -0.46284,-1.1063 -1.07244,-1.1063 -0.21449,0 -0.51929,0.13547 -0.70555,0.37253 0.0339,-0.8015 0.33302,-1.07243 0.71684,-1.07243 0.2032,0 0.42897,0.12417 0.5475,0.25399 l 0.46285,-0.51928 c -0.23142,-0.23142 -0.58702,-0.44026 -1.07244,-0.44026 -0.75635,0 -1.45626,0.60959 -1.45626,1.93603 0,1.26999 0.67733,1.78363 1.37159,1.78363 z"
     id="text56-9"
     style="font-weight:bold;font-size:5.6444px;font-family:'Source Sans Pro';fill:#ffffff;stroke-width:0.5;paint-order:stroke fill markers"
     aria-label="6" />
  <path
     d="m 178.8784,69.781698 c 0,-0.395108 0.19755,-0.553151 0.42897,-0.553151 0.22578,0 0.45155,0.158043 0.53057,0.711194 -0.13546,0.237065 -0.33302,0.33302 -0.51364,0.33302 -0.254,0 -0.4459,-0.124177 -0.4459,-0.491063 z m 0.32173,2.511758 c 0.75635,0 1.45625,-0.609595 1.45625,-1.936029 0,-1.26999 -0.67733,-1.78363 -1.37159,-1.78363 -0.65475,0 -1.2079,0.457196 -1.2079,1.207901 0,0.761994 0.46284,1.106303 1.07808,1.106303 0.20884,0 0.51364,-0.135466 0.69991,-0.372531 -0.0339,0.801505 -0.32738,1.072436 -0.71684,1.072436 -0.2032,0 -0.42898,-0.118532 -0.54751,-0.253998 l -0.46284,0.519285 c 0.23142,0.237065 0.58702,0.440263 1.07244,0.440263 z"
     id="text57-4"
     style="font-weight:bold;font-size:5.6444px;font-family:'Source Sans Pro';fill:#e4f8f8;stroke-width:0.5;paint-order:stroke fill markers"
     aria-label="9" />
  <path
     d="m 125.61342,90.23702 c 0.72813,0 1.34901,-0.37253 1.34901,-1.04421 0,-0.46284 -0.29351,-0.75071 -0.70555,-0.86924 v -0.0226 c 0.38382,-0.16369 0.59266,-0.42897 0.59266,-0.79021 0,-0.63782 -0.4967,-0.99342 -1.2587,-0.99342 -0.43462,0 -0.8015,0.17498 -1.13452,0.46284 l 0.44026,0.53058 c 0.22013,-0.19756 0.4064,-0.3048 0.65475,-0.3048 0.27093,0 0.42333,0.12982 0.42333,0.37253 0,0.27093 -0.19755,0.4572 -0.82408,0.4572 v 0.61523 c 0.76764,0 0.93697,0.18063 0.93697,0.47978 0,0.25964 -0.22013,0.40075 -0.56444,0.40075 -0.28222,0 -0.54751,-0.14675 -0.76764,-0.3556 l -0.40075,0.55316 c 0.26529,0.30479 0.67733,0.50799 1.2587,0.50799 z"
     id="text58-9"
     style="font-weight:bold;font-size:5.6444px;font-family:'Source Sans Pro';fill:#ffffff;stroke-width:0.5;paint-order:stroke fill markers"
     aria-label="3" />
  <path
     d="m 143.51611,90.23702 c 0.72813,0 1.34901,-0.37253 1.34901,-1.04421 0,-0.46284 -0.29351,-0.75071 -0.70555,-0.86924 v -0.0226 c 0.38382,-0.16369 0.59266,-0.42897 0.59266,-0.79021 0,-0.63782 -0.49671,-0.99342 -1.2587,-0.99342 -0.43462,0 -0.8015,0.17498 -1.13452,0.46284 l 0.44026,0.53058 c 0.22013,-0.19756 0.4064,-0.3048 0.65475,-0.3048 0.27093,0 0.42333,0.12982 0.42333,0.37253 0,0.27093 -0.19755,0.4572 -0.82408,0.4572 v 0.61523 c 0.76764,0 0.93697,0.18063 0.93697,0.47978 0,0.25964 -0.22013,0.40075 -0.56444,0.40075 -0.28222,0 -0.54751,-0.14675 -0.76764,-0.3556 l -0.40075,0.55316 c 0.26528,0.30479 0.67732,0.50799 1.2587,0.50799 z"
     id="text59-0"
     style="font-weight:bold;font-size:5.6444px;font-family:'Source Sans Pro';fill:#ffffff;stroke-width:0.5;paint-order:stroke fill markers"
     aria-label="3" />
  <path
     d="m 178.87839,87.72526 c 0,-0.3951 0.19756,-0.55315 0.42898,-0.55315 0.22577,0 0.45155,0.15805 0.53057,0.7112 -0.13547,0.23706 -0.33302,0.33302 -0.51364,0.33302 -0.254,0 -0.44591,-0.12418 -0.44591,-0.49107 z m 0.32173,2.51176 c 0.75635,0 1.45626,-0.60959 1.45626,-1.93603 0,-1.26999 -0.67733,-1.78363 -1.37159,-1.78363 -0.65475,0 -1.2079,0.4572 -1.2079,1.2079 0,0.762 0.46284,1.10631 1.07808,1.10631 0.20884,0 0.51364,-0.13547 0.6999,-0.37253 -0.0339,0.8015 -0.32737,1.07243 -0.71684,1.07243 -0.20319,0 -0.42897,-0.11853 -0.5475,-0.254 l -0.46284,0.51929 c 0.23142,0.23706 0.58701,0.44026 1.07243,0.44026 z"
     id="text60-0"
     style="font-weight:bold;font-size:5.6444px;font-family:'Source Sans Pro';fill:#ffffff;stroke-width:0.5;paint-order:stroke fill markers"
     aria-label="9" />
  <path
     d="m 197.22417,90.237022 c 0.72812,0 1.34901,-0.372531 1.34901,-1.044214 0,-0.462841 -0.29351,-0.750706 -0.70555,-0.869238 v -0.02258 c 0.38382,-0.163687 0.59266,-0.428974 0.59266,-0.790216 0,-0.637817 -0.49671,-0.993414 -1.2587,-0.993414 -0.43462,0 -0.80151,0.174976 -1.13453,0.462841 l 0.44027,0.530573 c 0.22013,-0.197554 0.40639,-0.304797 0.65475,-0.304797 0.27093,0 0.42333,0.129821 0.42333,0.37253 0,0.270931 -0.19756,0.457197 -0.82409,0.457197 v 0.615239 c 0.76764,0 0.93697,0.180621 0.93697,0.479774 0,0.259643 -0.22013,0.400753 -0.56444,0.400753 -0.28222,0 -0.5475,-0.146755 -0.76763,-0.355598 l -0.40076,0.553152 c 0.26529,0.304797 0.67733,0.507996 1.25871,0.507996 z"
     id="text61-8"
     style="font-weight:bold;font-size:5.6444px;font-family:'Source Sans Pro';fill:#e4f8f8;stroke-width:0.5;paint-order:stroke fill markers"
     aria-label="3" />
  <path
     d="m 160.91362,88.667878 0.42333,-0.728127 c 0.1016,-0.208843 0.2032,-0.412041 0.29351,-0.620884 h 0.0226 c -0.0113,0.237065 -0.0282,0.587017 -0.0282,0.818438 v 0.530573 z m 0.71119,1.501411 h 0.8128 v -0.835371 h 0.40639 v -0.66604 h -0.40639 v -2.082783 h -1.07808 l -1.27564,2.139227 v 0.609596 h 1.54092 z"
     id="text62-2"
     style="font-weight:bold;font-size:5.6444px;font-family:'Source Sans Pro';stroke-width:0.5;paint-order:stroke fill markers;fill:#ffffff"
     aria-label="4" />
</svg>
