<svg width="940" height="274" viewBox="0 0 940 274" fill="none" xmlns="http://www.w3.org/2000/svg">
<g filter="url(#filter0_i_6_2077)">
<ellipse cx="257.712" cy="155.192" rx="14.0052" ry="14.0118" fill="#D1D1E5"/>
<ellipse cx="201.691" cy="155.192" rx="14.0052" ry="14.0118" fill="#D1D1E5"/>
<ellipse cx="144.549" cy="155.192" rx="14.0052" ry="14.0118" fill="#D1D1E5"/>
<ellipse cx="88.5287" cy="155.192" rx="14.0052" ry="14.0118" fill="#D1D1E5"/>
<ellipse cx="224.099" cy="103.652" rx="14.0052" ry="14.0118" fill="#D1D1E5"/>
<ellipse cx="121.021" cy="103.652" rx="14.0052" ry="14.0118" fill="#D1D1E5"/>
<ellipse cx="172.56" cy="56.0118" rx="14.0052" ry="14.0118" fill="#D1D1E5"/>
</g>
<g filter="url(#filter1_i_6_2077)">
<rect x="262.194" y="187.428" width="16.8063" height="16.7158" rx="2" fill="#6A5ACD"/>
<rect x="234.183" y="187.428" width="16.8063" height="16.7158" rx="2" fill="#6A5ACD"/>
<rect x="206.173" y="187.428" width="16.8063" height="16.7158" rx="2" fill="#6A5ACD"/>
<rect x="178.162" y="187.428" width="16.8063" height="16.7158" rx="2" fill="#6A5ACD"/>
<rect x="149.031" y="187.428" width="16.8063" height="16.7158" rx="2" fill="#6959CB"/>
<rect x="121.021" y="187.428" width="16.8063" height="16.7158" rx="2" fill="#6959CB"/>
<rect x="93.0107" y="187.428" width="16.8063" height="16.7158" rx="2" fill="#FF4C4C"/>
<rect x="65" y="187.428" width="16.8063" height="16.7158" rx="2" fill="#FF4C4C"/>
</g>
<path d="M85.2919 152.3L85.3279 152.252H85.4719C85.5599 152.252 85.6159 152.264 85.6399 152.288L85.6879 152.324V155.9V159.476L85.7239 159.5C85.7319 159.508 85.7599 159.52 85.8079 159.536C85.9039 159.56 86.2239 159.572 86.7679 159.572H87.1639V159.908V160.244H87.0199L85.9879 160.22C85.3879 160.212 84.7879 160.212 84.1879 160.22C83.4839 160.236 83.1359 160.244 83.1439 160.244H82.9999V159.908V159.572H83.3959C83.9559 159.572 84.2839 159.56 84.3799 159.536C84.4279 159.52 84.4559 159.508 84.4639 159.5L84.4999 159.476V156.464C84.4999 154.456 84.4959 153.452 84.4879 153.452C84.0719 153.612 83.6079 153.692 83.0959 153.692H82.9399V153.356V153.02H83.0959C83.7999 153.02 84.3999 152.876 84.8959 152.588C85.0959 152.46 85.2279 152.364 85.2919 152.3ZM90.6079 152.264C90.7759 152.248 91.0079 152.252 91.3039 152.276C92.0639 152.396 92.6079 152.72 92.9359 153.248C93.0399 153.424 93.1119 153.608 93.1519 153.8C93.1839 153.976 93.1759 154.172 93.1279 154.388C93.0399 154.828 92.8359 155.204 92.5159 155.516C92.2919 155.74 92.0479 155.908 91.7839 156.02C91.7199 156.06 91.6839 156.08 91.6759 156.08L91.8559 156.14C92.2559 156.276 92.6039 156.484 92.8999 156.764C93.1479 157.02 93.3199 157.312 93.4159 157.64C93.5759 158.208 93.4799 158.772 93.1279 159.332C93.0399 159.46 92.9439 159.58 92.8399 159.692C92.6239 159.908 92.3959 160.076 92.1559 160.196C91.8839 160.332 91.5799 160.428 91.2439 160.484C91.0599 160.516 90.8159 160.52 90.5119 160.496C90.4799 160.488 90.4559 160.484 90.4399 160.484C89.6159 160.348 89.0399 160 88.7119 159.44C88.7039 159.424 88.6959 159.408 88.6879 159.392C88.5759 159.168 88.5199 158.924 88.5199 158.66C88.5199 158.532 88.5279 158.436 88.5439 158.372C88.6719 158.02 88.9319 157.84 89.3239 157.832C89.7239 157.832 89.9879 158.012 90.1159 158.372C90.1319 158.436 90.1399 158.528 90.1399 158.648C90.1399 158.768 90.1319 158.856 90.1159 158.912C90.0359 159.16 89.8759 159.328 89.6359 159.416L89.5639 159.44L89.5879 159.464C89.6919 159.544 89.7959 159.608 89.8999 159.656C90.2199 159.824 90.5559 159.896 90.9079 159.872C90.9479 159.872 90.9799 159.868 91.0039 159.86C91.3639 159.804 91.6239 159.592 91.7839 159.224C91.7999 159.184 91.8159 159.144 91.8319 159.104C91.9039 158.904 91.9399 158.572 91.9399 158.108C91.9399 157.636 91.8959 157.288 91.8079 157.064C91.7039 156.784 91.5199 156.576 91.2559 156.44C91.1439 156.392 90.9279 156.364 90.6079 156.356H90.5359L90.0559 156.344L90.0199 156.32C90.0039 156.296 89.9959 156.216 89.9959 156.08C89.9959 155.936 90.0039 155.856 90.0199 155.84C90.0359 155.816 90.0519 155.804 90.0679 155.804C90.0759 155.796 90.1919 155.784 90.4159 155.768C90.7439 155.744 90.9759 155.688 91.1119 155.6C91.3999 155.408 91.5959 155.072 91.6999 154.592C91.8119 154.016 91.7879 153.58 91.6279 153.284C91.5639 153.148 91.4519 153.036 91.2919 152.948C91.1719 152.892 91.0239 152.864 90.8479 152.864C90.4479 152.848 90.1039 152.972 89.8159 153.236L89.7439 153.296L89.8159 153.32C90.1199 153.4 90.2959 153.604 90.3439 153.932C90.3519 153.956 90.3559 153.98 90.3559 154.004C90.3559 154.148 90.3279 154.288 90.2719 154.424C90.2079 154.544 90.1039 154.644 89.9599 154.724C89.8239 154.78 89.6999 154.808 89.5879 154.808C89.4839 154.808 89.3639 154.78 89.2279 154.724C89.0839 154.644 88.9799 154.544 88.9159 154.424C88.8599 154.304 88.8319 154.152 88.8319 153.968C88.8639 153.36 89.1639 152.892 89.7319 152.564C89.7639 152.54 89.7959 152.52 89.8279 152.504C90.0759 152.376 90.3359 152.296 90.6079 152.264Z" fill="#4A4848"/>
<path d="M71.9315 192.482C71.9581 192.462 72.0081 192.469 72.0815 192.502C72.3081 192.596 72.5448 192.666 72.7915 192.712C73.4181 192.832 74.0348 192.792 74.6415 192.592C74.6881 192.579 74.7715 192.549 74.8915 192.502C74.9781 192.462 75.0381 192.459 75.0715 192.492L75.1015 192.522V192.692V192.872L75.0415 192.942C74.8948 193.102 74.7148 193.252 74.5015 193.392C74.0948 193.646 73.6515 193.789 73.1715 193.822C72.8715 193.836 72.6415 193.822 72.4815 193.782L72.4415 193.772V194.562V195.342L72.5015 195.292C72.6548 195.166 72.8181 195.072 72.9915 195.012C73.4448 194.859 73.9015 194.896 74.3615 195.122C74.9281 195.416 75.2881 195.912 75.4415 196.612C75.4548 196.666 75.4648 196.719 75.4715 196.772C75.4981 196.972 75.4981 197.196 75.4715 197.442C75.3781 197.929 75.1748 198.336 74.8615 198.662C74.6881 198.836 74.4848 198.982 74.2515 199.102C73.7048 199.369 73.1881 199.419 72.7015 199.252C72.1815 199.086 71.8215 198.746 71.6215 198.232C71.5748 198.126 71.5415 198.012 71.5215 197.892C71.4948 197.699 71.4915 197.552 71.5115 197.452C71.5448 197.332 71.5981 197.236 71.6715 197.162C71.8515 196.982 72.0715 196.932 72.3315 197.012C72.4915 197.066 72.6048 197.162 72.6715 197.302C72.7115 197.389 72.7315 197.486 72.7315 197.592C72.7315 197.706 72.7115 197.806 72.6715 197.892C72.6048 198.039 72.4781 198.139 72.2915 198.192C72.2381 198.206 72.2048 198.212 72.1915 198.212C72.1781 198.212 72.1881 198.239 72.2215 198.292C72.3348 198.452 72.4881 198.582 72.6815 198.682C72.8415 198.769 73.0281 198.812 73.2415 198.812C73.6081 198.812 73.8915 198.679 74.0915 198.412C74.2248 198.239 74.3048 197.999 74.3315 197.692C74.3515 197.512 74.3548 197.142 74.3415 196.582C74.3415 196.502 74.3381 196.446 74.3315 196.412C74.3048 196.119 74.2548 195.912 74.1815 195.792C74.0015 195.492 73.7348 195.362 73.3815 195.402C72.9481 195.456 72.6248 195.682 72.4115 196.082C72.3715 196.142 72.3248 196.176 72.2715 196.182C72.2448 196.182 72.2015 196.182 72.1415 196.182C71.9948 196.182 71.9148 196.162 71.9015 196.122C71.8881 196.096 71.8815 195.496 71.8815 194.322C71.8815 193.136 71.8848 192.536 71.8915 192.522C71.9048 192.496 71.9181 192.482 71.9315 192.482Z" fill="white"/>
<path d="M101.338 192.472L101.828 192.482C102.421 192.589 102.848 192.862 103.108 193.302C103.128 193.342 103.148 193.379 103.168 193.412C103.228 193.552 103.268 193.669 103.288 193.762C103.314 193.916 103.314 194.089 103.288 194.282C103.221 194.589 103.054 194.872 102.788 195.132C102.674 195.246 102.544 195.349 102.398 195.442C102.358 195.469 102.334 195.486 102.328 195.492L102.518 195.622C102.651 195.709 102.741 195.769 102.788 195.802C102.928 195.909 103.044 196.022 103.138 196.142C103.478 196.556 103.621 197.029 103.568 197.562C103.501 198.162 103.208 198.636 102.688 198.982C102.488 199.116 102.264 199.216 102.018 199.282C101.458 199.416 100.921 199.346 100.408 199.072C100.348 199.039 100.291 199.006 100.238 198.972C99.8111 198.692 99.5511 198.316 99.4578 197.842C99.4178 197.629 99.4178 197.422 99.4578 197.222C99.5178 196.942 99.6445 196.679 99.8378 196.432C99.9578 196.279 100.091 196.149 100.238 196.042C100.384 195.929 100.504 195.849 100.598 195.802C100.618 195.789 100.631 195.779 100.638 195.772L100.548 195.702C100.134 195.449 99.8711 195.092 99.7578 194.632C99.6245 194.152 99.7045 193.689 99.9978 193.242C100.138 193.049 100.291 192.896 100.458 192.782C100.658 192.656 100.858 192.569 101.058 192.522C101.124 192.496 101.218 192.479 101.338 192.472ZM101.678 192.972C101.291 192.919 100.958 193.012 100.678 193.252C100.591 193.326 100.524 193.406 100.478 193.492C100.311 193.806 100.364 194.099 100.638 194.372C100.691 194.432 100.894 194.576 101.248 194.802L101.358 194.872C101.698 195.099 101.874 195.206 101.888 195.192C101.948 195.172 102.054 195.086 102.208 194.932C102.408 194.732 102.538 194.509 102.598 194.262C102.631 194.116 102.628 193.952 102.588 193.772C102.534 193.586 102.441 193.426 102.308 193.292C102.134 193.119 101.924 193.012 101.678 192.972ZM101.808 196.512C101.368 196.232 101.158 196.099 101.178 196.112L101.098 196.062L100.998 196.132C100.484 196.472 100.211 196.909 100.178 197.442C100.178 197.496 100.178 197.549 100.178 197.602C100.198 197.936 100.331 198.216 100.578 198.442C100.751 198.616 100.974 198.732 101.248 198.792C101.408 198.819 101.584 198.819 101.778 198.792C102.231 198.699 102.544 198.486 102.718 198.152C102.744 198.106 102.764 198.056 102.778 198.002C102.891 197.629 102.804 197.299 102.518 197.012C102.458 196.952 102.221 196.786 101.808 196.512Z" fill="white"/>
<path d="M129.844 192.472C129.984 192.459 130.154 192.462 130.354 192.482C130.788 192.576 131.078 192.796 131.224 193.142C131.344 193.402 131.374 193.636 131.314 193.842C131.241 194.116 131.054 194.259 130.754 194.272C130.648 194.272 130.551 194.249 130.464 194.202C130.258 194.109 130.158 193.936 130.164 193.682C130.164 193.582 130.188 193.489 130.234 193.402C130.308 193.262 130.414 193.176 130.554 193.142L130.594 193.122L130.534 193.082C130.401 193.002 130.244 192.966 130.064 192.972C129.911 192.972 129.774 192.992 129.654 193.032C129.368 193.132 129.134 193.322 128.954 193.602C128.741 193.909 128.621 194.419 128.594 195.132C128.594 195.219 128.591 195.296 128.584 195.362C128.591 195.362 128.611 195.339 128.644 195.292C128.744 195.146 128.858 195.036 128.984 194.962C129.198 194.816 129.424 194.739 129.664 194.732C130.038 194.719 130.371 194.819 130.664 195.032C130.804 195.132 130.938 195.266 131.064 195.432C131.351 195.806 131.518 196.206 131.564 196.632C131.591 196.799 131.594 197.029 131.574 197.322C131.568 197.349 131.564 197.372 131.564 197.392C131.498 197.932 131.258 198.402 130.844 198.802C130.458 199.182 129.994 199.362 129.454 199.342C129.041 199.322 128.671 199.169 128.344 198.882C128.164 198.709 128.011 198.499 127.884 198.252C127.644 197.806 127.501 197.239 127.454 196.552C127.421 196.092 127.428 195.679 127.474 195.312C127.601 194.352 127.971 193.602 128.584 193.062C128.678 192.982 128.774 192.909 128.874 192.842C129.168 192.636 129.491 192.512 129.844 192.472ZM129.744 195.212C129.631 195.199 129.534 195.199 129.454 195.212C128.961 195.286 128.678 195.759 128.604 196.632C128.578 196.999 128.588 197.429 128.634 197.922C128.641 197.942 128.644 197.962 128.644 197.982C128.664 198.182 128.751 198.369 128.904 198.542C129.024 198.662 129.161 198.746 129.314 198.792C129.428 198.819 129.578 198.819 129.764 198.792C129.978 198.739 130.144 198.629 130.264 198.462C130.378 198.296 130.434 197.886 130.434 197.232C130.434 197.112 130.434 196.972 130.434 196.812C130.428 196.352 130.411 196.032 130.384 195.852C130.378 195.759 130.344 195.662 130.284 195.562C130.158 195.369 129.978 195.252 129.744 195.212Z" fill="white"/>
<path d="M157.191 192.472C157.331 192.459 157.524 192.462 157.771 192.482C158.404 192.582 158.857 192.852 159.131 193.292C159.217 193.439 159.277 193.592 159.311 193.752C159.337 193.899 159.331 194.062 159.291 194.242C159.217 194.609 159.047 194.922 158.781 195.182C158.594 195.369 158.391 195.509 158.171 195.602C158.117 195.636 158.087 195.652 158.081 195.652L158.231 195.702C158.564 195.816 158.854 195.989 159.101 196.222C159.307 196.436 159.451 196.679 159.531 196.952C159.664 197.426 159.584 197.896 159.291 198.362C159.217 198.469 159.137 198.569 159.051 198.662C158.871 198.842 158.681 198.982 158.481 199.082C158.254 199.196 158.001 199.276 157.721 199.322C157.567 199.349 157.364 199.352 157.111 199.332C157.084 199.326 157.064 199.322 157.051 199.322C156.364 199.209 155.884 198.919 155.611 198.452C155.604 198.439 155.597 198.426 155.591 198.412C155.497 198.226 155.451 198.022 155.451 197.802C155.451 197.696 155.457 197.616 155.471 197.562C155.577 197.269 155.794 197.119 156.121 197.112C156.454 197.112 156.674 197.262 156.781 197.562C156.794 197.616 156.801 197.692 156.801 197.792C156.801 197.892 156.794 197.966 156.781 198.012C156.714 198.219 156.581 198.359 156.381 198.432L156.321 198.452L156.341 198.472C156.427 198.539 156.514 198.592 156.601 198.632C156.867 198.772 157.147 198.832 157.441 198.812C157.474 198.812 157.501 198.809 157.521 198.802C157.821 198.756 158.037 198.579 158.171 198.272C158.184 198.239 158.197 198.206 158.211 198.172C158.271 198.006 158.301 197.729 158.301 197.342C158.301 196.949 158.264 196.659 158.191 196.472C158.104 196.239 157.951 196.066 157.731 195.952C157.637 195.912 157.457 195.889 157.191 195.882H157.131L156.731 195.872L156.701 195.852C156.687 195.832 156.681 195.766 156.681 195.652C156.681 195.532 156.687 195.466 156.701 195.452C156.714 195.432 156.727 195.422 156.741 195.422C156.747 195.416 156.844 195.406 157.031 195.392C157.304 195.372 157.497 195.326 157.611 195.252C157.851 195.092 158.014 194.812 158.101 194.412C158.194 193.932 158.174 193.569 158.041 193.322C157.987 193.209 157.894 193.116 157.761 193.042C157.661 192.996 157.537 192.972 157.391 192.972C157.057 192.959 156.771 193.062 156.531 193.282L156.471 193.332L156.531 193.352C156.784 193.419 156.931 193.589 156.971 193.862C156.977 193.882 156.981 193.902 156.981 193.922C156.981 194.042 156.957 194.159 156.911 194.272C156.857 194.372 156.771 194.456 156.651 194.522C156.537 194.569 156.434 194.592 156.341 194.592C156.254 194.592 156.154 194.569 156.041 194.522C155.921 194.456 155.834 194.372 155.781 194.272C155.734 194.172 155.711 194.046 155.711 193.892C155.737 193.386 155.987 192.996 156.461 192.722C156.487 192.702 156.514 192.686 156.541 192.672C156.747 192.566 156.964 192.499 157.191 192.472Z" fill="white"/>
<path d="M186.168 192.472C186.354 192.452 186.548 192.459 186.748 192.492C187.208 192.552 187.591 192.732 187.898 193.032C188.071 193.192 188.211 193.382 188.318 193.602C188.431 193.856 188.498 194.136 188.518 194.442C188.524 194.829 188.418 195.196 188.198 195.542C187.998 195.836 187.644 196.192 187.138 196.612C186.898 196.819 186.561 197.129 186.128 197.542L185.548 198.092L186.228 198.102C187.201 198.102 187.721 198.086 187.788 198.052C187.828 198.032 187.871 197.916 187.918 197.702L188.018 197.142C188.018 197.136 188.101 197.132 188.268 197.132H188.518V197.162C188.511 197.176 188.464 197.496 188.378 198.122C188.291 198.749 188.244 199.072 188.238 199.092V199.122H186.378H184.528V198.882C184.528 198.716 184.534 198.622 184.548 198.602L185.398 197.642C186.124 196.829 186.568 196.319 186.728 196.112C186.981 195.759 187.158 195.439 187.258 195.152C187.431 194.619 187.398 194.129 187.158 193.682C187.098 193.576 187.028 193.479 186.948 193.392C186.728 193.166 186.454 193.042 186.128 193.022C185.861 193.009 185.631 193.099 185.438 193.292L185.258 193.522C185.258 193.536 185.284 193.542 185.338 193.542C185.464 193.582 185.564 193.639 185.638 193.712C185.684 193.746 185.724 193.796 185.758 193.862C185.804 193.976 185.828 194.092 185.828 194.212C185.808 194.532 185.644 194.729 185.338 194.802C185.311 194.809 185.284 194.816 185.258 194.822C185.204 194.829 185.151 194.829 185.098 194.822C184.818 194.782 184.638 194.639 184.558 194.392C184.544 194.339 184.538 194.256 184.538 194.142C184.538 194.016 184.544 193.926 184.558 193.872C184.618 193.606 184.731 193.362 184.898 193.142C184.984 193.036 185.101 192.929 185.248 192.822C185.394 192.716 185.564 192.629 185.758 192.562C185.878 192.529 186.014 192.499 186.168 192.472Z" fill="white"/>
<path d="M212.754 193.492L212.904 192.362H213.154H213.404V192.402C213.424 192.522 213.551 192.599 213.784 192.632C213.937 192.659 214.517 192.676 215.524 192.682H216.884V192.932V193.172L216.224 194.052L215.524 195.012C215.164 195.539 214.951 196.262 214.884 197.182C214.857 197.429 214.841 197.812 214.834 198.332L214.824 198.892L214.804 198.962C214.764 199.056 214.714 199.129 214.654 199.182C214.481 199.349 214.277 199.389 214.044 199.302C213.964 199.276 213.897 199.236 213.844 199.182C213.784 199.129 213.734 199.056 213.694 198.962C213.681 198.929 213.671 198.859 213.664 198.752C213.664 198.512 213.677 198.299 213.704 198.112C213.817 197.059 214.227 196.016 214.934 194.982L215.864 193.712C215.871 193.706 215.841 193.702 215.774 193.702C215.694 193.702 215.367 193.702 214.794 193.702C213.974 193.709 213.501 193.722 213.374 193.742C213.321 193.742 213.281 193.786 213.254 193.872C213.207 193.972 213.151 194.226 213.084 194.632V194.672H212.834H212.584V194.652C212.584 194.659 212.641 194.272 212.754 193.492Z" fill="white"/>
<path d="M242.181 192.472C242.367 192.452 242.561 192.459 242.761 192.492C243.221 192.552 243.604 192.732 243.911 193.032C244.084 193.192 244.224 193.382 244.331 193.602C244.444 193.856 244.511 194.136 244.531 194.442C244.537 194.829 244.431 195.196 244.211 195.542C244.011 195.836 243.657 196.192 243.151 196.612C242.911 196.819 242.574 197.129 242.141 197.542L241.561 198.092L242.241 198.102C243.214 198.102 243.734 198.086 243.801 198.052C243.841 198.032 243.884 197.916 243.931 197.702L244.031 197.142C244.031 197.136 244.114 197.132 244.281 197.132H244.531V197.162C244.524 197.176 244.477 197.496 244.391 198.122C244.304 198.749 244.257 199.072 244.251 199.092V199.122H242.391H240.541V198.882C240.541 198.716 240.547 198.622 240.561 198.602L241.411 197.642C242.137 196.829 242.581 196.319 242.741 196.112C242.994 195.759 243.171 195.439 243.271 195.152C243.444 194.619 243.411 194.129 243.171 193.682C243.111 193.576 243.041 193.479 242.961 193.392C242.741 193.166 242.467 193.042 242.141 193.022C241.874 193.009 241.644 193.099 241.451 193.292L241.271 193.522C241.271 193.536 241.297 193.542 241.351 193.542C241.477 193.582 241.577 193.639 241.651 193.712C241.697 193.746 241.737 193.796 241.771 193.862C241.817 193.976 241.841 194.092 241.841 194.212C241.821 194.532 241.657 194.729 241.351 194.802C241.324 194.809 241.297 194.816 241.271 194.822C241.217 194.829 241.164 194.829 241.111 194.822C240.831 194.782 240.651 194.639 240.571 194.392C240.557 194.339 240.551 194.256 240.551 194.142C240.551 194.016 240.557 193.926 240.571 193.872C240.631 193.606 240.744 193.362 240.911 193.142C240.997 193.036 241.114 192.929 241.261 192.822C241.407 192.716 241.577 192.629 241.771 192.562C241.891 192.529 242.027 192.499 242.181 192.472Z" fill="white"/>
<path d="M270.877 192.472C271.017 192.459 271.187 192.462 271.387 192.482C271.82 192.576 272.11 192.796 272.257 193.142C272.377 193.402 272.407 193.636 272.347 193.842C272.274 194.116 272.087 194.259 271.787 194.272C271.68 194.272 271.584 194.249 271.497 194.202C271.29 194.109 271.19 193.936 271.197 193.682C271.197 193.582 271.22 193.489 271.267 193.402C271.34 193.262 271.447 193.176 271.587 193.142L271.627 193.122L271.567 193.082C271.434 193.002 271.277 192.966 271.097 192.972C270.944 192.972 270.807 192.992 270.687 193.032C270.4 193.132 270.167 193.322 269.987 193.602C269.774 193.909 269.654 194.419 269.627 195.132C269.627 195.219 269.624 195.296 269.617 195.362C269.624 195.362 269.644 195.339 269.677 195.292C269.777 195.146 269.89 195.036 270.017 194.962C270.23 194.816 270.457 194.739 270.697 194.732C271.07 194.719 271.404 194.819 271.697 195.032C271.837 195.132 271.97 195.266 272.097 195.432C272.384 195.806 272.55 196.206 272.597 196.632C272.624 196.799 272.627 197.029 272.607 197.322C272.6 197.349 272.597 197.372 272.597 197.392C272.53 197.932 272.29 198.402 271.877 198.802C271.49 199.182 271.027 199.362 270.487 199.342C270.074 199.322 269.704 199.169 269.377 198.882C269.197 198.709 269.044 198.499 268.917 198.252C268.677 197.806 268.534 197.239 268.487 196.552C268.454 196.092 268.46 195.679 268.507 195.312C268.634 194.352 269.004 193.602 269.617 193.062C269.71 192.982 269.807 192.909 269.907 192.842C270.2 192.636 270.524 192.512 270.877 192.472ZM270.777 195.212C270.664 195.199 270.567 195.199 270.487 195.212C269.994 195.286 269.71 195.759 269.637 196.632C269.61 196.999 269.62 197.429 269.667 197.922C269.674 197.942 269.677 197.962 269.677 197.982C269.697 198.182 269.784 198.369 269.937 198.542C270.057 198.662 270.194 198.746 270.347 198.792C270.46 198.819 270.61 198.819 270.797 198.792C271.01 198.739 271.177 198.629 271.297 198.462C271.41 198.296 271.467 197.886 271.467 197.232C271.467 197.112 271.467 196.972 271.467 196.812C271.46 196.352 271.444 196.032 271.417 195.852C271.41 195.759 271.377 195.662 271.317 195.562C271.19 195.369 271.01 195.252 270.777 195.212Z" fill="white"/>
<line y1="-0.5" x2="39.2277" y2="-0.5" transform="matrix(-0.714049 0.700096 -0.699761 -0.714377 160.236 65.5398)" stroke="#969696"/>
<line y1="-0.5" x2="38.0451" y2="-0.5" transform="matrix(0.72152 0.692394 -0.692056 0.721844 184.325 66.6606)" stroke="#969696"/>
<line y1="-0.5" x2="30.7758" y2="-0.5" transform="matrix(-0.546088 0.837728 -0.837493 -0.546447 112.618 115.982)" stroke="#969696"/>
<line y1="-0.5" x2="27.4837" y2="-0.5" transform="matrix(0.346507 0.938047 -0.937942 0.346793 128.304 115.982)" stroke="#969696"/>
<line y1="-0.5" x2="26.435" y2="-0.5" transform="matrix(-0.360252 0.932855 -0.932741 -0.360546 218.497 117.664)" stroke="#969696"/>
<line y1="-0.5" x2="30.622" y2="-0.5" transform="matrix(0.567125 0.823632 -0.823383 0.567485 234.183 115.982)" stroke="#969696"/>
<line y1="-0.5" x2="18.1584" y2="-0.5" transform="matrix(-0.308506 0.951222 -0.95219 -0.305505 81.8064 169.04)" stroke="#969696"/>
<line y1="-0.5" x2="17.8142" y2="-0.5" transform="matrix(0.283019 0.959114 -0.959042 0.283263 94.6912 169.227)" stroke="#969696"/>
<line y1="-0.5" x2="17.5535" y2="-0.5" transform="matrix(-0.287224 0.957863 -0.957789 -0.287471 136.707 169.227)" stroke="#969696"/>
<line y1="-0.5" x2="17.5535" y2="-0.5" transform="matrix(0.287224 0.957863 -0.957789 0.287471 151.272 169.227)" stroke="#969696"/>
<line y1="-0.5" x2="17.3683" y2="-0.5" transform="matrix(-0.322538 0.946557 -0.946464 -0.322809 194.969 169.04)" stroke="#969696"/>
<line y1="-0.5" x2="17.3821" y2="-0.5" transform="matrix(0.354509 0.935053 -0.934942 0.3548 207.853 169.227)" stroke="#969696"/>
<line y1="-0.5" x2="16.8592" y2="-0.5" transform="matrix(-0.365504 0.93081 -0.930693 -0.365801 250.99 169.227)" stroke="#969696"/>
<line y1="-0.5" x2="16.4829" y2="-0.5" transform="matrix(0.305879 0.95207 -0.951987 0.306139 263.874 169.227)" stroke="#969696"/>
<line x1="65.5" y1="210.142" x2="65.5" y2="215.714" stroke="#D9D9D9"/>
<line y1="-0.5" x2="214.001" y2="-0.5" transform="matrix(0.999997 0.00259473 -0.00264106 0.999997 65 216.274)" stroke="#D9D9D9"/>
<line x1="279.5" y1="210.83" x2="279.5" y2="216.402" stroke="#D9D9D9"/>
<path d="M174.939 225.233C174.975 225.209 175.119 225.197 175.371 225.197C175.635 225.197 175.785 225.209 175.821 225.233C175.857 225.245 175.893 225.269 175.929 225.305C175.953 225.341 176.595 227.279 177.855 231.119C179.127 234.983 179.769 236.921 179.781 236.933C179.829 237.005 180.003 237.047 180.303 237.059C180.423 237.071 180.681 237.077 181.077 237.077H181.545V237.581V238.085H181.383C181.395 238.085 180.969 238.073 180.105 238.049C179.373 238.037 178.593 238.037 177.765 238.049L176.325 238.085H176.127V237.581V237.077H176.415C177.063 237.077 177.459 237.041 177.603 236.969C177.627 236.945 177.639 236.921 177.639 236.897C177.639 236.921 177.525 236.567 177.297 235.835C177.093 235.223 176.967 234.833 176.919 234.665L176.883 234.557H174.849H172.833L172.527 235.475L172.221 236.447C172.209 236.543 172.251 236.639 172.347 236.735C172.551 236.927 172.893 237.041 173.373 237.077H173.571V237.581V238.085H173.409L172.239 238.049C171.543 238.037 170.913 238.037 170.349 238.049C169.689 238.073 169.353 238.085 169.341 238.085H169.215V237.581V237.077H169.395C169.779 237.077 170.127 237.035 170.439 236.951C170.811 236.831 171.039 236.675 171.123 236.483C171.135 236.459 171.759 234.587 172.995 230.867C174.195 227.219 174.807 225.365 174.831 225.305C174.867 225.269 174.903 225.245 174.939 225.233ZM175.695 230.975L174.867 228.419C174.867 228.431 174.303 230.129 173.175 233.513C173.175 233.537 173.733 233.549 174.849 233.549C175.977 233.549 176.541 233.543 176.541 233.531L175.695 230.975Z" fill="#777777"/>
<path d="M101.984 169.858L103.351 175.467L107.528 171.484L101.984 169.858ZM107.368 184.381C109.572 179.795 107.623 175.604 105.492 172.812L104.696 173.417C106.741 176.097 108.426 179.869 106.466 183.947L107.368 184.381Z" fill="#969696"/>
<path d="M76.68 169.859L75.3587 175.478L71.1498 171.53L76.68 169.859ZM71.1372 184.805C68.9502 180.075 71.0091 175.722 73.1986 172.837L73.9955 173.441C71.8849 176.221 70.0931 180.162 72.0455 184.385L71.1372 184.805Z" fill="#969696"/>
<g filter="url(#filter2_i_6_2077)">
<ellipse cx="555.712" cy="155.192" rx="14.0052" ry="14.0118" fill="#D1D1E5"/>
<ellipse cx="499.691" cy="155.192" rx="14.0052" ry="14.0118" fill="#D1D1E5"/>
<ellipse cx="442.549" cy="155.192" rx="14.0052" ry="14.0118" fill="#D1D1E5"/>
<ellipse cx="386.529" cy="155.192" rx="14.0052" ry="14.0118" fill="#FF4C4C"/>
<ellipse cx="522.099" cy="103.652" rx="14.0052" ry="14.0118" fill="#D1D1E5"/>
<ellipse cx="419.021" cy="103.652" rx="14.0052" ry="14.0118" fill="#D1D1E5"/>
<ellipse cx="470.56" cy="56.0118" rx="14.0052" ry="14.0118" fill="#D1D1E5"/>
</g>
<g filter="url(#filter3_i_6_2077)">
<rect x="560.194" y="187.428" width="16.8063" height="16.7158" rx="2" fill="#6A5ACD"/>
<rect x="532.183" y="187.428" width="16.8063" height="16.7158" rx="2" fill="#6A5ACD"/>
<rect x="504.173" y="187.428" width="16.8063" height="16.7158" rx="2" fill="#6A5ACD"/>
<rect x="476.162" y="187.428" width="16.8063" height="16.7158" rx="2" fill="#6A5ACD"/>
<rect x="447.031" y="187.428" width="16.8063" height="16.7158" rx="2" fill="#FF4C4C"/>
<rect x="419.021" y="187.428" width="16.8063" height="16.7158" rx="2" fill="#FF4C4C"/>
<rect x="391.011" y="187.428" width="16.8063" height="16.7158" rx="2" fill="#FF4C4C"/>
<rect x="363" y="187.428" width="16.8063" height="16.7158" rx="2" fill="#FF4C4C"/>
</g>
<path d="M383.292 152.3L383.328 152.252H383.472C383.56 152.252 383.616 152.264 383.64 152.288L383.688 152.324V155.9V159.476L383.724 159.5C383.732 159.508 383.76 159.52 383.808 159.536C383.904 159.56 384.224 159.572 384.768 159.572H385.164V159.908V160.244H385.02L383.988 160.22C383.388 160.212 382.788 160.212 382.188 160.22C381.484 160.236 381.136 160.244 381.144 160.244H381V159.908V159.572H381.396C381.956 159.572 382.284 159.56 382.38 159.536C382.428 159.52 382.456 159.508 382.464 159.5L382.5 159.476V156.464C382.5 154.456 382.496 153.452 382.488 153.452C382.072 153.612 381.608 153.692 381.096 153.692H380.94V153.356V153.02H381.096C381.8 153.02 382.4 152.876 382.896 152.588C383.096 152.46 383.228 152.364 383.292 152.3ZM388.608 152.264C388.776 152.248 389.008 152.252 389.304 152.276C390.064 152.396 390.608 152.72 390.936 153.248C391.04 153.424 391.112 153.608 391.152 153.8C391.184 153.976 391.176 154.172 391.128 154.388C391.04 154.828 390.836 155.204 390.516 155.516C390.292 155.74 390.048 155.908 389.784 156.02C389.72 156.06 389.684 156.08 389.676 156.08L389.856 156.14C390.256 156.276 390.604 156.484 390.9 156.764C391.148 157.02 391.32 157.312 391.416 157.64C391.576 158.208 391.48 158.772 391.128 159.332C391.04 159.46 390.944 159.58 390.84 159.692C390.624 159.908 390.396 160.076 390.156 160.196C389.884 160.332 389.58 160.428 389.244 160.484C389.06 160.516 388.816 160.52 388.512 160.496C388.48 160.488 388.456 160.484 388.44 160.484C387.616 160.348 387.04 160 386.712 159.44C386.704 159.424 386.696 159.408 386.688 159.392C386.576 159.168 386.52 158.924 386.52 158.66C386.52 158.532 386.528 158.436 386.544 158.372C386.672 158.02 386.932 157.84 387.324 157.832C387.724 157.832 387.988 158.012 388.116 158.372C388.132 158.436 388.14 158.528 388.14 158.648C388.14 158.768 388.132 158.856 388.116 158.912C388.036 159.16 387.876 159.328 387.636 159.416L387.564 159.44L387.588 159.464C387.692 159.544 387.796 159.608 387.9 159.656C388.22 159.824 388.556 159.896 388.908 159.872C388.948 159.872 388.98 159.868 389.004 159.86C389.364 159.804 389.624 159.592 389.784 159.224C389.8 159.184 389.816 159.144 389.832 159.104C389.904 158.904 389.94 158.572 389.94 158.108C389.94 157.636 389.896 157.288 389.808 157.064C389.704 156.784 389.52 156.576 389.256 156.44C389.144 156.392 388.928 156.364 388.608 156.356H388.536L388.056 156.344L388.02 156.32C388.004 156.296 387.996 156.216 387.996 156.08C387.996 155.936 388.004 155.856 388.02 155.84C388.036 155.816 388.052 155.804 388.068 155.804C388.076 155.796 388.192 155.784 388.416 155.768C388.744 155.744 388.976 155.688 389.112 155.6C389.4 155.408 389.596 155.072 389.7 154.592C389.812 154.016 389.788 153.58 389.628 153.284C389.564 153.148 389.452 153.036 389.292 152.948C389.172 152.892 389.024 152.864 388.848 152.864C388.448 152.848 388.104 152.972 387.816 153.236L387.744 153.296L387.816 153.32C388.12 153.4 388.296 153.604 388.344 153.932C388.352 153.956 388.356 153.98 388.356 154.004C388.356 154.148 388.328 154.288 388.272 154.424C388.208 154.544 388.104 154.644 387.96 154.724C387.824 154.78 387.7 154.808 387.588 154.808C387.484 154.808 387.364 154.78 387.228 154.724C387.084 154.644 386.98 154.544 386.916 154.424C386.86 154.304 386.832 154.152 386.832 153.968C386.864 153.36 387.164 152.892 387.732 152.564C387.764 152.54 387.796 152.52 387.828 152.504C388.076 152.376 388.336 152.296 388.608 152.264Z" fill="white"/>
<path d="M442.778 152.264C443.026 152.248 443.25 152.256 443.45 152.288C443.85 152.376 444.186 152.556 444.458 152.828C444.65 153.012 444.822 153.244 444.974 153.524C445.246 154.076 445.414 154.736 445.478 155.504C445.51 155.888 445.514 156.32 445.49 156.8C445.482 156.848 445.478 156.884 445.478 156.908C445.43 157.372 445.33 157.824 445.178 158.264C445.066 158.552 444.93 158.824 444.77 159.08C444.258 159.896 443.614 160.364 442.838 160.484C442.638 160.516 442.442 160.52 442.25 160.496C441.746 160.432 441.374 160.252 441.134 159.956C440.926 159.7 440.822 159.396 440.822 159.044C440.822 158.716 440.962 158.496 441.242 158.384C441.274 158.376 441.306 158.368 441.338 158.36C441.466 158.328 441.59 158.328 441.71 158.36C441.926 158.416 442.07 158.524 442.142 158.684C442.286 158.964 442.27 159.22 442.094 159.452C442.03 159.54 441.954 159.604 441.866 159.644C441.818 159.676 441.79 159.692 441.782 159.692C441.782 159.716 441.854 159.752 441.998 159.8C442.318 159.904 442.626 159.904 442.922 159.8C443.33 159.664 443.638 159.372 443.846 158.924C443.87 158.86 443.894 158.796 443.918 158.732C444.022 158.42 444.086 157.948 444.11 157.316C444.11 157.204 444.114 157.104 444.122 157.016C444.114 157.016 444.09 157.044 444.05 157.1C443.954 157.236 443.83 157.36 443.678 157.472C443.486 157.608 443.282 157.7 443.066 157.748C442.906 157.78 442.686 157.78 442.406 157.748C442.022 157.668 441.682 157.488 441.386 157.208C441.138 156.944 440.946 156.672 440.81 156.392C440.682 156.16 440.594 155.876 440.546 155.54C440.514 155.276 440.51 154.968 440.534 154.616C440.542 154.584 440.546 154.56 440.546 154.544C440.626 153.992 440.87 153.496 441.278 153.056C441.71 152.584 442.21 152.32 442.778 152.264ZM443.342 152.888C443.302 152.88 443.218 152.868 443.09 152.852C442.794 152.852 442.566 152.908 442.406 153.02C442.246 153.124 442.122 153.264 442.034 153.44C441.938 153.656 441.894 154.272 441.902 155.288C441.91 155.976 441.938 156.416 441.986 156.608C442.042 156.744 442.122 156.856 442.226 156.944C442.394 157.112 442.63 157.196 442.934 157.196C443.078 157.196 443.194 157.18 443.282 157.148C443.682 156.988 443.938 156.564 444.05 155.876C444.05 155.844 444.054 155.812 444.062 155.78C444.094 155.596 444.11 155.268 444.11 154.796C444.102 154.14 444.07 153.744 444.014 153.608C443.894 153.256 443.67 153.016 443.342 152.888Z" fill="#4A4848"/>
<path d="M369.931 192.482C369.958 192.462 370.008 192.469 370.081 192.502C370.308 192.596 370.545 192.666 370.791 192.712C371.418 192.832 372.035 192.792 372.641 192.592C372.688 192.579 372.771 192.549 372.891 192.502C372.978 192.462 373.038 192.459 373.071 192.492L373.101 192.522V192.692V192.872L373.041 192.942C372.895 193.102 372.715 193.252 372.501 193.392C372.095 193.646 371.651 193.789 371.171 193.822C370.871 193.836 370.641 193.822 370.481 193.782L370.441 193.772V194.562V195.342L370.501 195.292C370.655 195.166 370.818 195.072 370.991 195.012C371.445 194.859 371.901 194.896 372.361 195.122C372.928 195.416 373.288 195.912 373.441 196.612C373.455 196.666 373.465 196.719 373.471 196.772C373.498 196.972 373.498 197.196 373.471 197.442C373.378 197.929 373.175 198.336 372.861 198.662C372.688 198.836 372.485 198.982 372.251 199.102C371.705 199.369 371.188 199.419 370.701 199.252C370.181 199.086 369.821 198.746 369.621 198.232C369.575 198.126 369.541 198.012 369.521 197.892C369.495 197.699 369.491 197.552 369.511 197.452C369.545 197.332 369.598 197.236 369.671 197.162C369.851 196.982 370.071 196.932 370.331 197.012C370.491 197.066 370.605 197.162 370.671 197.302C370.711 197.389 370.731 197.486 370.731 197.592C370.731 197.706 370.711 197.806 370.671 197.892C370.605 198.039 370.478 198.139 370.291 198.192C370.238 198.206 370.205 198.212 370.191 198.212C370.178 198.212 370.188 198.239 370.221 198.292C370.335 198.452 370.488 198.582 370.681 198.682C370.841 198.769 371.028 198.812 371.241 198.812C371.608 198.812 371.891 198.679 372.091 198.412C372.225 198.239 372.305 197.999 372.331 197.692C372.351 197.512 372.355 197.142 372.341 196.582C372.341 196.502 372.338 196.446 372.331 196.412C372.305 196.119 372.255 195.912 372.181 195.792C372.001 195.492 371.735 195.362 371.381 195.402C370.948 195.456 370.625 195.682 370.411 196.082C370.371 196.142 370.325 196.176 370.271 196.182C370.245 196.182 370.201 196.182 370.141 196.182C369.995 196.182 369.915 196.162 369.901 196.122C369.888 196.096 369.881 195.496 369.881 194.322C369.881 193.136 369.885 192.536 369.891 192.522C369.905 192.496 369.918 192.482 369.931 192.482Z" fill="white"/>
<path d="M399.338 192.472L399.828 192.482C400.421 192.589 400.848 192.862 401.108 193.302C401.128 193.342 401.148 193.379 401.168 193.412C401.228 193.552 401.268 193.669 401.288 193.762C401.314 193.916 401.314 194.089 401.288 194.282C401.221 194.589 401.054 194.872 400.788 195.132C400.674 195.246 400.544 195.349 400.398 195.442C400.358 195.469 400.334 195.486 400.328 195.492L400.518 195.622C400.651 195.709 400.741 195.769 400.788 195.802C400.928 195.909 401.044 196.022 401.138 196.142C401.478 196.556 401.621 197.029 401.568 197.562C401.501 198.162 401.208 198.636 400.688 198.982C400.488 199.116 400.264 199.216 400.018 199.282C399.458 199.416 398.921 199.346 398.408 199.072C398.348 199.039 398.291 199.006 398.238 198.972C397.811 198.692 397.551 198.316 397.458 197.842C397.418 197.629 397.418 197.422 397.458 197.222C397.518 196.942 397.644 196.679 397.838 196.432C397.958 196.279 398.091 196.149 398.238 196.042C398.384 195.929 398.504 195.849 398.598 195.802C398.618 195.789 398.631 195.779 398.638 195.772L398.548 195.702C398.134 195.449 397.871 195.092 397.758 194.632C397.624 194.152 397.704 193.689 397.998 193.242C398.138 193.049 398.291 192.896 398.458 192.782C398.658 192.656 398.858 192.569 399.058 192.522C399.124 192.496 399.218 192.479 399.338 192.472ZM399.678 192.972C399.291 192.919 398.958 193.012 398.678 193.252C398.591 193.326 398.524 193.406 398.478 193.492C398.311 193.806 398.364 194.099 398.638 194.372C398.691 194.432 398.894 194.576 399.248 194.802L399.358 194.872C399.698 195.099 399.874 195.206 399.888 195.192C399.948 195.172 400.054 195.086 400.208 194.932C400.408 194.732 400.538 194.509 400.598 194.262C400.631 194.116 400.628 193.952 400.588 193.772C400.534 193.586 400.441 193.426 400.308 193.292C400.134 193.119 399.924 193.012 399.678 192.972ZM399.808 196.512C399.368 196.232 399.158 196.099 399.178 196.112L399.098 196.062L398.998 196.132C398.484 196.472 398.211 196.909 398.178 197.442C398.178 197.496 398.178 197.549 398.178 197.602C398.198 197.936 398.331 198.216 398.578 198.442C398.751 198.616 398.974 198.732 399.248 198.792C399.408 198.819 399.584 198.819 399.778 198.792C400.231 198.699 400.544 198.486 400.718 198.152C400.744 198.106 400.764 198.056 400.778 198.002C400.891 197.629 400.804 197.299 400.518 197.012C400.458 196.952 400.221 196.786 399.808 196.512Z" fill="white"/>
<path d="M427.844 192.472C427.984 192.459 428.154 192.462 428.354 192.482C428.788 192.576 429.078 192.796 429.224 193.142C429.344 193.402 429.374 193.636 429.314 193.842C429.241 194.116 429.054 194.259 428.754 194.272C428.648 194.272 428.551 194.249 428.464 194.202C428.258 194.109 428.158 193.936 428.164 193.682C428.164 193.582 428.188 193.489 428.234 193.402C428.308 193.262 428.414 193.176 428.554 193.142L428.594 193.122L428.534 193.082C428.401 193.002 428.244 192.966 428.064 192.972C427.911 192.972 427.774 192.992 427.654 193.032C427.368 193.132 427.134 193.322 426.954 193.602C426.741 193.909 426.621 194.419 426.594 195.132C426.594 195.219 426.591 195.296 426.584 195.362C426.591 195.362 426.611 195.339 426.644 195.292C426.744 195.146 426.858 195.036 426.984 194.962C427.198 194.816 427.424 194.739 427.664 194.732C428.038 194.719 428.371 194.819 428.664 195.032C428.804 195.132 428.938 195.266 429.064 195.432C429.351 195.806 429.518 196.206 429.564 196.632C429.591 196.799 429.594 197.029 429.574 197.322C429.568 197.349 429.564 197.372 429.564 197.392C429.498 197.932 429.258 198.402 428.844 198.802C428.458 199.182 427.994 199.362 427.454 199.342C427.041 199.322 426.671 199.169 426.344 198.882C426.164 198.709 426.011 198.499 425.884 198.252C425.644 197.806 425.501 197.239 425.454 196.552C425.421 196.092 425.428 195.679 425.474 195.312C425.601 194.352 425.971 193.602 426.584 193.062C426.678 192.982 426.774 192.909 426.874 192.842C427.168 192.636 427.491 192.512 427.844 192.472ZM427.744 195.212C427.631 195.199 427.534 195.199 427.454 195.212C426.961 195.286 426.678 195.759 426.604 196.632C426.578 196.999 426.588 197.429 426.634 197.922C426.641 197.942 426.644 197.962 426.644 197.982C426.664 198.182 426.751 198.369 426.904 198.542C427.024 198.662 427.161 198.746 427.314 198.792C427.428 198.819 427.578 198.819 427.764 198.792C427.978 198.739 428.144 198.629 428.264 198.462C428.378 198.296 428.434 197.886 428.434 197.232C428.434 197.112 428.434 196.972 428.434 196.812C428.428 196.352 428.411 196.032 428.384 195.852C428.378 195.759 428.344 195.662 428.284 195.562C428.158 195.369 427.978 195.252 427.744 195.212Z" fill="white"/>
<path d="M455.191 192.472C455.331 192.459 455.524 192.462 455.771 192.482C456.404 192.582 456.857 192.852 457.131 193.292C457.217 193.439 457.277 193.592 457.311 193.752C457.337 193.899 457.331 194.062 457.291 194.242C457.217 194.609 457.047 194.922 456.781 195.182C456.594 195.369 456.391 195.509 456.171 195.602C456.117 195.636 456.087 195.652 456.081 195.652L456.231 195.702C456.564 195.816 456.854 195.989 457.101 196.222C457.307 196.436 457.451 196.679 457.531 196.952C457.664 197.426 457.584 197.896 457.291 198.362C457.217 198.469 457.137 198.569 457.051 198.662C456.871 198.842 456.681 198.982 456.481 199.082C456.254 199.196 456.001 199.276 455.721 199.322C455.567 199.349 455.364 199.352 455.111 199.332C455.084 199.326 455.064 199.322 455.051 199.322C454.364 199.209 453.884 198.919 453.611 198.452C453.604 198.439 453.597 198.426 453.591 198.412C453.497 198.226 453.451 198.022 453.451 197.802C453.451 197.696 453.457 197.616 453.471 197.562C453.577 197.269 453.794 197.119 454.121 197.112C454.454 197.112 454.674 197.262 454.781 197.562C454.794 197.616 454.801 197.692 454.801 197.792C454.801 197.892 454.794 197.966 454.781 198.012C454.714 198.219 454.581 198.359 454.381 198.432L454.321 198.452L454.341 198.472C454.427 198.539 454.514 198.592 454.601 198.632C454.867 198.772 455.147 198.832 455.441 198.812C455.474 198.812 455.501 198.809 455.521 198.802C455.821 198.756 456.037 198.579 456.171 198.272C456.184 198.239 456.197 198.206 456.211 198.172C456.271 198.006 456.301 197.729 456.301 197.342C456.301 196.949 456.264 196.659 456.191 196.472C456.104 196.239 455.951 196.066 455.731 195.952C455.637 195.912 455.457 195.889 455.191 195.882H455.131L454.731 195.872L454.701 195.852C454.687 195.832 454.681 195.766 454.681 195.652C454.681 195.532 454.687 195.466 454.701 195.452C454.714 195.432 454.727 195.422 454.741 195.422C454.747 195.416 454.844 195.406 455.031 195.392C455.304 195.372 455.497 195.326 455.611 195.252C455.851 195.092 456.014 194.812 456.101 194.412C456.194 193.932 456.174 193.569 456.041 193.322C455.987 193.209 455.894 193.116 455.761 193.042C455.661 192.996 455.537 192.972 455.391 192.972C455.057 192.959 454.771 193.062 454.531 193.282L454.471 193.332L454.531 193.352C454.784 193.419 454.931 193.589 454.971 193.862C454.977 193.882 454.981 193.902 454.981 193.922C454.981 194.042 454.957 194.159 454.911 194.272C454.857 194.372 454.771 194.456 454.651 194.522C454.537 194.569 454.434 194.592 454.341 194.592C454.254 194.592 454.154 194.569 454.041 194.522C453.921 194.456 453.834 194.372 453.781 194.272C453.734 194.172 453.711 194.046 453.711 193.892C453.737 193.386 453.987 192.996 454.461 192.722C454.487 192.702 454.514 192.686 454.541 192.672C454.747 192.566 454.964 192.499 455.191 192.472Z" fill="white"/>
<path d="M484.168 192.472C484.354 192.452 484.548 192.459 484.748 192.492C485.208 192.552 485.591 192.732 485.898 193.032C486.071 193.192 486.211 193.382 486.318 193.602C486.431 193.856 486.498 194.136 486.518 194.442C486.524 194.829 486.418 195.196 486.198 195.542C485.998 195.836 485.644 196.192 485.138 196.612C484.898 196.819 484.561 197.129 484.128 197.542L483.548 198.092L484.228 198.102C485.201 198.102 485.721 198.086 485.788 198.052C485.828 198.032 485.871 197.916 485.918 197.702L486.018 197.142C486.018 197.136 486.101 197.132 486.268 197.132H486.518V197.162C486.511 197.176 486.464 197.496 486.378 198.122C486.291 198.749 486.244 199.072 486.238 199.092V199.122H484.378H482.528V198.882C482.528 198.716 482.534 198.622 482.548 198.602L483.398 197.642C484.124 196.829 484.568 196.319 484.728 196.112C484.981 195.759 485.158 195.439 485.258 195.152C485.431 194.619 485.398 194.129 485.158 193.682C485.098 193.576 485.028 193.479 484.948 193.392C484.728 193.166 484.454 193.042 484.128 193.022C483.861 193.009 483.631 193.099 483.438 193.292L483.258 193.522C483.258 193.536 483.284 193.542 483.338 193.542C483.464 193.582 483.564 193.639 483.638 193.712C483.684 193.746 483.724 193.796 483.758 193.862C483.804 193.976 483.828 194.092 483.828 194.212C483.808 194.532 483.644 194.729 483.338 194.802C483.311 194.809 483.284 194.816 483.258 194.822C483.204 194.829 483.151 194.829 483.098 194.822C482.818 194.782 482.638 194.639 482.558 194.392C482.544 194.339 482.538 194.256 482.538 194.142C482.538 194.016 482.544 193.926 482.558 193.872C482.618 193.606 482.731 193.362 482.898 193.142C482.984 193.036 483.101 192.929 483.248 192.822C483.394 192.716 483.564 192.629 483.758 192.562C483.878 192.529 484.014 192.499 484.168 192.472Z" fill="white"/>
<path d="M510.754 193.492L510.904 192.362H511.154H511.404V192.402C511.424 192.522 511.551 192.599 511.784 192.632C511.937 192.659 512.517 192.676 513.524 192.682H514.884V192.932V193.172L514.224 194.052L513.524 195.012C513.164 195.539 512.951 196.262 512.884 197.182C512.857 197.429 512.841 197.812 512.834 198.332L512.824 198.892L512.804 198.962C512.764 199.056 512.714 199.129 512.654 199.182C512.481 199.349 512.277 199.389 512.044 199.302C511.964 199.276 511.897 199.236 511.844 199.182C511.784 199.129 511.734 199.056 511.694 198.962C511.681 198.929 511.671 198.859 511.664 198.752C511.664 198.512 511.677 198.299 511.704 198.112C511.817 197.059 512.227 196.016 512.934 194.982L513.864 193.712C513.871 193.706 513.841 193.702 513.774 193.702C513.694 193.702 513.367 193.702 512.794 193.702C511.974 193.709 511.501 193.722 511.374 193.742C511.321 193.742 511.281 193.786 511.254 193.872C511.207 193.972 511.151 194.226 511.084 194.632V194.672H510.834H510.584V194.652C510.584 194.659 510.641 194.272 510.754 193.492Z" fill="white"/>
<path d="M540.181 192.472C540.367 192.452 540.561 192.459 540.761 192.492C541.221 192.552 541.604 192.732 541.911 193.032C542.084 193.192 542.224 193.382 542.331 193.602C542.444 193.856 542.511 194.136 542.531 194.442C542.537 194.829 542.431 195.196 542.211 195.542C542.011 195.836 541.657 196.192 541.151 196.612C540.911 196.819 540.574 197.129 540.141 197.542L539.561 198.092L540.241 198.102C541.214 198.102 541.734 198.086 541.801 198.052C541.841 198.032 541.884 197.916 541.931 197.702L542.031 197.142C542.031 197.136 542.114 197.132 542.281 197.132H542.531V197.162C542.524 197.176 542.477 197.496 542.391 198.122C542.304 198.749 542.257 199.072 542.251 199.092V199.122H540.391H538.541V198.882C538.541 198.716 538.547 198.622 538.561 198.602L539.411 197.642C540.137 196.829 540.581 196.319 540.741 196.112C540.994 195.759 541.171 195.439 541.271 195.152C541.444 194.619 541.411 194.129 541.171 193.682C541.111 193.576 541.041 193.479 540.961 193.392C540.741 193.166 540.467 193.042 540.141 193.022C539.874 193.009 539.644 193.099 539.451 193.292L539.271 193.522C539.271 193.536 539.297 193.542 539.351 193.542C539.477 193.582 539.577 193.639 539.651 193.712C539.697 193.746 539.737 193.796 539.771 193.862C539.817 193.976 539.841 194.092 539.841 194.212C539.821 194.532 539.657 194.729 539.351 194.802C539.324 194.809 539.297 194.816 539.271 194.822C539.217 194.829 539.164 194.829 539.111 194.822C538.831 194.782 538.651 194.639 538.571 194.392C538.557 194.339 538.551 194.256 538.551 194.142C538.551 194.016 538.557 193.926 538.571 193.872C538.631 193.606 538.744 193.362 538.911 193.142C538.997 193.036 539.114 192.929 539.261 192.822C539.407 192.716 539.577 192.629 539.771 192.562C539.891 192.529 540.027 192.499 540.181 192.472Z" fill="white"/>
<path d="M568.877 192.472C569.017 192.459 569.187 192.462 569.387 192.482C569.82 192.576 570.11 192.796 570.257 193.142C570.377 193.402 570.407 193.636 570.347 193.842C570.274 194.116 570.087 194.259 569.787 194.272C569.68 194.272 569.584 194.249 569.497 194.202C569.29 194.109 569.19 193.936 569.197 193.682C569.197 193.582 569.22 193.489 569.267 193.402C569.34 193.262 569.447 193.176 569.587 193.142L569.627 193.122L569.567 193.082C569.434 193.002 569.277 192.966 569.097 192.972C568.944 192.972 568.807 192.992 568.687 193.032C568.4 193.132 568.167 193.322 567.987 193.602C567.774 193.909 567.654 194.419 567.627 195.132C567.627 195.219 567.624 195.296 567.617 195.362C567.624 195.362 567.644 195.339 567.677 195.292C567.777 195.146 567.89 195.036 568.017 194.962C568.23 194.816 568.457 194.739 568.697 194.732C569.07 194.719 569.404 194.819 569.697 195.032C569.837 195.132 569.97 195.266 570.097 195.432C570.384 195.806 570.55 196.206 570.597 196.632C570.624 196.799 570.627 197.029 570.607 197.322C570.6 197.349 570.597 197.372 570.597 197.392C570.53 197.932 570.29 198.402 569.877 198.802C569.49 199.182 569.027 199.362 568.487 199.342C568.074 199.322 567.704 199.169 567.377 198.882C567.197 198.709 567.044 198.499 566.917 198.252C566.677 197.806 566.534 197.239 566.487 196.552C566.454 196.092 566.46 195.679 566.507 195.312C566.634 194.352 567.004 193.602 567.617 193.062C567.71 192.982 567.807 192.909 567.907 192.842C568.2 192.636 568.524 192.512 568.877 192.472ZM568.777 195.212C568.664 195.199 568.567 195.199 568.487 195.212C567.994 195.286 567.71 195.759 567.637 196.632C567.61 196.999 567.62 197.429 567.667 197.922C567.674 197.942 567.677 197.962 567.677 197.982C567.697 198.182 567.784 198.369 567.937 198.542C568.057 198.662 568.194 198.746 568.347 198.792C568.46 198.819 568.61 198.819 568.797 198.792C569.01 198.739 569.177 198.629 569.297 198.462C569.41 198.296 569.467 197.886 569.467 197.232C569.467 197.112 569.467 196.972 569.467 196.812C569.46 196.352 569.444 196.032 569.417 195.852C569.41 195.759 569.377 195.662 569.317 195.562C569.19 195.369 569.01 195.252 568.777 195.212Z" fill="white"/>
<line y1="-0.5" x2="39.2277" y2="-0.5" transform="matrix(-0.714049 0.700096 -0.699761 -0.714377 458.236 65.5398)" stroke="#969696"/>
<line y1="-0.5" x2="38.0451" y2="-0.5" transform="matrix(0.72152 0.692394 -0.692056 0.721844 482.325 66.6606)" stroke="#969696"/>
<line y1="-0.5" x2="30.7758" y2="-0.5" transform="matrix(-0.546088 0.837728 -0.837493 -0.546447 410.618 115.982)" stroke="#969696"/>
<line y1="-0.5" x2="27.4837" y2="-0.5" transform="matrix(0.346507 0.938047 -0.937942 0.346793 426.304 115.982)" stroke="#969696"/>
<line y1="-0.5" x2="26.435" y2="-0.5" transform="matrix(-0.360252 0.932855 -0.932741 -0.360546 516.497 117.664)" stroke="#969696"/>
<line y1="-0.5" x2="30.622" y2="-0.5" transform="matrix(0.567125 0.823632 -0.823383 0.567485 532.183 115.982)" stroke="#969696"/>
<line y1="-0.5" x2="18.1584" y2="-0.5" transform="matrix(-0.308506 0.951222 -0.95219 -0.305505 379.806 169.04)" stroke="#969696"/>
<line y1="-0.5" x2="17.8142" y2="-0.5" transform="matrix(0.283019 0.959114 -0.959042 0.283263 392.691 169.227)" stroke="#969696"/>
<line y1="-0.5" x2="17.5535" y2="-0.5" transform="matrix(-0.287224 0.957863 -0.957789 -0.287471 434.707 169.227)" stroke="#969696"/>
<line y1="-0.5" x2="17.5535" y2="-0.5" transform="matrix(0.287224 0.957863 -0.957789 0.287471 449.272 169.227)" stroke="#969696"/>
<line y1="-0.5" x2="17.3683" y2="-0.5" transform="matrix(-0.322538 0.946557 -0.946464 -0.322809 492.969 169.04)" stroke="#969696"/>
<line y1="-0.5" x2="17.3821" y2="-0.5" transform="matrix(0.354509 0.935053 -0.934942 0.3548 505.853 169.227)" stroke="#969696"/>
<line y1="-0.5" x2="16.8592" y2="-0.5" transform="matrix(-0.365504 0.93081 -0.930693 -0.365801 548.99 169.227)" stroke="#969696"/>
<line y1="-0.5" x2="16.4829" y2="-0.5" transform="matrix(0.305879 0.95207 -0.951987 0.306139 561.874 169.227)" stroke="#969696"/>
<line x1="363.5" y1="210.142" x2="363.5" y2="215.714" stroke="#D9D9D9"/>
<line y1="-0.5" x2="214.001" y2="-0.5" transform="matrix(0.999997 0.00259473 -0.00264106 0.999997 363 216.274)" stroke="#D9D9D9"/>
<line x1="577.5" y1="210.83" x2="577.5" y2="216.402" stroke="#D9D9D9"/>
<path d="M472.939 225.233C472.975 225.209 473.119 225.197 473.371 225.197C473.635 225.197 473.785 225.209 473.821 225.233C473.857 225.245 473.893 225.269 473.929 225.305C473.953 225.341 474.595 227.279 475.855 231.119C477.127 234.983 477.769 236.921 477.781 236.933C477.829 237.005 478.003 237.047 478.303 237.059C478.423 237.071 478.681 237.077 479.077 237.077H479.545V237.581V238.085H479.383C479.395 238.085 478.969 238.073 478.105 238.049C477.373 238.037 476.593 238.037 475.765 238.049L474.325 238.085H474.127V237.581V237.077H474.415C475.063 237.077 475.459 237.041 475.603 236.969C475.627 236.945 475.639 236.921 475.639 236.897C475.639 236.921 475.525 236.567 475.297 235.835C475.093 235.223 474.967 234.833 474.919 234.665L474.883 234.557H472.849H470.833L470.527 235.475L470.221 236.447C470.209 236.543 470.251 236.639 470.347 236.735C470.551 236.927 470.893 237.041 471.373 237.077H471.571V237.581V238.085H471.409L470.239 238.049C469.543 238.037 468.913 238.037 468.349 238.049C467.689 238.073 467.353 238.085 467.341 238.085H467.215V237.581V237.077H467.395C467.779 237.077 468.127 237.035 468.439 236.951C468.811 236.831 469.039 236.675 469.123 236.483C469.135 236.459 469.759 234.587 470.995 230.867C472.195 227.219 472.807 225.365 472.831 225.305C472.867 225.269 472.903 225.245 472.939 225.233ZM473.695 230.975L472.867 228.419C472.867 228.431 472.303 230.129 471.175 233.513C471.175 233.537 471.733 233.549 472.849 233.549C473.977 233.549 474.541 233.543 474.541 233.531L473.695 230.975Z" fill="#777777"/>
<path d="M455.136 168.857L456.504 174.465L460.68 170.483L455.136 168.857ZM460.52 183.379C462.724 178.793 460.775 174.602 458.644 171.81L457.849 172.415C459.894 175.095 461.578 178.867 459.618 182.945L460.52 183.379Z" fill="#969696"/>
<path d="M429.832 168.857L428.511 174.476L424.302 170.528L429.832 168.857ZM424.29 183.803C422.103 179.073 424.161 174.72 426.351 171.836L427.148 172.439C425.037 175.22 423.245 179.161 425.198 183.383L424.29 183.803Z" fill="#969696"/>
<g filter="url(#filter4_i_6_2077)">
<ellipse cx="853.712" cy="155.192" rx="14.0052" ry="14.0118" fill="#D1D1E5"/>
<ellipse cx="797.691" cy="155.192" rx="14.0052" ry="14.0118" fill="#D1D1E5"/>
<ellipse cx="740.549" cy="155.192" rx="14.0052" ry="14.0118" fill="#FF4C4C"/>
<ellipse cx="684.529" cy="155.192" rx="14.0052" ry="14.0118" fill="#FF4C4C"/>
<ellipse cx="820.099" cy="103.652" rx="14.0052" ry="14.0118" fill="#D1D1E5"/>
<ellipse cx="717.021" cy="103.652" rx="14.0052" ry="14.0118" fill="#D1D1E5"/>
<ellipse cx="768.56" cy="56.0118" rx="14.0052" ry="14.0118" fill="#D1D1E5"/>
</g>
<g filter="url(#filter5_i_6_2077)">
<rect x="858.194" y="187.428" width="16.8063" height="16.7158" rx="2" fill="#6A5ACD"/>
<rect x="830.183" y="187.428" width="16.8063" height="16.7158" rx="2" fill="#6A5ACD"/>
<rect x="802.173" y="187.428" width="16.8063" height="16.7158" rx="2" fill="#6A5ACD"/>
<rect x="774.162" y="187.428" width="16.8063" height="16.7158" rx="2" fill="#6A5ACD"/>
<rect x="745.031" y="187.428" width="16.8063" height="16.7158" rx="2" fill="#FF4C4C"/>
<rect x="717.021" y="187.428" width="16.8063" height="16.7158" rx="2" fill="#FF4C4C"/>
<rect x="689.011" y="187.428" width="16.8063" height="16.7158" rx="2" fill="#FF4C4C"/>
<rect x="661" y="187.428" width="16.8063" height="16.7158" rx="2" fill="#FF4C4C"/>
</g>
<path d="M740.778 152.264C741.026 152.248 741.25 152.256 741.45 152.288C741.85 152.376 742.186 152.556 742.458 152.828C742.65 153.012 742.822 153.244 742.974 153.524C743.246 154.076 743.414 154.736 743.478 155.504C743.51 155.888 743.514 156.32 743.49 156.8C743.482 156.848 743.478 156.884 743.478 156.908C743.43 157.372 743.33 157.824 743.178 158.264C743.066 158.552 742.93 158.824 742.77 159.08C742.258 159.896 741.614 160.364 740.838 160.484C740.638 160.516 740.442 160.52 740.25 160.496C739.746 160.432 739.374 160.252 739.134 159.956C738.926 159.7 738.822 159.396 738.822 159.044C738.822 158.716 738.962 158.496 739.242 158.384C739.274 158.376 739.306 158.368 739.338 158.36C739.466 158.328 739.59 158.328 739.71 158.36C739.926 158.416 740.07 158.524 740.142 158.684C740.286 158.964 740.27 159.22 740.094 159.452C740.03 159.54 739.954 159.604 739.866 159.644C739.818 159.676 739.79 159.692 739.782 159.692C739.782 159.716 739.854 159.752 739.998 159.8C740.318 159.904 740.626 159.904 740.922 159.8C741.33 159.664 741.638 159.372 741.846 158.924C741.87 158.86 741.894 158.796 741.918 158.732C742.022 158.42 742.086 157.948 742.11 157.316C742.11 157.204 742.114 157.104 742.122 157.016C742.114 157.016 742.09 157.044 742.05 157.1C741.954 157.236 741.83 157.36 741.678 157.472C741.486 157.608 741.282 157.7 741.066 157.748C740.906 157.78 740.686 157.78 740.406 157.748C740.022 157.668 739.682 157.488 739.386 157.208C739.138 156.944 738.946 156.672 738.81 156.392C738.682 156.16 738.594 155.876 738.546 155.54C738.514 155.276 738.51 154.968 738.534 154.616C738.542 154.584 738.546 154.56 738.546 154.544C738.626 153.992 738.87 153.496 739.278 153.056C739.71 152.584 740.21 152.32 740.778 152.264ZM741.342 152.888C741.302 152.88 741.218 152.868 741.09 152.852C740.794 152.852 740.566 152.908 740.406 153.02C740.246 153.124 740.122 153.264 740.034 153.44C739.938 153.656 739.894 154.272 739.902 155.288C739.91 155.976 739.938 156.416 739.986 156.608C740.042 156.744 740.122 156.856 740.226 156.944C740.394 157.112 740.63 157.196 740.934 157.196C741.078 157.196 741.194 157.18 741.282 157.148C741.682 156.988 741.938 156.564 742.05 155.876C742.05 155.844 742.054 155.812 742.062 155.78C742.094 155.596 742.11 155.268 742.11 154.796C742.102 154.14 742.07 153.744 742.014 153.608C741.894 153.256 741.67 153.016 741.342 152.888Z" fill="white"/>
<path d="M667.931 192.482C667.958 192.462 668.008 192.469 668.081 192.502C668.308 192.596 668.545 192.666 668.791 192.712C669.418 192.832 670.035 192.792 670.641 192.592C670.688 192.579 670.771 192.549 670.891 192.502C670.978 192.462 671.038 192.459 671.071 192.492L671.101 192.522V192.692V192.872L671.041 192.942C670.895 193.102 670.715 193.252 670.501 193.392C670.095 193.646 669.651 193.789 669.171 193.822C668.871 193.836 668.641 193.822 668.481 193.782L668.441 193.772V194.562V195.342L668.501 195.292C668.655 195.166 668.818 195.072 668.991 195.012C669.445 194.859 669.901 194.896 670.361 195.122C670.928 195.416 671.288 195.912 671.441 196.612C671.455 196.666 671.465 196.719 671.471 196.772C671.498 196.972 671.498 197.196 671.471 197.442C671.378 197.929 671.175 198.336 670.861 198.662C670.688 198.836 670.485 198.982 670.251 199.102C669.705 199.369 669.188 199.419 668.701 199.252C668.181 199.086 667.821 198.746 667.621 198.232C667.575 198.126 667.541 198.012 667.521 197.892C667.495 197.699 667.491 197.552 667.511 197.452C667.545 197.332 667.598 197.236 667.671 197.162C667.851 196.982 668.071 196.932 668.331 197.012C668.491 197.066 668.605 197.162 668.671 197.302C668.711 197.389 668.731 197.486 668.731 197.592C668.731 197.706 668.711 197.806 668.671 197.892C668.605 198.039 668.478 198.139 668.291 198.192C668.238 198.206 668.205 198.212 668.191 198.212C668.178 198.212 668.188 198.239 668.221 198.292C668.335 198.452 668.488 198.582 668.681 198.682C668.841 198.769 669.028 198.812 669.241 198.812C669.608 198.812 669.891 198.679 670.091 198.412C670.225 198.239 670.305 197.999 670.331 197.692C670.351 197.512 670.355 197.142 670.341 196.582C670.341 196.502 670.338 196.446 670.331 196.412C670.305 196.119 670.255 195.912 670.181 195.792C670.001 195.492 669.735 195.362 669.381 195.402C668.948 195.456 668.625 195.682 668.411 196.082C668.371 196.142 668.325 196.176 668.271 196.182C668.245 196.182 668.201 196.182 668.141 196.182C667.995 196.182 667.915 196.162 667.901 196.122C667.888 196.096 667.881 195.496 667.881 194.322C667.881 193.136 667.885 192.536 667.891 192.522C667.905 192.496 667.918 192.482 667.931 192.482Z" fill="white"/>
<path d="M697.338 192.472L697.828 192.482C698.421 192.589 698.848 192.862 699.108 193.302C699.128 193.342 699.148 193.379 699.168 193.412C699.228 193.552 699.268 193.669 699.288 193.762C699.314 193.916 699.314 194.089 699.288 194.282C699.221 194.589 699.054 194.872 698.788 195.132C698.674 195.246 698.544 195.349 698.398 195.442C698.358 195.469 698.334 195.486 698.328 195.492L698.518 195.622C698.651 195.709 698.741 195.769 698.788 195.802C698.928 195.909 699.044 196.022 699.138 196.142C699.478 196.556 699.621 197.029 699.568 197.562C699.501 198.162 699.208 198.636 698.688 198.982C698.488 199.116 698.264 199.216 698.018 199.282C697.458 199.416 696.921 199.346 696.408 199.072C696.348 199.039 696.291 199.006 696.238 198.972C695.811 198.692 695.551 198.316 695.458 197.842C695.418 197.629 695.418 197.422 695.458 197.222C695.518 196.942 695.644 196.679 695.838 196.432C695.958 196.279 696.091 196.149 696.238 196.042C696.384 195.929 696.504 195.849 696.598 195.802C696.618 195.789 696.631 195.779 696.638 195.772L696.548 195.702C696.134 195.449 695.871 195.092 695.758 194.632C695.624 194.152 695.704 193.689 695.998 193.242C696.138 193.049 696.291 192.896 696.458 192.782C696.658 192.656 696.858 192.569 697.058 192.522C697.124 192.496 697.218 192.479 697.338 192.472ZM697.678 192.972C697.291 192.919 696.958 193.012 696.678 193.252C696.591 193.326 696.524 193.406 696.478 193.492C696.311 193.806 696.364 194.099 696.638 194.372C696.691 194.432 696.894 194.576 697.248 194.802L697.358 194.872C697.698 195.099 697.874 195.206 697.888 195.192C697.948 195.172 698.054 195.086 698.208 194.932C698.408 194.732 698.538 194.509 698.598 194.262C698.631 194.116 698.628 193.952 698.588 193.772C698.534 193.586 698.441 193.426 698.308 193.292C698.134 193.119 697.924 193.012 697.678 192.972ZM697.808 196.512C697.368 196.232 697.158 196.099 697.178 196.112L697.098 196.062L696.998 196.132C696.484 196.472 696.211 196.909 696.178 197.442C696.178 197.496 696.178 197.549 696.178 197.602C696.198 197.936 696.331 198.216 696.578 198.442C696.751 198.616 696.974 198.732 697.248 198.792C697.408 198.819 697.584 198.819 697.778 198.792C698.231 198.699 698.544 198.486 698.718 198.152C698.744 198.106 698.764 198.056 698.778 198.002C698.891 197.629 698.804 197.299 698.518 197.012C698.458 196.952 698.221 196.786 697.808 196.512Z" fill="white"/>
<path d="M725.844 192.472C725.984 192.459 726.154 192.462 726.354 192.482C726.788 192.576 727.078 192.796 727.224 193.142C727.344 193.402 727.374 193.636 727.314 193.842C727.241 194.116 727.054 194.259 726.754 194.272C726.648 194.272 726.551 194.249 726.464 194.202C726.258 194.109 726.158 193.936 726.164 193.682C726.164 193.582 726.188 193.489 726.234 193.402C726.308 193.262 726.414 193.176 726.554 193.142L726.594 193.122L726.534 193.082C726.401 193.002 726.244 192.966 726.064 192.972C725.911 192.972 725.774 192.992 725.654 193.032C725.368 193.132 725.134 193.322 724.954 193.602C724.741 193.909 724.621 194.419 724.594 195.132C724.594 195.219 724.591 195.296 724.584 195.362C724.591 195.362 724.611 195.339 724.644 195.292C724.744 195.146 724.858 195.036 724.984 194.962C725.198 194.816 725.424 194.739 725.664 194.732C726.038 194.719 726.371 194.819 726.664 195.032C726.804 195.132 726.938 195.266 727.064 195.432C727.351 195.806 727.518 196.206 727.564 196.632C727.591 196.799 727.594 197.029 727.574 197.322C727.568 197.349 727.564 197.372 727.564 197.392C727.498 197.932 727.258 198.402 726.844 198.802C726.458 199.182 725.994 199.362 725.454 199.342C725.041 199.322 724.671 199.169 724.344 198.882C724.164 198.709 724.011 198.499 723.884 198.252C723.644 197.806 723.501 197.239 723.454 196.552C723.421 196.092 723.428 195.679 723.474 195.312C723.601 194.352 723.971 193.602 724.584 193.062C724.678 192.982 724.774 192.909 724.874 192.842C725.168 192.636 725.491 192.512 725.844 192.472ZM725.744 195.212C725.631 195.199 725.534 195.199 725.454 195.212C724.961 195.286 724.678 195.759 724.604 196.632C724.578 196.999 724.588 197.429 724.634 197.922C724.641 197.942 724.644 197.962 724.644 197.982C724.664 198.182 724.751 198.369 724.904 198.542C725.024 198.662 725.161 198.746 725.314 198.792C725.428 198.819 725.578 198.819 725.764 198.792C725.978 198.739 726.144 198.629 726.264 198.462C726.378 198.296 726.434 197.886 726.434 197.232C726.434 197.112 726.434 196.972 726.434 196.812C726.428 196.352 726.411 196.032 726.384 195.852C726.378 195.759 726.344 195.662 726.284 195.562C726.158 195.369 725.978 195.252 725.744 195.212Z" fill="white"/>
<path d="M753.191 192.472C753.331 192.459 753.524 192.462 753.771 192.482C754.404 192.582 754.857 192.852 755.131 193.292C755.217 193.439 755.277 193.592 755.311 193.752C755.337 193.899 755.331 194.062 755.291 194.242C755.217 194.609 755.047 194.922 754.781 195.182C754.594 195.369 754.391 195.509 754.171 195.602C754.117 195.636 754.087 195.652 754.081 195.652L754.231 195.702C754.564 195.816 754.854 195.989 755.101 196.222C755.307 196.436 755.451 196.679 755.531 196.952C755.664 197.426 755.584 197.896 755.291 198.362C755.217 198.469 755.137 198.569 755.051 198.662C754.871 198.842 754.681 198.982 754.481 199.082C754.254 199.196 754.001 199.276 753.721 199.322C753.567 199.349 753.364 199.352 753.111 199.332C753.084 199.326 753.064 199.322 753.051 199.322C752.364 199.209 751.884 198.919 751.611 198.452C751.604 198.439 751.597 198.426 751.591 198.412C751.497 198.226 751.451 198.022 751.451 197.802C751.451 197.696 751.457 197.616 751.471 197.562C751.577 197.269 751.794 197.119 752.121 197.112C752.454 197.112 752.674 197.262 752.781 197.562C752.794 197.616 752.801 197.692 752.801 197.792C752.801 197.892 752.794 197.966 752.781 198.012C752.714 198.219 752.581 198.359 752.381 198.432L752.321 198.452L752.341 198.472C752.427 198.539 752.514 198.592 752.601 198.632C752.867 198.772 753.147 198.832 753.441 198.812C753.474 198.812 753.501 198.809 753.521 198.802C753.821 198.756 754.037 198.579 754.171 198.272C754.184 198.239 754.197 198.206 754.211 198.172C754.271 198.006 754.301 197.729 754.301 197.342C754.301 196.949 754.264 196.659 754.191 196.472C754.104 196.239 753.951 196.066 753.731 195.952C753.637 195.912 753.457 195.889 753.191 195.882H753.131L752.731 195.872L752.701 195.852C752.687 195.832 752.681 195.766 752.681 195.652C752.681 195.532 752.687 195.466 752.701 195.452C752.714 195.432 752.727 195.422 752.741 195.422C752.747 195.416 752.844 195.406 753.031 195.392C753.304 195.372 753.497 195.326 753.611 195.252C753.851 195.092 754.014 194.812 754.101 194.412C754.194 193.932 754.174 193.569 754.041 193.322C753.987 193.209 753.894 193.116 753.761 193.042C753.661 192.996 753.537 192.972 753.391 192.972C753.057 192.959 752.771 193.062 752.531 193.282L752.471 193.332L752.531 193.352C752.784 193.419 752.931 193.589 752.971 193.862C752.977 193.882 752.981 193.902 752.981 193.922C752.981 194.042 752.957 194.159 752.911 194.272C752.857 194.372 752.771 194.456 752.651 194.522C752.537 194.569 752.434 194.592 752.341 194.592C752.254 194.592 752.154 194.569 752.041 194.522C751.921 194.456 751.834 194.372 751.781 194.272C751.734 194.172 751.711 194.046 751.711 193.892C751.737 193.386 751.987 192.996 752.461 192.722C752.487 192.702 752.514 192.686 752.541 192.672C752.747 192.566 752.964 192.499 753.191 192.472Z" fill="white"/>
<path d="M782.168 192.472C782.354 192.452 782.548 192.459 782.748 192.492C783.208 192.552 783.591 192.732 783.898 193.032C784.071 193.192 784.211 193.382 784.318 193.602C784.431 193.856 784.498 194.136 784.518 194.442C784.524 194.829 784.418 195.196 784.198 195.542C783.998 195.836 783.644 196.192 783.138 196.612C782.898 196.819 782.561 197.129 782.128 197.542L781.548 198.092L782.228 198.102C783.201 198.102 783.721 198.086 783.788 198.052C783.828 198.032 783.871 197.916 783.918 197.702L784.018 197.142C784.018 197.136 784.101 197.132 784.268 197.132H784.518V197.162C784.511 197.176 784.464 197.496 784.378 198.122C784.291 198.749 784.244 199.072 784.238 199.092V199.122H782.378H780.528V198.882C780.528 198.716 780.534 198.622 780.548 198.602L781.398 197.642C782.124 196.829 782.568 196.319 782.728 196.112C782.981 195.759 783.158 195.439 783.258 195.152C783.431 194.619 783.398 194.129 783.158 193.682C783.098 193.576 783.028 193.479 782.948 193.392C782.728 193.166 782.454 193.042 782.128 193.022C781.861 193.009 781.631 193.099 781.438 193.292L781.258 193.522C781.258 193.536 781.284 193.542 781.338 193.542C781.464 193.582 781.564 193.639 781.638 193.712C781.684 193.746 781.724 193.796 781.758 193.862C781.804 193.976 781.828 194.092 781.828 194.212C781.808 194.532 781.644 194.729 781.338 194.802C781.311 194.809 781.284 194.816 781.258 194.822C781.204 194.829 781.151 194.829 781.098 194.822C780.818 194.782 780.638 194.639 780.558 194.392C780.544 194.339 780.538 194.256 780.538 194.142C780.538 194.016 780.544 193.926 780.558 193.872C780.618 193.606 780.731 193.362 780.898 193.142C780.984 193.036 781.101 192.929 781.248 192.822C781.394 192.716 781.564 192.629 781.758 192.562C781.878 192.529 782.014 192.499 782.168 192.472Z" fill="white"/>
<path d="M808.754 193.492L808.904 192.362H809.154H809.404V192.402C809.424 192.522 809.551 192.599 809.784 192.632C809.937 192.659 810.517 192.676 811.524 192.682H812.884V192.932V193.172L812.224 194.052L811.524 195.012C811.164 195.539 810.951 196.262 810.884 197.182C810.857 197.429 810.841 197.812 810.834 198.332L810.824 198.892L810.804 198.962C810.764 199.056 810.714 199.129 810.654 199.182C810.481 199.349 810.277 199.389 810.044 199.302C809.964 199.276 809.897 199.236 809.844 199.182C809.784 199.129 809.734 199.056 809.694 198.962C809.681 198.929 809.671 198.859 809.664 198.752C809.664 198.512 809.677 198.299 809.704 198.112C809.817 197.059 810.227 196.016 810.934 194.982L811.864 193.712C811.871 193.706 811.841 193.702 811.774 193.702C811.694 193.702 811.367 193.702 810.794 193.702C809.974 193.709 809.501 193.722 809.374 193.742C809.321 193.742 809.281 193.786 809.254 193.872C809.207 193.972 809.151 194.226 809.084 194.632V194.672H808.834H808.584V194.652C808.584 194.659 808.641 194.272 808.754 193.492Z" fill="white"/>
<path d="M838.181 192.472C838.367 192.452 838.561 192.459 838.761 192.492C839.221 192.552 839.604 192.732 839.911 193.032C840.084 193.192 840.224 193.382 840.331 193.602C840.444 193.856 840.511 194.136 840.531 194.442C840.537 194.829 840.431 195.196 840.211 195.542C840.011 195.836 839.657 196.192 839.151 196.612C838.911 196.819 838.574 197.129 838.141 197.542L837.561 198.092L838.241 198.102C839.214 198.102 839.734 198.086 839.801 198.052C839.841 198.032 839.884 197.916 839.931 197.702L840.031 197.142C840.031 197.136 840.114 197.132 840.281 197.132H840.531V197.162C840.524 197.176 840.477 197.496 840.391 198.122C840.304 198.749 840.257 199.072 840.251 199.092V199.122H838.391H836.541V198.882C836.541 198.716 836.547 198.622 836.561 198.602L837.411 197.642C838.137 196.829 838.581 196.319 838.741 196.112C838.994 195.759 839.171 195.439 839.271 195.152C839.444 194.619 839.411 194.129 839.171 193.682C839.111 193.576 839.041 193.479 838.961 193.392C838.741 193.166 838.467 193.042 838.141 193.022C837.874 193.009 837.644 193.099 837.451 193.292L837.271 193.522C837.271 193.536 837.297 193.542 837.351 193.542C837.477 193.582 837.577 193.639 837.651 193.712C837.697 193.746 837.737 193.796 837.771 193.862C837.817 193.976 837.841 194.092 837.841 194.212C837.821 194.532 837.657 194.729 837.351 194.802C837.324 194.809 837.297 194.816 837.271 194.822C837.217 194.829 837.164 194.829 837.111 194.822C836.831 194.782 836.651 194.639 836.571 194.392C836.557 194.339 836.551 194.256 836.551 194.142C836.551 194.016 836.557 193.926 836.571 193.872C836.631 193.606 836.744 193.362 836.911 193.142C836.997 193.036 837.114 192.929 837.261 192.822C837.407 192.716 837.577 192.629 837.771 192.562C837.891 192.529 838.027 192.499 838.181 192.472Z" fill="white"/>
<path d="M866.877 192.472C867.017 192.459 867.187 192.462 867.387 192.482C867.82 192.576 868.11 192.796 868.257 193.142C868.377 193.402 868.407 193.636 868.347 193.842C868.274 194.116 868.087 194.259 867.787 194.272C867.68 194.272 867.584 194.249 867.497 194.202C867.29 194.109 867.19 193.936 867.197 193.682C867.197 193.582 867.22 193.489 867.267 193.402C867.34 193.262 867.447 193.176 867.587 193.142L867.627 193.122L867.567 193.082C867.434 193.002 867.277 192.966 867.097 192.972C866.944 192.972 866.807 192.992 866.687 193.032C866.4 193.132 866.167 193.322 865.987 193.602C865.774 193.909 865.654 194.419 865.627 195.132C865.627 195.219 865.624 195.296 865.617 195.362C865.624 195.362 865.644 195.339 865.677 195.292C865.777 195.146 865.89 195.036 866.017 194.962C866.23 194.816 866.457 194.739 866.697 194.732C867.07 194.719 867.404 194.819 867.697 195.032C867.837 195.132 867.97 195.266 868.097 195.432C868.384 195.806 868.55 196.206 868.597 196.632C868.624 196.799 868.627 197.029 868.607 197.322C868.6 197.349 868.597 197.372 868.597 197.392C868.53 197.932 868.29 198.402 867.877 198.802C867.49 199.182 867.027 199.362 866.487 199.342C866.074 199.322 865.704 199.169 865.377 198.882C865.197 198.709 865.044 198.499 864.917 198.252C864.677 197.806 864.534 197.239 864.487 196.552C864.454 196.092 864.46 195.679 864.507 195.312C864.634 194.352 865.004 193.602 865.617 193.062C865.71 192.982 865.807 192.909 865.907 192.842C866.2 192.636 866.524 192.512 866.877 192.472ZM866.777 195.212C866.664 195.199 866.567 195.199 866.487 195.212C865.994 195.286 865.71 195.759 865.637 196.632C865.61 196.999 865.62 197.429 865.667 197.922C865.674 197.942 865.677 197.962 865.677 197.982C865.697 198.182 865.784 198.369 865.937 198.542C866.057 198.662 866.194 198.746 866.347 198.792C866.46 198.819 866.61 198.819 866.797 198.792C867.01 198.739 867.177 198.629 867.297 198.462C867.41 198.296 867.467 197.886 867.467 197.232C867.467 197.112 867.467 196.972 867.467 196.812C867.46 196.352 867.444 196.032 867.417 195.852C867.41 195.759 867.377 195.662 867.317 195.562C867.19 195.369 867.01 195.252 866.777 195.212Z" fill="white"/>
<line y1="-0.5" x2="39.2277" y2="-0.5" transform="matrix(-0.714049 0.700096 -0.699761 -0.714377 756.236 65.5398)" stroke="#969696"/>
<line y1="-0.5" x2="38.0451" y2="-0.5" transform="matrix(0.72152 0.692394 -0.692056 0.721844 780.325 66.6606)" stroke="#969696"/>
<line y1="-0.5" x2="30.7758" y2="-0.5" transform="matrix(-0.546088 0.837728 -0.837493 -0.546447 708.618 115.982)" stroke="#969696"/>
<line y1="-0.5" x2="27.4837" y2="-0.5" transform="matrix(0.346507 0.938047 -0.937942 0.346793 724.304 115.982)" stroke="#969696"/>
<line y1="-0.5" x2="26.435" y2="-0.5" transform="matrix(-0.360252 0.932855 -0.932741 -0.360546 814.497 117.664)" stroke="#969696"/>
<line y1="-0.5" x2="30.622" y2="-0.5" transform="matrix(0.567125 0.823632 -0.823383 0.567485 830.183 115.982)" stroke="#969696"/>
<line y1="-0.5" x2="18.1584" y2="-0.5" transform="matrix(-0.308506 0.951222 -0.95219 -0.305505 677.806 169.04)" stroke="#969696"/>
<line y1="-0.5" x2="17.8142" y2="-0.5" transform="matrix(0.283019 0.959114 -0.959042 0.283263 690.691 169.227)" stroke="#969696"/>
<line y1="-0.5" x2="17.5535" y2="-0.5" transform="matrix(-0.287224 0.957863 -0.957789 -0.287471 732.707 169.227)" stroke="#969696"/>
<line y1="-0.5" x2="17.5535" y2="-0.5" transform="matrix(0.287224 0.957863 -0.957789 0.287471 747.272 169.227)" stroke="#969696"/>
<line y1="-0.5" x2="17.3683" y2="-0.5" transform="matrix(-0.322538 0.946557 -0.946464 -0.322809 790.969 169.04)" stroke="#969696"/>
<line y1="-0.5" x2="17.3821" y2="-0.5" transform="matrix(0.354509 0.935053 -0.934942 0.3548 803.853 169.227)" stroke="#969696"/>
<line y1="-0.5" x2="16.8592" y2="-0.5" transform="matrix(-0.365504 0.93081 -0.930693 -0.365801 846.99 169.227)" stroke="#969696"/>
<line y1="-0.5" x2="16.4829" y2="-0.5" transform="matrix(0.305879 0.95207 -0.951987 0.306139 859.874 169.227)" stroke="#969696"/>
<line x1="661.5" y1="210.142" x2="661.5" y2="215.714" stroke="#D9D9D9"/>
<line y1="-0.5" x2="214.001" y2="-0.5" transform="matrix(0.999997 0.00259473 -0.00264106 0.999997 661 216.274)" stroke="#D9D9D9"/>
<line x1="875.5" y1="210.83" x2="875.5" y2="216.402" stroke="#D9D9D9"/>
<path d="M770.939 225.233C770.975 225.209 771.119 225.197 771.371 225.197C771.635 225.197 771.785 225.209 771.821 225.233C771.857 225.245 771.893 225.269 771.929 225.305C771.953 225.341 772.595 227.279 773.855 231.119C775.127 234.983 775.769 236.921 775.781 236.933C775.829 237.005 776.003 237.047 776.303 237.059C776.423 237.071 776.681 237.077 777.077 237.077H777.545V237.581V238.085H777.383C777.395 238.085 776.969 238.073 776.105 238.049C775.373 238.037 774.593 238.037 773.765 238.049L772.325 238.085H772.127V237.581V237.077H772.415C773.063 237.077 773.459 237.041 773.603 236.969C773.627 236.945 773.639 236.921 773.639 236.897C773.639 236.921 773.525 236.567 773.297 235.835C773.093 235.223 772.967 234.833 772.919 234.665L772.883 234.557H770.849H768.833L768.527 235.475L768.221 236.447C768.209 236.543 768.251 236.639 768.347 236.735C768.551 236.927 768.893 237.041 769.373 237.077H769.571V237.581V238.085H769.409L768.239 238.049C767.543 238.037 766.913 238.037 766.349 238.049C765.689 238.073 765.353 238.085 765.341 238.085H765.215V237.581V237.077H765.395C765.779 237.077 766.127 237.035 766.439 236.951C766.811 236.831 767.039 236.675 767.123 236.483C767.135 236.459 767.759 234.587 768.995 230.867C770.195 227.219 770.807 225.365 770.831 225.305C770.867 225.269 770.903 225.245 770.939 225.233ZM771.695 230.975L770.867 228.419C770.867 228.431 770.303 230.129 769.175 233.513C769.175 233.537 769.733 233.549 770.849 233.549C771.977 233.549 772.541 233.543 772.541 233.531L771.695 230.975Z" fill="#777777"/>
<path d="M681.288 152.056L681.324 152.008H681.468C681.556 152.008 681.612 152.02 681.636 152.044L681.684 152.08V155.656V159.232L681.72 159.256C681.728 159.264 681.756 159.276 681.804 159.292C681.9 159.316 682.22 159.328 682.764 159.328H683.16V159.664V160H683.016L681.984 159.976C681.384 159.968 680.784 159.968 680.184 159.976C679.48 159.992 679.132 160 679.14 160H678.996V159.664V159.328H679.392C679.952 159.328 680.28 159.316 680.376 159.292C680.424 159.276 680.452 159.264 680.46 159.256L680.496 159.232V156.22C680.496 154.212 680.492 153.208 680.484 153.208C680.068 153.368 679.604 153.448 679.092 153.448H678.936V153.112V152.776H679.092C679.796 152.776 680.396 152.632 680.892 152.344C681.092 152.216 681.224 152.12 681.288 152.056ZM686.604 152.02C686.772 152.004 687.004 152.008 687.3 152.032C688.06 152.152 688.604 152.476 688.932 153.004C689.036 153.18 689.108 153.364 689.148 153.556C689.18 153.732 689.172 153.928 689.124 154.144C689.036 154.584 688.832 154.96 688.512 155.272C688.288 155.496 688.044 155.664 687.78 155.776C687.716 155.816 687.68 155.836 687.672 155.836L687.852 155.896C688.252 156.032 688.6 156.24 688.896 156.52C689.144 156.776 689.316 157.068 689.412 157.396C689.572 157.964 689.476 158.528 689.124 159.088C689.036 159.216 688.94 159.336 688.836 159.448C688.62 159.664 688.392 159.832 688.152 159.952C687.88 160.088 687.576 160.184 687.24 160.24C687.056 160.272 686.812 160.276 686.508 160.252C686.476 160.244 686.452 160.24 686.436 160.24C685.612 160.104 685.036 159.756 684.708 159.196C684.7 159.18 684.692 159.164 684.684 159.148C684.572 158.924 684.516 158.68 684.516 158.416C684.516 158.288 684.524 158.192 684.54 158.128C684.668 157.776 684.928 157.596 685.32 157.588C685.72 157.588 685.984 157.768 686.112 158.128C686.128 158.192 686.136 158.284 686.136 158.404C686.136 158.524 686.128 158.612 686.112 158.668C686.032 158.916 685.872 159.084 685.632 159.172L685.56 159.196L685.584 159.22C685.688 159.3 685.792 159.364 685.896 159.412C686.216 159.58 686.552 159.652 686.904 159.628C686.944 159.628 686.976 159.624 687 159.616C687.36 159.56 687.62 159.348 687.78 158.98C687.796 158.94 687.812 158.9 687.828 158.86C687.9 158.66 687.936 158.328 687.936 157.864C687.936 157.392 687.892 157.044 687.804 156.82C687.7 156.54 687.516 156.332 687.252 156.196C687.14 156.148 686.924 156.12 686.604 156.112H686.532L686.052 156.1L686.016 156.076C686 156.052 685.992 155.972 685.992 155.836C685.992 155.692 686 155.612 686.016 155.596C686.032 155.572 686.048 155.56 686.064 155.56C686.072 155.552 686.188 155.54 686.412 155.524C686.74 155.5 686.972 155.444 687.108 155.356C687.396 155.164 687.592 154.828 687.696 154.348C687.808 153.772 687.784 153.336 687.624 153.04C687.56 152.904 687.448 152.792 687.288 152.704C687.168 152.648 687.02 152.62 686.844 152.62C686.444 152.604 686.1 152.728 685.812 152.992L685.74 153.052L685.812 153.076C686.116 153.156 686.292 153.36 686.34 153.688C686.348 153.712 686.352 153.736 686.352 153.76C686.352 153.904 686.324 154.044 686.268 154.18C686.204 154.3 686.1 154.4 685.956 154.48C685.82 154.536 685.696 154.564 685.584 154.564C685.48 154.564 685.36 154.536 685.224 154.48C685.08 154.4 684.976 154.3 684.912 154.18C684.856 154.06 684.828 153.908 684.828 153.724C684.86 153.116 685.16 152.648 685.728 152.32C685.76 152.296 685.792 152.276 685.824 152.26C686.072 152.132 686.332 152.052 686.604 152.02Z" fill="white"/>
<path d="M696.817 117.407L694.895 122.855L691.149 118.455L696.817 117.407ZM685.131 137.338C684.269 129.905 689.252 123.623 693.056 119.968L693.747 120.692C689.977 124.314 685.32 130.295 686.123 137.224L685.131 137.338Z" fill="#969696"/>
<path d="M736.22 117.032L737.405 122.685L741.702 118.822L736.22 117.032ZM744.351 137.262C746.401 130.447 742.701 123.997 739.613 120.072L738.828 120.692C741.88 124.572 745.293 130.663 743.395 136.975L744.351 137.262Z" fill="#969696"/>
<path d="M713.568 100.02C713.792 99.996 714.024 100.004 714.264 100.044C714.816 100.116 715.276 100.332 715.644 100.692C715.852 100.884 716.02 101.112 716.148 101.376C716.284 101.68 716.364 102.016 716.388 102.384C716.396 102.848 716.268 103.288 716.004 103.704C715.764 104.056 715.34 104.484 714.732 104.988C714.444 105.236 714.04 105.608 713.52 106.104L712.824 106.764L713.64 106.776C714.808 106.776 715.432 106.756 715.512 106.716C715.56 106.692 715.612 106.552 715.668 106.296L715.788 105.624C715.788 105.616 715.888 105.612 716.088 105.612H716.388V105.648C716.38 105.664 716.324 106.048 716.22 106.8C716.116 107.552 716.06 107.94 716.052 107.964V108H713.82H711.6V107.712C711.6 107.512 711.608 107.4 711.624 107.376L712.644 106.224C713.516 105.248 714.048 104.636 714.24 104.388C714.544 103.964 714.756 103.58 714.876 103.236C715.084 102.596 715.044 102.008 714.756 101.472C714.684 101.344 714.6 101.228 714.504 101.124C714.24 100.852 713.912 100.704 713.52 100.68C713.2 100.664 712.924 100.772 712.692 101.004L712.476 101.28C712.476 101.296 712.508 101.304 712.572 101.304C712.724 101.352 712.844 101.42 712.932 101.508C712.988 101.548 713.036 101.608 713.076 101.688C713.132 101.824 713.16 101.964 713.16 102.108C713.136 102.492 712.94 102.728 712.572 102.816C712.54 102.824 712.508 102.832 712.476 102.84C712.412 102.848 712.348 102.848 712.284 102.84C711.948 102.792 711.732 102.62 711.636 102.324C711.62 102.26 711.612 102.16 711.612 102.024C711.612 101.872 711.62 101.764 711.636 101.7C711.708 101.38 711.844 101.088 712.044 100.824C712.148 100.696 712.288 100.568 712.464 100.44C712.64 100.312 712.844 100.208 713.076 100.128C713.22 100.088 713.384 100.052 713.568 100.02ZM719.568 100.02C719.792 99.996 720.024 100.004 720.264 100.044C720.816 100.116 721.276 100.332 721.644 100.692C721.852 100.884 722.02 101.112 722.148 101.376C722.284 101.68 722.364 102.016 722.388 102.384C722.396 102.848 722.268 103.288 722.004 103.704C721.764 104.056 721.34 104.484 720.732 104.988C720.444 105.236 720.04 105.608 719.52 106.104L718.824 106.764L719.64 106.776C720.808 106.776 721.432 106.756 721.512 106.716C721.56 106.692 721.612 106.552 721.668 106.296L721.788 105.624C721.788 105.616 721.888 105.612 722.088 105.612H722.388V105.648C722.38 105.664 722.324 106.048 722.22 106.8C722.116 107.552 722.06 107.94 722.052 107.964V108H719.82H717.6V107.712C717.6 107.512 717.608 107.4 717.624 107.376L718.644 106.224C719.516 105.248 720.048 104.636 720.24 104.388C720.544 103.964 720.756 103.58 720.876 103.236C721.084 102.596 721.044 102.008 720.756 101.472C720.684 101.344 720.6 101.228 720.504 101.124C720.24 100.852 719.912 100.704 719.52 100.68C719.2 100.664 718.924 100.772 718.692 101.004L718.476 101.28C718.476 101.296 718.508 101.304 718.572 101.304C718.724 101.352 718.844 101.42 718.932 101.508C718.988 101.548 719.036 101.608 719.076 101.688C719.132 101.824 719.16 101.964 719.16 102.108C719.136 102.492 718.94 102.728 718.572 102.816C718.54 102.824 718.508 102.832 718.476 102.84C718.412 102.848 718.348 102.848 718.284 102.84C717.948 102.792 717.732 102.62 717.636 102.324C717.62 102.26 717.612 102.16 717.612 102.024C717.612 101.872 717.62 101.764 717.636 101.7C717.708 101.38 717.844 101.088 718.044 100.824C718.148 100.696 718.288 100.568 718.464 100.44C718.64 100.312 718.844 100.208 719.076 100.128C719.22 100.088 719.384 100.052 719.568 100.02Z" fill="#4A4848"/>
<defs>
<filter id="filter0_i_6_2077" x="74.5234" y="42" width="197.194" height="131.204" filterUnits="userSpaceOnUse" color-interpolation-filters="sRGB">
<feFlood flood-opacity="0" result="BackgroundImageFix"/>
<feBlend mode="normal" in="SourceGraphic" in2="BackgroundImageFix" result="shape"/>
<feColorMatrix in="SourceAlpha" type="matrix" values="0 0 0 0 0 0 0 0 0 0 0 0 0 0 0 0 0 0 127 0" result="hardAlpha"/>
<feOffset dy="4"/>
<feGaussianBlur stdDeviation="2"/>
<feComposite in2="hardAlpha" operator="arithmetic" k2="-1" k3="1"/>
<feColorMatrix type="matrix" values="0 0 0 0 0 0 0 0 0 0 0 0 0 0 0 0 0 0 0.1 0"/>
<feBlend mode="normal" in2="shape" result="effect1_innerShadow_6_2077"/>
</filter>
<filter id="filter1_i_6_2077" x="65" y="187.428" width="214" height="20.7158" filterUnits="userSpaceOnUse" color-interpolation-filters="sRGB">
<feFlood flood-opacity="0" result="BackgroundImageFix"/>
<feBlend mode="normal" in="SourceGraphic" in2="BackgroundImageFix" result="shape"/>
<feColorMatrix in="SourceAlpha" type="matrix" values="0 0 0 0 0 0 0 0 0 0 0 0 0 0 0 0 0 0 127 0" result="hardAlpha"/>
<feOffset dy="4"/>
<feGaussianBlur stdDeviation="2"/>
<feComposite in2="hardAlpha" operator="arithmetic" k2="-1" k3="1"/>
<feColorMatrix type="matrix" values="0 0 0 0 0 0 0 0 0 0 0 0 0 0 0 0 0 0 0.1 0"/>
<feBlend mode="normal" in2="shape" result="effect1_innerShadow_6_2077"/>
</filter>
<filter id="filter2_i_6_2077" x="372.523" y="42" width="197.194" height="131.204" filterUnits="userSpaceOnUse" color-interpolation-filters="sRGB">
<feFlood flood-opacity="0" result="BackgroundImageFix"/>
<feBlend mode="normal" in="SourceGraphic" in2="BackgroundImageFix" result="shape"/>
<feColorMatrix in="SourceAlpha" type="matrix" values="0 0 0 0 0 0 0 0 0 0 0 0 0 0 0 0 0 0 127 0" result="hardAlpha"/>
<feOffset dy="4"/>
<feGaussianBlur stdDeviation="2"/>
<feComposite in2="hardAlpha" operator="arithmetic" k2="-1" k3="1"/>
<feColorMatrix type="matrix" values="0 0 0 0 0 0 0 0 0 0 0 0 0 0 0 0 0 0 0.1 0"/>
<feBlend mode="normal" in2="shape" result="effect1_innerShadow_6_2077"/>
</filter>
<filter id="filter3_i_6_2077" x="363" y="187.428" width="214" height="20.7158" filterUnits="userSpaceOnUse" color-interpolation-filters="sRGB">
<feFlood flood-opacity="0" result="BackgroundImageFix"/>
<feBlend mode="normal" in="SourceGraphic" in2="BackgroundImageFix" result="shape"/>
<feColorMatrix in="SourceAlpha" type="matrix" values="0 0 0 0 0 0 0 0 0 0 0 0 0 0 0 0 0 0 127 0" result="hardAlpha"/>
<feOffset dy="4"/>
<feGaussianBlur stdDeviation="2"/>
<feComposite in2="hardAlpha" operator="arithmetic" k2="-1" k3="1"/>
<feColorMatrix type="matrix" values="0 0 0 0 0 0 0 0 0 0 0 0 0 0 0 0 0 0 0.1 0"/>
<feBlend mode="normal" in2="shape" result="effect1_innerShadow_6_2077"/>
</filter>
<filter id="filter4_i_6_2077" x="670.523" y="42" width="197.194" height="131.204" filterUnits="userSpaceOnUse" color-interpolation-filters="sRGB">
<feFlood flood-opacity="0" result="BackgroundImageFix"/>
<feBlend mode="normal" in="SourceGraphic" in2="BackgroundImageFix" result="shape"/>
<feColorMatrix in="SourceAlpha" type="matrix" values="0 0 0 0 0 0 0 0 0 0 0 0 0 0 0 0 0 0 127 0" result="hardAlpha"/>
<feOffset dy="4"/>
<feGaussianBlur stdDeviation="2"/>
<feComposite in2="hardAlpha" operator="arithmetic" k2="-1" k3="1"/>
<feColorMatrix type="matrix" values="0 0 0 0 0 0 0 0 0 0 0 0 0 0 0 0 0 0 0.1 0"/>
<feBlend mode="normal" in2="shape" result="effect1_innerShadow_6_2077"/>
</filter>
<filter id="filter5_i_6_2077" x="661" y="187.428" width="214" height="20.7158" filterUnits="userSpaceOnUse" color-interpolation-filters="sRGB">
<feFlood flood-opacity="0" result="BackgroundImageFix"/>
<feBlend mode="normal" in="SourceGraphic" in2="BackgroundImageFix" result="shape"/>
<feColorMatrix in="SourceAlpha" type="matrix" values="0 0 0 0 0 0 0 0 0 0 0 0 0 0 0 0 0 0 127 0" result="hardAlpha"/>
<feOffset dy="4"/>
<feGaussianBlur stdDeviation="2"/>
<feComposite in2="hardAlpha" operator="arithmetic" k2="-1" k3="1"/>
<feColorMatrix type="matrix" values="0 0 0 0 0 0 0 0 0 0 0 0 0 0 0 0 0 0 0.1 0"/>
<feBlend mode="normal" in2="shape" result="effect1_innerShadow_6_2077"/>
</filter>
</defs>
</svg>
