<svg width="940" height="222" viewBox="0 0 940 222" fill="none" xmlns="http://www.w3.org/2000/svg">
<rect x="42" y="48" width="856" height="48" rx="3" fill="#D1D1E5"/>
<rect x="42" y="126" width="416" height="48" rx="3" fill="#D1D1E5"/>
<rect x="483" y="126" width="415" height="48" rx="3" fill="#D1D1E5"/>
<rect x="211" y="133" width="134" height="33" fill="#6A5ACD"/>
<path d="M250.648 155V143.32H252.648V153.144H257.608V155H250.648ZM263.394 155.16C262.935 155.16 262.567 155.027 262.29 154.76C262.023 154.493 261.89 154.131 261.89 153.672C261.89 153.213 262.023 152.851 262.29 152.584C262.567 152.307 262.935 152.168 263.394 152.168C263.852 152.168 264.215 152.307 264.482 152.584C264.759 152.851 264.898 153.213 264.898 153.672C264.898 154.131 264.759 154.493 264.482 154.76C264.215 155.027 263.852 155.16 263.394 155.16ZM272.652 155.144C271.98 155.144 271.393 155.037 270.892 154.824C270.39 154.611 269.996 154.317 269.708 153.944C269.43 153.56 269.281 153.112 269.26 152.6H271.26C271.281 152.877 271.414 153.101 271.66 153.272C271.916 153.443 272.246 153.528 272.652 153.528H273.356C273.846 153.528 274.214 153.432 274.46 153.24C274.705 153.048 274.828 152.787 274.828 152.456C274.828 152.147 274.716 151.907 274.492 151.736C274.278 151.555 273.942 151.437 273.484 151.384L272.396 151.224C271.393 151.085 270.657 150.819 270.188 150.424C269.718 150.029 269.484 149.437 269.484 148.648C269.484 147.827 269.761 147.192 270.316 146.744C270.87 146.285 271.686 146.056 272.764 146.056H273.372C274.353 146.056 275.137 146.275 275.724 146.712C276.31 147.149 276.625 147.736 276.668 148.472H274.668C274.636 148.237 274.502 148.045 274.268 147.896C274.044 147.747 273.745 147.672 273.372 147.672H272.764C272.305 147.672 271.969 147.757 271.756 147.928C271.553 148.088 271.452 148.328 271.452 148.648C271.452 148.947 271.542 149.171 271.724 149.32C271.905 149.459 272.198 149.56 272.604 149.624L273.74 149.784C274.785 149.933 275.553 150.216 276.044 150.632C276.545 151.037 276.796 151.64 276.796 152.44C276.796 153.293 276.502 153.96 275.916 154.44C275.34 154.909 274.486 155.144 273.356 155.144H272.652ZM278.613 155V146.2H280.245V147.384H280.581L280.309 147.672C280.309 147.181 280.448 146.787 280.725 146.488C281.003 146.189 281.36 146.04 281.797 146.04C282.267 146.04 282.629 146.232 282.885 146.616C283.152 147 283.285 147.517 283.285 148.168L282.933 147.384H283.477L283.269 147.672C283.269 147.181 283.408 146.787 283.685 146.488C283.963 146.189 284.331 146.04 284.789 146.04C285.333 146.04 285.765 146.243 286.085 146.648C286.405 147.053 286.565 147.603 286.565 148.296V155H284.805V148.376C284.805 148.088 284.741 147.864 284.613 147.704C284.485 147.533 284.299 147.448 284.053 147.448C283.819 147.448 283.632 147.528 283.493 147.688C283.365 147.848 283.301 148.077 283.301 148.376V155H281.861V148.376C281.861 148.077 281.797 147.848 281.669 147.688C281.541 147.528 281.355 147.448 281.109 147.448C280.864 147.448 280.677 147.528 280.549 147.688C280.432 147.848 280.373 148.077 280.373 148.376V155H278.613ZM291.199 155.16C290.292 155.16 289.578 154.92 289.055 154.44C288.532 153.96 288.271 153.315 288.271 152.504C288.271 151.64 288.559 150.973 289.135 150.504C289.711 150.035 290.527 149.8 291.583 149.8H293.775V149.048C293.775 148.621 293.636 148.291 293.359 148.056C293.082 147.811 292.703 147.688 292.223 147.688C291.786 147.688 291.423 147.784 291.135 147.976C290.847 148.168 290.676 148.429 290.623 148.76H288.671C288.767 147.928 289.14 147.267 289.791 146.776C290.442 146.285 291.274 146.04 292.287 146.04C293.364 146.04 294.212 146.312 294.831 146.856C295.46 147.389 295.775 148.115 295.775 149.032V155H293.839V153.464H293.519L293.839 153.032C293.839 153.683 293.599 154.2 293.119 154.584C292.639 154.968 291.999 155.16 291.199 155.16ZM291.855 153.656C292.42 153.656 292.879 153.512 293.231 153.224C293.594 152.936 293.775 152.563 293.775 152.104V151.032H291.615C291.21 151.032 290.884 151.149 290.639 151.384C290.394 151.619 290.271 151.928 290.271 152.312C290.271 152.728 290.41 153.059 290.687 153.304C290.975 153.539 291.364 153.656 291.855 153.656ZM297.545 155L300.617 150.456L297.753 146.2H300.009L301.369 148.36C301.454 148.488 301.529 148.632 301.593 148.792C301.667 148.952 301.726 149.08 301.769 149.176C301.811 149.08 301.87 148.952 301.945 148.792C302.019 148.632 302.094 148.488 302.169 148.36L303.545 146.2H305.801L302.937 150.456L305.993 155H303.721L302.201 152.584C302.115 152.445 302.035 152.296 301.961 152.136C301.886 151.976 301.822 151.848 301.769 151.752C301.726 151.848 301.667 151.976 301.593 152.136C301.518 152.296 301.438 152.445 301.353 152.584L299.801 155H297.545Z" fill="white"/>
<rect x="270" y="55" width="188" height="33" fill="#FF4C4C"/>
<path d="M321.648 77V65.32H323.648V75.144H328.608V77H321.648ZM334.394 77.16C333.935 77.16 333.567 77.0267 333.29 76.76C333.023 76.4933 332.89 76.1307 332.89 75.672C332.89 75.2133 333.023 74.8507 333.29 74.584C333.567 74.3067 333.935 74.168 334.394 74.168C334.852 74.168 335.215 74.3067 335.482 74.584C335.759 74.8507 335.898 75.2133 335.898 75.672C335.898 76.1307 335.759 76.4933 335.482 76.76C335.215 77.0267 334.852 77.16 334.394 77.16ZM343.652 77.144C342.98 77.144 342.393 77.0373 341.892 76.824C341.39 76.6107 340.996 76.3173 340.708 75.944C340.43 75.56 340.281 75.112 340.26 74.6H342.26C342.281 74.8773 342.414 75.1013 342.66 75.272C342.916 75.4427 343.246 75.528 343.652 75.528H344.356C344.846 75.528 345.214 75.432 345.46 75.24C345.705 75.048 345.828 74.7867 345.828 74.456C345.828 74.1467 345.716 73.9067 345.492 73.736C345.278 73.5547 344.942 73.4373 344.484 73.384L343.396 73.224C342.393 73.0853 341.657 72.8187 341.188 72.424C340.718 72.0293 340.484 71.4373 340.484 70.648C340.484 69.8267 340.761 69.192 341.316 68.744C341.87 68.2853 342.686 68.056 343.764 68.056H344.372C345.353 68.056 346.137 68.2747 346.724 68.712C347.31 69.1493 347.625 69.736 347.668 70.472H345.668C345.636 70.2373 345.502 70.0453 345.268 69.896C345.044 69.7467 344.745 69.672 344.372 69.672H343.764C343.305 69.672 342.969 69.7573 342.756 69.928C342.553 70.088 342.452 70.328 342.452 70.648C342.452 70.9467 342.542 71.1707 342.724 71.32C342.905 71.4587 343.198 71.56 343.604 71.624L344.74 71.784C345.785 71.9333 346.553 72.216 347.044 72.632C347.545 73.0373 347.796 73.64 347.796 74.44C347.796 75.2933 347.502 75.96 346.916 76.44C346.34 76.9093 345.486 77.144 344.356 77.144H343.652ZM353.581 77.16C352.461 77.16 351.581 76.8507 350.941 76.232C350.301 75.6027 349.981 74.7493 349.981 73.672V68.2H351.981V73.656C351.981 74.2213 352.12 74.6587 352.397 74.968C352.675 75.2667 353.069 75.416 353.581 75.416C354.083 75.416 354.472 75.2667 354.749 74.968C355.037 74.6587 355.181 74.2213 355.181 73.656V68.2H357.181V73.672C357.181 74.7493 356.856 75.6027 356.205 76.232C355.555 76.8507 354.68 77.16 353.581 77.16ZM361.655 77V70.984H359.239V69.176H361.655V67.848C361.655 67.08 361.911 66.4667 362.423 66.008C362.935 65.5493 363.612 65.32 364.455 65.32H367.031V67.08H364.503C364.247 67.08 364.039 67.1547 363.879 67.304C363.73 67.4427 363.655 67.6347 363.655 67.88V69.176H367.031V70.984H363.655V77H361.655ZM371.249 77V70.984H368.833V69.176H371.249V67.848C371.249 67.08 371.505 66.4667 372.017 66.008C372.529 65.5493 373.206 65.32 374.049 65.32H376.625V67.08H374.097C373.841 67.08 373.633 67.1547 373.473 67.304C373.323 67.4427 373.249 67.6347 373.249 67.88V69.176H376.625V70.984H373.249V77H371.249ZM378.395 77V68.2H380.027V69.384H380.363L380.091 69.672C380.091 69.1813 380.229 68.7867 380.507 68.488C380.784 68.1893 381.141 68.04 381.579 68.04C382.048 68.04 382.411 68.232 382.667 68.616C382.933 69 383.067 69.5173 383.067 70.168L382.715 69.384H383.259L383.051 69.672C383.051 69.1813 383.189 68.7867 383.467 68.488C383.744 68.1893 384.112 68.04 384.571 68.04C385.115 68.04 385.547 68.2427 385.867 68.648C386.187 69.0533 386.347 69.6027 386.347 70.296V77H384.587V70.376C384.587 70.088 384.523 69.864 384.395 69.704C384.267 69.5333 384.08 69.448 383.835 69.448C383.6 69.448 383.413 69.528 383.275 69.688C383.147 69.848 383.083 70.0773 383.083 70.376V77H381.643V70.376C381.643 70.0773 381.579 69.848 381.451 69.688C381.323 69.528 381.136 69.448 380.891 69.448C380.645 69.448 380.459 69.528 380.331 69.688C380.213 69.848 380.155 70.0773 380.155 70.376V77H378.395ZM390.98 77.16C390.074 77.16 389.359 76.92 388.836 76.44C388.314 75.96 388.052 75.3147 388.052 74.504C388.052 73.64 388.34 72.9733 388.916 72.504C389.492 72.0347 390.308 71.8 391.364 71.8H393.556V71.048C393.556 70.6213 393.418 70.2907 393.14 70.056C392.863 69.8107 392.484 69.688 392.004 69.688C391.567 69.688 391.204 69.784 390.916 69.976C390.628 70.168 390.458 70.4293 390.404 70.76H388.452C388.548 69.928 388.922 69.2667 389.572 68.776C390.223 68.2853 391.055 68.04 392.068 68.04C393.146 68.04 393.994 68.312 394.612 68.856C395.242 69.3893 395.556 70.1147 395.556 71.032V77H393.62V75.464H393.3L393.62 75.032C393.62 75.6827 393.38 76.2 392.9 76.584C392.42 76.968 391.78 77.16 390.98 77.16ZM391.636 75.656C392.202 75.656 392.66 75.512 393.012 75.224C393.375 74.936 393.556 74.5627 393.556 74.104V73.032H391.396C390.991 73.032 390.666 73.1493 390.42 73.384C390.175 73.6187 390.052 73.928 390.052 74.312C390.052 74.728 390.191 75.0587 390.468 75.304C390.756 75.5387 391.146 75.656 391.636 75.656ZM397.326 77L400.398 72.456L397.534 68.2H399.79L401.15 70.36C401.235 70.488 401.31 70.632 401.374 70.792C401.449 70.952 401.507 71.08 401.55 71.176C401.593 71.08 401.651 70.952 401.726 70.792C401.801 70.632 401.875 70.488 401.95 70.36L403.326 68.2H405.582L402.718 72.456L405.774 77H403.502L401.982 74.584C401.897 74.4453 401.817 74.296 401.742 74.136C401.667 73.976 401.603 73.848 401.55 73.752C401.507 73.848 401.449 73.976 401.374 74.136C401.299 74.296 401.219 74.4453 401.134 74.584L399.582 77H397.326Z" fill="white"/>
<rect x="483" y="55" width="215" height="33" fill="#FF4C4C"/>
<path d="M548.216 77V65.32H551.912C552.691 65.32 553.363 65.464 553.928 65.752C554.504 66.04 554.952 66.4453 555.272 66.968C555.592 67.48 555.752 68.088 555.752 68.792C555.752 69.56 555.555 70.2373 555.16 70.824C554.776 71.4107 554.253 71.8267 553.592 72.072L555.912 77H553.672L551.64 72.36H550.216V77H548.216ZM550.216 70.6H551.912C552.477 70.6 552.92 70.4453 553.24 70.136C553.56 69.8267 553.72 69.4 553.72 68.856C553.72 68.3013 553.56 67.8693 553.24 67.56C552.92 67.24 552.477 67.08 551.912 67.08H550.216V70.6ZM561.394 77.16C560.935 77.16 560.567 77.0267 560.29 76.76C560.023 76.4933 559.89 76.1307 559.89 75.672C559.89 75.2133 560.023 74.8507 560.29 74.584C560.567 74.3067 560.935 74.168 561.394 74.168C561.852 74.168 562.215 74.3067 562.482 74.584C562.759 74.8507 562.898 75.2133 562.898 75.672C562.898 76.1307 562.759 76.4933 562.482 76.76C562.215 77.0267 561.852 77.16 561.394 77.16ZM567.42 79.88V68.2H569.372V69.88H569.82L569.372 70.344C569.372 69.6293 569.585 69.0693 570.012 68.664C570.438 68.248 571.014 68.04 571.74 68.04C572.625 68.04 573.334 68.344 573.868 68.952C574.401 69.56 574.668 70.376 574.668 71.4V73.784C574.668 74.4667 574.545 75.064 574.3 75.576C574.065 76.0773 573.729 76.4667 573.292 76.744C572.854 77.0213 572.337 77.16 571.74 77.16C571.014 77.16 570.438 76.9573 570.012 76.552C569.585 76.136 569.372 75.5707 569.372 74.856L569.82 75.32H569.356L569.42 77.416V79.88H567.42ZM571.036 75.432C571.548 75.432 571.948 75.2827 572.236 74.984C572.524 74.6853 572.668 74.2587 572.668 73.704V71.496C572.668 70.9413 572.524 70.5147 572.236 70.216C571.948 69.9173 571.548 69.768 571.036 69.768C570.534 69.768 570.14 69.9227 569.852 70.232C569.564 70.5307 569.42 70.952 569.42 71.496V73.704C569.42 74.248 569.564 74.6747 569.852 74.984C570.14 75.2827 570.534 75.432 571.036 75.432ZM577.285 77V68.2H579.173V69.88H579.669L579.077 70.904C579.077 69.9547 579.291 69.24 579.717 68.76C580.144 68.28 580.773 68.04 581.605 68.04C582.555 68.04 583.301 68.3333 583.845 68.92C584.389 69.5067 584.661 70.3173 584.661 71.352V71.992H582.565V71.496C582.565 70.9307 582.416 70.4933 582.117 70.184C581.829 69.8747 581.429 69.72 580.917 69.72C580.395 69.72 579.989 69.8747 579.701 70.184C579.424 70.4933 579.285 70.9307 579.285 71.496V77H577.285ZM590.191 77.16C589.444 77.16 588.794 77.016 588.239 76.728C587.684 76.44 587.252 76.04 586.943 75.528C586.644 75.0053 586.495 74.3973 586.495 73.704V71.496C586.495 70.8027 586.644 70.2 586.943 69.688C587.252 69.1653 587.684 68.76 588.239 68.472C588.794 68.184 589.444 68.04 590.191 68.04C590.927 68.04 591.567 68.184 592.111 68.472C592.666 68.76 593.092 69.1653 593.391 69.688C593.7 70.2 593.855 70.8027 593.855 71.496V73.08H588.431V73.704C588.431 74.3227 588.58 74.792 588.879 75.112C589.178 75.4213 589.62 75.576 590.207 75.576C590.655 75.576 591.018 75.5013 591.295 75.352C591.572 75.192 591.748 74.9627 591.823 74.664H593.791C593.642 75.4213 593.236 76.0293 592.575 76.488C591.924 76.936 591.13 77.16 590.191 77.16ZM591.919 71.96V71.48C591.919 70.872 591.775 70.408 591.487 70.088C591.199 69.7573 590.767 69.592 590.191 69.592C589.615 69.592 589.178 69.7573 588.879 70.088C588.58 70.4187 588.431 70.888 588.431 71.496V71.832L592.063 71.8L591.919 71.96ZM598.249 77V70.984H595.833V69.176H598.249V67.848C598.249 67.08 598.505 66.4667 599.017 66.008C599.529 65.5493 600.206 65.32 601.049 65.32H603.625V67.08H601.097C600.841 67.08 600.633 67.1547 600.473 67.304C600.323 67.4427 600.249 67.6347 600.249 67.88V69.176H603.625V70.984H600.249V77H598.249ZM605.395 77V68.2H607.027V69.384H607.363L607.091 69.672C607.091 69.1813 607.229 68.7867 607.507 68.488C607.784 68.1893 608.141 68.04 608.579 68.04C609.048 68.04 609.411 68.232 609.667 68.616C609.933 69 610.067 69.5173 610.067 70.168L609.715 69.384H610.259L610.051 69.672C610.051 69.1813 610.189 68.7867 610.467 68.488C610.744 68.1893 611.112 68.04 611.571 68.04C612.115 68.04 612.547 68.2427 612.867 68.648C613.187 69.0533 613.347 69.6027 613.347 70.296V77H611.587V70.376C611.587 70.088 611.523 69.864 611.395 69.704C611.267 69.5333 611.08 69.448 610.835 69.448C610.6 69.448 610.413 69.528 610.275 69.688C610.147 69.848 610.083 70.0773 610.083 70.376V77H608.643V70.376C608.643 70.0773 608.579 69.848 608.451 69.688C608.323 69.528 608.136 69.448 607.891 69.448C607.645 69.448 607.459 69.528 607.331 69.688C607.213 69.848 607.155 70.0773 607.155 70.376V77H605.395ZM617.98 77.16C617.074 77.16 616.359 76.92 615.836 76.44C615.314 75.96 615.052 75.3147 615.052 74.504C615.052 73.64 615.34 72.9733 615.916 72.504C616.492 72.0347 617.308 71.8 618.364 71.8H620.556V71.048C620.556 70.6213 620.418 70.2907 620.14 70.056C619.863 69.8107 619.484 69.688 619.004 69.688C618.567 69.688 618.204 69.784 617.916 69.976C617.628 70.168 617.458 70.4293 617.404 70.76H615.452C615.548 69.928 615.922 69.2667 616.572 68.776C617.223 68.2853 618.055 68.04 619.068 68.04C620.146 68.04 620.994 68.312 621.612 68.856C622.242 69.3893 622.556 70.1147 622.556 71.032V77H620.62V75.464H620.3L620.62 75.032C620.62 75.6827 620.38 76.2 619.9 76.584C619.42 76.968 618.78 77.16 617.98 77.16ZM618.636 75.656C619.202 75.656 619.66 75.512 620.012 75.224C620.375 74.936 620.556 74.5627 620.556 74.104V73.032H618.396C617.991 73.032 617.666 73.1493 617.42 73.384C617.175 73.6187 617.052 73.928 617.052 74.312C617.052 74.728 617.191 75.0587 617.468 75.304C617.756 75.5387 618.146 75.656 618.636 75.656ZM624.326 77L627.398 72.456L624.534 68.2H626.79L628.15 70.36C628.235 70.488 628.31 70.632 628.374 70.792C628.449 70.952 628.507 71.08 628.55 71.176C628.593 71.08 628.651 70.952 628.726 70.792C628.801 70.632 628.875 70.488 628.95 70.36L630.326 68.2H632.582L629.718 72.456L632.774 77H630.502L628.982 74.584C628.897 74.4453 628.817 74.296 628.742 74.136C628.667 73.976 628.603 73.848 628.55 73.752C628.507 73.848 628.449 73.976 628.374 74.136C628.299 74.296 628.219 74.4453 628.134 74.584L626.582 77H624.326Z" fill="white"/>
<rect x="621" y="133" width="134" height="33" fill="#6A5ACD"/>
<path d="M660.216 155V143.32H663.912C664.691 143.32 665.363 143.464 665.928 143.752C666.504 144.04 666.952 144.445 667.272 144.968C667.592 145.48 667.752 146.088 667.752 146.792C667.752 147.56 667.555 148.237 667.16 148.824C666.776 149.411 666.253 149.827 665.592 150.072L667.912 155H665.672L663.64 150.36H662.216V155H660.216ZM662.216 148.6H663.912C664.477 148.6 664.92 148.445 665.24 148.136C665.56 147.827 665.72 147.4 665.72 146.856C665.72 146.301 665.56 145.869 665.24 145.56C664.92 145.24 664.477 145.08 663.912 145.08H662.216V148.6ZM673.394 155.16C672.935 155.16 672.567 155.027 672.29 154.76C672.023 154.493 671.89 154.131 671.89 153.672C671.89 153.213 672.023 152.851 672.29 152.584C672.567 152.307 672.935 152.168 673.394 152.168C673.852 152.168 674.215 152.307 674.482 152.584C674.759 152.851 674.898 153.213 674.898 153.672C674.898 154.131 674.759 154.493 674.482 154.76C674.215 155.027 673.852 155.16 673.394 155.16ZM682.652 155.144C681.98 155.144 681.393 155.037 680.892 154.824C680.39 154.611 679.996 154.317 679.708 153.944C679.43 153.56 679.281 153.112 679.26 152.6H681.26C681.281 152.877 681.414 153.101 681.66 153.272C681.916 153.443 682.246 153.528 682.652 153.528H683.356C683.846 153.528 684.214 153.432 684.46 153.24C684.705 153.048 684.828 152.787 684.828 152.456C684.828 152.147 684.716 151.907 684.492 151.736C684.278 151.555 683.942 151.437 683.484 151.384L682.396 151.224C681.393 151.085 680.657 150.819 680.188 150.424C679.718 150.029 679.484 149.437 679.484 148.648C679.484 147.827 679.761 147.192 680.316 146.744C680.87 146.285 681.686 146.056 682.764 146.056H683.372C684.353 146.056 685.137 146.275 685.724 146.712C686.31 147.149 686.625 147.736 686.668 148.472H684.668C684.636 148.237 684.502 148.045 684.268 147.896C684.044 147.747 683.745 147.672 683.372 147.672H682.764C682.305 147.672 681.969 147.757 681.756 147.928C681.553 148.088 681.452 148.328 681.452 148.648C681.452 148.947 681.542 149.171 681.724 149.32C681.905 149.459 682.198 149.56 682.604 149.624L683.74 149.784C684.785 149.933 685.553 150.216 686.044 150.632C686.545 151.037 686.796 151.64 686.796 152.44C686.796 153.293 686.502 153.96 685.916 154.44C685.34 154.909 684.486 155.144 683.356 155.144H682.652ZM688.613 155V146.2H690.245V147.384H690.581L690.309 147.672C690.309 147.181 690.448 146.787 690.725 146.488C691.003 146.189 691.36 146.04 691.797 146.04C692.267 146.04 692.629 146.232 692.885 146.616C693.152 147 693.285 147.517 693.285 148.168L692.933 147.384H693.477L693.269 147.672C693.269 147.181 693.408 146.787 693.685 146.488C693.963 146.189 694.331 146.04 694.789 146.04C695.333 146.04 695.765 146.243 696.085 146.648C696.405 147.053 696.565 147.603 696.565 148.296V155H694.805V148.376C694.805 148.088 694.741 147.864 694.613 147.704C694.485 147.533 694.299 147.448 694.053 147.448C693.819 147.448 693.632 147.528 693.493 147.688C693.365 147.848 693.301 148.077 693.301 148.376V155H691.861V148.376C691.861 148.077 691.797 147.848 691.669 147.688C691.541 147.528 691.355 147.448 691.109 147.448C690.864 147.448 690.677 147.528 690.549 147.688C690.432 147.848 690.373 148.077 690.373 148.376V155H688.613ZM701.199 155.16C700.292 155.16 699.578 154.92 699.055 154.44C698.532 153.96 698.271 153.315 698.271 152.504C698.271 151.64 698.559 150.973 699.135 150.504C699.711 150.035 700.527 149.8 701.583 149.8H703.775V149.048C703.775 148.621 703.636 148.291 703.359 148.056C703.082 147.811 702.703 147.688 702.223 147.688C701.786 147.688 701.423 147.784 701.135 147.976C700.847 148.168 700.676 148.429 700.623 148.76H698.671C698.767 147.928 699.14 147.267 699.791 146.776C700.442 146.285 701.274 146.04 702.287 146.04C703.364 146.04 704.212 146.312 704.831 146.856C705.46 147.389 705.775 148.115 705.775 149.032V155H703.839V153.464H703.519L703.839 153.032C703.839 153.683 703.599 154.2 703.119 154.584C702.639 154.968 701.999 155.16 701.199 155.16ZM701.855 153.656C702.42 153.656 702.879 153.512 703.231 153.224C703.594 152.936 703.775 152.563 703.775 152.104V151.032H701.615C701.21 151.032 700.884 151.149 700.639 151.384C700.394 151.619 700.271 151.928 700.271 152.312C700.271 152.728 700.41 153.059 700.687 153.304C700.975 153.539 701.364 153.656 701.855 153.656ZM707.545 155L710.617 150.456L707.753 146.2H710.009L711.369 148.36C711.454 148.488 711.529 148.632 711.593 148.792C711.667 148.952 711.726 149.08 711.769 149.176C711.811 149.08 711.87 148.952 711.945 148.792C712.019 148.632 712.094 148.488 712.169 148.36L713.545 146.2H715.801L712.937 150.456L715.993 155H713.721L712.201 152.584C712.115 152.445 712.035 152.296 711.961 152.136C711.886 151.976 711.822 151.848 711.769 151.752C711.726 151.848 711.667 151.976 711.593 152.136C711.518 152.296 711.438 152.445 711.353 152.584L709.801 155H707.545Z" fill="white"/>
</svg>
