<svg width="940" height="222" viewBox="0 0 940 222" fill="none" xmlns="http://www.w3.org/2000/svg">
<rect x="42" y="126" width="416" height="48" rx="3" fill="#D1D1E5"/>
<rect x="42" y="48" width="416" height="48" rx="3" fill="#D1D1E5"/>
<rect x="483" y="126" width="415" height="48" rx="3" fill="#D1D1E5"/>
<rect x="483" y="48" width="415" height="48" rx="3" fill="#D1D1E5"/>
<rect x="54" y="133" width="391" height="33" fill="#FDFF97"/>
<path d="M219.648 155V143.32H221.648V153.144H226.608V155H219.648ZM232.394 155.16C231.935 155.16 231.567 155.027 231.29 154.76C231.023 154.493 230.89 154.131 230.89 153.672C230.89 153.213 231.023 152.851 231.29 152.584C231.567 152.307 231.935 152.168 232.394 152.168C232.852 152.168 233.215 152.307 233.482 152.584C233.759 152.851 233.898 153.213 233.898 153.672C233.898 154.131 233.759 154.493 233.482 154.76C233.215 155.027 232.852 155.16 232.394 155.16ZM241.652 155.144C240.98 155.144 240.393 155.037 239.892 154.824C239.39 154.611 238.996 154.317 238.708 153.944C238.43 153.56 238.281 153.112 238.26 152.6H240.26C240.281 152.877 240.414 153.101 240.66 153.272C240.916 153.443 241.246 153.528 241.652 153.528H242.356C242.846 153.528 243.214 153.432 243.46 153.24C243.705 153.048 243.828 152.787 243.828 152.456C243.828 152.147 243.716 151.907 243.492 151.736C243.278 151.555 242.942 151.437 242.484 151.384L241.396 151.224C240.393 151.085 239.657 150.819 239.188 150.424C238.718 150.029 238.484 149.437 238.484 148.648C238.484 147.827 238.761 147.192 239.316 146.744C239.87 146.285 240.686 146.056 241.764 146.056H242.372C243.353 146.056 244.137 146.275 244.724 146.712C245.31 147.149 245.625 147.736 245.668 148.472H243.668C243.636 148.237 243.502 148.045 243.268 147.896C243.044 147.747 242.745 147.672 242.372 147.672H241.764C241.305 147.672 240.969 147.757 240.756 147.928C240.553 148.088 240.452 148.328 240.452 148.648C240.452 148.947 240.542 149.171 240.724 149.32C240.905 149.459 241.198 149.56 241.604 149.624L242.74 149.784C243.785 149.933 244.553 150.216 245.044 150.632C245.545 151.037 245.796 151.64 245.796 152.44C245.796 153.293 245.502 153.96 244.916 154.44C244.34 154.909 243.486 155.144 242.356 155.144H241.652ZM251.581 155.16C250.461 155.16 249.581 154.851 248.941 154.232C248.301 153.603 247.981 152.749 247.981 151.672V146.2H249.981V151.656C249.981 152.221 250.12 152.659 250.397 152.968C250.675 153.267 251.069 153.416 251.581 153.416C252.083 153.416 252.472 153.267 252.749 152.968C253.037 152.659 253.181 152.221 253.181 151.656V146.2H255.181V151.672C255.181 152.749 254.856 153.603 254.205 154.232C253.555 154.851 252.68 155.16 251.581 155.16ZM257.207 155V146.2H258.839V147.384H259.175L258.903 147.672C258.903 147.181 259.042 146.787 259.319 146.488C259.596 146.189 259.954 146.04 260.391 146.04C260.86 146.04 261.223 146.232 261.479 146.616C261.746 147 261.879 147.517 261.879 148.168L261.527 147.384H262.071L261.863 147.672C261.863 147.181 262.002 146.787 262.279 146.488C262.556 146.189 262.924 146.04 263.383 146.04C263.927 146.04 264.359 146.243 264.679 146.648C264.999 147.053 265.159 147.603 265.159 148.296V155H263.399V148.376C263.399 148.088 263.335 147.864 263.207 147.704C263.079 147.533 262.892 147.448 262.647 147.448C262.412 147.448 262.226 147.528 262.087 147.688C261.959 147.848 261.895 148.077 261.895 148.376V155H260.455V148.376C260.455 148.077 260.391 147.848 260.263 147.688C260.135 147.528 259.948 147.448 259.703 147.448C259.458 147.448 259.271 147.528 259.143 147.688C259.026 147.848 258.967 148.077 258.967 148.376V155H257.207ZM269.793 155.16C268.886 155.16 268.171 154.92 267.649 154.44C267.126 153.96 266.865 153.315 266.865 152.504C266.865 151.64 267.153 150.973 267.729 150.504C268.305 150.035 269.121 149.8 270.177 149.8H272.369V149.048C272.369 148.621 272.23 148.291 271.953 148.056C271.675 147.811 271.297 147.688 270.817 147.688C270.379 147.688 270.017 147.784 269.729 147.976C269.441 148.168 269.27 148.429 269.217 148.76H267.265C267.361 147.928 267.734 147.267 268.385 146.776C269.035 146.285 269.867 146.04 270.881 146.04C271.958 146.04 272.806 146.312 273.425 146.856C274.054 147.389 274.369 148.115 274.369 149.032V155H272.433V153.464H272.113L272.433 153.032C272.433 153.683 272.193 154.2 271.713 154.584C271.233 154.968 270.593 155.16 269.793 155.16ZM270.449 153.656C271.014 153.656 271.473 153.512 271.825 153.224C272.187 152.936 272.369 152.563 272.369 152.104V151.032H270.209C269.803 151.032 269.478 151.149 269.233 151.384C268.987 151.619 268.865 151.928 268.865 152.312C268.865 152.728 269.003 153.059 269.281 153.304C269.569 153.539 269.958 153.656 270.449 153.656Z" fill="#4A4848"/>
<rect x="496" y="133" width="202" height="33" fill="#FF4C4C"/>
<path d="M550.216 155V143.32H553.912C554.691 143.32 555.363 143.464 555.928 143.752C556.504 144.04 556.952 144.445 557.272 144.968C557.592 145.48 557.752 146.088 557.752 146.792C557.752 147.56 557.555 148.237 557.16 148.824C556.776 149.411 556.253 149.827 555.592 150.072L557.912 155H555.672L553.64 150.36H552.216V155H550.216ZM552.216 148.6H553.912C554.477 148.6 554.92 148.445 555.24 148.136C555.56 147.827 555.72 147.4 555.72 146.856C555.72 146.301 555.56 145.869 555.24 145.56C554.92 145.24 554.477 145.08 553.912 145.08H552.216V148.6ZM563.394 155.16C562.935 155.16 562.567 155.027 562.29 154.76C562.023 154.493 561.89 154.131 561.89 153.672C561.89 153.213 562.023 152.851 562.29 152.584C562.567 152.307 562.935 152.168 563.394 152.168C563.852 152.168 564.215 152.307 564.482 152.584C564.759 152.851 564.898 153.213 564.898 153.672C564.898 154.131 564.759 154.493 564.482 154.76C564.215 155.027 563.852 155.16 563.394 155.16ZM569.42 157.88V146.2H571.372V147.88H571.82L571.372 148.344C571.372 147.629 571.585 147.069 572.012 146.664C572.438 146.248 573.014 146.04 573.74 146.04C574.625 146.04 575.334 146.344 575.868 146.952C576.401 147.56 576.668 148.376 576.668 149.4V151.784C576.668 152.467 576.545 153.064 576.3 153.576C576.065 154.077 575.729 154.467 575.292 154.744C574.854 155.021 574.337 155.16 573.74 155.16C573.014 155.16 572.438 154.957 572.012 154.552C571.585 154.136 571.372 153.571 571.372 152.856L571.82 153.32H571.356L571.42 155.416V157.88H569.42ZM573.036 153.432C573.548 153.432 573.948 153.283 574.236 152.984C574.524 152.685 574.668 152.259 574.668 151.704V149.496C574.668 148.941 574.524 148.515 574.236 148.216C573.948 147.917 573.548 147.768 573.036 147.768C572.534 147.768 572.14 147.923 571.852 148.232C571.564 148.531 571.42 148.952 571.42 149.496V151.704C571.42 152.248 571.564 152.675 571.852 152.984C572.14 153.283 572.534 153.432 573.036 153.432ZM579.285 155V146.2H581.173V147.88H581.669L581.077 148.904C581.077 147.955 581.291 147.24 581.717 146.76C582.144 146.28 582.773 146.04 583.605 146.04C584.555 146.04 585.301 146.333 585.845 146.92C586.389 147.507 586.661 148.317 586.661 149.352V149.992H584.565V149.496C584.565 148.931 584.416 148.493 584.117 148.184C583.829 147.875 583.429 147.72 582.917 147.72C582.395 147.72 581.989 147.875 581.701 148.184C581.424 148.493 581.285 148.931 581.285 149.496V155H579.285ZM592.191 155.16C591.444 155.16 590.794 155.016 590.239 154.728C589.684 154.44 589.252 154.04 588.943 153.528C588.644 153.005 588.495 152.397 588.495 151.704V149.496C588.495 148.803 588.644 148.2 588.943 147.688C589.252 147.165 589.684 146.76 590.239 146.472C590.794 146.184 591.444 146.04 592.191 146.04C592.927 146.04 593.567 146.184 594.111 146.472C594.666 146.76 595.092 147.165 595.391 147.688C595.7 148.2 595.855 148.803 595.855 149.496V151.08H590.431V151.704C590.431 152.323 590.58 152.792 590.879 153.112C591.178 153.421 591.62 153.576 592.207 153.576C592.655 153.576 593.018 153.501 593.295 153.352C593.572 153.192 593.748 152.963 593.823 152.664H595.791C595.642 153.421 595.236 154.029 594.575 154.488C593.924 154.936 593.13 155.16 592.191 155.16ZM593.919 149.96V149.48C593.919 148.872 593.775 148.408 593.487 148.088C593.199 147.757 592.767 147.592 592.191 147.592C591.615 147.592 591.178 147.757 590.879 148.088C590.58 148.419 590.431 148.888 590.431 149.496V149.832L594.063 149.8L593.919 149.96ZM600.249 155V148.984H597.833V147.176H600.249V145.848C600.249 145.08 600.505 144.467 601.017 144.008C601.529 143.549 602.206 143.32 603.049 143.32H605.625V145.08H603.097C602.841 145.08 602.633 145.155 602.473 145.304C602.323 145.443 602.249 145.635 602.249 145.88V147.176H605.625V148.984H602.249V155H600.249ZM607.395 155V146.2H609.027V147.384H609.363L609.091 147.672C609.091 147.181 609.229 146.787 609.507 146.488C609.784 146.189 610.141 146.04 610.579 146.04C611.048 146.04 611.411 146.232 611.667 146.616C611.933 147 612.067 147.517 612.067 148.168L611.715 147.384H612.259L612.051 147.672C612.051 147.181 612.189 146.787 612.467 146.488C612.744 146.189 613.112 146.04 613.571 146.04C614.115 146.04 614.547 146.243 614.867 146.648C615.187 147.053 615.347 147.603 615.347 148.296V155H613.587V148.376C613.587 148.088 613.523 147.864 613.395 147.704C613.267 147.533 613.08 147.448 612.835 147.448C612.6 147.448 612.413 147.528 612.275 147.688C612.147 147.848 612.083 148.077 612.083 148.376V155H610.643V148.376C610.643 148.077 610.579 147.848 610.451 147.688C610.323 147.528 610.136 147.448 609.891 147.448C609.645 147.448 609.459 147.528 609.331 147.688C609.213 147.848 609.155 148.077 609.155 148.376V155H607.395ZM619.98 155.16C619.074 155.16 618.359 154.92 617.836 154.44C617.314 153.96 617.052 153.315 617.052 152.504C617.052 151.64 617.34 150.973 617.916 150.504C618.492 150.035 619.308 149.8 620.364 149.8H622.556V149.048C622.556 148.621 622.418 148.291 622.14 148.056C621.863 147.811 621.484 147.688 621.004 147.688C620.567 147.688 620.204 147.784 619.916 147.976C619.628 148.168 619.458 148.429 619.404 148.76H617.452C617.548 147.928 617.922 147.267 618.572 146.776C619.223 146.285 620.055 146.04 621.068 146.04C622.146 146.04 622.994 146.312 623.612 146.856C624.242 147.389 624.556 148.115 624.556 149.032V155H622.62V153.464H622.3L622.62 153.032C622.62 153.683 622.38 154.2 621.9 154.584C621.42 154.968 620.78 155.16 619.98 155.16ZM620.636 153.656C621.202 153.656 621.66 153.512 622.012 153.224C622.375 152.936 622.556 152.563 622.556 152.104V151.032H620.396C619.991 151.032 619.666 151.149 619.42 151.384C619.175 151.619 619.052 151.928 619.052 152.312C619.052 152.728 619.191 153.059 619.468 153.304C619.756 153.539 620.146 153.656 620.636 153.656ZM626.326 155L629.398 150.456L626.534 146.2H628.79L630.15 148.36C630.235 148.488 630.31 148.632 630.374 148.792C630.449 148.952 630.507 149.08 630.55 149.176C630.593 149.08 630.651 148.952 630.726 148.792C630.801 148.632 630.875 148.488 630.95 148.36L632.326 146.2H634.582L631.718 150.456L634.774 155H632.502L630.982 152.584C630.897 152.445 630.817 152.296 630.742 152.136C630.667 151.976 630.603 151.848 630.55 151.752C630.507 151.848 630.449 151.976 630.374 152.136C630.299 152.296 630.219 152.445 630.134 152.584L628.582 155H626.326Z" fill="white"/>
<rect x="54" y="55" width="202" height="33" fill="#FF4C4C"/>
<path d="M108.648 77V65.32H110.648V75.144H115.608V77H108.648ZM121.394 77.16C120.935 77.16 120.567 77.0267 120.29 76.76C120.023 76.4933 119.89 76.1307 119.89 75.672C119.89 75.2133 120.023 74.8507 120.29 74.584C120.567 74.3067 120.935 74.168 121.394 74.168C121.852 74.168 122.215 74.3067 122.482 74.584C122.759 74.8507 122.898 75.2133 122.898 75.672C122.898 76.1307 122.759 76.4933 122.482 76.76C122.215 77.0267 121.852 77.16 121.394 77.16ZM127.42 79.88V68.2H129.372V69.88H129.82L129.372 70.344C129.372 69.6293 129.585 69.0693 130.012 68.664C130.438 68.248 131.014 68.04 131.74 68.04C132.625 68.04 133.334 68.344 133.868 68.952C134.401 69.56 134.668 70.376 134.668 71.4V73.784C134.668 74.4667 134.545 75.064 134.3 75.576C134.065 76.0773 133.729 76.4667 133.292 76.744C132.854 77.0213 132.337 77.16 131.74 77.16C131.014 77.16 130.438 76.9573 130.012 76.552C129.585 76.136 129.372 75.5707 129.372 74.856L129.82 75.32H129.356L129.42 77.416V79.88H127.42ZM131.036 75.432C131.548 75.432 131.948 75.2827 132.236 74.984C132.524 74.6853 132.668 74.2587 132.668 73.704V71.496C132.668 70.9413 132.524 70.5147 132.236 70.216C131.948 69.9173 131.548 69.768 131.036 69.768C130.534 69.768 130.14 69.9227 129.852 70.232C129.564 70.5307 129.42 70.952 129.42 71.496V73.704C129.42 74.248 129.564 74.6747 129.852 74.984C130.14 75.2827 130.534 75.432 131.036 75.432ZM137.285 77V68.2H139.173V69.88H139.669L139.077 70.904C139.077 69.9547 139.291 69.24 139.717 68.76C140.144 68.28 140.773 68.04 141.605 68.04C142.555 68.04 143.301 68.3333 143.845 68.92C144.389 69.5067 144.661 70.3173 144.661 71.352V71.992H142.565V71.496C142.565 70.9307 142.416 70.4933 142.117 70.184C141.829 69.8747 141.429 69.72 140.917 69.72C140.395 69.72 139.989 69.8747 139.701 70.184C139.424 70.4933 139.285 70.9307 139.285 71.496V77H137.285ZM150.191 77.16C149.444 77.16 148.794 77.016 148.239 76.728C147.684 76.44 147.252 76.04 146.943 75.528C146.644 75.0053 146.495 74.3973 146.495 73.704V71.496C146.495 70.8027 146.644 70.2 146.943 69.688C147.252 69.1653 147.684 68.76 148.239 68.472C148.794 68.184 149.444 68.04 150.191 68.04C150.927 68.04 151.567 68.184 152.111 68.472C152.666 68.76 153.092 69.1653 153.391 69.688C153.7 70.2 153.855 70.8027 153.855 71.496V73.08H148.431V73.704C148.431 74.3227 148.58 74.792 148.879 75.112C149.178 75.4213 149.62 75.576 150.207 75.576C150.655 75.576 151.018 75.5013 151.295 75.352C151.572 75.192 151.748 74.9627 151.823 74.664H153.791C153.642 75.4213 153.236 76.0293 152.575 76.488C151.924 76.936 151.13 77.16 150.191 77.16ZM151.919 71.96V71.48C151.919 70.872 151.775 70.408 151.487 70.088C151.199 69.7573 150.767 69.592 150.191 69.592C149.615 69.592 149.178 69.7573 148.879 70.088C148.58 70.4187 148.431 70.888 148.431 71.496V71.832L152.063 71.8L151.919 71.96ZM158.249 77V70.984H155.833V69.176H158.249V67.848C158.249 67.08 158.505 66.4667 159.017 66.008C159.529 65.5493 160.206 65.32 161.049 65.32H163.625V67.08H161.097C160.841 67.08 160.633 67.1547 160.473 67.304C160.323 67.4427 160.249 67.6347 160.249 67.88V69.176H163.625V70.984H160.249V77H158.249ZM165.395 77V68.2H167.027V69.384H167.363L167.091 69.672C167.091 69.1813 167.229 68.7867 167.507 68.488C167.784 68.1893 168.141 68.04 168.579 68.04C169.048 68.04 169.411 68.232 169.667 68.616C169.933 69 170.067 69.5173 170.067 70.168L169.715 69.384H170.259L170.051 69.672C170.051 69.1813 170.189 68.7867 170.467 68.488C170.744 68.1893 171.112 68.04 171.571 68.04C172.115 68.04 172.547 68.2427 172.867 68.648C173.187 69.0533 173.347 69.6027 173.347 70.296V77H171.587V70.376C171.587 70.088 171.523 69.864 171.395 69.704C171.267 69.5333 171.08 69.448 170.835 69.448C170.6 69.448 170.413 69.528 170.275 69.688C170.147 69.848 170.083 70.0773 170.083 70.376V77H168.643V70.376C168.643 70.0773 168.579 69.848 168.451 69.688C168.323 69.528 168.136 69.448 167.891 69.448C167.645 69.448 167.459 69.528 167.331 69.688C167.213 69.848 167.155 70.0773 167.155 70.376V77H165.395ZM177.98 77.16C177.074 77.16 176.359 76.92 175.836 76.44C175.314 75.96 175.052 75.3147 175.052 74.504C175.052 73.64 175.34 72.9733 175.916 72.504C176.492 72.0347 177.308 71.8 178.364 71.8H180.556V71.048C180.556 70.6213 180.418 70.2907 180.14 70.056C179.863 69.8107 179.484 69.688 179.004 69.688C178.567 69.688 178.204 69.784 177.916 69.976C177.628 70.168 177.458 70.4293 177.404 70.76H175.452C175.548 69.928 175.922 69.2667 176.572 68.776C177.223 68.2853 178.055 68.04 179.068 68.04C180.146 68.04 180.994 68.312 181.612 68.856C182.242 69.3893 182.556 70.1147 182.556 71.032V77H180.62V75.464H180.3L180.62 75.032C180.62 75.6827 180.38 76.2 179.9 76.584C179.42 76.968 178.78 77.16 177.98 77.16ZM178.636 75.656C179.202 75.656 179.66 75.512 180.012 75.224C180.375 74.936 180.556 74.5627 180.556 74.104V73.032H178.396C177.991 73.032 177.666 73.1493 177.42 73.384C177.175 73.6187 177.052 73.928 177.052 74.312C177.052 74.728 177.191 75.0587 177.468 75.304C177.756 75.5387 178.146 75.656 178.636 75.656ZM184.326 77L187.398 72.456L184.534 68.2H186.79L188.15 70.36C188.235 70.488 188.31 70.632 188.374 70.792C188.449 70.952 188.507 71.08 188.55 71.176C188.593 71.08 188.651 70.952 188.726 70.792C188.801 70.632 188.875 70.488 188.95 70.36L190.326 68.2H192.582L189.718 72.456L192.774 77H190.502L188.982 74.584C188.897 74.4453 188.817 74.296 188.742 74.136C188.667 73.976 188.603 73.848 188.55 73.752C188.507 73.848 188.449 73.976 188.374 74.136C188.299 74.296 188.219 74.4453 188.134 74.584L186.582 77H184.326Z" fill="white"/>
</svg>
